<?xml version="1.0" encoding="UTF-8"?>
<svg version="1.1" xmlns="http://www.w3.org/2000/svg" width="225" height="225">
<path d="M0 0 C74.25 0 148.5 0 225 0 C225 74.25 225 148.5 225 225 C150.75 225 76.5 225 0 225 C0 150.75 0 76.5 0 0 Z " fill="#FEFEFE" transform="translate(0,0)"/>
<path d="M0 0 C5.94 0 11.88 0 18 0 C18 13.86 18 27.72 18 42 C15.93772208 39.93772208 15.34064249 38.69712842 14.30078125 36.02734375 C13.98181885 35.21773193 13.66285645 34.40812012 13.33422852 33.57397461 C12.99705811 32.70393799 12.6598877 31.83390137 12.3125 30.9375 C11.59976429 29.12468292 10.88620715 27.3121886 10.171875 25.5 C9.81158203 24.58347656 9.45128906 23.66695312 9.08007812 22.72265625 C7.16353796 17.89145012 5.16728865 13.09341069 3.17114258 8.29467773 C2.03205951 5.54743766 0.94089026 2.82267077 0 0 Z " fill="#E5190C" transform="translate(61,91)"/>
<path d="M0 0 C5.61 0 11.22 0 17 0 C14.34134037 8.59025405 10.81853628 16.79429438 7.3125 25.0625 C6.69956186 26.51484404 6.08692914 27.96731702 5.47460938 29.41992188 C3.98659023 32.94811109 2.49444799 36.47452935 1 40 C0.67 40 0.34 40 0 40 C0 26.8 0 13.6 0 0 Z " fill="#E60D02" transform="translate(31,92)"/>
<path d="M0 0 C1.98 0 3.96 0 6 0 C6 8.58 6 17.16 6 26 C1.90037391 27.02490652 -1.81778309 27.7039375 -6 27 C-9.13836313 24.97314048 -10.65870267 23.54702808 -11.4765625 19.83984375 C-11.74773054 15.56537905 -11.35947557 13.51806773 -8.875 9.9375 C-5.57683856 7.71482599 -3.89503578 7.54708886 0 8 C0 5.36 0 2.72 0 0 Z " fill="#E70400" transform="translate(129,99)"/>
<path d="M0 0 C1.65 0 3.3 0 5 0 C6 1 6 1 6.0625 4.5625 C6.041875 5.696875 6.02125 6.83125 6 8 C7.3303125 7.87625 7.3303125 7.87625 8.6875 7.75 C12 8 12 8 14.875 9.4375 C17.56425667 12.68042716 17.73778286 14.68213605 17.47265625 18.80859375 C16.66348745 22.56019457 15.17073943 23.92931303 12 26 C7.72452751 27.06325235 4.20186188 27.40062063 0 26 C0 17.42 0 8.84 0 0 Z " fill="#E22925" transform="translate(158,99)"/>
<path d="M0 0 C2.31 0 4.62 0 7 0 C9.64 7.92 12.28 15.84 15 24 C13.02 24 11.04 24 9 24 C8.67 22.35 8.34 20.7 8 19 C5.03 19 2.06 19 -1 19 C-1.33 20.65 -1.66 22.3 -2 24 C-3.65 24 -5.3 24 -7 24 C-5.40554307 15.73781407 -2.73981931 7.93711014 0 0 Z " fill="#E1221A" transform="translate(102,101)"/>
<path d="M0 0 C2.83253187 0.25213825 4.3634263 0.79914177 7 2.0625 C9.54726907 5.3261885 9.48850522 7.37282083 9.37109375 11.40625 C8.8287752 14.64874407 7.95801541 16.94070328 5.25 18.875 C2.2251326 19.88328913 0.17387527 20.07841075 -3 19.625 C-6.53662065 16.63852034 -8.74387886 14.50322171 -9.375 9.875 C-8.72689206 4.2580645 -5.8323295 0.3092902 0 0 Z " fill="#E22318" transform="translate(146,106.375)"/>
<path d="M0 0 C3.9375 0.6875 3.9375 0.6875 6.4375 2.8125 C8.13261045 6.06146169 8.27359819 8.07444442 7.9375 11.6875 C4.3075 11.6875 0.6775 11.6875 -3.0625 11.6875 C-2.7325 12.3475 -2.4025 13.0075 -2.0625 13.6875 C-0.16716658 14.15273063 -0.16716658 14.15273063 2 14.3125 C3.299375 14.43625 4.59875 14.56 5.9375 14.6875 C5.9375 16.0075 5.9375 17.3275 5.9375 18.6875 C2.79878812 20.25685594 0.39894178 20.03951103 -3.0625 19.6875 C-6.63763152 16.73413048 -8.80614334 14.56744881 -9.4375 9.9375 C-8.78398806 4.27372989 -5.84663268 0.38248999 0 0 Z " fill="#E31A11" transform="translate(186.0625,106.3125)"/>
<path d="M0 0 C3.3762685 2.25084567 3.78993142 3.27788521 5.26171875 6.9375 C5.85629883 8.40316406 5.85629883 8.40316406 6.46289062 9.8984375 C6.86701172 10.92195313 7.27113281 11.94546875 7.6875 13 C8.10322266 14.02351563 8.51894531 15.04703125 8.94726562 16.1015625 C12 23.70081589 12 23.70081589 12 26 C9.69 26 7.38 26 5 26 C4.79246094 25.43410156 4.58492187 24.86820313 4.37109375 24.28515625 C3.40493866 21.98497949 2.47797423 20.01464498 1 18 C-2.62653665 16.86043273 -2.62653665 16.86043273 -6 17 C-5.34496718 12.94180817 -4.05440879 9.46028718 -2.4375 5.6875 C-1.75494141 4.08455078 -1.75494141 4.08455078 -1.05859375 2.44921875 C-0.53458984 1.23685547 -0.53458984 1.23685547 0 0 Z " fill="#E4190F" transform="translate(54,108)"/>
<path d="M0 0 C0.33 0 0.66 0 1 0 C1 2.31 1 4.62 1 7 C2.3303125 6.87625 2.3303125 6.87625 3.6875 6.75 C7 7 7 7 9.875 8.4375 C12.65656376 11.79173865 12.41425212 13.94753381 12.17578125 18.171875 C12.08876953 19.07679687 12.08876953 19.07679687 12 20 C10.35 20.66 8.7 21.32 7 22 C6.67 19.03 6.34 16.06 6 13 C4.02 12.34 2.04 11.68 0 11 C0 14.3 0 17.6 0 21 C1.32 21 2.64 21 4 21 C3.67 22.32 3.34 23.64 3 25 C2.360625 24.835 1.72125 24.67 1.0625 24.5 C-0.80826821 23.96073333 -0.80826821 23.96073333 -2 24 C-2.33 24 -2.66 24 -3 24 C-3 17.73 -3 11.46 -3 5 C-2.34 4.67 -1.68 4.34 -1 4 C-0.34786708 1.97536745 -0.34786708 1.97536745 0 0 Z " fill="#E41208" transform="translate(163,100)"/>
<path d="M0 0 C1.98 0 3.96 0 6 0 C6 8.58 6 17.16 6 26 C1.59377884 27.10155529 -1.48073731 27.28693731 -6 27 C-8 25.5 -8 25.5 -9 24 C-8.67 23.67 -8.34 23.34 -8 23 C-7.50881652 20.71822945 -7.10112965 18.42730701 -6.6953125 16.12890625 C-6 14 -6 14 -3 12 C-1.68 12 -0.36 12 1 12 C1.03738281 12.77085938 1.07476562 13.54171875 1.11328125 14.3359375 C1.21189453 15.84027344 1.21189453 15.84027344 1.3125 17.375 C1.39951172 18.87160156 1.39951172 18.87160156 1.48828125 20.3984375 C1.65714844 21.25695312 1.82601562 22.11546875 2 23 C2.99 23.66 3.98 24.32 5 25 C5 17.08 5 9.16 5 1 C3.68 1 2.36 1 1 1 C1 3.31 1 5.62 1 8 C0.67 8 0.34 8 0 8 C0 5.36 0 2.72 0 0 Z " fill="#E3514A" transform="translate(129,99)"/>
<path d="M0 0 C3.57423953 -0.3324874 5.63583344 -0.18208328 8.875 1.4375 C11.58286221 4.70286326 11.49098376 6.66267541 11.37109375 10.78125 C10.95738429 13.25479711 10.41155297 14.92175263 9 17 C5.375 17.75 5.375 17.75 2 18 C2.99 17.67 3.98 17.34 5 17 C4.67 16.01 4.34 15.02 4 14 C4.33 13.67 4.66 13.34 5 13 C5.04092937 10.66702567 5.04241723 8.33294775 5 6 C3.02 5.01 1.04 4.02 -1 3 C-0.67 2.01 -0.34 1.02 0 0 Z " fill="#E20E06" transform="translate(144,107)"/>
<path d="M0 0 C2.31 0 4.62 0 7 0 C9.125 6.625 9.125 6.625 8 10 C7.34 10 6.68 10 6 10 C6 11.32 6 12.64 6 14 C4.35 14 2.7 14 1 14 C1.33 12.02 1.66 10.04 2 8 C1.01 8.33 0.02 8.66 -1 9 C-2.25541557 5.23375329 -1.37061958 3.62811066 0 0 Z " fill="#E4251B" transform="translate(102,101)"/>
<path d="M0 0 C0 0.99 0 1.98 0 3 C-0.78375 3.37125 -1.5675 3.7425 -2.375 4.125 C-5.93863359 6.67045256 -6.01319783 8.96582606 -6.73828125 13.13671875 C-6.82464844 13.75160156 -6.91101563 14.36648437 -7 15 C-7.99 15 -8.98 15 -10 15 C-11.55950551 13.44049449 -11.28196698 11.91122869 -11.375 9.75 C-11.32774059 6.04604378 -11.08580608 5.12366171 -8.875 1.9375 C-5.57683856 -0.28517401 -3.89503578 -0.45291114 0 0 Z " fill="#E3150B" transform="translate(129,107)"/>
<path d="M0 0 C0.33 0 0.66 0 1 0 C1 2.97 1 5.94 1 9 C1.99 9.33 2.98 9.66 4 10 C2.35 10 0.7 10 -1 10 C-1 13.63 -1 17.26 -1 21 C0.65 21 2.3 21 4 21 C3.67 22.32 3.34 23.64 3 25 C2.360625 24.835 1.72125 24.67 1.0625 24.5 C-0.80826821 23.96073333 -0.80826821 23.96073333 -2 24 C-2.33 24 -2.66 24 -3 24 C-3 17.73 -3 11.46 -3 5 C-2.34 4.67 -1.68 4.34 -1 4 C-0.34786708 1.97536745 -0.34786708 1.97536745 0 0 Z " fill="#E92013" transform="translate(163,100)"/>
<path d="M0 0 C2.1491917 3.22378756 3.024994 5.98414648 4.125 9.6875 C4.47820312 10.86699219 4.83140625 12.04648438 5.1953125 13.26171875 C5.46085937 14.16535156 5.72640625 15.06898437 6 16 C4.02 16 2.04 16 0 16 C-0.33 14.35 -0.66 12.7 -1 11 C-3.97 11 -6.94 11 -10 11 C-10 10.67 -10 10.34 -10 10 C-7.03 10 -4.06 10 -1 10 C-0.22157062 6.59437148 0.09978121 3.49234244 0 0 Z " fill="#E02C24" transform="translate(111,109)"/>
<path d="M0 0 C1.65 0 3.3 0 5 0 C7 2 7 2 7.25 5 C7 8 7 8 5 10 C3.35 10 1.7 10 0 10 C0 6.7 0 3.4 0 0 Z " fill="#F7E0DC" transform="translate(163,111)"/>
<path d="M0 0 C2.875 -0.125 2.875 -0.125 6 0 C8 2 8 2 8.125 5.625 C8.08375 6.73875 8.0425 7.8525 8 9 C7.22914063 8.98839844 6.45828125 8.97679688 5.6640625 8.96484375 C4.66117188 8.95582031 3.65828125 8.94679688 2.625 8.9375 C1.12839844 8.92009766 1.12839844 8.92009766 -0.3984375 8.90234375 C-2.98432453 8.81993398 -2.98432453 8.81993398 -5 10 C-5 8.68 -5 7.36 -5 6 C-2.03 6.33 0.94 6.66 4 7 C3.39816251 4.97954558 2.72693904 2.97888961 2 1 C1.34 0.67 0.68 0.34 0 0 Z " fill="#E70901" transform="translate(185,108)"/>
<path d="M0 0 C3.53571429 0.53571429 3.53571429 0.53571429 5 2 C5.125 5.5 5.125 5.5 5 9 C4 10 4 10 1.5 10.125 C-1 10 -1 10 -2 9 C-2.1875 5.5625 -2.1875 5.5625 -2 2 C-1.34 1.34 -0.68 0.68 0 0 Z " fill="#FCF3F1" transform="translate(145,111)"/>
<path d="M0 0 C0 3.3 0 6.6 0 10 C-4.875 9.125 -4.875 9.125 -6 8 C-6.25 5.0625 -6.25 5.0625 -6 2 C-3 0 -3 0 0 0 Z " fill="#FCF5F3" transform="translate(129,111)"/>
<path d="M0 0 C0.33 0 0.66 0 1 0 C2.25 7.625 2.25 7.625 0 11 C-2.1640625 11.29296875 -2.1640625 11.29296875 -4.625 11.1875 C-5.44226563 11.16042969 -6.25953125 11.13335937 -7.1015625 11.10546875 C-7.72804688 11.07066406 -8.35453125 11.03585938 -9 11 C-9.33 11.99 -9.66 12.98 -10 14 C-10.66 13.67 -11.32 13.34 -12 13 C-10.4375 10.5 -10.4375 10.5 -8 8 C-4.25 7.6875 -4.25 7.6875 -1 8 C-1.33 6.35 -1.66 4.7 -2 3 C-1.34 3 -0.68 3 0 3 C0 2.01 0 1.02 0 0 Z " fill="#E90700" transform="translate(110,108)"/>
<path d="M0 0 C5.75 -0.125 5.75 -0.125 8 1 C7.67 3.31 7.34 5.62 7 8 C6.608125 7.525625 6.21625 7.05125 5.8125 6.5625 C3.59191626 4.64820367 1.86624291 4.38733012 -1 4 C-1 7.3 -1 10.6 -1 14 C-1.33 14 -1.66 14 -2 14 C-2 10.37 -2 6.74 -2 3 C-1.34 2.67 -0.68 2.34 0 2 C0 1.34 0 0.68 0 0 Z " fill="#E20602" transform="translate(164,107)"/>
<path d="M0 0 C0.33 0 0.66 0 1 0 C1.32211538 8.375 1.32211538 8.375 -1 11 C-4.625 11.75 -4.625 11.75 -8 12 C-7.01 11.67 -6.02 11.34 -5 11 C-5.33 10.01 -5.66 9.02 -6 8 C-4.75 5.3125 -4.75 5.3125 -3 3 C-2.01 3 -1.02 3 0 3 C0 2.01 0 1.02 0 0 Z " fill="#E30A03" transform="translate(154,113)"/>
<path d="M0 0 C2.64 0 5.28 0 8 0 C8 1.32 8 2.64 8 4 C5.04335481 5.4783226 2.25770263 5.06032783 -1 5 C-0.67 3.35 -0.34 1.7 0 0 Z " fill="#E1211B" transform="translate(184,121)"/>
<path d="M0 0 C0.66 0.33 1.32 0.66 2 1 C1.67 1.66 1.34 2.32 1 3 C1.66 3 2.32 3 3 3 C2.34 4.32 1.68 5.64 1 7 C0.34 7 -0.32 7 -1 7 C-2.38232443 8.62626404 -3.71937515 10.2925002 -5 12 C-5.35338623 9.03155565 -5.5417682 6.84401782 -3.88671875 4.265625 C-2.64496832 2.79651181 -1.32662082 1.39295186 0 0 Z " fill="#E33127" transform="translate(142,107)"/>
<path d="M0 0 C0.66 0.33 1.32 0.66 2 1 C1.67 3.97 1.34 6.94 1 10 C0.01 10 -0.98 10 -2 10 C-3 9 -3 9 -3.09765625 7.15234375 C-3.06510417 5.1015625 -3.03255208 3.05078125 -3 1 C-2.01 1.495 -2.01 1.495 -1 2 C-0.67 1.34 -0.34 0.68 0 0 Z " fill="#E50A01" transform="translate(121,112)"/>
<path d="M0 0 C0.33 0 0.66 0 1 0 C1 1.98 1 3.96 1 6 C-2.63 6 -6.26 6 -10 6 C-9.34 7.98 -8.68 9.96 -8 12 C-9.32 12.33 -10.64 12.66 -12 13 C-12.33 12.01 -12.66 11.02 -13 10 C-12.34 9.67 -11.68 9.34 -11 9 C-11.33 7.35 -11.66 5.7 -12 4 C-8.04 4.33 -4.08 4.66 0 5 C0 3.35 0 1.7 0 0 Z " fill="#DD3830" transform="translate(193,112)"/>
<path d="M0 0 C2.64 0 5.28 0 8 0 C7.01 0.66 6.02 1.32 5 2 C5.66 3.65 6.32 5.3 7 7 C5.02 7 3.04 7 1 7 C0.67 4.69 0.34 2.38 0 0 Z " fill="#EB7C74" transform="translate(182,107)"/>
<path d="M0 0 C2.63822737 0.32173505 4.25829516 1.04121457 6.5625 2.3125 C7.2225 2.3125 7.8825 2.3125 8.5625 2.3125 C8.5625 2.9725 8.5625 3.6325 8.5625 4.3125 C6.625 4.875 6.625 4.875 4.5625 5.3125 C4.2325 4.9825 3.9025 4.6525 3.5625 4.3125 C2.04780552 4.08057135 0.52495438 3.90034762 -1 3.75 C-1.82628906 3.66621094 -2.65257812 3.58242187 -3.50390625 3.49609375 C-4.14199219 3.43550781 -4.78007813 3.37492187 -5.4375 3.3125 C-2.7421875 0.3515625 -2.7421875 0.3515625 0 0 Z " fill="#E60400" transform="translate(53.4375,121.6875)"/>
<path d="M0 0 C1.65 0 3.3 0 5 0 C4.67 1.98 4.34 3.96 4 6 C2.35 6 0.7 6 -1 6 C-0.67 4.02 -0.34 2.04 0 0 Z " fill="#E70C04" transform="translate(103,102)"/>
<path d="M0 0 C1.65 0.33 3.3 0.66 5 1 C5 2.32 5 3.64 5 5 C2.125 5.125 2.125 5.125 -1 5 C-1.66 4.34 -2.32 3.68 -3 3 C-2.01 3 -1.02 3 0 3 C0 2.01 0 1.02 0 0 Z " fill="#E12B27" transform="translate(144,121)"/>
<path d="M0 0 C2.4375 0.75 2.4375 0.75 5 2 C5.8125 4.125 5.8125 4.125 6 6 C4.02 6 2.04 6 0 6 C0 4.02 0 2.04 0 0 Z " fill="#E30E09" transform="translate(111,119)"/>
<path d="M0 0 C1.9451 2.91765 2.45276317 4.62537285 3 8 C1.35 8 -0.3 8 -2 8 C-1.47731534 5.23723823 -0.89130413 2.6739124 0 0 Z " fill="#F9E9E5" transform="translate(105,107)"/>
<path d="M0 0 C2.31 0 4.62 0 7 0 C7 0.33 7 0.66 7 1 C5.02 1 3.04 1 1 1 C1 2.65 1 4.3 1 6 C1.66 6.33 2.32 6.66 3 7 C2.67 7.66 2.34 8.32 2 9 C0.68 8.67 -0.64 8.34 -2 8 C-1.34 5.36 -0.68 2.72 0 0 Z " fill="#DF4740" transform="translate(102,101)"/>
<path d="M0 0 C0.66 0.33 1.32 0.66 2 1 C2 2.65 2 4.3 2 6 C0.68 6.33 -0.64 6.66 -2 7 C-2.125 4.625 -2.125 4.625 -2 2 C-1.34 1.34 -0.68 0.68 0 0 Z " fill="#E90400" transform="translate(140,113)"/>
<path d="M0 0 C1.32 0 2.64 0 4 0 C3.6875 2.375 3.6875 2.375 3 5 C2.01 5.66 1.02 6.32 0 7 C0 4.69 0 2.38 0 0 Z " fill="#E50C03" transform="translate(100,109)"/>
<path d="M0 0 C0.66 0.33 1.32 0.66 2 1 C1.67 2.65 1.34 4.3 1 6 C0.01 6 -0.98 6 -2 6 C-2.33 6.66 -2.66 7.32 -3 8 C-2.25 2.25 -2.25 2.25 0 0 Z " fill="#E52114" transform="translate(153,110)"/>
<path d="M0 0 C0.66 0.33 1.32 0.66 2 1 C1.67 1.66 1.34 2.32 1 3 C1.66 3 2.32 3 3 3 C2.67 3.99 2.34 4.98 2 6 C-0.475 5.01 -0.475 5.01 -3 4 C-2.01 2.68 -1.02 1.36 0 0 Z " fill="#E2281E" transform="translate(142,107)"/>
</svg>
