<?xml version="1.0" encoding="UTF-8"?>
<svg version="1.1" xmlns="http://www.w3.org/2000/svg" width="305" height="165">
<path d="M0 0 C100.65 0 201.3 0 305 0 C305 54.45 305 108.9 305 165 C204.35 165 103.7 165 0 165 C0 110.55 0 56.1 0 0 Z " fill="#F1F1F0" transform="translate(0,0)"/>
<path d="M0 0 C4.43306708 0.36336615 6.45533623 1.44662849 9.8125 4.3125 C9.8125 5.3025 9.8125 6.2925 9.8125 7.3125 C10.4725 7.3125 11.1325 7.3125 11.8125 7.3125 C12.1528125 6.4153125 12.1528125 6.4153125 12.5 5.5 C14.26418796 2.55968674 15.63558939 1.62470221 18.8125 0.3125 C23.16515432 0.08341293 26.10503886 0.84587669 29.75 3.25 C32.93314229 6.43314229 32.93142901 8.42130128 32.95144653 12.8497467 C32.9494223 13.60186935 32.94739807 14.353992 32.9453125 15.12890625 C32.94626923 15.90056625 32.94722595 16.67222626 32.94821167 17.4672699 C32.94889246 19.09886761 32.9470452 20.73046803 32.94287109 22.36206055 C32.93751413 24.86838821 32.94282319 27.37453725 32.94921875 29.88085938 C32.94855809 31.46354206 32.94727719 33.04622464 32.9453125 34.62890625 C32.94733673 35.38305313 32.94936096 36.13720001 32.95144653 36.91419983 C32.92745624 42.19754376 32.92745624 42.19754376 31.8125 43.3125 C30.31511876 43.4104057 28.81307108 43.44224864 27.3125 43.4375 C26.4978125 43.44007812 25.683125 43.44265625 24.84375 43.4453125 C22.8125 43.3125 22.8125 43.3125 21.8125 42.3125 C21.66597285 40.10703974 21.58500488 37.89716866 21.53125 35.6875 C21.51284058 35.02540527 21.49443115 34.36331055 21.47546387 33.68115234 C21.39655449 30.83773419 21.32896975 27.99407041 21.26025391 25.15039062 C21.20861887 23.07930443 21.15133178 21.00842797 21.09375 18.9375 C21.06345703 17.69226563 21.03316406 16.44703125 21.00195312 15.1640625 C21.13367552 12.41411697 21.13367552 12.41411697 19.8125 11.3125 C17.35457971 10.97906449 17.35457971 10.97906449 14.8125 11.3125 C12.45540358 14.84814463 12.51240265 16.53275255 12.3984375 20.73046875 C12.35976562 21.98408203 12.32109375 23.23769531 12.28125 24.52929688 C12.23484375 26.49479492 12.23484375 26.49479492 12.1875 28.5 C12.14930662 29.8353116 12.11025409 31.17059892 12.0703125 32.50585938 C11.97590847 35.77459888 11.89032983 39.04333064 11.8125 42.3125 C8.1825 42.3125 4.5525 42.3125 0.8125 42.3125 C0.78744385 41.40894775 0.7623877 40.50539551 0.73657227 39.57446289 C0.64162683 36.2328572 0.54238379 32.89143748 0.44018555 29.55004883 C0.3967837 28.1018576 0.35511256 26.65361346 0.31518555 25.20532227 C0.25760938 23.12760441 0.19387972 21.05015427 0.12890625 18.97265625 C0.09224854 17.72105713 0.05559082 16.46945801 0.01782227 15.17993164 C0.13446094 12.41619496 0.13446094 12.41619496 -1.1875 11.3125 C-3.64559998 11.0624227 -3.64559998 11.0624227 -6.1875 11.3125 C-8.97686477 14.10186477 -8.48477463 15.91304997 -8.56640625 19.81640625 C-8.60056641 21.11384766 -8.63472656 22.41128906 -8.66992188 23.74804688 C-8.69727413 25.12368496 -8.72395863 26.49933647 -8.75 27.875 C-8.80770971 30.56402003 -8.87321689 33.25260631 -8.94140625 35.94140625 C-8.96533447 37.13838135 -8.9892627 38.33535645 -9.01391602 39.56860352 C-9.1875 42.3125 -9.1875 42.3125 -10.1875 43.3125 C-11.68488124 43.4104057 -13.18692892 43.44224864 -14.6875 43.4375 C-15.5021875 43.44007812 -16.316875 43.44265625 -17.15625 43.4453125 C-19.1875 43.3125 -19.1875 43.3125 -20.1875 42.3125 C-20.28860353 39.3671443 -20.32719279 36.4457244 -20.3203125 33.5 C-20.32126923 32.61594482 -20.32222595 31.73188965 -20.32321167 30.82104492 C-20.32389351 28.94807871 -20.32203893 27.07511014 -20.31787109 25.20214844 C-20.31252289 22.32481612 -20.31781593 19.44763992 -20.32421875 16.5703125 C-20.32355797 14.75520799 -20.32227681 12.94010357 -20.3203125 11.125 C-20.32233673 10.25834717 -20.32436096 9.39169434 -20.32644653 8.4987793 C-20.30245009 2.42745009 -20.30245009 2.42745009 -19.1875 1.3125 C-17.66821962 1.24070036 -16.14582518 1.22857993 -14.625 1.25 C-13.79871094 1.25902344 -12.97242187 1.26804688 -12.12109375 1.27734375 C-11.48300781 1.28894531 -10.84492187 1.30054688 -10.1875 1.3125 C-9.8575 2.9625 -9.5275 4.6125 -9.1875 6.3125 C-8.383125 5.508125 -7.57875 4.70375 -6.75 3.875 C-3.1875 0.3125 -3.1875 0.3125 0 0 Z " fill="#292929" transform="translate(93.1875,51.6875)"/>
<path d="M0 0 C4.85251056 3.27017016 8.03526242 6.87632595 10.25 12.3125 C11.69149738 20.67318478 11.33015949 28.38074865 6.73828125 35.765625 C4.14649913 39.13412416 1.85550537 40.65327856 -2.125 41.9375 C-7.35462024 42.59215406 -11.76277834 42.58145933 -16.5625 40.3125 C-22.18935985 35.0973616 -25.13159291 29.28597762 -25.4375 21.625 C-25.21983935 14.00687728 -22.90628798 7.87136374 -17.65625 2.3125 C-12.64117968 -2.19082845 -6.09362174 -2.07183139 0 0 Z " fill="#292929" transform="translate(235.125,53.0625)"/>
<path d="M0 0 C3.45592587 1.83686816 5.28286898 3.64013251 6.671875 7.23828125 C6.94311523 9.70849609 6.94311523 9.70849609 6.98046875 12.44921875 C7.00560547 13.44695312 7.03074219 14.4446875 7.05664062 15.47265625 C7.09166469 17.55853379 7.12294337 19.64447775 7.15039062 21.73046875 C7.29959129 27.37825964 7.58174941 31.44240633 10.671875 36.23828125 C8.361875 38.21828125 6.051875 40.19828125 3.671875 42.23828125 C-0.328125 40.23828125 -0.328125 40.23828125 -3.328125 38.23828125 C-4.276875 38.89828125 -5.225625 39.55828125 -6.203125 40.23828125 C-10.78405643 42.83073534 -15.18066659 43.24576078 -20.328125 42.23828125 C-23.44289449 40.53646163 -25.71682247 38.4608863 -27.328125 35.23828125 C-27.89843937 30.56357333 -27.76654251 27.11511627 -25.640625 22.86328125 C-21.34212396 17.98390169 -17.39104982 16.82536557 -11.015625 16.05078125 C-9.76136719 15.89222656 -8.50710937 15.73367187 -7.21484375 15.5703125 C-6.26222656 15.46074219 -5.30960938 15.35117188 -4.328125 15.23828125 C-4.988125 12.92828125 -5.648125 10.61828125 -6.328125 8.23828125 C-10.51830886 7.84000717 -10.51830886 7.84000717 -14.140625 9.61328125 C-15.39799673 11.23914922 -15.39799673 11.23914922 -16.328125 13.23828125 C-19.628125 12.90828125 -22.928125 12.57828125 -26.328125 12.23828125 C-25.82242763 7.8134293 -24.42870608 5.42266182 -21.328125 2.23828125 C-15.50708072 -2.09018757 -6.77338901 -2.2161256 0 0 Z " fill="#292929" transform="translate(160.328125,52.76171875)"/>
<path d="M0 0 C3.5498365 2.10092364 4.96273185 3.23889881 7.0625 6.8125 C7.65030252 10.849248 7.66821314 14.86315027 7.6875 18.9375 C7.71299219 21.10688521 7.74647861 23.27619548 7.7890625 25.4453125 C7.79502441 26.40324707 7.80098633 27.36118164 7.80712891 28.34814453 C7.89539002 31.0666499 7.89539002 31.0666499 10.0625 33.8125 C10 35.75 10 35.75 9.0625 37.8125 C6.5 40.0625 6.5 40.0625 4.0625 41.8125 C1.56888429 40.60868552 -0.61893083 39.35821278 -2.9375 37.8125 C-4.071875 38.4725 -5.20625 39.1325 -6.375 39.8125 C-10.908634 42.05123254 -14.94244626 42.90919999 -19.9375 41.8125 C-22.9997938 40.07634598 -25.33866508 38.01016983 -26.9375 34.8125 C-27.50781437 30.13779208 -27.37591751 26.68933502 -25.25 22.4375 C-21.30319663 17.95734482 -17.84458096 16.39162558 -11.9375 15.8125 C-9.26440318 15.74482666 -6.61248864 15.76637951 -3.9375 15.8125 C-4.5975 13.1725 -5.2575 10.5325 -5.9375 7.8125 C-9.31150578 7.39524322 -9.31150578 7.39524322 -12.9375 7.8125 C-14.94614359 10.1851974 -14.94614359 10.1851974 -15.9375 12.8125 C-19.2375 12.4825 -22.5375 12.1525 -25.9375 11.8125 C-25.43180263 7.38764805 -24.03808108 4.99688057 -20.9375 1.8125 C-14.94013908 -2.42953577 -6.8005015 -2.56484432 0 0 Z " fill="#272727" transform="translate(56.9375,53.1875)"/>
<path d="M0 0 C3.2027159 0.04591707 4.2473251 0.31092995 7.125 2 C11.30680056 6.55078296 11.5337617 11.05559618 11.4453125 17.01953125 C11.4424826 17.74492599 11.43965271 18.47032074 11.43673706 19.21769714 C11.42559799 21.52030368 11.40050566 23.82251227 11.375 26.125 C11.36496206 27.69205165 11.35583763 29.25910943 11.34765625 30.82617188 C11.3256793 34.65509978 11.29119339 38.48373256 11.25 42.3125 C7.62 42.3125 3.99 42.3125 0.25 42.3125 C0.22494385 41.40894775 0.1998877 40.50539551 0.17407227 39.57446289 C0.07912683 36.2328572 -0.02011621 32.89143748 -0.12231445 29.55004883 C-0.1657163 28.1018576 -0.20738744 26.65361346 -0.24731445 25.20532227 C-0.30489062 23.12760441 -0.36862028 21.05015427 -0.43359375 18.97265625 C-0.47025146 17.72105713 -0.50690918 16.46945801 -0.54467773 15.17993164 C-0.42803906 12.41619496 -0.42803906 12.41619496 -1.75 11.3125 C-4.20792029 10.97906449 -4.20792029 10.97906449 -6.75 11.3125 C-9.10709642 14.84814463 -9.05009735 16.53275255 -9.1640625 20.73046875 C-9.22207031 22.61088867 -9.22207031 22.61088867 -9.28125 24.52929688 C-9.32765625 26.49479492 -9.32765625 26.49479492 -9.375 28.5 C-9.41319338 29.8353116 -9.45224591 31.17059892 -9.4921875 32.50585938 C-9.58659153 35.77459888 -9.67217017 39.04333064 -9.75 42.3125 C-13.38 42.3125 -17.01 42.3125 -20.75 42.3125 C-20.75 28.7825 -20.75 15.2525 -20.75 1.3125 C-17.45 1.3125 -14.15 1.3125 -10.75 1.3125 C-10.42 2.9625 -10.09 4.6125 -9.75 6.3125 C-8.945625 5.508125 -8.14125 4.70375 -7.3125 3.875 C-3.75 0.3125 -3.75 0.3125 0 0 Z " fill="#292929" transform="translate(272.75,51.6875)"/>
<path d="M0 0 C3.894929 1.15795187 7.51229541 2.66376577 11.1875 4.375 C38.12877976 16.68998177 69.11724424 19.89346739 98 13 C98.71816895 12.83419434 99.43633789 12.66838867 100.17626953 12.49755859 C108.62609923 10.61596548 108.62609923 10.61596548 116.80859375 7.85546875 C119.34502157 6.86531244 120.48703069 7.06927063 123 8 C121.56231439 12.31305682 118.38687402 13.36788769 114.5625 15.375 C113.4346106 15.97054687 113.4346106 15.97054687 112.28393555 16.578125 C90.65175086 27.5250166 61.0023503 30.41279952 37.73828125 23.3203125 C24.62800505 18.68993282 9.34384227 12.77263369 0 2 C0 1.34 0 0.68 0 0 Z " fill="#F19B39" transform="translate(66,99)"/>
<path d="M0 0 C9.57 0 19.14 0 29 0 C29 7.87428052 29 7.87428052 26.2265625 11.515625 C25.3603125 12.67964844 25.3603125 12.67964844 24.4765625 13.8671875 C23.86554688 14.65351562 23.25453125 15.43984375 22.625 16.25 C22.02171875 17.05179688 21.4184375 17.85359375 20.796875 18.6796875 C19.67913388 20.16504126 18.55439834 21.64517669 17.42041016 23.11816406 C16.22337712 24.70405795 15.10215838 26.34676244 14 28 C14.99580078 28.07347656 14.99580078 28.07347656 16.01171875 28.1484375 C24.78207381 28.89103691 24.78207381 28.89103691 29 31 C29 33.97 29 36.94 29 40 C27.576875 39.67 26.15375 39.34 24.6875 39 C15.75703246 37.23408834 7.7698651 37.69970751 -1 40 C-1.88859984 31.84441584 -0.20059156 27.48532378 4.8125 21.125 C5.35970703 20.3928125 5.90691406 19.660625 6.47070312 18.90625 C7.95995335 16.92058304 9.47710812 14.95988218 11 13 C11.99 11.68 12.98 10.36 14 9 C7.07 8.505 7.07 8.505 0 8 C0 5.36 0 2.72 0 0 Z " fill="#252525" transform="translate(177,53)"/>
<path d="M0 0 C2.875 0.25 2.875 0.25 6 1 C8.79909098 4.61742987 8.33112602 9.07528551 8.3125 13.4375 C8.32861328 14.18837891 8.34472656 14.93925781 8.36132812 15.71289062 C8.36532411 20.25633035 8.02705399 23.36328174 5 27 C2 27.625 2 27.625 -1 27 C-4.50845815 22.75682944 -4.48736242 18.74915341 -4.4375 13.5 C-4.4674707 12.38044922 -4.4674707 12.38044922 -4.49804688 11.23828125 C-4.49448228 7.21028363 -4.2789258 5.41704512 -1.97265625 1.96875 C-1.32167969 1.3190625 -0.67070312 0.669375 0 0 Z " fill="#EFEFEF" transform="translate(226,60)"/>
<path d="M0 0 C0.61088045 7.57491763 -0.89296367 12.59070951 -5 19 C-6.54296875 20.7890625 -6.54296875 20.7890625 -8 22 C-8.66 22 -9.32 22 -10 22 C-9.58411908 19.01952005 -9.14560315 16.35490768 -8 13.5625 C-6.63639593 10.35596926 -6.63639593 10.35596926 -6 4 C-12.27 4 -18.54 4 -25 4 C-18.41289133 -2.58710867 -8.51007433 -4.39229643 0 0 Z " fill="#EBA14B" transform="translate(200,98)"/>
<path d="M0 0 C0.4820394 7.11008111 0.4820394 7.11008111 -1.625 11 C-4 13 -4 13 -7.125 13.5 C-8.07375 13.335 -9.0225 13.17 -10 13 C-12 10 -12 10 -11.8125 7 C-10.98552564 3.94655621 -10.50790541 2.83270011 -8 1 C-5.07175348 0.02391783 -3.04386724 -0.08226668 0 0 Z " fill="#EAEAEA" transform="translate(53,74)"/>
<path d="M0 0 C0.45580933 7.90069513 0.45580933 7.90069513 -1.0625 11.5625 C-3.99959664 13.74163622 -6.45889165 13.3278804 -10 13 C-11 12 -11 12 -11.3125 8.125 C-11.26451247 4.29285309 -11.26451247 4.29285309 -9.25 2.0625 C-5.98611599 0.52122144 -3.61646131 0 0 0 Z " fill="#ECECEC" transform="translate(156,74)"/>
<path d="M0 0 C3.894929 1.15795187 7.51229541 2.66376577 11.1875 4.375 C19.23859948 8.08331892 27.35246415 11.04206735 36 13 C31.60155678 14.37344385 28.07495445 13.24307502 23.75 12.0625 C23.00492188 11.86720703 22.25984375 11.67191406 21.4921875 11.47070312 C19.65920614 10.98895802 17.82928182 10.49560775 16 10 C16.95865509 12.33075929 16.95865509 12.33075929 20 14 C19.01 14.495 19.01 14.495 18 15 C15.61825589 13.67780371 13.38960797 12.31378288 11.125 10.8125 C10.18720703 10.21211914 10.18720703 10.21211914 9.23046875 9.59960938 C5.79937115 7.36177933 2.67975031 5.14433013 0 2 C0 1.34 0 0.68 0 0 Z " fill="#EB9C42" transform="translate(66,99)"/>
<path d="M0 0 C0 0.99 0 1.98 0 3 C-2.475 2.505 -2.475 2.505 -5 2 C-5 2.66 -5 3.32 -5 4 C-10.94 4.495 -10.94 4.495 -17 5 C-17 4.34 -17 3.68 -17 3 C-18.65 3.33 -20.3 3.66 -22 4 C-21.875 2.125 -21.875 2.125 -21 0 C-14.94033581 -3.18929694 -5.95281905 -3.52138592 0 0 Z " fill="#EAE9E7" transform="translate(200,92)"/>
<path d="M0 0 C6.57534861 0.62031591 12.66692592 2.14897283 19 4 C18.01 4.33 17.02 4.66 16 5 C16 5.66 16 6.32 16 7 C16.99 7.33 17.98 7.66 19 8 C19 8.33 19 8.66 19 9 C11.79185798 8.63391223 6.79333097 8.27011291 1.1875 3.4375 C0 2 0 2 0 0 Z " fill="#F59932" transform="translate(82,109)"/>
<path d="M0 0 C6.27 0 12.54 0 19 0 C19 2.31 19 4.62 19 7 C18.67 7 18.34 7 18 7 C18 5.02 18 3.04 18 1 C14.7 1 11.4 1 8 1 C8.33 1.66 8.66 2.32 9 3 C10.65 3 12.3 3 14 3 C14.33 4.32 14.66 5.64 15 7 C14.01 7.495 14.01 7.495 13 8 C13 7.01 13 6.02 13 5 C9.79202974 5.45828147 6.93204731 6.02446297 3.875 7.125 C0.97070448 8.00891603 -0.22261639 8.06822446 -3 7 C-2.34 7 -1.68 7 -1 7 C-1 6.34 -1 5.68 -1 5 C-0.360625 4.87625 0.27875 4.7525 0.9375 4.625 C1.618125 4.41875 2.29875 4.2125 3 4 C3.33 3.34 3.66 2.68 4 2 C2.68 2 1.36 2 0 2 C0 1.34 0 0.68 0 0 Z " fill="#F6ECDE" transform="translate(175,102)"/>
<path d="M0 0 C-1 3 -1 3 -3.28515625 4.38671875 C-4.20167969 4.81597656 -5.11820313 5.24523437 -6.0625 5.6875 C-6.98160156 6.12449219 -7.90070313 6.56148438 -8.84765625 7.01171875 C-9.91306641 7.50091797 -9.91306641 7.50091797 -11 8 C-11 6.68 -11 5.36 -11 4 C-12.98 4 -14.96 4 -17 4 C-14.22246623 2.55441992 -11.45460092 1.34964587 -8.5 0.3125 C-7.7471875 0.04050781 -6.994375 -0.23148437 -6.21875 -0.51171875 C-3.76402507 -1.0519311 -2.35576662 -0.79774824 0 0 Z " fill="#E99C42" transform="translate(189,107)"/>
<path d="M0 0 C1.98 0 3.96 0 6 0 C6.05447047 1.41623216 6.09300508 2.83308191 6.125 4.25 C6.14820313 5.03890625 6.17140625 5.8278125 6.1953125 6.640625 C5.9828378 9.20731941 5.28654105 10.7916067 4 13 C3.67 12.34 3.34 11.68 3 11 C2.34 11 1.68 11 1 11 C0.67 7.37 0.34 3.74 0 0 Z " fill="#F29A34" transform="translate(194,98)"/>
<path d="M0 0 C1.0725 0.0825 2.145 0.165 3.25 0.25 C3.58 1.24 3.91 2.23 4.25 3.25 C-1.69 3.745 -1.69 3.745 -7.75 4.25 C-3.75 0.25 -3.75 0.25 0 0 Z " fill="#E99C41" transform="translate(182.75,97.75)"/>
<path d="M0 0 C5.75 1.75 5.75 1.75 8 4 C7.34 4 6.68 4 6 4 C6 4.66 6 5.32 6 6 C6.66 6 7.32 6 8 6 C7.67 6.66 7.34 7.32 7 8 C5.8274869 7.04882866 4.66212985 6.08882991 3.5 5.125 C2.8503125 4.59132813 2.200625 4.05765625 1.53125 3.5078125 C1.0259375 3.01023437 0.520625 2.51265625 0 2 C0 1.34 0 0.68 0 0 Z " fill="#E29E4D" transform="translate(66,99)"/>
<path d="M0 0 C0.66 0 1.32 0 2 0 C2 0.66 2 1.32 2 2 C3.32 2 4.64 2 6 2 C5.34 4.64 4.68 7.28 4 10 C3.67 8.68 3.34 7.36 3 6 C1.7251888 2.84026754 1.7251888 2.84026754 -1 1 C-0.67 0.67 -0.34 0.34 0 0 Z " fill="#F6EDE0" transform="translate(186,110)"/>
<path d="M0 0 C0.33 0 0.66 0 1 0 C1 2.97 1 5.94 1 9 C1.66 9.33 2.32 9.66 3 10 C2.01 11.485 2.01 11.485 1 13 C0.34 13 -0.32 13 -1 13 C-0.67 8.71 -0.34 4.42 0 0 Z " fill="#AFADAB" transform="translate(175,84)"/>
<path d="M0 0 C1.98 0.66 3.96 1.32 6 2 C6 2.33 6 2.66 6 3 C4.35 3 2.7 3 1 3 C0.67 3.99 0.34 4.98 0 6 C-1.125 2.25 -1.125 2.25 0 0 Z " fill="#F5EFDE" transform="translate(82,113)"/>
<path d="M0 0 C3.3 0 6.6 0 10 0 C10 0.99 10 1.98 10 3 C6.7 2.34 3.4 1.68 0 1 C0 0.67 0 0.34 0 0 Z " fill="#F5E7CC" transform="translate(94,110)"/>
</svg>
