<?xml version="1.0" encoding="UTF-8"?>
<svg version="1.1" xmlns="http://www.w3.org/2000/svg" width="275" height="183">
<path d="M0 0 C90.75 0 181.5 0 275 0 C275 60.39 275 120.78 275 183 C184.25 183 93.5 183 0 183 C0 122.61 0 62.22 0 0 Z " fill="#F8F9FB" transform="translate(0,0)"/>
<path d="M0 0 C0.99 0.66 1.98 1.32 3 2 C2.67 4.31 2.34 6.62 2 9 C1.01 9.33 0.02 9.66 -1 10 C-1 11.32 -1 12.64 -1 14 C0.175625 13.95875 1.35125 13.9175 2.5625 13.875 C5.72697852 13.84709455 7.51327576 14.16814206 10.625 15.1875 C14.94471005 16.2274302 16.1648181 15.03499448 20 13 C25.38328345 12.1334755 29.34814674 13.07906888 34 16 C36.90727382 18.40601971 37.83835409 20.46038898 38.23828125 24.26953125 C38.40641304 30.03025737 38.09732115 33.57920613 34 38 C29.53121083 41.04690171 25.28559605 41.96005836 20 41 C14.89790078 38.30455136 11.82618963 35.4785689 10 30 C9.8455467 25.82976082 10.01611229 22.05853682 11 18 C10.67 18 10.34 18 10 18 C9.89042969 18.83144531 9.78085938 19.66289063 9.66796875 20.51953125 C9.50941406 21.60621094 9.35085937 22.69289063 9.1875 23.8125 C9.03667969 24.89144531 8.88585937 25.97039062 8.73046875 27.08203125 C7.96345847 30.14597071 7.39305466 31.0653165 5 33 C4.236875 33.825 3.47375 34.65 2.6875 35.5 C-1.52006821 39.41401694 -5.01678119 41.1683348 -10.75 41.4375 C-17.09995228 41.20798365 -23.06943912 39.60965235 -27.890625 35.31640625 C-33.34817545 29.15679227 -34.46527497 24.4920909 -34.30859375 16.26171875 C-33.70681179 9.901112 -31.26354662 5.91385574 -26.625 1.625 C-18.29977766 -4.87963232 -9.22766636 -3.96771453 0 0 Z " fill="#F1F7F8" transform="translate(86,66)"/>
<path d="M0 0 C1.38245547 0.10077504 2.76494473 0.20108706 4.14746094 0.30102539 C5.33629883 0.38731201 6.52513672 0.47359863 7.75 0.5625 C7.87415248 5.00983299 7.96459457 9.4562326 8.0246582 13.90478516 C8.04971095 15.41603174 8.08376377 16.92715824 8.12719727 18.43798828 C8.1882669 20.61781501 8.21629916 22.79603262 8.23828125 24.9765625 C8.26446533 26.2857666 8.29064941 27.5949707 8.31762695 28.94384766 C7.57460309 33.68066475 6.10150191 35.20378786 2.75 38.5625 C-1.11529475 41.03199387 -4.69604359 40.72847716 -9.09375 40.10546875 C-12.25656208 39.309036 -14.06675654 37.95042254 -16.25 35.5625 C-17.0625 33.3125 -17.0625 33.3125 -17.25 31.5625 C-15.6 30.9025 -13.95 30.2425 -12.25 29.5625 C-11.92 30.5525 -11.59 31.5425 -11.25 32.5625 C-9.81465159 32.7851746 -8.37654475 32.99011906 -6.9375 33.1875 C-6.13699219 33.30351563 -5.33648437 33.41953125 -4.51171875 33.5390625 C-1.96276785 33.77783407 -1.96276785 33.77783407 0.75 31.5625 C1.9688121 28.00577821 1.9688121 28.00577821 2.75 24.5625 C1.88375 25.0575 1.0175 25.5525 0.125 26.0625 C-3.49472537 27.67126683 -5.35348102 28.13074235 -9.25 27.5625 C-14.50517295 24.78034961 -16.66361061 21.73527878 -19.25 16.5625 C-19.54050538 10.36084163 -18.03526814 6.44742503 -13.91796875 1.875 C-9.83648688 -1.33665786 -4.88679961 -0.37503575 0 0 Z " fill="#4C87E6" transform="translate(176.25,79.4375)"/>
<path d="M0 0 C1.2578125 2.109375 1.2578125 2.109375 2 4 C1.34 4.99 0.68 5.98 0 7 C-2.25797824 6.49822706 -4.20243271 5.90699038 -6.3125 4.9375 C-10.2921402 3.54925342 -13.83620498 3.20161861 -17.86328125 4.6875 C-22.22824818 6.93073782 -24.86990555 9.48419976 -27 14 C-27.89285822 19.65138668 -27.24594068 24.18705347 -24 29 C-19.37238632 33.17613917 -16.50535069 34.37196619 -10.38671875 34.2734375 C-6.30540687 33.80585676 -4.26433874 32.54618421 -1 30 C0.3962642 27.67951821 1.14952588 25.60145026 2 23 C-2.62 23 -7.24 23 -12 23 C-12 21.02 -12 19.04 -12 17 C-5.4 17 1.2 17 8 17 C8 29.43243243 8 29.43243243 2.6875 35.75 C-2.49170102 40.08607527 -6.65104038 41.58565517 -13.34375 41.34375 C-20.7563423 40.38447335 -26.23435243 37.67699108 -30.84375 31.78125 C-34.78627129 25.70763612 -34.67526465 20.13729097 -34 13 C-32.31377295 6.74985303 -28.31106365 2.53296138 -23 -1 C-15.73305282 -4.40154974 -7.02633666 -3.9067598 0 0 Z " fill="#4585E9" transform="translate(86,66)"/>
<path d="M0 0 C4.40830916 2.16407904 7.12843553 4.42506462 9 9 C9.69887477 15.09019445 8.85523291 20.06086774 5 25 C2.25 26 2.25 26 0 26 C0 26.66 0 27.32 0 28 C-3.3 28 -6.6 28 -10 28 C-10 27.34 -10 26.68 -10 26 C-10.763125 25.9175 -11.52625 25.835 -12.3125 25.75 C-15.59282427 24.83456067 -16.3341214 23.91528755 -18 21 C-19.84813155 16.29566515 -19.76599709 10.87243734 -17.875 6.25 C-12.80587972 0.16705566 -7.6299605 -1.22823754 0 0 Z " fill="#F3BE17" transform="translate(146,79)"/>
<path d="M0 0 C3.66893909 2.30375245 5.30826154 3.54978463 6.6875 7.6875 C7.20874721 12.65216601 7.21750847 16.56632824 5.0625 21.125 C1.42085668 25.05414148 -1.98252467 26.80967703 -7.3125 27.125 C-11.54669303 26.9549846 -14.05358092 25.41589737 -17.3125 22.6875 C-20.18815761 19.41519996 -21.20418611 16.8139645 -21.625 12.4375 C-21.2514097 7.9544164 -20.18166921 5.13584933 -17.3125 1.6875 C-11.73705019 -2.24065782 -6.20055666 -2.45682434 0 0 Z " fill="#E1473C" transform="translate(117.3125,80.3125)"/>
<path d="M0 0 C3.1694288 1.47906677 5.85574769 3.212472 8 6 C8.33 7.65 8.66 9.3 9 11 C3.39 13.31 -2.22 15.62 -8 18 C-7.67 18.99 -7.34 19.98 -7 21 C-1.68717987 21.35513708 -1.68717987 21.35513708 3.25 19.875 C3.8275 19.58625 4.405 19.2975 5 19 C7.25 19.875 7.25 19.875 9 21 C8.00449135 23.6245228 7.06036546 24.95028727 4.875 26.75 C1.18444996 28.35458697 -2.06929848 28.57804434 -6 28 C-10.7088142 26.13424343 -13.69233215 24.22303534 -16.25 19.875 C-17.58615079 14.75308863 -16.84636579 9.94664131 -14.75 5.125 C-10.63587715 0.12927939 -6.21768008 -0.94589453 0 0 Z " fill="#E54336" transform="translate(214,79)"/>
<path d="M0 0 C2.31 0 4.62 0 7 0 C7 13.86 7 27.72 7 42 C4.69 42 2.38 42 0 42 C0 28.14 0 14.28 0 0 Z " fill="#46AF64" transform="translate(188,64)"/>
<path d="M0 0 C2.5575 0.185625 5.115 0.37125 7.75 0.5625 C7.75 10.4625 7.75 20.3625 7.75 30.5625 C7.42 30.5625 7.09 30.5625 6.75 30.5625 C6.62882812 29.88703125 6.50765625 29.2115625 6.3828125 28.515625 C6.21523437 27.62359375 6.04765625 26.7315625 5.875 25.8125 C5.71257812 24.93078125 5.55015625 24.0490625 5.3828125 23.140625 C4.77773276 20.67548533 3.89799783 18.80838464 2.75 16.5625 C2.42438163 15.21609387 2.13202196 13.86116734 1.875 12.5 C1.21482392 9.75694281 0.84508756 8.67070309 -1.0625 6.5 C-3.91545449 5.27730522 -5.33365008 5.59038336 -8.25 6.5625 C-11.45148213 8.69682142 -11.77206739 9.24669896 -12.9375 12.6875 C-13.18886719 13.41195312 -13.44023437 14.13640625 -13.69921875 14.8828125 C-13.88097656 15.43710938 -14.06273437 15.99140625 -14.25 16.5625 C-15.24 16.5625 -16.23 16.5625 -17.25 16.5625 C-18.85127074 13.35995853 -18.65701607 11.10935436 -18.25 7.5625 C-16.29788925 4.33865587 -14.08413567 1.14720284 -10.38671875 -0.03149414 C-6.92624343 -0.6890319 -3.48744428 -0.26764271 0 0 Z " fill="#4587EC" transform="translate(176.25,79.4375)"/>
<path d="M0 0 C3.1694288 1.47906677 5.85574769 3.212472 8 6 C8.36871088 7.65919896 8.70555495 9.32602539 9 11 C6.61009899 12.03712685 4.21473126 13.05468019 1.8125 14.0625 C1.13896484 14.35705078 0.46542969 14.65160156 -0.22851562 14.95507812 C-4.21065511 16.60620913 -6.85190335 17.40954741 -11 16 C-11 15.34 -11 14.68 -11 14 C-9.68 14 -8.36 14 -7 14 C-6.67 13.01 -6.34 12.02 -6 11 C-3.10441559 9.5522078 -1.25811062 9 2 9 C2 8.34 2 7.68 2 7 C-3.10833767 5.7588935 -3.10833767 5.7588935 -7.8125 7.6875 C-9.80285522 9.7915898 -10.76462849 11.44101616 -12 14 C-12.99 14.33 -13.98 14.66 -15 15 C-16.33380884 8.81597718 -16.33380884 8.81597718 -14.875 5.25 C-10.67546788 0.21056145 -6.33313345 -0.96345843 0 0 Z " fill="#DF4237" transform="translate(214,79)"/>
<path d="M0 0 C3.2685506 3.05064722 4.75643026 4.67389808 5.5625 9.0625 C4.84147642 12.82784534 3.89576216 14.4754894 1 17 C-2.94025458 17.6332552 -5.01306001 17.64930263 -8.375 15.4375 C-10.55226285 12.17160572 -11 9.92016134 -11 6 C-8.09133566 1.38625657 -5.57048122 -0.90682252 0 0 Z " fill="#F7F0EF" transform="translate(113,84)"/>
<path d="M0 0 C3.42862386 0.20661088 4.35936278 0.46149931 7.125 2.6875 C8.93101464 6.37805166 9.22660856 8.56655877 8.5625 12.625 C6.43542106 15.21737745 4.85881117 16.35766735 1.5546875 17.0390625 C-0.5625 17.1875 -0.5625 17.1875 -4.4375 16.625 C-6.92506353 13.98196375 -7.36560841 12.20013269 -7.8125 8.625 C-7.11230701 3.02345611 -5.83282986 0.34536493 0 0 Z " fill="#F9F7EF" transform="translate(140.4375,84.375)"/>
<path d="M0 0 C3.25093367 1.45436506 4.54762997 3.01688328 6.375 6.0625 C7.00858675 9.86402049 6.65542686 11.54651457 4.8125 14.9375 C2.375 17.0625 2.375 17.0625 -1.125 17.625 C-4.625 17.0625 -4.625 17.0625 -7.0625 15.625 C-9.04935171 12.36656319 -9.31288875 9.97400298 -9.14453125 6.1953125 C-8.625 4.0625 -8.625 4.0625 -5.9375 1.4375 C-2.625 0.0625 -2.625 0.0625 0 0 Z " fill="#F0F6F9" transform="translate(172.625,83.9375)"/>
<path d="M0 0 C0.66 0 1.32 0 2 0 C1.96519531 1.32064453 1.96519531 1.32064453 1.9296875 2.66796875 C1.91164062 3.82941406 1.89359375 4.99085937 1.875 6.1875 C1.84019531 7.91033203 1.84019531 7.91033203 1.8046875 9.66796875 C1.99515848 12.91740372 2.60639873 15.08660521 4 18 C4.63808594 18.04898438 5.27617187 18.09796875 5.93359375 18.1484375 C6.75988281 18.22320312 7.58617187 18.29796875 8.4375 18.375 C9.26121094 18.44460937 10.08492187 18.51421875 10.93359375 18.5859375 C11.61550781 18.72257812 12.29742187 18.85921875 13 19 C13.33 19.66 13.66 20.32 14 21 C10.04101558 22.97949221 5.30470062 22.55905203 1 22 C-1.92306132 19.89539585 -3.35183251 18.44591209 -4.8125 15.1875 C-5.10428901 11.78329487 -5.05693812 8.41628712 -5 5 C-3.68 4.67 -2.36 4.34 -1 4 C-0.67 2.68 -0.34 1.36 0 0 Z " fill="#F7BD10" transform="translate(132,83)"/>
<path d="M0 0 C2 2 2 2 3.3125 4.4375 C5.34275788 7.52048419 6.55241143 8.6509436 10 10 C14.19858795 9.98521624 18.02331417 9.32556194 22 8 C21.51644989 14.40703902 21.51644989 14.40703902 19.3125 16.9375 C16.2135552 18.3613395 14.37817188 18.55153827 11 18 C8.125 15.625 8.125 15.625 6 13 C6 12.34 6 11.68 6 11 C5.34 11 4.68 11 4 11 C3.67 9.68 3.34 8.36 3 7 C1.68 7.33 0.36 7.66 -1 8 C-1.93065133 5.39417629 -2.14917407 4.35801776 -1.0625 1.75 C-0.711875 1.1725 -0.36125 0.595 0 0 Z " fill="#E3F1F7" transform="translate(157,96)"/>
<path d="M0 0 C2.375 0.75 2.375 0.75 4.375 1.75 C4.375 2.41 4.375 3.07 4.375 3.75 C3.80910156 3.94335938 3.24320313 4.13671875 2.66015625 4.3359375 C1.55994141 4.72652344 1.55994141 4.72652344 0.4375 5.125 C-0.65884766 5.50785156 -0.65884766 5.50785156 -1.77734375 5.8984375 C-3.81182116 6.60271413 -3.81182116 6.60271413 -4.625 8.75 C-5.945 8.75 -7.265 8.75 -8.625 8.75 C-7.635 10.07 -6.645 11.39 -5.625 12.75 C-8.625 13.75 -8.625 13.75 -11.625 12.75 C-11.625 13.41 -11.625 14.07 -11.625 14.75 C-10.965 14.75 -10.305 14.75 -9.625 14.75 C-9.955 16.07 -10.285 17.39 -10.625 18.75 C-13.54523292 13.92526734 -14.74886 11.44755995 -14.625 5.75 C-13.965 5.42 -13.305 5.09 -12.625 4.75 C-12.295 6.07 -11.965 7.39 -11.625 8.75 C-9.40262727 7.86797637 -9.40262727 7.86797637 -8.25 5.375 C-6.01455176 1.7638913 -4.44306871 -0.4231494 0 0 Z " fill="#E05143" transform="translate(211.625,84.25)"/>
<path d="M0 0 C0.33 0 0.66 0 1 0 C1 12.21 1 24.42 1 37 C0.67 37 0.34 37 0 37 C0 27.76 0 18.52 0 9 C-2.31 9.33 -4.62 9.66 -7 10 C-9.4765625 9.84375 -9.4765625 9.84375 -11.625 9.5 C-15.00216938 9.04393781 -17.67898429 9.03583415 -21 10 C-20.42578125 8.046875 -20.42578125 8.046875 -19 6 C-15.91796875 5.390625 -15.91796875 5.390625 -12.1875 5.25 C-10.96417969 5.19328125 -9.74085938 5.1365625 -8.48046875 5.078125 C-5.65159256 5.0146261 -2.82932735 4.97844322 0 5 C0 3.35 0 1.7 0 0 Z " fill="#D5E9F5" transform="translate(184,71)"/>
<path d="M0 0 C5.94 0 11.88 0 18 0 C18 2.31 18 4.62 18 7 C17.34 7 16.68 7 16 7 C16 6.01 16 5.02 16 4 C15.34 4 14.68 4 14 4 C13.67 5.32 13.34 6.64 13 8 C13 7.01 13 6.02 13 5 C8.71 5 4.42 5 0 5 C0 3.35 0 1.7 0 0 Z " fill="#4086F6" transform="translate(75,84)"/>
<path d="M0 0 C1.65 0 3.3 0 5 0 C5 0.66 5 1.32 5 2 C6.65 2.33 8.3 2.66 10 3 C9.835 3.495 9.67 3.99 9.5 4.5 C8.46041108 9.6979446 8.71955702 14.87822809 10 20 C8.1875 20.625 8.1875 20.625 6 21 C5.01 20.34 4.02 19.68 3 19 C3.33 18.34 3.66 17.68 4 17 C4.52662774 11.27798702 4.67034314 6.69803922 1 2 C0.67 1.34 0.34 0.68 0 0 Z " fill="#F5F2EF" transform="translate(119,81)"/>
<path d="M0 0 C0 0.66 0 1.32 0 2 C-0.99 2.495 -0.99 2.495 -2 3 C-2.69937532 4.31647119 -3.36729133 5.65022151 -4 7 C-5 8 -5 8 -6.84765625 8.09765625 C-8.8984375 8.06510417 -10.94921875 8.03255208 -13 8 C-13.66 6.68 -14.32 5.36 -15 4 C-9.95670912 1.23819785 -5.74703318 0 0 0 Z " fill="#F1F8F9" transform="translate(220,93)"/>
<path d="M0 0 C1.62490954 -0.02698189 3.24994633 -0.04638757 4.875 -0.0625 C5.77992188 -0.07410156 6.68484375 -0.08570312 7.6171875 -0.09765625 C10 0 10 0 12 1 C12.33 2.65 12.66 4.3 13 6 C6.07 5.505 6.07 5.505 -1 5 C-0.67 3.35 -0.34 1.7 0 0 Z " fill="#F5BC10" transform="translate(136,79)"/>
<path d="M0 0 C1.11375 1.175625 1.11375 1.175625 2.25 2.375 C4.54433318 4.56504531 6.12158858 5.82731386 9 7 C9 7.66 9 8.32 9 9 C10.98 9 12.96 9 15 9 C15 9.33 15 9.66 15 10 C14.31292969 10.13277344 13.62585938 10.26554687 12.91796875 10.40234375 C11.56638672 10.66724609 11.56638672 10.66724609 10.1875 10.9375 C9.29417969 11.11152344 8.40085938 11.28554687 7.48046875 11.46484375 C4.88602829 11.97741153 4.88602829 11.97741153 2 13 C1.34 12.67 0.68 12.34 0 12 C0 8.04 0 4.08 0 0 Z " fill="#F3F7F8" transform="translate(199,69)"/>
<path d="M0 0 C0.33 1.32 0.66 2.64 1 4 C1.75925781 3.98839844 2.51851562 3.97679688 3.30078125 3.96484375 C4.29464844 3.95582031 5.28851563 3.94679688 6.3125 3.9375 C7.29863281 3.92589844 8.28476563 3.91429688 9.30078125 3.90234375 C12 4 12 4 15 5 C14.67 3.68 14.34 2.36 14 1 C15.32 1.66 16.64 2.32 18 3 C17.01 5.31 16.02 7.62 15 10 C14.525625 9.360625 14.05125 8.72125 13.5625 8.0625 C9.94579965 5.15149728 6.52795106 5.19350218 2 5 C1.34 6.65 0.68 8.3 0 10 C-0.33 10 -0.66 10 -1 10 C-0.67 7.69 -0.34 5.38 0 3 C-0.99 3.495 -0.99 3.495 -2 4 C-2.33 4.99 -2.66 5.98 -3 7 C-3.99 7 -4.98 7 -6 7 C-4.60667426 3.63279613 -3.0210714 2.0140476 0 0 Z " fill="#EEC730" transform="translate(134,80)"/>
<path d="M0 0 C1.98 0.66 3.96 1.32 6 2 C5.00449135 4.6245228 4.06036546 5.95028727 1.875 7.75 C-1.80836696 9.3514639 -5.07582472 9.59665823 -9 9 C-12.5 7.5 -12.5 7.5 -15 6 C-14.34 5.67 -13.68 5.34 -13 5 C-12.34 5.33 -11.68 5.66 -11 6 C-5.67032792 6.34092041 -5.67032792 6.34092041 -1 4 C-1 3.01 -1 2.02 -1 1 C-0.67 0.67 -0.34 0.34 0 0 Z " fill="#DD4B45" transform="translate(217,98)"/>
<path d="M0 0 C2.50828536 1.90354807 3.00135005 3.00579726 3.73046875 6.13671875 C3.88128906 7.30847656 4.03210938 8.48023437 4.1875 9.6875 C4.34605469 10.86699219 4.50460938 12.04648438 4.66796875 13.26171875 C4.77753906 14.16535156 4.88710937 15.06898437 5 16 C3.68 15.67 2.36 15.34 1 15 C0.67 12.69 0.34 10.38 0 8 C-2.97 8 -5.94 8 -9 8 C-5 6 -5 6 -2 6 C-2 5.34 -2 4.68 -2 4 C-1.34 4 -0.68 4 0 4 C0 2.68 0 1.36 0 0 Z " fill="#4587F6" transform="translate(179,96)"/>
<path d="M0 0 C1.65 0 3.3 0 5 0 C5 9.9 5 19.8 5 30 C4.67 30 4.34 30 4 30 C3.81824219 28.98679687 3.81824219 28.98679687 3.6328125 27.953125 C3.46523437 27.06109375 3.29765625 26.1690625 3.125 25.25 C2.96257812 24.36828125 2.80015625 23.4865625 2.6328125 22.578125 C2.10347524 20.01117679 2.10347524 20.01117679 0.9375 17.875 C-0.38385008 15.23229983 -0.13209837 12.90616409 0 10 C0.33 10 0.66 10 1 10 C1.66 11.98 2.32 13.96 3 16 C2.979375 14.741875 2.95875 13.48375 2.9375 12.1875 C2.89113917 9.35948913 3.08307039 7.75078884 4 5 C3.34 5 2.68 5 2 5 C2 4.01 2 3.02 2 2 C1.34 2 0.68 2 0 2 C0 1.34 0 0.68 0 0 Z " fill="#3C7BE2" transform="translate(179,80)"/>
<path d="M0 0 C6.4 0.36923077 6.4 0.36923077 9.4375 3.5625 C9.953125 4.366875 10.46875 5.17125 11 6 C10.38125 6.103125 9.7625 6.20625 9.125 6.3125 C6.63473516 6.87525373 6.63473516 6.87525373 5 10 C0 4.5 0 4.5 0 0 Z " fill="#E44033" transform="translate(112,80)"/>
<path d="M0 0 C2 3.75 2 3.75 2 6 C2.99 6 3.98 6 5 6 C5.33 4.35 5.66 2.7 6 1 C6.33 1 6.66 1 7 1 C7.12117187 1.63808594 7.24234375 2.27617188 7.3671875 2.93359375 C7.53476563 3.75988281 7.70234375 4.58617188 7.875 5.4375 C8.11863281 6.67306641 8.11863281 6.67306641 8.3671875 7.93359375 C8.68042969 8.95646484 8.68042969 8.95646484 9 10 C9.66 10.33 10.32 10.66 11 11 C8.36 11.33 5.72 11.66 3 12 C0.58314288 7.77050005 -0.34833144 4.87664009 0 0 Z " fill="#538DEE" transform="translate(157,90)"/>
<path d="M0 0 C0.66 0.33 1.32 0.66 2 1 C2 1.66 2 2.32 2 3 C-1.96 4.32 -5.92 5.64 -10 7 C-9 2 -9 2 -7.25 0.125 C-4.3709768 -1.3145116 -3.02029099 -0.9537761 0 0 Z " fill="#F4E8E2" transform="translate(214,85)"/>
<path d="M0 0 C1.30048841 2.60097682 1.56471422 5.13955062 2 8 C1.01 8 0.02 8 -1 8 C-1 8.66 -1 9.32 -1 10 C-4.3 10 -7.6 10 -11 10 C-11 9.34 -11 8.68 -11 8 C-7.7 7.67 -4.4 7.34 -1 7 C-2.12534105 5.64381501 -2.12534105 5.64381501 -5.0625 5.9375 C-6.031875 5.958125 -7.00125 5.97875 -8 6 C-8.33 5.34 -8.66 4.68 -9 4 C-6.36 3.67 -3.72 3.34 -1 3 C-0.67 2.01 -0.34 1.02 0 0 Z " fill="#EEC22A" transform="translate(147,97)"/>
<path d="M0 0 C3 1 3 1 4 2 C5.98 1.34 7.96 0.68 10 0 C9.67 1.32 9.34 2.64 9 4 C9.66 4.33 10.32 4.66 11 5 C10 6 10 6 6.125 6.25 C2.29674306 6.2225573 2.29674306 6.2225573 0 4.5 C-0.33 4.005 -0.66 3.51 -1 3 C-0.67 2.01 -0.34 1.02 0 0 Z " fill="#E34439" transform="translate(104,101)"/>
<path d="M0 0 C1.98 0.495 1.98 0.495 4 1 C4 4.96 4 8.92 4 13 C3.01 13.495 3.01 13.495 2 14 C1.47216999 11.85587698 0.95290681 9.70964319 0.4375 7.5625 C0.00244141 5.77005859 0.00244141 5.77005859 -0.44140625 3.94140625 C-0.62574219 2.97074219 -0.81007813 2.00007813 -1 1 C-0.67 0.67 -0.34 0.34 0 0 Z " fill="#E74432" transform="translate(98,87)"/>
<path d="M0 0 C0.66 0.33 1.32 0.66 2 1 C1.835 1.680625 1.67 2.36125 1.5 3.0625 C0.5718134 8.5155963 0.94515728 13.59393108 2 19 C0.68 19 -0.64 19 -2 19 C-2.93970789 14.58601998 -2.9309567 11.12026185 -2.125 6.6875 C-1.94195312 5.63949219 -1.75890625 4.59148437 -1.5703125 3.51171875 C-1 1 -1 1 0 0 Z " fill="#FAF4F1" transform="translate(96,83)"/>
<path d="M0 0 C-0.33 0.99 -0.66 1.98 -1 3 C-1.66 2.67 -2.32 2.34 -3 2 C-3.66 5.96 -4.32 9.92 -5 14 C-6.27008829 8.91964685 -5.61449736 5.18908879 -5 0 C-10.28 0 -15.56 0 -21 0 C-21 -0.33 -21 -0.66 -21 -1 C-13.52256339 -1.84349132 -7.19701539 -2.39900513 0 0 Z " fill="#ECF3F2" transform="translate(99,82)"/>
<path d="M0 0 C0.33 0.99 0.66 1.98 1 3 C1.99 3.33 2.98 3.66 4 4 C3.67 4.99 3.34 5.98 3 7 C2.92970879 9.57265818 2.90629168 12.11641431 2.9375 14.6875 C2.94201172 15.38939453 2.94652344 16.09128906 2.95117188 16.81445312 C2.96293073 18.54300538 2.98086546 20.27151365 3 22 C2.34 22 1.68 22 1 22 C1 18.04 1 14.08 1 10 C0.34 10 -0.32 10 -1 10 C-1.33 8.35 -1.66 6.7 -2 5 C-1.67 5 -1.34 5 -1 5 C-0.67 3.35 -0.34 1.7 0 0 Z " fill="#DDECF4" transform="translate(50,72)"/>
<path d="M0 0 C0.66 0 1.32 0 2 0 C2.33 1.32 2.66 2.64 3 4 C2.34 4 1.68 4 1 4 C1.03480469 4.90363281 1.06960937 5.80726562 1.10546875 6.73828125 C1.13253906 7.91777344 1.15960938 9.09726563 1.1875 10.3125 C1.22230469 11.48425781 1.25710937 12.65601562 1.29296875 13.86328125 C1 17 1 17 -0.51171875 18.91796875 C-1.24841797 19.45357422 -1.24841797 19.45357422 -2 20 C-3.125 15.25 -3.125 15.25 -2 13 C-1.79792056 11.5461507 -1.63595501 10.08651638 -1.5 8.625 C-1.22175328 5.6537225 -0.78907653 2.88012934 0 0 Z " fill="#F4BC06" transform="translate(150,84)"/>
<path d="M0 0 C1.32 0 2.64 0 4 0 C5.00109515 3.31070838 5.10356134 6.30084769 5.0625 9.75 C5.05347656 10.73484375 5.04445312 11.7196875 5.03515625 12.734375 C5.02355469 13.48203125 5.01195312 14.2296875 5 15 C3.02 15.99 3.02 15.99 1 17 C1.165 16.34 1.33 15.68 1.5 15 C2.3586349 9.84819061 3.03742032 4.55613047 0 0 Z " fill="#FCF9ED" transform="translate(152,84)"/>
<path d="M0 0 C0.33 0.99 0.66 1.98 1 3 C1.99 3.33 2.98 3.66 4 4 C3.34 5.32 2.68 6.64 2 8 C-0.375 7.8125 -0.375 7.8125 -3 7 C-4.3125 4.4375 -4.3125 4.4375 -5 2 C-3.35 1.34 -1.7 0.68 0 0 Z " fill="#F9FAF8" transform="translate(151,103)"/>
<path d="M0 0 C-0.99 0.33 -1.98 0.66 -3 1 C-3.33 1.66 -3.66 2.32 -4 3 C-4.61875 2.505 -5.2375 2.01 -5.875 1.5 C-10.99669358 -0.95841292 -16.64127009 -0.7862433 -22 1 C-22 0.01 -22 -0.98 -22 -2 C-19.45884191 -2.25049421 -16.91944416 -2.47583433 -14.375 -2.6875 C-13.66214844 -2.76033203 -12.94929687 -2.83316406 -12.21484375 -2.90820312 C-7.29420337 -3.29192279 -4.33311615 -2.65864697 0 0 Z " fill="#F9F5DF" transform="translate(155,80)"/>
<path d="M0 0 C2.0625 0.4375 2.0625 0.4375 4 1 C3.401875 1.226875 2.80375 1.45375 2.1875 1.6875 C-2.17196135 4.30317681 -3.83345646 9.56374418 -6 14 C-6.66 13.34 -7.32 12.68 -8 12 C-7.875 9.5 -7.875 9.5 -7 7 C-5.0625 5.9375 -5.0625 5.9375 -3 5 C-1.79117904 2.99983534 -1.79117904 2.99983534 -1 1 C-0.67 0.67 -0.34 0.34 0 0 Z " fill="#ECF5F4" transform="translate(164,76)"/>
<path d="M0 0 C2.96527758 2.4453385 3.55582214 4.44602347 4.1875 8.1875 C4.34605469 9.08855469 4.50460938 9.98960938 4.66796875 10.91796875 C4.83232422 11.94857422 4.83232422 11.94857422 5 13 C3.1875 13.625 3.1875 13.625 1 14 C0.01 13.34 -0.98 12.68 -2 12 C-1.67 11.34 -1.34 10.68 -1 10 C-0.77377919 8.29636178 -0.59111527 6.58671299 -0.4375 4.875 C-0.35371094 3.96492188 -0.26992187 3.05484375 -0.18359375 2.1171875 C-0.12300781 1.41851562 -0.06242187 0.71984375 0 0 Z " fill="#F6E3CD" transform="translate(124,88)"/>
<path d="M0 0 C4.29 0 8.58 0 13 0 C13 0.33 13 0.66 13 1 C10.36 1.33 7.72 1.66 5 2 C5 2.33 5 2.66 5 3 C7.64 3.33 10.28 3.66 13 4 C13 4.33 13 4.66 13 5 C8.71 5 4.42 5 0 5 C0 3.35 0 1.7 0 0 Z " fill="#2B7EED" transform="translate(75,84)"/>
<path d="M0 0 C1.32 0.33 2.64 0.66 4 1 C4 5 4 5 3 7 C-0.14737182 6.30058404 -3.02588876 5.23921302 -6 4 C-6 3.67 -6 3.34 -6 3 C-4.02 3 -2.04 3 0 3 C0 2.01 0 1.02 0 0 Z " fill="#4F89E7" transform="translate(83,66)"/>
<path d="M0 0 C1.32 0 2.64 0 4 0 C4 1.98 4 3.96 4 6 C2.02 6.99 2.02 6.99 0 8 C-0.79953138 4.71303767 -1.09658936 3.28976808 0 0 Z " fill="#F2F9FB" transform="translate(113,88)"/>
<path d="M0 0 C1.65 0 3.3 0 5 0 C5 0.66 5 1.32 5 2 C6.98 2 8.96 2 11 2 C11 2.33 11 2.66 11 3 C10.31292969 3.13277344 9.62585938 3.26554687 8.91796875 3.40234375 C7.56638672 3.66724609 7.56638672 3.66724609 6.1875 3.9375 C4.84751953 4.19853516 4.84751953 4.19853516 3.48046875 4.46484375 C0.88602829 4.97741153 0.88602829 4.97741153 -2 6 C-2.66 5.34 -3.32 4.68 -4 4 C-3.01 3.67 -2.02 3.34 -1 3 C-0.67 2.01 -0.34 1.02 0 0 Z " fill="#F6EBE5" transform="translate(203,76)"/>
<path d="M0 0 C0.8723412 2.99480917 1.10829766 5.63575911 1.0625 8.75 C1.05347656 9.54921875 1.04445312 10.3484375 1.03515625 11.171875 C1.01775391 12.07679687 1.01775391 12.07679687 1 13 C-0.90294128 11.39831592 -1.90495491 10.51610505 -2.36328125 8.02734375 C-2.22222222 2.22222222 -2.22222222 2.22222222 0 0 Z " fill="#4186F6" transform="translate(182,85)"/>
<path d="M0 0 C0 0.66 0 1.32 0 2 C-3 4 -3 4 -5.5625 4.5 C-8.16854564 4.80148247 -8.16854564 4.80148247 -10 7 C-10 6.34 -10 5.68 -10 5 C-10.66 4.67 -11.32 4.34 -12 4 C-11.34 3.34 -10.68 2.68 -10 2 C-9.01 2.33 -8.02 2.66 -7 3 C-7 2.34 -7 1.68 -7 1 C-4.50935112 0.31292445 -2.62113708 0 0 0 Z " fill="#518BEA" transform="translate(170,83)"/>
<path d="M0 0 C2.97 0 5.94 0 9 0 C9 0.99 9 1.98 9 3 C5.625 3.625 5.625 3.625 2 4 C1.34 3.34 0.68 2.68 0 2 C0 1.34 0 0.68 0 0 Z " fill="#F6F8F6" transform="translate(168,108)"/>
<path d="M0 0 C0 1.33333333 0 2.66666667 0 4 C0.66 4 1.32 4 2 4 C2 4.66 2 5.32 2 6 C-0.31 6 -2.62 6 -5 6 C-5 5.34 -5 4.68 -5 4 C-7.31 4 -9.62 4 -12 4 C-12 3.67 -12 3.34 -12 3 C-10.82630859 2.80083984 -10.82630859 2.80083984 -9.62890625 2.59765625 C-8.61699219 2.42105469 -7.60507813 2.24445313 -6.5625 2.0625 C-5.55316406 1.88847656 -4.54382813 1.71445313 -3.50390625 1.53515625 C-1.0712562 1.25248903 -1.0712562 1.25248903 0 0 Z " fill="#F5EBE8" transform="translate(118,104)"/>
<path d="M0 0 C0.66 0 1.32 0 2 0 C2 0.99 2 1.98 2 3 C2.66 3 3.32 3 4 3 C4 4.65 4 6.3 4 8 C3.34 7.01 2.68 6.02 2 5 C1.34 5.66 0.68 6.32 0 7 C-1 8 -2 9 -3 10 C-3.66 9.67 -4.32 9.34 -5 9 C-3.625 6.5 -3.625 6.5 -2 4 C-1.34 4 -0.68 4 0 4 C0 2.68 0 1.36 0 0 Z " fill="#4785E3" transform="translate(89,88)"/>
<path d="M0 0 C0.680625 0.33 1.36125 0.66 2.0625 1 C5.50840238 2.17307315 8.38397422 2.14180493 12 2 C12 2.66 12 3.32 12 4 C9.59454362 5.20272819 8.05003047 5.10071472 5.375 5.0625 C4.14910156 5.04896484 4.14910156 5.04896484 2.8984375 5.03515625 C1.95871094 5.01775391 1.95871094 5.01775391 1 5 C0.67 3.35 0.34 1.7 0 0 Z " fill="#F8BC01" transform="translate(134,100)"/>
<path d="M0 0 C0.66 0.33 1.32 0.66 2 1 C1.01 1.33 0.02 1.66 -1 2 C-1 2.66 -1 3.32 -1 4 C-1.99 4.495 -1.99 4.495 -3 5 C-0.69 5.33 1.62 5.66 4 6 C4 6.33 4 6.66 4 7 C1.36 7 -1.28 7 -4 7 C-4.66 5.68 -5.32 4.36 -6 3 C-4.03533587 1.93224776 -2.03144641 0.93446535 0 0 Z " fill="#F7E3DD" transform="translate(211,94)"/>
<path d="M0 0 C0.94875 0.309375 1.8975 0.61875 2.875 0.9375 C7.50938425 2.27928271 12.20552041 2.63342007 17 3 C17 3.33 17 3.66 17 4 C11.72 4 6.44 4 1 4 C0.67 2.68 0.34 1.36 0 0 Z " fill="#DDEEF8" transform="translate(63,104)"/>
<path d="M0 0 C2 2 2 2 3.25 4.4375 C5.40274648 7.58973591 7.52983853 8.53482071 11 10 C8.39417629 10.93065133 7.35801776 11.14917407 4.75 10.0625 C4.1725 9.711875 3.595 9.36125 3 9 C3 8.34 3 7.68 3 7 C2.34 7 1.68 7 1 7 C0.67 4.69 0.34 2.38 0 0 Z " fill="#F7DCD8" transform="translate(197,96)"/>
<path d="M0 0 C1.216875 0.33 2.43375 0.66 3.6875 1 C6.87210604 1.80322213 9.6972843 2.20641973 13 2 C13 2.66 13 3.32 13 4 C11.39620659 4.05416188 9.79188594 4.09286638 8.1875 4.125 C7.29417969 4.14820312 6.40085938 4.17140625 5.48046875 4.1953125 C3 4 3 4 0 2 C0 1.34 0 0.68 0 0 Z " fill="#3C88F8" transform="translate(163,114)"/>
<path d="M0 0 C0.78375 0.04125 1.5675 0.0825 2.375 0.125 C1.385 0.785 0.395 1.445 -0.625 2.125 C0.035 4.105 0.695 6.085 1.375 8.125 C-1.0625 7.375 -1.0625 7.375 -3.625 6.125 C-4.5625 4.125 -4.5625 4.125 -4.625 2.125 C-2.625 0.125 -2.625 0.125 0 0 Z " fill="#E4F3FB" transform="translate(160.625,108.875)"/>
<path d="M0 0 C0.66 0 1.32 0 2 0 C3.39300182 1.95890881 4.72245446 3.9639118 6 6 C6.99 7.485 6.99 7.485 8 9 C5.0280615 7.87548273 2.66559313 6.77706209 0 5 C-0.1875 2.375 -0.1875 2.375 0 0 Z " fill="#E9F5FC" transform="translate(52,94)"/>
<path d="M0 0 C1.65 0 3.3 0 5 0 C5 0.66 5 1.32 5 2 C3.68 2 2.36 2 1 2 C1 2.99 1 3.98 1 5 C-0.65 4.67 -2.3 4.34 -4 4 C-4 3.34 -4 2.68 -4 2 C-2.68 2 -1.36 2 0 2 C0 1.34 0 0.68 0 0 Z " fill="#EB3E2F" transform="translate(207,91)"/>
<path d="M0 0 C0.66 1.32 1.32 2.64 2 4 C-1.13498292 5.85776765 -3.37471432 6.20140476 -7 6 C-6.01 5.67 -5.02 5.34 -4 5 C-4 4.01 -4 3.02 -4 2 C-2.68 1.34 -1.36 0.68 0 0 Z " fill="#4B89EC" transform="translate(82,98)"/>
<path d="M0 0 C0.99 0.33 1.98 0.66 3 1 C4.66362417 1.34820041 6.32995171 1.68404492 8 2 C6.35 3.32 4.7 4.64 3 6 C2.34 5.67 1.68 5.34 1 5 C1 4.01 1 3.02 1 2 C0.34 1.67 -0.32 1.34 -1 1 C-0.67 0.67 -0.34 0.34 0 0 Z " fill="#E04E44" transform="translate(201,82)"/>
<path d="M0 0 C0.33 0.66 0.66 1.32 1 2 C0 5 0 5 -2 6 C-3.99960012 6.039992 -6.00047242 6.04346799 -8 6 C-8.33 5.34 -8.66 4.68 -9 4 C-6.36 3.67 -3.72 3.34 -1 3 C-0.67 2.01 -0.34 1.02 0 0 Z " fill="#EEC637" transform="translate(147,97)"/>
<path d="M0 0 C0.33 0.99 0.66 1.98 1 3 C0.34 3 -0.32 3 -1 3 C-1.33 3.99 -1.66 4.98 -2 6 C-4.64 6 -7.28 6 -10 6 C-6.79663178 3.16625119 -4.21912747 2.4794463 0 2 C0 1.34 0 0.68 0 0 Z " fill="#F7DCD5" transform="translate(223,88)"/>
<path d="M0 0 C-0.99 0.495 -0.99 0.495 -2 1 C-2 2.32 -2 3.64 -2 5 C-2.99 4.67 -3.98 4.34 -5 4 C-5 3.34 -5 2.68 -5 2 C-5.99 2.33 -6.98 2.66 -8 3 C-8.66 2.34 -9.32 1.68 -10 1 C-6.78548731 -0.60725635 -3.56387464 -0.05748185 0 0 Z " fill="#D43C2C" transform="translate(114,79)"/>
<path d="M0 0 C2.97 0.33 5.94 0.66 9 1 C8.67 1.66 8.34 2.32 8 3 C7.67 3.99 7.34 4.98 7 6 C5.35 5.67 3.7 5.34 2 5 C2.66 4.67 3.32 4.34 4 4 C4 3.34 4 2.68 4 2 C2.68 1.34 1.36 0.68 0 0 Z " fill="#437DDE" transform="translate(168,79)"/>
<path d="M0 0 C-0.66 1.65 -1.32 3.3 -2 5 C-2.99 5 -3.98 5 -5 5 C-5.33 4.01 -5.66 3.02 -6 2 C-3 0 -3 0 0 0 Z " fill="#417FE5" transform="translate(183,111)"/>
<path d="M0 0 C0.99 0 1.98 0 3 0 C3 0.66 3 1.32 3 2 C3.66 2 4.32 2 5 2 C5 1.34 5 0.68 5 0 C5.66 0 6.32 0 7 0 C6.67 0.99 6.34 1.98 6 3 C3.69 3.33 1.38 3.66 -1 4 C-0.67 2.68 -0.34 1.36 0 0 Z " fill="#E94436" transform="translate(204,80)"/>
<path d="M0 0 C1.32 0.66 2.64 1.32 4 2 C3.01 4.31 2.02 6.62 1 9 C-0.61949011 6.42786866 -1.04408751 5.32330841 -0.625 2.25 C-0.41875 1.5075 -0.2125 0.765 0 0 Z " fill="#F0BE24" transform="translate(148,81)"/>
<path d="M0 0 C0.99 0.99 1.98 1.98 3 3 C2.071875 3.1546875 2.071875 3.1546875 1.125 3.3125 C-1.36526484 3.87525373 -1.36526484 3.87525373 -3 7 C-3.99 5.35 -4.98 3.7 -6 2 C-4.02 2 -2.04 2 0 2 C0 1.34 0 0.68 0 0 Z " fill="#DE5B53" transform="translate(120,83)"/>
<path d="M0 0 C0.103125 0.598125 0.20625 1.19625 0.3125 1.8125 C1.08876455 4.28243264 2.07088921 5.32251235 4 7 C1.625 6.8125 1.625 6.8125 -1 6 C-2.3125 3.4375 -2.3125 3.4375 -3 1 C-2.01 0.67 -1.02 0.34 0 0 Z " fill="#F9F0D9" transform="translate(149,104)"/>
<path d="M0 0 C2.31 0 4.62 0 7 0 C6.01 1.98 5.02 3.96 4 6 C3.34 5.67 2.68 5.34 2 5 C2.33 4.01 2.66 3.02 3 2 C2.01 2 1.02 2 0 2 C0 1.34 0 0.68 0 0 Z " fill="#DDF5E7" transform="translate(188,106)"/>
<path d="M0 0 C0.33 0.99 0.66 1.98 1 3 C-0.9375 6.1875 -0.9375 6.1875 -3 9 C-3.99 8.01 -4.98 7.02 -6 6 C-4.68 6 -3.36 6 -2 6 C-2 4.68 -2 3.36 -2 2 C-1.34 2 -0.68 2 0 2 C0 1.34 0 0.68 0 0 Z " fill="#E2EFF9" transform="translate(87,89)"/>
<path d="M0 0 C0 0.66 0 1.32 0 2 C-3.21451269 3.60725635 -6.43612536 3.05748185 -10 3 C-4 0 -4 0 0 0 Z " fill="#F8F2D8" transform="translate(146,98)"/>
<path d="M0 0 C2 3.75 2 3.75 2 6 C2.66 6 3.32 6 4 6 C4.33 6.99 4.66 7.98 5 9 C4.01 9.33 3.02 9.66 2 10 C-0.09350689 6.5980513 -0.17942163 3.94727588 0 0 Z " fill="#5592E4" transform="translate(157,90)"/>
<path d="M0 0 C0.33 0 0.66 0 1 0 C1.33 2.97 1.66 5.94 2 9 C0.02 9.99 0.02 9.99 -2 11 C-1.34 7.37 -0.68 3.74 0 0 Z " fill="#F8F2D1" transform="translate(155,90)"/>
<path d="M0 0 C2.0625 0.4375 2.0625 0.4375 4 1 C4 2.98 4 4.96 4 7 C3.67 5.68 3.34 4.36 3 3 C2.34 3 1.68 3 1 3 C0.67 3.66 0.34 4.32 0 5 C-0.5625 3.0625 -0.5625 3.0625 -1 1 C-0.67 0.67 -0.34 0.34 0 0 Z " fill="#E8362B" transform="translate(98,87)"/>
<path d="M0 0 C0.66 0 1.32 0 2 0 C2.33 1.98 2.66 3.96 3 6 C1.68 6 0.36 6 -1 6 C-0.67 4.02 -0.34 2.04 0 0 Z " fill="#F3ECE8" transform="translate(95,96)"/>
<path d="M0 0 C2.31 0 4.62 0 7 0 C6.67 0.99 6.34 1.98 6 3 C4.35 3 2.7 3 1 3 C0.67 2.01 0.34 1.02 0 0 Z " fill="#4285F8" transform="translate(166,80)"/>
</svg>
