<?xml version="1.0" encoding="UTF-8"?>
<svg version="1.1" xmlns="http://www.w3.org/2000/svg" width="1440" height="1024">
<path d="M0 0 C475.2 0 950.4 0 1440 0 C1440 337.92 1440 675.84 1440 1024 C964.8 1024 489.6 1024 0 1024 C0 686.08 0 348.16 0 0 Z " fill="#FEFEFE" transform="translate(0,0)"/>
<path d="M0 0 C1.05426178 -0.00018127 1.05426178 -0.00018127 2.12982178 -0.00036621 C21.83598941 0.04729078 40.09881597 3.28468426 59.1875 8.375 C59.1875 124.205 59.1875 240.035 59.1875 359.375 C35.68894634 365.24963841 35.68894634 365.24963841 26.75 366.1875 C25.67927246 366.30367676 24.60854492 366.41985352 23.50537109 366.53955078 C-23.89684916 371.18334065 -72.959958 360.85214726 -111.8125 332.375 C-112.864375 331.60671875 -113.91625 330.8384375 -115 330.046875 C-122.72583845 324.29874158 -129.84473042 318.01342154 -136.8125 311.375 C-137.46863281 310.76011719 -138.12476563 310.14523437 -138.80078125 309.51171875 C-163.5868383 285.63733276 -178.05071852 254.12865345 -186.8125 221.375 C-187.10713135 220.28541992 -187.10713135 220.28541992 -187.40771484 219.17382812 C-190.23834681 208.06799938 -190.08908431 196.69777348 -190.125 185.3125 C-190.12885712 184.55385651 -190.13271423 183.79521301 -190.13668823 183.01358032 C-190.17194488 168.90996988 -189.48104398 154.64421839 -185.625 141 C-185.40924316 140.21802246 -185.19348633 139.43604492 -184.97119141 138.63037109 C-176.20795964 107.77713499 -160.66793641 81.7680048 -138.8125 58.375 C-138.05324219 57.56160156 -137.29398438 56.74820313 -136.51171875 55.91015625 C-116.13891493 34.80379812 -89.64246488 19.21951265 -61.8125 10.375 C-60.79414062 10.01019531 -59.77578125 9.64539063 -58.7265625 9.26953125 C-52.92334766 7.19468321 -47.06317941 5.62476866 -41.0625 4.25 C-40.38453369 4.09128418 -39.70656738 3.93256836 -39.00805664 3.76904297 C-26.14102933 0.94728741 -13.15129448 -0.03534555 0 0 Z " fill="#6CA0F5" transform="translate(1380.8125,112.625)"/>
<path d="M0 0 C25.51558016 23.50756978 42.79589262 54.51625335 51.8125 87.8125 C52.00755127 88.52792969 52.20260254 89.24335938 52.40356445 89.98046875 C55.62033827 102.55809692 56.38129992 115.0910648 56.3125 128 C56.30968018 128.76690155 56.30686035 129.5338031 56.30395508 130.32394409 C56.02648231 180.75134849 35.80437499 225.66249155 0.25195312 261.11865234 C-19.38894171 280.07931828 -43.59556534 293.47989249 -69 303 C-69.82008545 303.31952637 -70.6401709 303.63905273 -71.48510742 303.96826172 C-78.13038699 306.49533151 -84.71957496 308.24115797 -91.6875 309.625 C-92.74493408 309.83664795 -93.80236816 310.0482959 -94.8918457 310.26635742 C-97.9249491 310.86141461 -100.96093854 311.43625199 -104 312 C-104.72316406 312.13712402 -105.44632812 312.27424805 -106.19140625 312.41552734 C-125.81450321 315.98656835 -152.83178536 317.38940488 -172 311 C-172 191.87 -172 72.74 -172 -50 C-107.74579552 -59.17917207 -48.58958328 -43.55518375 0 0 Z " fill="#EF6D60" transform="translate(172,417)"/>
<path d="M0 0 C19.48886533 15.73798008 35.37810545 38.91265373 38.90625 64.16015625 C42.28903249 97.60560961 34.93632181 124.60849311 14.27734375 150.859375 C-3.5126647 171.81205161 -29.89711035 184.49279921 -57.05566406 187.01074219 C-88.65150338 189.54937432 -116.57122301 180.82159032 -140.828125 160.59375 C-157.69988196 146.06573601 -167.86606804 127.52248183 -173.64453125 106.21875 C-173.99644531 105.07664062 -174.34835937 103.93453125 -174.7109375 102.7578125 C-180.944603 79.12726463 -175.34221852 52.44919649 -163.57128906 31.42700195 C-147.85057191 4.68042686 -123.01208521 -12.53639142 -93.33203125 -20.69140625 C-61.23425304 -28.25831668 -25.91260549 -20.1381124 0 0 Z " fill="#61BC79" transform="translate(1195.64453125,542.78125)"/>
<path d="M0 0 C16.32573088 13.42932838 28.37148966 29.8178386 35.09765625 49.9609375 C35.51273438 51.19714844 35.9278125 52.43335938 36.35546875 53.70703125 C44.07821093 79.59288099 39.52380336 108.27895624 27.22265625 131.8359375 C23.81737091 138.12293033 19.81641074 143.60280979 15.09765625 148.9609375 C14.4221875 149.77949219 13.74671875 150.59804688 13.05078125 151.44140625 C-4.47344039 172.06754303 -30.59586905 184.24895819 -57.30371094 186.77050781 C-89.7260418 189.14643961 -118.50908718 179.85496356 -143.15234375 158.5859375 C-158.61143896 144.12743098 -168.23129486 126.15092175 -173.90234375 105.9609375 C-174.11890625 105.20683594 -174.33546875 104.45273438 -174.55859375 103.67578125 C-175.88079692 98.78557395 -176.58093932 94.00114335 -176.90234375 88.9609375 C-177.01835937 87.31738281 -177.01835937 87.31738281 -177.13671875 85.640625 C-177.73307939 69.50575657 -174.23583894 52.37504873 -166.90234375 37.9609375 C-166.4125 36.93484375 -165.92265625 35.90875 -165.41796875 34.8515625 C-152.48583068 9.11044959 -129.9249277 -8.57027218 -103.08984375 -18.2265625 C-68.19091694 -29.12962591 -28.80285364 -22.85126176 0 0 Z " fill="#F9BD38" transform="translate(359.90234375,137.0390625)"/>
<path d="M0 0 C1.46953125 0.52787109 1.46953125 0.52787109 2.96875 1.06640625 C18.98891355 7.19533246 31.63672681 18.43361079 39 34 C44.97297725 47.70062734 44.93327425 62.19929242 39.69116211 76.07910156 C37.05203353 82.44780856 33.53972859 87.80574492 29 93 C28.33355469 93.78761719 27.66710937 94.57523437 26.98046875 95.38671875 C15.99810583 107.38785374 -0.12330846 114.3855756 -16.2578125 115.44140625 C-35.23681114 116.12215981 -51.90962796 110.97190392 -66.46484375 98.40625 C-77.06505116 88.34503619 -84.52625018 75.14501204 -85.37109375 60.3359375 C-85.81282721 42.53835375 -81.09395298 28.76569066 -68.875 15.3125 C-58.89833597 6.10153931 -47.93035631 1.42769209 -35 -2 C-24.69215847 -5.43594718 -9.94597023 -3.91858637 0 0 Z " fill="#61BC79" transform="translate(499,415)"/>
<path d="M0 0 C11.49056479 9.71663894 19.64186056 22.74145232 21.14794922 37.90869141 C22.32120118 54.87881241 17.85477788 69.93739845 6.68359375 83 C-5.98948169 96.3489728 -23.02149457 103.46823079 -41.29492188 104.203125 C-59.44546834 104.53238661 -75.5013162 98.64162272 -88.78125 86.03515625 C-95.05245388 79.76395237 -99.58999719 73.97350558 -103.06640625 65.75 C-103.46085938 64.84507812 -103.8553125 63.94015625 -104.26171875 63.0078125 C-109.39809385 49.75380963 -108.04478747 35.7214555 -102.84765625 22.6953125 C-99.41511194 15.20092409 -94.90018304 9.52332315 -89.06640625 3.75 C-88.17888672 2.81220703 -88.17888672 2.81220703 -87.2734375 1.85546875 C-63.59199043 -21.30320907 -25.15800534 -18.45988672 0 0 Z " fill="#F9BD38" transform="translate(984.06640625,328.25)"/>
<path d="M0 0 C0.73605469 0.27714844 1.47210937 0.55429688 2.23046875 0.83984375 C12.36456684 5.22926348 20.25877201 14.21344193 25 24 C28.31927259 34.06201017 27.58588115 44.1228754 24 54 C18.24698835 64.82002734 9.23202863 72.38122187 -2 77 C-2.74507812 77.3196875 -3.49015625 77.639375 -4.2578125 77.96875 C-17.51799106 82.82332385 -32.49719113 80.49632239 -45.0625 74.875 C-55.36361276 69.40509275 -63.48041578 60.68932246 -67.875 49.875 C-70.69351085 40.14604387 -70.02121972 29.89746822 -65.6796875 20.78515625 C-58.45684219 8.80867089 -47.37209601 0.42791222 -33.9375 -3.25 C-22.16430306 -5.51012507 -11.10892347 -4.4097663 0 0 Z " fill="#6CA0F5" transform="translate(635,212)"/>
<path d="M0 0 C8.70551321 6.81605295 13.90579176 14.33065653 17.4296875 24.90234375 C18.38652703 36.68245011 16.91847394 47.70674531 9.18359375 57.03125 C-0.77609256 67.65639419 -11.82230999 73.74809855 -26.47265625 75.1875 C-42.28219281 75.67557965 -55.95060253 71.32086432 -67.5703125 60.40234375 C-75.69657353 51.51173143 -79.1876804 42.13959487 -78.8515625 30.109375 C-77.88471367 19.0846126 -72.65535605 10.14617611 -64.66796875 2.59765625 C-46.1644873 -12.35674031 -19.69774365 -13.82349072 0 0 Z " fill="#EF6D60" transform="translate(835.5703125,561.09765625)"/>
</svg>
