<?xml version="1.0" encoding="UTF-8"?>
<svg version="1.1" xmlns="http://www.w3.org/2000/svg" width="283" height="178">
<path d="M0 0 C93.39 0 186.78 0 283 0 C283 58.74 283 117.48 283 178 C189.61 178 96.22 178 0 178 C0 119.26 0 60.52 0 0 Z " fill="#FEFEFE" transform="translate(0,0)"/>
<path d="M0 0 C0 0.33 0 0.66 0 1 C-1.24716797 1.16435547 -1.24716797 1.16435547 -2.51953125 1.33203125 C-3.60621094 1.49058594 -4.69289062 1.64914063 -5.8125 1.8125 C-6.89144531 1.96332031 -7.97039062 2.11414062 -9.08203125 2.26953125 C-12.07267631 3.0181934 -13.23720866 3.51353642 -15 6 C-15 10.11027966 -13.09617699 12.48163804 -10.48486328 15.52661133 C-0.46370699 25.47032692 15.48473213 27.24457109 28.79785156 27.25622559 C37.49657339 27.15615524 45.87519296 25.89928119 54.43258667 24.43405151 C80.2546703 20.06852363 105.58616432 18.43831539 131 26 C127.80909471 27.03079662 125.81069614 26.90922036 122.58203125 26.08984375 C104.47786505 22.16567383 85.48255037 24.63067309 68 30 C66.70511136 30.39545389 65.41018712 30.79079122 64.11523438 31.18603516 C62.69660877 31.62009818 61.27798915 32.05418077 59.859375 32.48828125 C59.13743454 32.70863037 58.41549408 32.92897949 57.67167664 33.15600586 C54.07256211 34.25650908 50.47938118 35.37100453 46.89575195 36.52099609 C34.58181118 40.42389669 22.50015892 42.39060819 9.5625 42.3125 C8.57531982 42.30758545 7.58813965 42.3026709 6.57104492 42.29760742 C-8.06624159 42.06477678 -23.61896295 39.26571999 -35.30859375 29.796875 C-39.49912258 25.34504299 -41.71191113 20.19667764 -42.5 14.1875 C-41.94214569 10.63117876 -41.11065995 8.89876044 -39 6 C-26.97023023 -2.0017838 -13.75940226 -4.07685993 0 0 Z " fill="#0369A6" transform="translate(128,46)"/>
<path d="M0 0 C6.84855992 5.32166787 11.2892461 11.6185776 12.4375 20.3125 C11.93155169 23.42046822 11.2622937 24.8185025 9 27 C3.11710449 29.52124093 -3.45505749 27.89090648 -9.30224609 26.07910156 C-13.97049382 24.21180247 -17.7587084 21.25994289 -21.75 18.25 C-36.69903529 7.38456959 -50.87247665 -0.5420644 -70.0234375 2.4765625 C-78.63099797 4.7131727 -86.05273627 9.16768538 -93.75683594 13.49291992 C-101.30561245 17.70979139 -108.80635677 21.2167333 -117 24 C-117.69657715 24.26707764 -118.3931543 24.53415527 -119.11083984 24.80932617 C-126.74690191 27.49258637 -134.10426838 27.34266296 -142.125 27.1875 C-143.47654746 27.17241432 -144.82811135 27.15873283 -146.1796875 27.14648438 C-149.45355371 27.11140724 -152.7265568 27.06225097 -156 27 C-156.33 26.34 -156.66 25.68 -157 25 C-156.43716309 24.98541748 -155.87432617 24.97083496 -155.29443359 24.95581055 C-143.89195776 24.62700469 -133.02843966 24.12427952 -122 21 C-120.93523437 20.71898438 -119.87046875 20.43796875 -118.7734375 20.1484375 C-109.88571113 17.42175798 -102.67809643 12.84424971 -94.88500977 7.87939453 C-87.1940831 3.01694058 -79.57794477 -0.96284288 -71 -4 C-70.30326172 -4.25249512 -69.60652344 -4.50499023 -68.88867188 -4.76513672 C-47.34586663 -12.27816598 -19.67837331 -12.60556667 0 0 Z " fill="#049FDF" transform="translate(175,41)"/>
<path d="M0 0 C9.32191466 6.73201749 16.30252661 9.64793169 27.88085938 9.11523438 C28.68136719 9.2003125 29.481875 9.28539063 30.30664062 9.37304688 C31.29664063 10.85804687 31.29664063 10.85804687 32.30664062 12.37304688 C9.59099177 16.2046021 -14.64386532 19.57336307 -34.69335938 5.37304688 C-37.93374352 2.47274265 -40.13818852 -0.30071165 -41.81835938 -4.31445312 C-41.69335938 -6.62695312 -41.69335938 -6.62695312 -40.25585938 -8.81445312 C-36.81082206 -11.25118684 -33.82195966 -11.80123307 -29.69335938 -12.62695312 C-41.88243738 -16.06988176 -53.54062388 -11.39287263 -64.69335938 -6.62695312 C-64.69335938 -7.61695313 -64.69335938 -8.60695313 -64.69335938 -9.62695312 C-39.92407993 -21.55627521 -21.37924581 -15.6964032 0 0 Z " fill="#F8FBFC" transform="translate(153.693359375,58.626953125)"/>
<path d="M0 0 C2.64 0 5.28 0 8 0 C8.33 6.6 8.66 13.2 9 20 C10.32 19.01 11.64 18.02 13 17 C17.86091055 16.1096352 21.93052803 16.48506905 26.375 18.625 C29.93068934 21.84205226 32.57828425 24.43527971 33.3828125 29.328125 C33.65978351 35.34762818 32.55496227 40.09132694 29 45 C25.14582093 48.73738576 20.72062183 48.35600037 15.62109375 48.3984375 C12.62559217 47.94308555 11.23848915 46.99093858 9 45 C8.67 45.99 8.34 46.98 8 48 C5.36 48 2.72 48 0 48 C0 32.16 0 16.32 0 0 Z " fill="#0E6EA8" transform="translate(10,98)"/>
<path d="M0 0 C2.64 0 5.28 0 8 0 C8 6.6 8 13.2 8 20 C9.65 19.01 11.3 18.02 13 17 C17.27506552 16.24164055 21.12395001 16.73044616 25.25 18 C29.61111887 21.17172281 32.33337548 24.91417359 33.484375 30.2421875 C33.85919632 36.26015195 31.84154005 40.45417761 28 45 C24.19450247 48.47931203 20.33330842 48.4376859 15.3828125 48.3046875 C12.36557823 47.91887722 10.36524635 46.89219708 8 45 C7.67 45.99 7.34 46.98 7 48 C4.69 48 2.38 48 0 48 C0 32.16 0 16.32 0 0 Z " fill="#096CA7" transform="translate(144,98)"/>
<path d="M0 0 C2.64 0 5.28 0 8 0 C8.33 0.99 8.66 1.98 9 3 C9.495 2.505 9.99 2.01 10.5 1.5 C13.94128976 -0.56477386 17.12625633 -0.60069981 21 0 C23.875 1.5 23.875 1.5 26 3 C28.1205318 3.23084394 28.1205318 3.23084394 29.5625 1.5 C33.26373593 -0.77768365 36.76605926 -0.68045476 41 0 C45.12135075 2.36758448 46.54328418 4.56905539 48 9 C48.22705078 11.5871582 48.22705078 11.5871582 48.1953125 14.30078125 C48.18886719 15.27724609 48.18242187 16.25371094 48.17578125 17.25976562 C48.15902344 18.26716797 48.14226562 19.27457031 48.125 20.3125 C48.11597656 21.33923828 48.10695312 22.36597656 48.09765625 23.42382812 C48.07416201 25.94945899 48.04131131 28.4746081 48 31 C45.36 31 42.72 31 40 31 C39.97494385 30.37432129 39.9498877 29.74864258 39.92407227 29.10400391 C39.80824727 26.27745381 39.68546015 23.45124831 39.5625 20.625 C39.52318359 19.64015625 39.48386719 18.6553125 39.44335938 17.640625 C39.40146484 16.69960937 39.35957031 15.75859375 39.31640625 14.7890625 C39.26141968 13.48509521 39.26141968 13.48509521 39.20532227 12.15478516 C39.12598456 9.9516738 39.12598456 9.9516738 38 8 C34.58343976 7.83322718 34.58343976 7.83322718 31 8 C28.51942372 10.48057628 28.70980995 11.36192464 28.5859375 14.7890625 C28.54726562 15.73007813 28.50859375 16.67109375 28.46875 17.640625 C28.42234375 19.11789063 28.42234375 19.11789063 28.375 20.625 C28.33632812 21.61757812 28.29765625 22.61015625 28.2578125 23.6328125 C28.1633686 26.08835385 28.07780125 28.5438841 28 31 C25.36 31 22.72 31 20 31 C19.97494385 30.3387915 19.9498877 29.67758301 19.92407227 28.99633789 C19.80846898 26.01817695 19.68558246 23.0403608 19.5625 20.0625 C19.52318359 19.02158203 19.48386719 17.98066406 19.44335938 16.90820312 C19.40146484 15.91884766 19.35957031 14.92949219 19.31640625 13.91015625 C19.27974854 12.99371338 19.24309082 12.07727051 19.20532227 11.13305664 C19.22996136 9.0179272 19.22996136 9.0179272 18 8 C14.54187831 7.66661404 14.54187831 7.66661404 11 8 C8.91254955 11.13117567 8.72346004 12.06946224 8.5859375 15.66796875 C8.52792969 17.00698242 8.52792969 17.00698242 8.46875 18.37304688 C8.42234375 19.76620117 8.42234375 19.76620117 8.375 21.1875 C8.31699219 22.59805664 8.31699219 22.59805664 8.2578125 24.03710938 C8.16356813 26.3578771 8.07795975 28.67863748 8 31 C5.36 31 2.72 31 0 31 C0 20.77 0 10.54 0 0 Z " fill="#1270A9" transform="translate(88,115)"/>
<path d="M0 0 C3.96415804 2.40958626 6.37905698 4.62938684 8.1875 8.9375 C9.16957721 14.84866948 8.64915319 19.92407124 5.1875 24.9375 C0.01084993 29.72590131 -4.17740519 30.30132226 -11.01953125 30.2109375 C-15.81944988 29.7410154 -18.92330941 28.15842347 -22.125 24.39453125 C-25.09232262 19.89203131 -25.40214666 16.24431998 -24.8125 10.9375 C-20.76692692 -0.52495707 -10.88222806 -3.03275208 0 0 Z " fill="#086BA6" transform="translate(206.8125,116.0625)"/>
<path d="M0 0 C5.11233793 1.85903197 8.6455655 4.49429617 11.25 9.3125 C12.53881585 13.93075681 12.5020186 17.60550388 10.875 22.125 C8.30678923 26.06292318 5.25774835 28.87112583 1 31 C-4.60988749 31.51228015 -9.44764504 31.76256033 -14.5625 29.25 C-18.33157955 25.77084964 -20.68676195 22.98346404 -21.23828125 17.73046875 C-21.40730774 11.93908745 -21.05371947 8.48042678 -17 4 C-11.8440273 -0.77870641 -6.6891122 -0.82741626 0 0 Z " fill="#076AA6" transform="translate(70,115)"/>
<path d="M0 0 C2.6993225 1.81192487 4.54054976 3.08109953 6 6 C6.08471364 7.81341842 6.10721083 9.62994161 6.09765625 11.4453125 C6.09443359 12.52167969 6.09121094 13.59804687 6.08789062 14.70703125 C6.07951172 15.83496094 6.07113281 16.96289062 6.0625 18.125 C6.05798828 19.26066406 6.05347656 20.39632812 6.04882812 21.56640625 C6.03701615 24.37765638 6.02054507 27.1888023 6 30 C4.02 30 2.04 30 0 30 C-0.33 29.34 -0.66 28.68 -1 28 C-1.55816406 28.48726562 -2.11632812 28.97453125 -2.69140625 29.4765625 C-6.54652255 32.02054787 -10.53434693 31.54917416 -15 31 C-19.51315789 28.97368421 -19.51315789 28.97368421 -21 26 C-21.38112297 21.96009652 -21.4240682 19.70678033 -19.3125 16.1875 C-15.13512914 12.23593297 -11.31535149 11.75131096 -5.6875 11.875 C-4.61886719 11.89304687 -3.55023438 11.91109375 -2.44921875 11.9296875 C-1.64097656 11.95289062 -0.83273437 11.97609375 0 12 C-1.27734584 9.48859495 -1.27734584 9.48859495 -3 7 C-7.95686583 5.59711344 -11.28192431 6.04372471 -16 8 C-16.99 6.68 -17.98 5.36 -19 4 C-13.54049326 -0.99154902 -7.14820369 -1.21671552 0 0 Z " fill="#0669A6" transform="translate(266,115)"/>
<path d="M0 0 C2.64 0 5.28 0 8 0 C8.33 0.99 8.66 1.98 9 3 C9.515625 2.505 10.03125 2.01 10.5625 1.5 C13.80680017 -0.49649241 16.26217334 -0.21564385 20 0 C20 2.31 20 4.62 20 7 C18.01432292 7.16276042 16.02864583 7.32552083 14.04296875 7.48828125 C11.47477448 8.13155744 10.64447659 8.93925813 9 11 C8.49844978 13.2143507 8.49844978 13.2143507 8.48828125 15.66796875 C8.45283203 16.56064453 8.41738281 17.45332031 8.38085938 18.37304688 C8.34702148 19.76620117 8.34702148 19.76620117 8.3125 21.1875 C8.27833984 22.12787109 8.24417969 23.06824219 8.20898438 24.03710938 C8.12651782 26.35795393 8.05736597 28.67842148 8 31 C5.36 31 2.72 31 0 31 C0 20.77 0 10.54 0 0 Z " fill="#1471AA" transform="translate(222,115)"/>
<path d="M0 0 C3 2.0625 3 2.0625 5 5 C5.69151325 9.30274909 5.51557405 11.20945312 3.125 14.875 C0.61333682 17.38666318 -0.29384163 17.92153796 -3.8125 18.3125 C-7.88445382 17.91328884 -9.30821585 17.07632474 -12 14 C-13.38186872 9.93917108 -13.44145526 6.98801891 -11.6875 3.0625 C-8.56925371 -0.74868991 -4.65087788 -0.7736642 0 0 Z " fill="#F8FAFB" transform="translate(69,122)"/>
<path d="M0 0 C2.125 0.4140625 2.125 0.4140625 4.625 1.9765625 C6.62633412 5.22873044 7.05811096 7.60138749 7.125 11.4140625 C5.90892788 14.29423332 4.82196456 15.86644749 2.375 17.7890625 C-1.05707959 18.74241794 -3.45322616 18.33060906 -6.875 17.4140625 C-10.03350062 14.66049786 -10.78162809 13.06766588 -11.375 8.9140625 C-10.33089766 1.60534609 -7.00442312 -0.43777644 0 0 Z " fill="#F8FAFC" transform="translate(200.875,121.5859375)"/>
<path d="M0 0 C3.3265563 2.67747214 3.89853117 4.28971818 4.5 8.5 C3.9231981 12.53761333 2.85349783 14.14650217 0 17 C-2.88861709 18.44430855 -4.79647701 18.37688506 -8 18 C-11.56750491 15.38382973 -12.8073833 13.73194348 -13.9375 9.4375 C-13.99837495 6.08937802 -13.96117085 4.64758064 -12 2 C-7.99327669 -0.67114888 -4.7089486 -0.81599109 0 0 Z " fill="#F8FAFC" transform="translate(165,122)"/>
<path d="M0 0 C2.47113222 0.61449114 3.57083614 1.28232085 5.32421875 3.109375 C7.19921875 6.546875 7.19921875 6.546875 7.26171875 10.171875 C6.0938557 13.88155763 5.39647245 15.35928036 2.19921875 17.546875 C-1.23828125 18.546875 -1.23828125 18.546875 -4.80078125 18.546875 C-7.60267571 16.78046328 -9.31603036 15.51637678 -10.80078125 12.546875 C-11.17181693 8.61389681 -11.11167256 6.18217463 -9.36328125 2.609375 C-6.12947273 0.00655351 -4.07914412 -0.24272593 0 0 Z " fill="#F9FBFC" transform="translate(28.80078125,121.453125)"/>
<path d="M0 0 C0 0.99 0 1.98 0 3 C-1.32 3 -2.64 3 -4 3 C-4 2.34 -4 1.68 -4 1 C-18.46966225 -1.14365367 -29.59301271 1.27076682 -43 7 C-43 6.01 -43 5.02 -43 4 C-28.66959205 -2.90177736 -15.49103012 -5.99652779 0 0 Z " fill="#D9E9F4" transform="translate(132,45)"/>
<path d="M0 0 C0.25 2.8125 0.25 2.8125 0 6 C-2.2629854 8.611137 -3.62424982 8.96165814 -7.0625 9.3125 C-10 9 -10 9 -13 7 C-12.51963048 2.43648961 -12.51963048 2.43648961 -10.4375 0.6875 C-6.89342826 -0.31210998 -3.67781281 -0.12259376 0 0 Z " fill="#EEF3F7" transform="translate(265,132)"/>
<path d="M0 0 C16.5650463 -0.43195828 32.04706982 0.22242976 48 5 C44.81833398 6.02573382 42.8217944 5.91465567 39.6015625 5.1015625 C33.21626683 3.70631794 26.89091001 3.54933873 20.375 3.375 C18.58255859 3.31699219 18.58255859 3.31699219 16.75390625 3.2578125 C13.83608264 3.16444214 10.91825079 3.07866422 8 3 C8 2.34 8 1.68 8 1 C5.36 1 2.72 1 0 1 C0 0.67 0 0.34 0 0 Z " fill="#136BA7" transform="translate(211,67)"/>
<path d="M0 0 C-0.33 1.32 -0.66 2.64 -1 4 C-10.57 4 -20.14 4 -30 4 C-30.33 3.34 -30.66 2.68 -31 2 C-30.39003174 1.97494385 -29.78006348 1.9498877 -29.15161133 1.92407227 C-26.37172102 1.8075942 -23.5921266 1.68510368 -20.8125 1.5625 C-19.85279297 1.52318359 -18.89308594 1.48386719 -17.90429688 1.44335938 C-16.97294922 1.40146484 -16.04160156 1.35957031 -15.08203125 1.31640625 C-14.22843018 1.27974854 -13.3748291 1.24309082 -12.49536133 1.20532227 C-8.22641177 0.85406636 -4.3216536 -0.12347582 0 0 Z " fill="#29A8E2" transform="translate(49,64)"/>
<path d="M0 0 C-3.96 1.98 -3.96 1.98 -8 4 C-8 3.01 -8 2.02 -8 1 C-4.59449725 -1.06762667 -4.18836538 -1.04709135 0 0 Z " fill="#E6F1F8" transform="translate(97,48)"/>
</svg>
