<?xml version="1.0" encoding="UTF-8"?>
<svg version="1.1" xmlns="http://www.w3.org/2000/svg" width="447" height="113">
<path d="M0 0 C147.51 0 295.02 0 447 0 C447 37.29 447 74.58 447 113 C299.49 113 151.98 113 0 113 C0 75.71 0 38.42 0 0 Z " fill="#FDFCFC" transform="translate(0,0)"/>
<path d="M0 0 C22.80612245 0 22.80612245 0 28.60546875 5.53125 C33.50555622 11.13134997 33.50146279 16.02357246 33.3359375 23.21875 C32.84695032 28.72269871 31.67212593 30.86885833 28 35 C20 40 20 40 0 40 C0 26.8 0 13.6 0 0 Z " fill="#070A0B" transform="translate(20,34)"/>
<path d="M0 0 C3.6079502 2.36411348 5.29819213 5.25298887 6.1875 9.4375 C6.82411162 14.45877413 6.77961255 18.20772777 4.5625 22.8125 C0.69629423 27.0856748 -2.45871483 29.64235117 -8.3125 29.9375 C-12.77577499 29.719596 -15.41734255 28.42847204 -18.8125 25.4375 C-22.76826632 19.70845912 -23.53506901 15.33287283 -22.8125 8.4375 C-21.49268617 4.14412971 -19.46195841 1.82467713 -15.5625 -0.5 C-9.93107537 -2.09557031 -5.38166664 -2.62851929 0 0 Z " fill="#0A0C0D" transform="translate(124.8125,45.5625)"/>
<path d="M0 0 C3.54238448 1.67797159 5.30277202 2.89077367 7.375 6.1875 C8 9 8 9 8 18 C2.06 18 -3.88 18 -10 18 C-9.01 19.32 -8.02 20.64 -7 22 C-4.03164137 22.48407934 -4.03164137 22.48407934 -0.8125 22.25 C0.27417969 22.21390625 1.36085938 22.1778125 2.48046875 22.140625 C3.31191406 22.09421875 4.14335938 22.0478125 5 22 C5.33 24.31 5.66 26.62 6 29 C1.41340782 31.64651641 -2.8259852 31.5253615 -8 31 C-11.8921053 29.94377812 -15.62761905 28.37127819 -18 25 C-20.42097782 19.64836483 -21.2810311 13.59381156 -19.27734375 7.97265625 C-14.94678066 -0.3202844 -8.6618651 -1.14306138 0 0 Z " fill="#0B0E0E" transform="translate(76,44)"/>
<path d="M0 0 C3.42282723 2.33374584 4.94672394 4.12973434 6.75 7.875 C6.75 10.845 6.75 13.815 6.75 16.875 C0.81 16.875 -5.13 16.875 -11.25 16.875 C-10.59 18.195 -9.93 19.515 -9.25 20.875 C-4.96 20.875 -0.67 20.875 3.75 20.875 C3.75 23.185 3.75 25.495 3.75 27.875 C-1.03228281 30.681504 -5.85091445 30.52445522 -11.25 29.875 C-14.75 28.0625 -14.75 28.0625 -17.25 25.875 C-17.848125 25.359375 -18.44625 24.84375 -19.0625 24.3125 C-22.64822285 19.97188813 -21.74406823 13.13578281 -21.25 7.875 C-19.46525364 3.96228682 -18.02124813 2.40085099 -14.5 0 C-9.26797201 -1.81108661 -5.23202799 -1.81108661 0 0 Z " fill="#090B0C" transform="translate(217.25,45.125)"/>
<path d="M0 0 C0 2.97 0 5.94 0 9 C1.98 9 3.96 9 6 9 C6 11.64 6 14.28 6 17 C4.02 17 2.04 17 0 17 C0.33 21.62 0.66 26.24 1 31 C2.98 31 4.96 31 7 31 C7.1875 34.375 7.1875 34.375 7 38 C2.97297355 40.6846843 -0.2713959 40.5643542 -5 40 C-8.28931514 38.27310955 -8.8140267 37.5579199 -10 34 C-10.07973476 32.66474283 -10.10771338 31.32587917 -10.09765625 29.98828125 C-10.09282227 28.85229492 -10.09282227 28.85229492 -10.08789062 27.69335938 C-10.07951172 26.90767578 -10.07113281 26.12199219 -10.0625 25.3125 C-10.05798828 24.51521484 -10.05347656 23.71792969 -10.04882812 22.89648438 C-10.0370585 20.93095743 -10.01912348 18.96546915 -10 17 C-11.32 17 -12.64 17 -14 17 C-14 14.69 -14 12.38 -14 10 C-12.68 10 -11.36 10 -10 10 C-10 7.03 -10 4.06 -10 1 C-2.25 0 -2.25 0 0 0 Z " fill="#0C0E0F" transform="translate(163,35)"/>
<path d="M0 0 C0 3.3 0 6.6 0 10 C1.98 10 3.96 10 6 10 C6 12.31 6 14.62 6 17 C4.02 17 2.04 17 0 17 C0.33 21.62 0.66 26.24 1 31 C2.98 31 4.96 31 7 31 C7 33.31 7 35.62 7 38 C3.28150284 40.47899811 -0.67836836 40.7454149 -5 40 C-7.43119623 38.12984906 -8.64069173 36.71861655 -10 34 C-10.07194869 31.11629667 -10.09291708 28.25760336 -10.0625 25.375 C-10.05798828 24.57320312 -10.05347656 23.77140625 -10.04882812 22.9453125 C-10.03703168 20.96350994 -10.01909605 18.98174567 -10 17 C-11.32 17 -12.64 17 -14 17 C-14 14.36 -14 11.72 -14 9 C-12.68 9 -11.36 9 -10 9 C-10 6.36 -10 3.72 -10 1 C-6.56484998 0.37542727 -3.50935186 0 0 0 Z " fill="#080B0B" transform="translate(186,35)"/>
<path d="M0 0 C3.3 0 6.6 0 10 0 C10 13.2 10 26.4 10 40 C6.7 40 3.4 40 0 40 C0 26.8 0 13.6 0 0 Z " fill="#080B0B" transform="translate(88,34)"/>
<path d="M0 0 C3.3 0 6.6 0 10 0 C10 9.9 10 19.8 10 30 C6.7 30 3.4 30 0 30 C0 20.1 0 10.2 0 0 Z " fill="#020505" transform="translate(135,44)"/>
<path d="M0 0 C6 0 6 0 8.83984375 1.59765625 C11.62072647 4.69031968 11.64331802 6.32528918 11.5625 10.4375 C11.56443359 12.10619141 11.56443359 12.10619141 11.56640625 13.80859375 C10.87357857 17.71231939 9.99426565 19.39523232 7 22 C4.69 22 2.38 22 0 22 C0 14.74 0 7.48 0 0 Z " fill="#FAFAFA" transform="translate(31,43)"/>
<path d="M0 0 C5.94 0 11.88 0 18 0 C18.33 0.66 18.66 1.32 19 2 C13.39 2 7.78 2 2 2 C2 14.21 2 26.42 2 39 C5.96 39 9.92 39 14 39 C14 39.33 14 39.66 14 40 C9.38 40 4.76 40 0 40 C0 26.8 0 13.6 0 0 Z " fill="#232323" transform="translate(20,34)"/>
<path d="M0 0 C2.5 -0.3125 2.5 -0.3125 5 0 C7 2 7 2 7.265625 4.27734375 C7.26046875 5.15519531 7.2553125 6.03304687 7.25 6.9375 C7.25515625 7.81277344 7.2603125 8.68804687 7.265625 9.58984375 C7 12 7 12 5 15 C2.5 15.375 2.5 15.375 0 15 C-2.08133467 11.877998 -2.2737822 11.06733011 -2.25 7.5 C-2.25773437 6.33984375 -2.25773437 6.33984375 -2.265625 5.15625 C-2 3 -2 3 0 0 Z " fill="#EDEDED" transform="translate(114,52)"/>
<path d="M0 0 C2.9375 0.8125 2.9375 0.8125 4.9375 3.8125 C4.75 6.875 4.75 6.875 3.9375 9.8125 C0.9375 11.8125 0.9375 11.8125 -2.125 11.625 C-5.0625 10.8125 -5.0625 10.8125 -7.0625 7.8125 C-6.875 4.75 -6.875 4.75 -6.0625 1.8125 C-3.0625 -0.1875 -3.0625 -0.1875 0 0 Z " fill="#8EC04B" transform="translate(233.0625,63.1875)"/>
<path d="M0 0 C1.98 0 3.96 0 6 0 C6.79953138 3.28696233 7.09658936 4.71023192 6 8 C6.99 8 7.98 8 9 8 C9.309375 7.05125 9.61875 6.1025 9.9375 5.125 C11 2 11 2 12 0 C12.99 0 13.98 0 15 0 C15.99 2.97 16.98 5.94 18 9 C15.69 8.67 13.38 8.34 11 8 C11 8.66 11 9.32 11 10 C9.02 10 7.04 10 5 10 C4.67 8.68 4.34 7.36 4 6 C3.34 6 2.68 6 2 6 C2 6.99 2 7.98 2 9 C1.34 9 0.68 9 0 9 C0 6.03 0 3.06 0 0 Z " fill="#323332" transform="translate(322,64)"/>
<path d="M0 0 C2.5625 0.3125 2.5625 0.3125 4.4375 1.4375 C5.5625 3.3125 5.5625 3.3125 5.375 6.375 C4.5625 9.3125 4.5625 9.3125 2.5625 11.3125 C0.0625 11.5625 0.0625 11.5625 -2.4375 11.3125 C-4.4375 9.3125 -4.4375 9.3125 -4.6875 5.8125 C-4.40166115 1.81075612 -4.09542045 0.5250539 0 0 Z " fill="#3C3C3C" transform="translate(411.4375,62.6875)"/>
<path d="M0 0 C2.4375 0.8125 2.4375 0.8125 4.4375 2.8125 C4.75 5.8125 4.75 5.8125 4.4375 8.8125 C1.4375 10.8125 1.4375 10.8125 -1.125 10.5625 C-3.5625 9.8125 -3.5625 9.8125 -5.5625 7.8125 C-5.93046448 4.94237704 -5.93759409 3.40475382 -4.375 0.9375 C-2.5625 -0.1875 -2.5625 -0.1875 0 0 Z " fill="#191919" transform="translate(380.5625,63.1875)"/>
<path d="M0 0 C2.4375 0.8125 2.4375 0.8125 4.4375 2.8125 C4.0625 6.4375 4.0625 6.4375 3.4375 9.8125 C-2.00986842 11.14407895 -2.00986842 11.14407895 -4.4375 9.6875 C-5.94207373 7.17987712 -5.9943188 5.69129197 -5.5625 2.8125 C-3.86282344 0.12880016 -3.19877434 -0.23405666 0 0 Z " fill="#171818" transform="translate(303.5625,63.1875)"/>
<path d="M0 0 C6.39075249 -0.36174071 6.39075249 -0.36174071 9 1.1875 C10 3 10 3 9.875 5.5625 C9 8 9 8 6 10 C2.8125 10.125 2.8125 10.125 0 10 C0 6.7 0 3.4 0 0 Z " fill="#464747" transform="translate(280,49)"/>
<path d="M0 0 C3.0625 0.1875 3.0625 0.1875 5.0625 2.1875 C5.3125 5.1875 5.3125 5.1875 5.0625 8.1875 C3.0625 10.1875 3.0625 10.1875 0.625 10.5 C-1.9375 10.1875 -1.9375 10.1875 -3.8125 9.0625 C-4.9375 7.1875 -4.9375 7.1875 -4.6875 4.0625 C-3.68914628 0.23547742 -3.68914628 0.23547742 0 0 Z " fill="#222322" transform="translate(332.9375,48.8125)"/>
<path d="M0 0 C3.3 0 6.6 0 10 0 C9.34 0.66 8.68 1.32 8 2 C6.02 2 4.04 2 2 2 C2 10.91 2 19.82 2 29 C3.32 29.33 4.64 29.66 6 30 C4.02 30 2.04 30 0 30 C0 20.1 0 10.2 0 0 Z " fill="#1C1C1C" transform="translate(135,44)"/>
<path d="M0 0 C2.875 -0.125 2.875 -0.125 6 0 C8 2 8 2 8.1953125 4.1640625 C8.17210937 4.97617188 8.14890625 5.78828125 8.125 6.625 C8.10695313 7.44226563 8.08890625 8.25953125 8.0703125 9.1015625 C8.03550781 10.04128906 8.03550781 10.04128906 8 11 C7.01 10.67 6.02 10.34 5 10 C4.67 9.34 4.34 8.68 4 8 C3.67 8.99 3.34 9.98 3 11 C2.01 11 1.02 11 0 11 C0 7.37 0 3.74 0 0 Z " fill="#575857" transform="translate(418,63)"/>
<path d="M0 0 C2.875 -0.125 2.875 -0.125 6 0 C8 2 8 2 8.1953125 3.9453125 C8.13020833 5.96354167 8.06510417 7.98177083 8 10 C7.01 10 6.02 10 5 10 C4.67 9.34 4.34 8.68 4 8 C3.67 8.99 3.34 9.98 3 11 C2.01 11 1.02 11 0 11 C0 7.37 0 3.74 0 0 Z " fill="#0F0F0F" transform="translate(289,63)"/>
<path d="M0 0 C3.3 0 6.6 0 10 0 C10 2.31 10 4.62 10 7 C6.7 7 3.4 7 0 7 C0 4.69 0 2.38 0 0 Z " fill="#0E100F" transform="translate(135,34)"/>
<path d="M0 0 C0.99 0 1.98 0 3 0 C3 3.63 3 7.26 3 11 C2.01 11 1.02 11 0 11 C-0.33 9.68 -0.66 8.36 -1 7 C-1.99 7 -2.98 7 -4 7 C-4.33 7.99 -4.66 8.98 -5 10 C-5.66 10 -6.32 10 -7 10 C-7 7.03 -7 4.06 -7 1 C-3 3 -3 3 -2 4 C-1.34 2.68 -0.68 1.36 0 0 Z " fill="#2F2F2F" transform="translate(349,63)"/>
<path d="M0 0 C2.375 0.8125 2.375 0.8125 3.375 2.8125 C1.395 3.1425 -0.585 3.4725 -2.625 3.8125 C-2.625 4.8025 -2.625 5.7925 -2.625 6.8125 C-1.965 6.8125 -1.305 6.8125 -0.625 6.8125 C-0.625 6.1525 -0.625 5.4925 -0.625 4.8125 C1.025 4.8125 2.675 4.8125 4.375 4.8125 C4.375 6.7925 4.375 8.7725 4.375 10.8125 C-2.03318182 11.17522727 -2.03318182 11.17522727 -4.5625 9.625 C-6.01218434 7.15200907 -6.04817323 5.63365488 -5.625 2.8125 C-3.9045701 0.09603174 -3.2392417 -0.23137441 0 0 Z " fill="#262727" transform="translate(315.625,63.1875)"/>
<path d="M0 0 C2.875 -0.125 2.875 -0.125 6 0 C6.66 0.66 7.32 1.32 8 2 C7.69972883 3.67293936 7.36442233 5.33985384 7 7 C7.33 7.99 7.66 8.98 8 10 C6.68 9.34 5.36 8.68 4 8 C3.67 8.66 3.34 9.32 3 10 C2.01 10 1.02 10 0 10 C0 6.7 0 3.4 0 0 Z " fill="#0E0E0E" transform="translate(308,34)"/>
<path d="M0 0 C2.875 -0.125 2.875 -0.125 6 0 C6.66 0.66 7.32 1.32 8 2 C7.625 4.625 7.625 4.625 7 7 C5.68 7 4.36 7 3 7 C3 8.32 3 9.64 3 11 C2.01 11 1.02 11 0 11 C0 7.37 0 3.74 0 0 Z " fill="#464747" transform="translate(366,63)"/>
<path d="M0 0 C2.875 -0.125 2.875 -0.125 6 0 C6.66 0.66 7.32 1.32 8 2 C7.625 4.625 7.625 4.625 7 7 C5.68 7 4.36 7 3 7 C3 8.32 3 9.64 3 11 C2.01 11 1.02 11 0 11 C0 7.37 0 3.74 0 0 Z " fill="#444545" transform="translate(280,63)"/>
<path d="M0 0 C0.99 0 1.98 0 3 0 C3.66 0.99 4.32 1.98 5 3 C5.680625 2.2575 5.680625 2.2575 6.375 1.5 C8 0 8 0 10 0 C10 3.3 10 6.6 10 10 C9.34 10 8.68 10 8 10 C7.67 8.68 7.34 7.36 7 6 C6.01 6.33 5.02 6.66 4 7 C3.67 6.34 3.34 5.68 3 5 C2.67 6.65 2.34 8.3 2 10 C1.34 10 0.68 10 0 10 C0 6.7 0 3.4 0 0 Z " fill="#202121" transform="translate(349,49)"/>
<path d="M0 0 C2.31 0 4.62 0 7 0 C7.625 2.375 7.625 2.375 8 5 C7.34 5.66 6.68 6.32 6 7 C5.01 7 4.02 7 3 7 C3 7.99 3 8.98 3 10 C2.01 10 1.02 10 0 10 C0 6.7 0 3.4 0 0 Z " fill="#1C1C1C" transform="translate(340,49)"/>
<path d="M0 0 C4 1 4 1 6 4 C6.33 2.68 6.66 1.36 7 0 C7.66 0 8.32 0 9 0 C9 3.3 9 6.6 9 10 C5 8 5 8 3 5 C2.67 6.65 2.34 8.3 2 10 C1.34 10 0.68 10 0 10 C0 6.7 0 3.4 0 0 Z " fill="#0B0C0C" transform="translate(371,49)"/>
<path d="M0 0 C2.00720923 0.28674418 4.0085944 0.61866701 6 1 C6 1.66 6 2.32 6 3 C4.35 2.67 2.7 2.34 1 2 C1 2.66 1 3.32 1 4 C3.31 4 5.62 4 8 4 C8 4.66 8 5.32 8 6 C7.34 6 6.68 6 6 6 C5.67 7.32 5.34 8.64 5 10 C3.35 10 1.7 10 0 10 C-0.9097643 6.92954549 -1.17299981 4.20049657 -1 1 C-0.67 0.67 -0.34 0.34 0 0 Z " fill="#262727" transform="translate(361,34)"/>
<path d="M0 0 C0.99 0 1.98 0 3 0 C4.6875 2.5 4.6875 2.5 6 5 C6.33 3.35 6.66 1.7 7 0 C7.66 0 8.32 0 9 0 C9 3.3 9 6.6 9 10 C8.01 10 7.02 10 6 10 C5.34 8.35 4.68 6.7 4 5 C3.34 5 2.68 5 2 5 C2 6.65 2 8.3 2 10 C1.34 10 0.68 10 0 10 C0 6.7 0 3.4 0 0 Z " fill="#090A0A" transform="translate(334,34)"/>
<path d="M0 0 C0.99 0 1.98 0 3 0 C6 6.625 6 6.625 6 10 C3.03 10 0.06 10 -3 10 C-2.49287967 6.28111761 -1.88391785 3.26545761 0 0 Z " fill="#494949" transform="translate(301,34)"/>
<path d="M0 0 C0.99 0 1.98 0 3 0 C4.6875 2.5 4.6875 2.5 6 5 C6.33 3.35 6.66 1.7 7 0 C7.66 0 8.32 0 9 0 C9 3.3 9 6.6 9 10 C5 8 5 8 4 5 C3.34 5 2.68 5 2 5 C2 6.65 2 8.3 2 10 C1.34 10 0.68 10 0 10 C0 6.7 0 3.4 0 0 Z " fill="#1A1B1A" transform="translate(318,34)"/>
<path d="M0 0 C2.64 0 5.28 0 8 0 C8 0.66 8 1.32 8 2 C6.35 2 4.7 2 3 2 C3 2.66 3 3.32 3 4 C3.99 4 4.98 4 6 4 C6 4.66 6 5.32 6 6 C5.01 6 4.02 6 3 6 C3 6.66 3 7.32 3 8 C4.65 8 6.3 8 8 8 C8 8.66 8 9.32 8 10 C5.36 10 2.72 10 0 10 C0 6.7 0 3.4 0 0 Z " fill="#252626" transform="translate(291,49)"/>
<path d="M0 0 C1.32 0.33 2.64 0.66 4 1 C4.33 2.32 4.66 3.64 5 5 C5.66 5 6.32 5 7 5 C7 3.35 7 1.7 7 0 C7.66 0 8.32 0 9 0 C9 2.97 9 5.94 9 9 C5 8 5 8 3 5 C2.67 6.32 2.34 7.64 2 9 C1.34 9 0.68 9 0 9 C0 6.03 0 3.06 0 0 Z " fill="#0B0C0C" transform="translate(387,64)"/>
<path d="M0 0 C3.625 0.375 3.625 0.375 7 1 C7 1.66 7 2.32 7 3 C5.02 3 3.04 3 1 3 C1 4.32 1 5.64 1 7 C2.32 7.33 3.64 7.66 5 8 C5 7.34 5 6.68 5 6 C4.34 5.67 3.68 5.34 3 5 C4.32 5 5.64 5 7 5 C7 6.65 7 8.3 7 10 C3.625 10.125 3.625 10.125 0 10 C-2 8 -2 8 -2.25 5 C-2 2 -2 2 0 0 Z " fill="#0B0B0B" transform="translate(347,34)"/>
<path d="M0 0 C1.67542976 0.28604898 3.34385343 0.61781233 5 1 C5 1.66 5 2.32 5 3 C4.01 3.33 3.02 3.66 2 4 C2.99 4.66 3.98 5.32 5 6 C4.67 7.65 4.34 9.3 4 11 C2.35 10.67 0.7 10.34 -1 10 C-1.33 9.01 -1.66 8.02 -2 7 C0.475 7.99 0.475 7.99 3 9 C1.74458443 6.48916886 0.49936512 6.12874554 -2 5 C-1.125 1.125 -1.125 1.125 0 0 Z " fill="#2D2D2D" transform="translate(359,63)"/>
<path d="M0 0 C2 0.3125 2 0.3125 4 1 C4.33 1.66 4.66 2.32 5 3 C3.35 2.67 1.7 2.34 0 2 C0 2.66 0 3.32 0 4 C2.475 4.99 2.475 4.99 5 6 C4.67 7.65 4.34 9.3 4 11 C1.03 10.505 1.03 10.505 -2 10 C-2 9.01 -2 8.02 -2 7 C0.475 7.99 0.475 7.99 3 9 C3 8.34 3 7.68 3 7 C0.525 6.01 0.525 6.01 -2 5 C-1.125 1.125 -1.125 1.125 0 0 Z " fill="#232424" transform="translate(400,63)"/>
<path d="M0 0 C2.31 0 4.62 0 7 0 C7 0.66 7 1.32 7 2 C5.35 2 3.7 2 2 2 C2 2.66 2 3.32 2 4 C3.32 4 4.64 4 6 4 C6 4.66 6 5.32 6 6 C4.68 6 3.36 6 2 6 C2 6.66 2 7.32 2 8 C3.65 8 5.3 8 7 8 C7 8.66 7 9.32 7 10 C4.69 10 2.38 10 0 10 C0 6.7 0 3.4 0 0 Z " fill="#101010" transform="translate(311,49)"/>
<path d="M0 0 C2.31 0 4.62 0 7 0 C7 0.66 7 1.32 7 2 C5.35 2 3.7 2 2 2 C2 2.66 2 3.32 2 4 C3.32 4 4.64 4 6 4 C6 4.66 6 5.32 6 6 C4.68 6 3.36 6 2 6 C2 6.66 2 7.32 2 8 C3.65 8 5.3 8 7 8 C7 8.66 7 9.32 7 10 C4.69 10 2.38 10 0 10 C0 6.7 0 3.4 0 0 Z " fill="#101111" transform="translate(362,49)"/>
<path d="M0 0 C2.31 0 4.62 0 7 0 C7 0.66 7 1.32 7 2 C5.35 2 3.7 2 2 2 C2 2.66 2 3.32 2 4 C3.32 4 4.64 4 6 4 C6 4.66 6 5.32 6 6 C4.68 6 3.36 6 2 6 C2 6.66 2 7.32 2 8 C3.65 8 5.3 8 7 8 C7 8.66 7 9.32 7 10 C4.69 10 2.38 10 0 10 C0 6.7 0 3.4 0 0 Z " fill="#000000" transform="translate(289,34)"/>
<path d="M0 0 C0.99 0 1.98 0 3 0 C3.66 1.65 4.32 3.3 5 5 C5.66 3.35 6.32 1.7 7 0 C7.99 0.33 8.98 0.66 10 1 C8.68 3.97 7.36 6.94 6 10 C5.01 10 4.02 10 3 10 C2.01 6.7 1.02 3.4 0 0 Z " fill="#1A1A1A" transform="translate(300,49)"/>
<path d="M0 0 C2.64 0 5.28 0 8 0 C8 0.66 8 1.32 8 2 C7.01 2 6.02 2 5 2 C5 4.64 5 7.28 5 10 C4.01 10 3.02 10 2 10 C2 7.36 2 4.72 2 2 C1.34 2 0.68 2 0 2 C0 1.34 0 0.68 0 0 Z " fill="#2A2A2A" transform="translate(382,49)"/>
<path d="M0 0 C1.2065625 0.0309375 1.2065625 0.0309375 2.4375 0.0625 C3.0975 1.7125 3.7575 3.3625 4.4375 5.0625 C1.4675 5.0625 -1.5025 5.0625 -4.5625 5.0625 C-3.31710123 0.08090491 -3.31710123 0.08090491 0 0 Z " fill="#D7D8D7" transform="translate(210.5625,50.9375)"/>
<path d="M0 0 C1.98 0 3.96 0 6 0 C6.66 1.32 7.32 2.64 8 4 C6.35 4.33 4.7 4.66 3 5 C3 4.01 3 3.02 3 2 C2.34 1.67 1.68 1.34 1 1 C1.53725895 4.37705625 2.11064623 7.696686 3 11 C2.01 11 1.02 11 0 11 C0 7.37 0 3.74 0 0 Z " fill="#6D6E6D" transform="translate(289,63)"/>
<path d="M0 0 C1.98 0 3.96 0 6 0 C6.33 1.65 6.66 3.3 7 5 C6.01 4.67 5.02 4.34 4 4 C4.33 3.34 4.66 2.68 5 2 C4.01 2 3.02 2 2 2 C2.185625 2.598125 2.37125 3.19625 2.5625 3.8125 C3 6 3 6 2 9 C1.34 9 0.68 9 0 9 C0 6.03 0 3.06 0 0 Z " fill="#060606" transform="translate(322,64)"/>
<path d="M0 0 C1.67542976 0.28604898 3.34385343 0.61781233 5 1 C5.33 2.32 5.66 3.64 6 5 C3.36 5 0.72 5 -2 5 C-1.125 1.125 -1.125 1.125 0 0 Z " fill="#E4E4E4" transform="translate(69,51)"/>
<path d="M0 0 C4.75 0.875 4.75 0.875 7 2 C7 3.98 7 5.96 7 8 C6.67 8 6.34 8 6 8 C6 6.35 6 4.7 6 3 C5.01 3.495 5.01 3.495 4 4 C4 4.66 4 5.32 4 6 C2.35 5.67 0.7 5.34 -1 5 C-0.67 3.35 -0.34 1.7 0 0 Z " fill="#BDBEBE" transform="translate(348,36)"/>
<path d="M0 0 C1.98 0 3.96 0 6 0 C5.67 1.65 5.34 3.3 5 5 C4.01 5 3.02 5 2 5 C1.67 6.65 1.34 8.3 1 10 C0.67 10 0.34 10 0 10 C0 6.7 0 3.4 0 0 Z " fill="#5B5D5C" transform="translate(308,34)"/>
<path d="M0 0 C0.66 0 1.32 0 2 0 C2 2.64 2 5.28 2 8 C3.65 8 5.3 8 7 8 C7 8.66 7 9.32 7 10 C4.69 10 2.38 10 0 10 C0 6.7 0 3.4 0 0 Z " fill="#0F1010" transform="translate(321,49)"/>
<path d="M0 0 C0.66 0 1.32 0 2 0 C2 2.64 2 5.28 2 8 C3.65 8 5.3 8 7 8 C7 8.66 7 9.32 7 10 C4.69 10 2.38 10 0 10 C0 6.7 0 3.4 0 0 Z " fill="#121212" transform="translate(280,34)"/>
<path d="M0 0 C0.99 0 1.98 0 3 0 C3 3.3 3 6.6 3 10 C2.01 10 1.02 10 0 10 C0 6.7 0 3.4 0 0 Z " fill="#3C3D3D" transform="translate(329,34)"/>
<path d="M0 0 C1.65 0 3.3 0 5 0 C5 1.98 5 3.96 5 6 C2.69 6 0.38 6 -2 6 C-1.34 4.02 -0.68 2.04 0 0 Z " fill="#454646" transform="translate(315,68)"/>
<path d="M0 0 C2.375 -0.125 2.375 -0.125 5 0 C5.66 0.66 6.32 1.32 7 2 C6.625 5.125 6.625 5.125 6 8 C4.35 8.33 2.7 8.66 1 9 C1.66 8.34 2.32 7.68 3 7 C3.41666667 4.5 3.41666667 4.5 3 2 C2.01 1.34 1.02 0.68 0 0 Z " fill="#1B1B1B" transform="translate(410,64)"/>
<path d="M0 0 C2.875 -0.125 2.875 -0.125 6 0 C6.66 0.66 7.32 1.32 8 2 C7.67 2.99 7.34 3.98 7 5 C6.34 4.34 5.68 3.68 5 3 C2.93125966 2.3574765 2.93125966 2.3574765 1 2 C1 3.98 1 5.96 1 8 C1.99 8.33 2.98 8.66 4 9 C2.68 9 1.36 9 0 9 C0 6.03 0 3.06 0 0 Z " fill="#040404" transform="translate(281,49)"/>
<path d="M0 0 C0.99 0 1.98 0 3 0 C3 1.32 3 2.64 3 4 C2.01 4.495 2.01 4.495 1 5 C1 5.99 1 6.98 1 8 C0.34 8 -0.32 8 -1 8 C-1 8.66 -1 9.32 -1 10 C-1.66 10 -2.32 10 -3 10 C-2.49287967 6.28111761 -1.88391785 3.26545761 0 0 Z " fill="#141414" transform="translate(301,34)"/>
<path d="M0 0 C0.66 0 1.32 0 2 0 C2 3.3 2 6.6 2 10 C-2 8 -2 8 -2.75 5.875 C-2.8325 5.25625 -2.915 4.6375 -3 4 C-2.01 4.495 -2.01 4.495 -1 5 C-0.67 3.35 -0.34 1.7 0 0 Z " fill="#020303" transform="translate(325,34)"/>
<path d="M0 0 C0.33 0.99 0.66 1.98 1 3 C-0.65 3 -2.3 3 -4 3 C-4 3.66 -4 4.32 -4 5 C-3.34 5.33 -2.68 5.66 -2 6 C-3.65 5.67 -5.3 5.34 -7 5 C-6.67 3.68 -6.34 2.36 -6 1 C-4.02 0.67 -2.04 0.34 0 0 Z " fill="#E3E5E4" transform="translate(319,65)"/>
<path d="M0 0 C1.98 0.495 1.98 0.495 4 1 C3.67 2.65 3.34 4.3 3 6 C1.68 5.67 0.36 5.34 -1 5 C-0.67 3.35 -0.34 1.7 0 0 Z " fill="#E8E8E8" transform="translate(332,51)"/>
<path d="M0 0 C0.99 0 1.98 0 3 0 C3.33 1.98 3.66 3.96 4 6 C5.65 6.33 7.3 6.66 9 7 C9 7.33 9 7.66 9 8 C6.1875 8.3125 6.1875 8.3125 3 8 C0.68858396 5.14925356 0 3.6860549 0 0 Z " fill="#6F7070" transform="translate(324,66)"/>
<path d="M0 0 C0.99 0.33 1.98 0.66 3 1 C2.67 2.65 2.34 4.3 2 6 C0.35 5.67 -1.3 5.34 -3 5 C-3.33 4.01 -3.66 3.02 -4 2 C-1.525 2.99 -1.525 2.99 1 4 C0.67 2.68 0.34 1.36 0 0 Z " fill="#242524" transform="translate(361,68)"/>
<path d="M0 0 C1.32 0 2.64 0 4 0 C4 1.65 4 3.3 4 5 C2.35 5 0.7 5 -1 5 C-0.67 3.35 -0.34 1.7 0 0 Z " fill="#F0F0F0" transform="translate(410,66)"/>
<path d="M0 0 C1.99954746 -0.04254356 4.00041636 -0.04080783 6 0 C7 1 7 1 7.0625 3.5625 C7.041875 4.366875 7.02125 5.17125 7 6 C6.01 6.495 6.01 6.495 5 7 C4.67 6.01 4.34 5.02 4 4 C1.99983534 2.79117904 1.99983534 2.79117904 0 2 C0 1.34 0 0.68 0 0 Z " fill="#BDBEBE" transform="translate(400,65)"/>
<path d="M0 0 C2.475 0.495 2.475 0.495 5 1 C4.67 2.32 4.34 3.64 4 5 C2.68 5 1.36 5 0 5 C0 3.35 0 1.7 0 0 Z " fill="#F1F2F2" transform="translate(378,66)"/>
<path d="M0 0 C2.475 0.495 2.475 0.495 5 1 C4.67 2.32 4.34 3.64 4 5 C2.68 5 1.36 5 0 5 C0 3.35 0 1.7 0 0 Z " fill="#F1F1F1" transform="translate(301,66)"/>
<path d="M0 0 C0.625 1.875 0.625 1.875 1 4 C0.34 4.66 -0.32 5.32 -1 6 C-1.99 5.67 -2.98 5.34 -4 5 C-4.6875 2.9375 -4.6875 2.9375 -5 1 C-3.35 0.67 -1.7 0.34 0 0 Z " fill="#676867" transform="translate(347,50)"/>
<path d="M0 0 C0.598125 0.226875 1.19625 0.45375 1.8125 0.6875 C1.4825 1.3475 1.1525 2.0075 0.8125 2.6875 C-0.1775 2.6875 -1.1675 2.6875 -2.1875 2.6875 C-2.31125 3.326875 -2.435 3.96625 -2.5625 4.625 C-2.76875 5.305625 -2.975 5.98625 -3.1875 6.6875 C-4.1775 7.1825 -4.1775 7.1825 -5.1875 7.6875 C-5.41803497 4.84423536 -5.54653101 3.22604651 -3.9375 0.8125 C-2.1875 -0.3125 -2.1875 -0.3125 0 0 Z " fill="#3E3F3E" transform="translate(303.1875,63.3125)"/>
<path d="M0 0 C0 0.66 0 1.32 0 2 C-2.97 2 -5.94 2 -9 2 C-9 1.01 -9 0.02 -9 -1 C-5.79937313 -2.60031344 -3.27728194 -1.03173691 0 0 Z " fill="#0C0C0D" transform="translate(340,71)"/>
<path d="M0 0 C1.32 0.33 2.64 0.66 4 1 C3.34 1 2.68 1 2 1 C2.2784375 2.1446875 2.2784375 2.1446875 2.5625 3.3125 C3 6 3 6 2 9 C1.34 9 0.68 9 0 9 C0 6.03 0 3.06 0 0 Z " fill="#141515" transform="translate(419,64)"/>
<path d="M0 0 C0.66 0 1.32 0 2 0 C2 3.3 2 6.6 2 10 C1.34 10 0.68 10 0 10 C0.020625 9.2575 0.04125 8.515 0.0625 7.75 C0.10240811 5.05832211 0.10240811 5.05832211 -0.5625 2.75 C-0.706875 2.1725 -0.85125 1.595 -1 1 C-0.67 0.67 -0.34 0.34 0 0 Z " fill="#070807" transform="translate(357,49)"/>
<path d="M0 0 C4.70588235 0.70588235 4.70588235 0.70588235 6 2 C6.04063832 3.66617115 6.042721 5.33388095 6 7 C5.34 7 4.68 7 4 7 C3.87625 6.071875 3.87625 6.071875 3.75 5.125 C3.18741541 2.81562433 3.18741541 2.81562433 0.9375 1.75 C0.298125 1.5025 -0.34125 1.255 -1 1 C-0.67 0.67 -0.34 0.34 0 0 Z " fill="#080909" transform="translate(332,49)"/>
<path d="M0 0 C1.65 0 3.3 0 5 0 C5.625 2.375 5.625 2.375 6 5 C5.34 5.66 4.68 6.32 4 7 C3.67 6.01 3.34 5.02 3 4 C2.01 3.34 1.02 2.68 0 2 C0 1.34 0 0.68 0 0 Z " fill="#CACBCB" transform="translate(360,65)"/>
<path d="M0 0 C0.99 0.33 1.98 0.66 3 1 C2.01 3.64 1.02 6.28 0 9 C-0.33 8.34 -0.66 7.68 -1 7 C-1.66 6.67 -2.32 6.34 -3 6 C-2.01 4.02 -1.02 2.04 0 0 Z " fill="#222323" transform="translate(307,49)"/>
<path d="M0 0 C0.33 0 0.66 0 1 0 C1 2.31 1 4.62 1 7 C-0.32 7.33 -1.64 7.66 -3 8 C-2.67 7.34 -2.34 6.68 -2 6 C-2.33 5.01 -2.66 4.02 -3 3 C-2.01 2.67 -1.02 2.34 0 2 C0 1.34 0 0.68 0 0 Z " fill="#E3E3E3" transform="translate(317,37)"/>
<path d="M0 0 C2.31 0.33 4.62 0.66 7 1 C7 1.66 7 2.32 7 3 C6.071875 2.979375 5.14375 2.95875 4.1875 2.9375 C0.97713989 2.84230396 0.97713989 2.84230396 -2 4 C-1.34 2.68 -0.68 1.36 0 0 Z " fill="#191919" transform="translate(347,34)"/>
<path d="M0 0 C1.32 0.33 2.64 0.66 4 1 C4 2.32 4 3.64 4 5 C2.68 5 1.36 5 0 5 C0 3.35 0 1.7 0 0 Z " fill="#F6F6F6" transform="translate(283,51)"/>
<path d="M0 0 C0.61875 0.639375 1.2375 1.27875 1.875 1.9375 C3.82597612 4.03883584 3.82597612 4.03883584 6 5 C6 5.66 6 6.32 6 7 C3.525 6.01 3.525 6.01 1 5 C0.67 5.66 0.34 6.32 0 7 C-0.93423645 3.98968256 -1.04449911 3.13349732 0 0 Z " fill="#DADBDA" transform="translate(397,65)"/>
<path d="M0 0 C0 1.98 0 3.96 0 6 C-0.99 6 -1.98 6 -3 6 C-3.66 4.35 -4.32 2.7 -5 1 C-2 0 -2 0 0 0 Z " fill="#202020" transform="translate(297,67)"/>
<path d="M0 0 C0.2475 0.598125 0.495 1.19625 0.75 1.8125 C2.16370012 4.28647521 3.65055383 5.43370255 6 7 C3.625 7.125 3.625 7.125 1 7 C0.34 6.34 -0.32 5.68 -1 5 C-0.625 2.375 -0.625 2.375 0 0 Z " fill="#050505" transform="translate(311,66)"/>
<path d="M0 0 C2.1875 0.3125 2.1875 0.3125 4 1 C3.67 1.66 3.34 2.32 3 3 C2.01 3 1.02 3 0 3 C-0.33 4.32 -0.66 5.64 -1 7 C-1.66 5.68 -2.32 4.36 -3 3 C-1.75 1.4375 -1.75 1.4375 0 0 Z " fill="#434444" transform="translate(378,63)"/>
</svg>
