<?xml version="1.0" encoding="UTF-8"?>
<svg version="1.1" xmlns="http://www.w3.org/2000/svg" width="225" height="225">
<path d="M0 0 C74.25 0 148.5 0 225 0 C225 74.25 225 148.5 225 225 C150.75 225 76.5 225 0 225 C0 150.75 0 76.5 0 0 Z " fill="#052438" transform="translate(0,0)"/>
<path d="M0 0 C2.9375 2.4375 2.9375 2.4375 5 5 C5.33 5.33 5.66 5.66 6 6 C6.54424175 11.65174126 6.72462742 16.41584318 3 21 C1 23 1 23 -1.05859375 23.23046875 C-1.84363281 23.21628906 -2.62867187 23.20210937 -3.4375 23.1875 C-4.21996094 23.18105469 -5.00242187 23.17460938 -5.80859375 23.16796875 C-8 23 -8 23 -11 22 C-11 24.31 -11 26.62 -11 29 C-13.31 29 -15.62 29 -18 29 C-18 19.76 -18 10.52 -18 1 C-15.36 1 -12.72 1 -10 1 C-6.78540014 -0.60729993 -3.47611897 -0.61930855 0 0 Z " fill="#F1F6F7" transform="translate(128,102)"/>
<path d="M0 0 C2.5625 2.0625 2.5625 2.0625 3.5625 3.0625 C3.63508946 5.24889453 3.64623783 7.43750389 3.625 9.625 C3.61597656 10.82253906 3.60695312 12.02007812 3.59765625 13.25390625 C3.58605469 14.18074219 3.57445312 15.10757813 3.5625 16.0625 C2.9025 16.0625 2.2425 16.0625 1.5625 16.0625 C1.27375 16.701875 0.985 17.34125 0.6875 18 C-0.4375 20.0625 -0.4375 20.0625 -2.4375 21.0625 C-7.8996335 21.62727008 -12.74680979 21.94035838 -17.6875 19.375 C-20.41087864 14.22003328 -20.49312256 8.76286184 -19.4375 3.0625 C-14.41814606 -3.07679093 -6.79526429 -3.83005806 0 0 Z " fill="#EEF4F6" transform="translate(155.4375,103.9375)"/>
<path d="M0 0 C2.125 1.125 2.125 1.125 4.125 3.125 C4.70230175 6.44720821 4.86599012 9.75787151 5.125 13.125 C0.175 13.125 -4.775 13.125 -9.875 13.125 C-9.875 13.785 -9.875 14.445 -9.875 15.125 C-9.18792969 15.16238281 -8.50085938 15.19976562 -7.79296875 15.23828125 C-6.89191406 15.30402344 -5.99085937 15.36976562 -5.0625 15.4375 C-4.16917969 15.49550781 -3.27585937 15.55351563 -2.35546875 15.61328125 C0.45171925 16.19240192 1.43197846 16.8470142 3.125 19.125 C3.125 19.785 3.125 20.445 3.125 21.125 C0.0739365 22.14202117 -2.11699061 22.29082083 -5.3125 22.3125 C-6.73369141 22.33376953 -6.73369141 22.33376953 -8.18359375 22.35546875 C-11.00748008 22.11365555 -12.55742563 21.73966171 -14.875 20.125 C-17.92791739 15.68174125 -17.51718725 10.28543325 -16.875 5.125 C-12.84148296 -1.5975284 -7.16360713 -2.18022826 0 0 Z " fill="#F3F6F7" transform="translate(79.875,102.875)"/>
<path d="M0 0 C1.45742463 -0.08096803 2.91612807 -0.13917774 4.375 -0.1875 C5.18710938 -0.22230469 5.99921875 -0.25710937 6.8359375 -0.29296875 C7.55007812 -0.19628906 8.26421875 -0.09960938 9 0 C9.66 0.99 10.32 1.98 11 3 C11.33 2.505 11.66 2.01 12 1.5 C15.17572747 -0.88179561 18.10246066 -0.19168226 22 0 C21.02003892 2.71373838 20.15033127 4.81626178 18.3125 7.0625 C16.76868498 8.87735682 16.76868498 8.87735682 17.2578125 10.89453125 C18.06320821 13.1793117 19.0847807 14.71364797 20.5625 16.625 C23 19.78753541 23 19.78753541 23 22 C15.73846154 22.61538462 15.73846154 22.61538462 12 19.5 C11.34 18.675 10.68 17.85 10 17 C9.01 19.475 9.01 19.475 8 22 C5.03 22 2.06 22 -1 22 C1 18 1 18 3.1875 15.0625 C5.21752247 12.22557208 5.21752247 12.22557208 5 9.4375 C3.7915083 6.49180147 2.03581402 4.42984254 0 2 C0 1.34 0 0.68 0 0 Z " fill="#F6F8F9" transform="translate(85,103)"/>
<path d="M0 0 C1.21236328 0.02707031 1.21236328 0.02707031 2.44921875 0.0546875 C3.37154297 0.08949219 3.37154297 0.08949219 4.3125 0.125 C4.3125 2.105 4.3125 4.085 4.3125 6.125 C3.673125 6.24875 3.03375 6.3725 2.375 6.5 C1.694375 6.70625 1.01375 6.9125 0.3125 7.125 C-0.0175 7.785 -0.3475 8.445 -0.6875 9.125 C0.9625 9.125 2.6125 9.125 4.3125 9.125 C4.3125 11.105 4.3125 13.085 4.3125 15.125 C2.6625 15.125 1.0125 15.125 -0.6875 15.125 C-0.6875 20.405 -0.6875 25.685 -0.6875 31.125 C-3.3275 31.125 -5.9675 31.125 -8.6875 31.125 C-8.6875 25.845 -8.6875 20.565 -8.6875 15.125 C-10.0075 15.125 -11.3275 15.125 -12.6875 15.125 C-12.6875 13.145 -12.6875 11.165 -12.6875 9.125 C-11.3675 8.795 -10.0475 8.465 -8.6875 8.125 C-8.5328125 6.701875 -8.5328125 6.701875 -8.375 5.25 C-7.27118084 0.23264016 -4.62912683 -0.13417759 0 0 Z " fill="#E6EAEC" transform="translate(44.6875,93.875)"/>
<path d="M0 0 C1.98 0 3.96 0 6 0 C6 1.65 6 3.3 6 5 C7.65 5 9.3 5 11 5 C11 7.64 11 10.28 11 13 C9.35 13 7.7 13 6 13 C6 15.64 6 18.28 6 21 C7.65 21 9.3 21 11 21 C11 23.31 11 25.62 11 28 C9.56344146 28.08131463 8.1255517 28.13933559 6.6875 28.1875 C5.48673828 28.23970703 5.48673828 28.23970703 4.26171875 28.29296875 C1.48372541 27.93312505 0.70572785 27.16758647 -1 25 C-2.26237731 22.47524538 -2.09856404 20.68799534 -2.0625 17.875 C-2.05347656 16.96492188 -2.04445312 16.05484375 -2.03515625 15.1171875 C-2.02355469 14.41851562 -2.01195312 13.71984375 -2 13 C-2.99 13 -3.98 13 -5 13 C-5 10.36 -5 7.72 -5 5 C-3.68 5 -2.36 5 -1 5 C-0.67 3.35 -0.34 1.7 0 0 Z " fill="#EDF3F3" transform="translate(182,97)"/>
<path d="M0 0 C2.64 0 5.28 0 8 0 C8 7.92 8 15.84 8 24 C8.99 24 9.98 24 11 24 C11 26.31 11 28.62 11 31 C5.04296875 31.48828125 5.04296875 31.48828125 3 31 C0.16234275 27.21875284 -0.36203451 24.49766849 -0.29296875 19.82421875 C-0.28330078 18.66728516 -0.27363281 17.51035156 -0.26367188 16.31835938 C-0.23853516 15.12017578 -0.21339844 13.92199219 -0.1875 12.6875 C-0.17396484 11.46998047 -0.16042969 10.25246094 -0.14648438 8.99804688 C-0.11119261 5.99824655 -0.06188481 2.99935025 0 0 Z " fill="#EBF0F4" transform="translate(51,94)"/>
<path d="M0 0 C0 2.64 0 5.28 0 8 C-1.98 8.33 -3.96 8.66 -6 9 C-6 13.62 -6 18.24 -6 23 C-8.64 23 -11.28 23 -14 23 C-14 15.74 -14 8.48 -14 1 C-11.36 1 -8.72 1 -6 1 C-4 0 -4 0 0 0 Z " fill="#F7FBFC" transform="translate(175,102)"/>
<path d="M0 0 C0 1.32 0 2.64 0 4 C0.99 4 1.98 4 3 4 C3 4.66 3 5.32 3 6 C-0.95630201 7.36948916 -2.33249547 6.77791742 -7 6 C-7 15.24 -7 24.48 -7 34 C-7.33 34 -7.66 34 -8 34 C-8 32.35 -8 30.7 -8 29 C-8.67546875 29.02320312 -9.3509375 29.04640625 -10.046875 29.0703125 C-11.38492188 29.09738281 -11.38492188 29.09738281 -12.75 29.125 C-14.07257813 29.15980469 -14.07257813 29.15980469 -15.421875 29.1953125 C-18.1135858 28.99139502 -19.69904974 28.36551721 -22 27 C-22 27.66 -22 28.32 -22 29 C-24.875 29.625 -24.875 29.625 -28 30 C-28.66 29.34 -29.32 28.68 -30 28 C-28.02 28 -26.04 28 -24 28 C-23.34 26.35 -22.68 24.7 -22 23 C-19 24 -19 24 -17 27 C-15.03638136 27.57748803 -15.03638136 27.57748803 -12.875 27.6875 C-11.59625 27.790625 -10.3175 27.89375 -9 28 C-9.42152344 27.39671875 -9.84304687 26.7934375 -10.27734375 26.171875 C-10.82519531 25.37265625 -11.37304688 24.5734375 -11.9375 23.75 C-12.48277344 22.96109375 -13.02804688 22.1721875 -13.58984375 21.359375 C-14.93528205 19.10828155 -15.77939798 17.60520479 -16 15 C-15.07421875 13.078125 -15.07421875 13.078125 -13.6875 11.25 C-13.01267578 10.32960938 -13.01267578 10.32960938 -12.32421875 9.390625 C-11.88722656 8.93171875 -11.45023438 8.4728125 -11 8 C-10.34 8 -9.68 8 -9 8 C-9 5.69 -9 3.38 -9 1 C-5.64919071 -1.10976881 -3.77897651 -1.0497157 0 0 Z " fill="#071C2B" transform="translate(117,97)"/>
<path d="M0 0 C1.98 0 3.96 0 6 0 C6.66 0.99 7.32 1.98 8 3 C9.65 2.67 11.3 2.34 13 2 C13 2.99 13 3.98 13 5 C12.01 5.33 11.02 5.66 10 6 C8.79441998 8.02370947 8.79441998 8.02370947 7.875 10.4375 C7.54242188 11.24058594 7.20984375 12.04367188 6.8671875 12.87109375 C6.43792969 13.92490234 6.43792969 13.92490234 6 15 C5.67 15.66 5.34 16.32 5 17 C5.28604898 18.67542976 5.61781233 20.34385343 6 22 C6 22.33 6 22.66 6 23 C6.33 23 6.66 23 7 23 C7 24.65 7 26.3 7 28 C4.69 28 2.38 28 0 28 C0 18.76 0 9.52 0 0 Z " fill="#EAF3F5" transform="translate(110,103)"/>
<path d="M0 0 C2.9375 2.4375 2.9375 2.4375 5 5 C5.33 5.33 5.66 5.66 6 6 C6.07205511 7.68608966 6.08386068 9.37500659 6.0625 11.0625 C6.05347656 11.98160156 6.04445312 12.90070313 6.03515625 13.84765625 C6.02355469 14.55792969 6.01195312 15.26820312 6 16 C5.67 16 5.34 16 5 16 C4.67 13.69 4.34 11.38 4 9 C2.02 9.99 2.02 9.99 0 11 C-0.33 10.67 -0.66 10.34 -1 10 C-1.66 11.98 -2.32 13.96 -3 16 C-4.99954746 16.04254356 -7.00041636 16.04080783 -9 16 C-10 15 -10 15 -10.25 12.25 C-9.97434074 8.66642963 -9.04806115 6.90141996 -7 4 C-7.66 3.67 -8.32 3.34 -9 3 C-9.33 3.66 -9.66 4.32 -10 5 C-10.66 4.01 -11.32 3.02 -12 2 C-8.3266812 -0.4488792 -4.26623889 -0.86340549 0 0 Z " fill="#E6ECEE" transform="translate(128,102)"/>
<path d="M0 0 C2.31 0.33 4.62 0.66 7 1 C7 1.33 7 1.66 7 2 C9.97 2.33 12.94 2.66 16 3 C16 3.33 16 3.66 16 4 C13.03 4 10.06 4 7 4 C7.66708984 4.76183594 7.66708984 4.76183594 8.34765625 5.5390625 C12.94810301 11.13505013 12.94810301 11.13505013 13.1875 15.125 C11.66563887 18.80950589 9.70965178 21.08191347 7 24 C3.125 22.125 3.125 22.125 2 21 C0.32115762 20.6068352 -1.36850045 20.25914548 -3.0625 19.9375 C-3.98160156 19.76089844 -4.90070313 19.58429688 -5.84765625 19.40234375 C-6.55792969 19.26957031 -7.26820312 19.13679688 -8 19 C-8 18.34 -8 17.68 -8 17 C-3.05 17 1.9 17 7 17 C6.71125 15.39125 6.4225 13.7825 6.125 12.125 C5.96257812 11.22007813 5.80015625 10.31515625 5.6328125 9.3828125 C5.16955297 6.83494012 5.16955297 6.83494012 3 5 C1.68252676 4.30251417 0.35085807 3.63040043 -1 3 C-0.01 2.67 0.98 2.34 2 2 C1.34 1.34 0.68 0.68 0 0 Z " fill="#1B2C3B" transform="translate(78,99)"/>
<path d="M0 0 C2.5 0.25 2.5 0.25 4.5 2.25 C5.203125 4.34375 5.203125 4.34375 5.75 6.75 C5.94078125 7.5440625 6.1315625 8.338125 6.328125 9.15625 C6.38484375 9.8471875 6.4415625 10.538125 6.5 11.25 C5.84 11.91 5.18 12.57 4.5 13.25 C4.17 12.59 3.84 11.93 3.5 11.25 C0.97266765 10.59444881 0.97266765 10.59444881 -1.5 10.25 C-1.83 11.57 -2.16 12.89 -2.5 14.25 C-1.18 14.25 0.14 14.25 1.5 14.25 C1.5 14.91 1.5 15.57 1.5 16.25 C-5.76153846 16.86538462 -5.76153846 16.86538462 -9.5 13.75 C-10.16 12.925 -10.82 12.1 -11.5 11.25 C-10.860625 11.12625 -10.22125 11.0025 -9.5625 10.875 C-8.881875 10.66875 -8.20125 10.4625 -7.5 10.25 C-7.17 9.59 -6.84 8.93 -6.5 8.25 C-5.84 8.25 -5.18 8.25 -4.5 8.25 C-4.54125 7.30125 -4.5825 6.3525 -4.625 5.375 C-4.47047219 1.5118047 -3.93075673 0.39307567 0 0 Z " fill="#E6EEF1" transform="translate(147.5,108.75)"/>
<path d="M0 0 C7.45104563 0.61074144 7.45104563 0.61074144 9.71875 2.21875 C12.18593739 5.64874222 11.73364873 9.89819048 12 14 C7.38 14 2.76 14 -2 14 C-2.33 13.01 -2.66 12.02 -3 11 C-2 10 -2 10 1.5625 9.9375 C2.696875 9.958125 3.83125 9.97875 5 10 C5 9.01 5 8.02 5 7 C3.68 6.67 2.36 6.34 1 6 C1 5.34 1 4.68 1 4 C0.34 3.67 -0.32 3.34 -1 3 C-0.67 2.01 -0.34 1.02 0 0 Z " fill="#F3F8F9" transform="translate(73,102)"/>
<path d="M0 0 C1.98 0 3.96 0 6 0 C6.66 1.32 7.32 2.64 8 4 C7 5 7 5 3.4375 5.0625 C2.303125 5.041875 1.16875 5.02125 0 5 C-0.66 7.97 -1.32 10.94 -2 14 C-2.66 14 -3.32 14 -4 14 C-4.33 14.99 -4.66 15.98 -5 17 C-6.32 16.67 -7.64 16.34 -9 16 C-9 12.7 -9 9.4 -9 6 C-7.88625 5.7525 -6.7725 5.505 -5.625 5.25 C-1.95384802 4.38994661 -1.95384802 4.38994661 -0.5625 1.875 C-0.376875 1.25625 -0.19125 0.6375 0 0 Z " fill="#F7FBFA" transform="translate(145,103)"/>
<path d="M0 0 C0.33 0 0.66 0 1 0 C1.33 2.64 1.66 5.28 2 8 C2.66 8 3.32 8 4 8 C4.99 8 5.98 8 7 8 C7 5.36 7 2.72 7 0 C7.33 0 7.66 0 8 0 C8 2.64 8 5.28 8 8 C9.65 8 11.3 8 13 8 C13 10.31 13 12.62 13 15 C11.56344146 15.08131463 10.1255517 15.13933559 8.6875 15.1875 C7.48673828 15.23970703 7.48673828 15.23970703 6.26171875 15.29296875 C3.48372541 14.93312505 2.70572785 14.16758647 1 12 C-0.26237731 9.47524538 -0.09856404 7.68799534 -0.0625 4.875 C-0.05347656 3.96492188 -0.04445312 3.05484375 -0.03515625 2.1171875 C-0.02355469 1.41851562 -0.01195312 0.71984375 0 0 Z " fill="#DCE5EB" transform="translate(180,110)"/>
<path d="M0 0 C0.33 4.95 0.66 9.9 1 15 C-1.31 15 -3.62 15 -6 15 C-6.02694851 13.04174127 -6.04637218 11.08337774 -6.0625 9.125 C-6.07410156 8.03445312 -6.08570313 6.94390625 -6.09765625 5.8203125 C-6 3 -6 3 -5 1 C-3.3176559 0.47426747 -1.77322566 0 0 0 Z " fill="#FCFDFD" transform="translate(43,109)"/>
<path d="M0 0 C0.33 0 0.66 0 1 0 C1.02892857 3.95831809 1.04677427 7.91660917 1.0625 11.875 C1.07087891 13.00292969 1.07925781 14.13085938 1.08789062 15.29296875 C1.09111328 16.36933594 1.09433594 17.44570312 1.09765625 18.5546875 C1.10289307 19.54968262 1.10812988 20.54467773 1.11352539 21.56982422 C1 24 1 24 0 26 C-1.32 26 -2.64 26 -4 26 C-4 22.04 -4 18.08 -4 14 C-2.68 14 -1.36 14 0 14 C0 11.69 0 9.38 0 7 C-1.65 7 -3.3 7 -5 7 C-4.67 6.01 -4.34 5.02 -4 4 C-2.68 4 -1.36 4 0 4 C0 2.68 0 1.36 0 0 Z " fill="#081E2E" transform="translate(49,96)"/>
<path d="M0 0 C0 2.64 0 5.28 0 8 C-1.65 8.33 -3.3 8.66 -5 9 C-4.67 8.34 -4.34 7.68 -4 7 C-3.01 7 -2.02 7 -1 7 C-1.33 5.35 -1.66 3.7 -2 2 C-2.66 2 -3.32 2 -4 2 C-4 2.99 -4 3.98 -4 5 C-4.94875 4.79375 -5.8975 4.5875 -6.875 4.375 C-8.421875 4.189375 -8.421875 4.189375 -10 4 C-12.93447357 6.93447357 -12.46158423 10.18259456 -12.625 14.125 C-12.66367188 14.87910156 -12.70234375 15.63320312 -12.7421875 16.41015625 C-12.83651031 18.27303184 -12.91934662 20.13648255 -13 22 C-11.02 22 -9.04 22 -7 22 C-6.67 21.01 -6.34 20.02 -6 19 C-6 20.32 -6 21.64 -6 23 C-8.64 23 -11.28 23 -14 23 C-14 15.74 -14 8.48 -14 1 C-11.36 1 -8.72 1 -6 1 C-4 0 -4 0 0 0 Z " fill="#CDD8DE" transform="translate(175,102)"/>
<path d="M0 0 C0.33 0 0.66 0 1 0 C1 9.24 1 18.48 1 28 C0.67 28 0.34 28 0 28 C0 26.35 0 24.7 0 23 C-0.67546875 23.02320312 -1.3509375 23.04640625 -2.046875 23.0703125 C-3.38492188 23.09738281 -3.38492188 23.09738281 -4.75 23.125 C-6.07257813 23.15980469 -6.07257813 23.15980469 -7.421875 23.1953125 C-10.1135858 22.99139502 -11.69904974 22.36551721 -14 21 C-14 21.66 -14 22.32 -14 23 C-16.875 23.625 -16.875 23.625 -20 24 C-20.66 23.34 -21.32 22.68 -22 22 C-20.02 22 -18.04 22 -16 22 C-15.34 20.35 -14.68 18.7 -14 17 C-11 18 -11 18 -9 21 C-7.03638136 21.57748803 -7.03638136 21.57748803 -4.875 21.6875 C-3.59625 21.790625 -2.3175 21.89375 -1 22 C-1.99 20.02 -2.98 18.04 -4 16 C-1 17 -1 17 0 18 C0 12.06 0 6.12 0 0 Z " fill="#2D3F4A" transform="translate(109,103)"/>
<path d="M0 0 C0.33 0 0.66 0 1 0 C0.125 6.75 0.125 6.75 -1 9 C-0.71395102 10.67542976 -0.38218767 12.34385343 0 14 C0 14.33 0 14.66 0 15 C0.33 15 0.66 15 1 15 C1 16.65 1 18.3 1 20 C-0.98 20 -2.96 20 -5 20 C-4.67 17.36 -4.34 14.72 -4 12 C-4.33 12 -4.66 12 -5 12 C-5 8.7 -5 5.4 -5 2 C-4.01 2 -3.02 2 -2 2 C-1.67 2.33 -1.34 2.66 -1 3 C-0.67 2.01 -0.34 1.02 0 0 Z " fill="#F8FDFC" transform="translate(116,111)"/>
<path d="M0 0 C-3.75 2 -3.75 2 -6 2 C-7.18681726 5.56045177 -7.09689832 8.43808337 -7.0625 12.1875 C-7.05347656 13.45980469 -7.04445312 14.73210937 -7.03515625 16.04296875 C-7.02355469 17.01878906 -7.01195312 17.99460937 -7 19 C-8.98 19.66 -10.96 20.32 -13 21 C-12.67 20.38125 -12.34 19.7625 -12 19.125 C-10.58484666 14.70264581 -10.24500967 10.59591199 -11 6 C-12.42091047 3.48988987 -13.87966372 2.01431946 -16 0 C-14.02 0.66 -12.04 1.32 -10 2 C-9.67 1.34 -9.34 0.68 -9 0 C-5.75266665 -1.2757381 -3.32967418 -0.83241855 0 0 Z " fill="#1A2934" transform="translate(144,102)"/>
<path d="M0 0 C0.33 0 0.66 0 1 0 C1.04898438 0.98742187 1.09796875 1.97484375 1.1484375 2.9921875 C1.22320312 4.27351563 1.29796875 5.55484375 1.375 6.875 C1.44460937 8.15117188 1.51421875 9.42734375 1.5859375 10.7421875 C1.67241106 14.08061699 1.67241106 14.08061699 4 16 C4.37890625 18.0234375 4.37890625 18.0234375 4.5625 20.375 C4.80585497 23.34492387 5.04641919 26.1640259 6 29 C7.9837767 30.28436734 7.9837767 30.28436734 10 31 C6.98968256 31.93423645 6.13349732 32.04449911 3 31 C3 28.69 3 26.38 3 24 C2.01 24 1.02 24 0 24 C0 16.08 0 8.16 0 0 Z " fill="#293440" transform="translate(59,94)"/>
<path d="M0 0 C0.33 1.98 0.66 3.96 1 6 C2.32 6.33 3.64 6.66 5 7 C5 7.99 5 8.98 5 10 C2.36 10 -0.28 10 -3 10 C-3 8.68 -3 7.36 -3 6 C-3.66 6 -4.32 6 -5 6 C-5.33 6.66 -5.66 7.32 -6 8 C-6.33 7.01 -6.66 6.02 -7 5 C-7.66 4.67 -8.32 4.34 -9 4 C-4.5 0 -4.5 0 0 0 Z " fill="#E9EEF3" transform="translate(73,102)"/>
<path d="M0 0 C2.4375 0.1875 2.4375 0.1875 3.4375 1.1875 C3.57865161 3.85808851 3.47997107 6.51182238 3.4375 9.1875 C1.10455225 9.22991723 -1.22952567 9.22842937 -3.5625 9.1875 C-4.5625 8.1875 -4.5625 8.1875 -4.75 5.25 C-4.51396328 1.39473356 -3.93576856 0.28798307 0 0 Z " fill="#101F2D" transform="translate(147.5625,108.8125)"/>
<path d="M0 0 C1.98 0 3.96 0 6 0 C7.125 6.75 7.125 6.75 6 9 C4.00045254 9.04254356 1.99958364 9.04080783 0 9 C-1 8 -1 8 -1.125 5.0625 C-1 2 -1 2 0 0 Z " fill="#0F1E2E" transform="translate(119,109)"/>
<path d="M0 0 C1.65625 1.1015625 1.65625 1.1015625 4.15625 3.1015625 C3.82625 3.7615625 3.49625 4.4215625 3.15625 5.1015625 C1.17625 4.4415625 -0.80375 3.7815625 -2.84375 3.1015625 C-2.84375 2.1115625 -2.84375 1.1215625 -2.84375 0.1015625 C-4.82375 0.4315625 -6.80375 0.7615625 -8.84375 1.1015625 C-9.50375 3.0815625 -10.16375 5.0615625 -10.84375 7.1015625 C-11.50375 6.4415625 -12.16375 5.7815625 -12.84375 5.1015625 C-13.50375 5.7615625 -14.16375 6.4215625 -14.84375 7.1015625 C-15.83375 6.7715625 -16.82375 6.4415625 -17.84375 6.1015625 C-17.21875 3.7265625 -17.21875 3.7265625 -15.84375 1.1015625 C-11.12548193 -1.25757153 -4.91722463 -2.39610522 0 0 Z " fill="#E2EBEF" transform="translate(153.84375,102.8984375)"/>
<path d="M0 0 C2.97 0 5.94 0 9 0 C9 1.98 9 3.96 9 6 C8.030625 6.12375 7.06125 6.2475 6.0625 6.375 C4.5465625 6.684375 4.5465625 6.684375 3 7 C2.67 7.66 2.34 8.32 2 9 C1.67 8.01 1.34 7.02 1 6 C0.01 6.495 0.01 6.495 -1 7 C-0.67 4.69 -0.34 2.38 0 0 Z " fill="#E4EBF0" transform="translate(40,94)"/>
<path d="M0 0 C0.7425 0.309375 1.485 0.61875 2.25 0.9375 C4.50692176 1.8094925 6.6450153 2.47667007 9 3 C9 3.33 9 3.66 9 4 C7.02 4 5.04 4 3 4 C3 13.57 3 23.14 3 33 C2.67 33 2.34 33 2 33 C1.67 23.43 1.34 13.86 1 4 C-0.65 4 -2.3 4 -4 4 C-4 3.34 -4 2.68 -4 2 C-2.68 2 -1.36 2 0 2 C0 1.34 0 0.68 0 0 Z " fill="#05111E" transform="translate(48,89)"/>
<path d="M0 0 C3.39417765 3.12621626 5.6062718 5.56541027 7 10 C1.62694301 10.44041451 1.62694301 10.44041451 -1 10 C-3 7.5 -3 7.5 -4 5 C-3.01 5 -2.02 5 -1 5 C-1 3.68 -1 2.36 -1 1 C-0.67 0.67 -0.34 0.34 0 0 Z " fill="#DEEAEF" transform="translate(101,115)"/>
<path d="M0 0 C0.99 0 1.98 0 3 0 C3.103125 0.639375 3.20625 1.27875 3.3125 1.9375 C3.539375 2.618125 3.76625 3.29875 4 4 C4.99 4.33 5.98 4.66 7 5 C7 6.98 7 8.96 7 11 C6.01 11 5.02 11 4 11 C3.67 11.66 3.34 12.32 3 13 C0.41073669 10.41073669 0.62601957 8.97294721 0.375 5.375 C0.30023438 4.37210937 0.22546875 3.36921875 0.1484375 2.3359375 C0.09945312 1.56507812 0.05046875 0.79421875 0 0 Z " fill="#FAFCFD" transform="translate(180,107)"/>
<path d="M0 0 C2.97 0 5.94 0 9 0 C9 0.66 9 1.32 9 2 C10.134375 2.12375 11.26875 2.2475 12.4375 2.375 C13.613125 2.58125 14.78875 2.7875 16 3 C16.33 3.66 16.66 4.32 17 5 C11.39 5 5.78 5 0 5 C0 3.33333333 0 1.66666667 0 0 Z " fill="#062031" transform="translate(64,97)"/>
<path d="M0 0 C4.95 0 9.9 0 15 0 C14.67 2.31 14.34 4.62 14 7 C13.44828125 6.52949219 12.8965625 6.05898437 12.328125 5.57421875 C9.73348403 3.8197887 7.81872585 3.33741363 4.75 2.8125 C3.85796875 2.65394531 2.9659375 2.49539062 2.046875 2.33203125 C1.37140625 2.22246094 0.6959375 2.11289063 0 2 C0 1.34 0 0.68 0 0 Z " fill="#394650" transform="translate(70,116)"/>
<path d="M0 0 C3 1 3 1 4.25 3.4375 C5 6 5 6 4 8 C1.03 8 -1.94 8 -5 8 C-3.47524303 4.95048605 -2.07114674 2.63600494 0 0 Z " fill="#EAF6F8" transform="translate(89,117)"/>
<path d="M0 0 C0 1.32 0 2.64 0 4 C0.99 4 1.98 4 3 4 C3 4.66 3 5.32 3 6 C-0.57644848 7.2380014 -3.33694766 6.74926071 -7 6 C-5.68 5.67 -4.36 5.34 -3 5 C-5.8424854 3.42726432 -5.8424854 3.42726432 -9 3 C-9 2.34 -9 1.68 -9 1 C-5.64919071 -1.10976881 -3.77897651 -1.0497157 0 0 Z " fill="#1C3247" transform="translate(117,97)"/>
<path d="M0 0 C-1.75 4.875 -1.75 4.875 -4 6 C-4 5.01 -4 4.02 -4 3 C-7.00259517 2.66781808 -7.00259517 2.66781808 -8.6875 4.5 C-9.120625 4.995 -9.55375 5.49 -10 6 C-10.99 5.67 -11.98 5.34 -13 5 C-12.67 3.68 -12.34 2.36 -12 1 C-11.67 1.66 -11.34 2.32 -11 3 C-10.67 2.505 -10.34 2.01 -10 1.5 C-6.82427253 -0.88179561 -3.89753934 -0.19168226 0 0 Z " fill="#E0E9EE" transform="translate(107,103)"/>
<path d="M0 0 C2.0625 0.4375 2.0625 0.4375 4 1 C4 1.99 4 2.98 4 4 C2.68 4.33 1.36 4.66 0 5 C0 4.34 0 3.68 0 3 C-0.66 3 -1.32 3 -2 3 C-2.66 4.32 -3.32 5.64 -4 7 C-6.64 7 -9.28 7 -12 7 C-10.58982699 4.17965397 -8.91174979 4.02527016 -6 2.9375 C-2.74402427 1.88571928 -2.74402427 1.88571928 0 0 Z " fill="#091E2F" transform="translate(134,121)"/>
<path d="M0 0 C7.4659249 -0.36717663 7.4659249 -0.36717663 10 1.375 C11 3 11 3 11 5 C7.91701949 6.02766017 5.66869574 6.16598738 2.4375 6.1875 C0.98150391 6.20876953 0.98150391 6.20876953 -0.50390625 6.23046875 C-3 6 -3 6 -5 4 C-4.01 4 -3.02 4 -2 4 C0.33564933 3.68330179 2.6693782 3.35179197 5 3 C5 2.67 5 2.34 5 2 C3.35 1.67 1.7 1.34 0 1 C0 0.67 0 0.34 0 0 Z " fill="#DFE9EB" transform="translate(72,119)"/>
<path d="M0 0 C0.33 0 0.66 0 1 0 C2.20568053 4.67201205 2.09382426 9.21496292 2 14 C4.64 14 7.28 14 10 14 C10 14.33 10 14.66 10 15 C8.54176788 15.0270043 7.08339325 15.04639787 5.625 15.0625 C4.81289062 15.07410156 4.00078125 15.08570312 3.1640625 15.09765625 C1 15 1 15 -1 14 C-1 13.34 -1 12.68 -1 12 C-1.66 11.67 -2.32 11.34 -3 11 C-2.67 10.34 -2.34 9.68 -2 9 C-1.34 9 -0.68 9 0 9 C0 6.03 0 3.06 0 0 Z " fill="#26353E" transform="translate(159,111)"/>
<path d="M0 0 C0 1.65 0 3.3 0 5 C-0.33 4.34 -0.66 3.68 -1 3 C-1.66 3 -2.32 3 -3 3 C-3 3.66 -3 4.32 -3 5 C-3.99 5.33 -4.98 5.66 -6 6 C-6.66 6.66 -7.32 7.32 -8 8 C-8 5.36 -8 2.72 -8 0 C-4.71303767 -0.79953138 -3.28976808 -1.09658936 0 0 Z " fill="#162D3C" transform="translate(196,110)"/>
<path d="M0 0 C2.97 0 5.94 0 9 0 C8.46375 0.7425 7.9275 1.485 7.375 2.25 C6.694375 3.61125 6.694375 3.61125 6 5 C6.69140351 7.30287793 6.69140351 7.30287793 8 9 C7.01 10.485 7.01 10.485 6 12 C5.7525 11.278125 5.505 10.55625 5.25 9.8125 C3.89191349 6.75680536 2.09616287 4.58526754 0 2 C0 1.34 0 0.68 0 0 Z " fill="#D3E1E8" transform="translate(85,103)"/>
<path d="M0 0 C0 0.66 0 1.32 0 2 C-1.32 2 -2.64 2 -4 2 C-4 2.66 -4 3.32 -4 4 C-2.35 4 -0.7 4 1 4 C1 4.33 1 4.66 1 5 C0.11248047 5.09087891 0.11248047 5.09087891 -0.79296875 5.18359375 C-4.90978208 5.62012371 -8.95544533 6.08671346 -13 7 C-12.5625 4.625 -12.5625 4.625 -11 2 C-7.46778662 0.67124676 -3.77440629 0 0 0 Z " fill="#1B2E42" transform="translate(48,89)"/>
<path d="M0 0 C2 3 2 3 1.625 5.5625 C1.41875 6.366875 1.2125 7.17125 1 8 C1 8.66 1 9.32 1 10 C0.67 10.66 0.34 11.32 0 12 C-1.32 11.67 -2.64 11.34 -4 11 C-4.65234375 9.234375 -4.65234375 9.234375 -5 7 C-4.00390625 5.078125 -4.00390625 5.078125 -2.5625 3.25 C-2.08941406 2.63640625 -1.61632812 2.0228125 -1.12890625 1.390625 C-0.75636719 0.93171875 -0.38382812 0.4728125 0 0 Z " fill="#1C2D39" transform="translate(106,105)"/>
<path d="M0 0 C3.03063487 0.58929011 6.0017825 1.25044562 9 2 C9 6.29 9 10.58 9 15 C8.67 15 8.34 15 8 15 C7.92523438 14.39671875 7.85046875 13.7934375 7.7734375 13.171875 C6.87472403 7.54395401 6.87472403 7.54395401 2.875 3.5625 C1.92625 3.046875 0.9775 2.53125 0 2 C0 1.34 0 0.68 0 0 Z " fill="#1C2F41" transform="translate(152,101)"/>
<path d="M0 0 C0.309375 0.9590625 0.309375 0.9590625 0.625 1.9375 C1.89538209 4.34925077 1.89538209 4.34925077 5.125 4.75 C6.07375 4.8325 7.0225 4.915 8 5 C4.48572691 7.7871821 1.32531898 8.95595749 -3 10 C-3 8.02 -3 6.04 -3 4 C-2.34 3.67 -1.68 3.34 -1 3 C-0.67 2.01 -0.34 1.02 0 0 Z " fill="#E0E5E6" transform="translate(117,113)"/>
<path d="M0 0 C0.33 1.65 0.66 3.3 1 5 C-3.95 5 -8.9 5 -14 5 C-14.33 4.34 -14.66 3.68 -15 3 C-14.38511719 2.95101562 -13.77023438 2.90203125 -13.13671875 2.8515625 C-12.32847656 2.77679688 -11.52023438 2.70203125 -10.6875 2.625 C-9.88699219 2.55539063 -9.08648437 2.48578125 -8.26171875 2.4140625 C-4.92259918 1.80275564 -3.54183113 0 0 0 Z " fill="#091F2D" transform="translate(158,123)"/>
<path d="M0 0 C0.99 0.33 1.98 0.66 3 1 C3 2.32 3 3.64 3 5 C1.35 5 -0.3 5 -2 5 C-2 7.64 -2 10.28 -2 13 C-2.33 13 -2.66 13 -3 13 C-3 10.36 -3 7.72 -3 5 C-3.99 4.67 -4.98 4.34 -6 4 C-5.34 3.34 -4.68 2.68 -4 2 C-2.68 2 -1.36 2 0 2 C0 1.34 0 0.68 0 0 Z " fill="#061725" transform="translate(178,97)"/>
<path d="M0 0 C1.98 0 3.96 0 6 0 C6 1.65 6 3.3 6 5 C5.01 5 4.02 5 3 5 C2.01 5.495 2.01 5.495 1 6 C-0.99960012 6.039992 -3.00047242 6.04346799 -5 6 C-3.68 5.67 -2.36 5.34 -1 5 C-0.67 3.35 -0.34 1.7 0 0 Z " fill="#D6E0E5" transform="translate(182,97)"/>
<path d="M0 0 C1.65 0 3.3 0 5 0 C5.33 1.65 5.66 3.3 6 5 C5.01 5.33 4.02 5.66 3 6 C3 5.34 3 4.68 3 4 C1.35 4.33 -0.3 4.66 -2 5 C-1.34 3.35 -0.68 1.7 0 0 Z " fill="#F8FBFC" transform="translate(146,119)"/>
<path d="M0 0 C2.375 -0.1875 2.375 -0.1875 5 0 C5.66 0.99 6.32 1.98 7 3 C8.65 2.67 10.3 2.34 12 2 C12 2.99 12 3.98 12 5 C7.25 6.125 7.25 6.125 5 5 C5 4.34 5 3.68 5 3 C3.68 3 2.36 3 1 3 C0.67 2.01 0.34 1.02 0 0 Z " fill="#FAFDFB" transform="translate(111,103)"/>
<path d="M0 0 C0.474375 0.639375 0.94875 1.27875 1.4375 1.9375 C2.83738726 3.88293306 2.83738726 3.88293306 4 5 C4.66 5.66 5.32 6.32 6 7 C3.03 9.475 3.03 9.475 0 12 C-1.03159626 8.90521121 -0.97482862 7.47368607 -0.5625 4.3125 C-0.46066406 3.50425781 -0.35882813 2.69601563 -0.25390625 1.86328125 C-0.17011719 1.24839844 -0.08632813 0.63351563 0 0 Z " fill="#152A3B" transform="translate(63,96)"/>
<path d="M0 0 C0.33 0 0.66 0 1 0 C1.19456705 1.95764383 1.38044247 3.91615321 1.5625 5.875 C1.66691406 6.96554688 1.77132812 8.05609375 1.87890625 9.1796875 C2 12 2 12 1 14 C0.01 13.67 -0.98 13.34 -2 13 C-1.34 13 -0.68 13 0 13 C0 10.36 0 7.72 0 5 C-1.32 5 -2.64 5 -4 5 C-3.67 4.01 -3.34 3.02 -3 2 C-2.01 2 -1.02 2 0 2 C0 1.34 0 0.68 0 0 Z " fill="#051B2A" transform="translate(193,113)"/>
<path d="M0 0 C0.78375 0.04125 1.5675 0.0825 2.375 0.125 C1.055 0.455 -0.265 0.785 -1.625 1.125 C-1.625 1.785 -1.625 2.445 -1.625 3.125 C-0.635 2.795 0.355 2.465 1.375 2.125 C1.705 2.785 2.035 3.445 2.375 4.125 C0.725 4.455 -0.925 4.785 -2.625 5.125 C-2.625 6.115 -2.625 7.105 -2.625 8.125 C-3.285 8.125 -3.945 8.125 -4.625 8.125 C-4.75 5.25 -4.75 5.25 -4.625 2.125 C-2.625 0.125 -2.625 0.125 0 0 Z " fill="#304150" transform="translate(147.625,108.875)"/>
<path d="M0 0 C2.31 0 4.62 0 7 0 C7 0.99 7 1.98 7 3 C2.545 3.495 2.545 3.495 -2 4 C-2 3.01 -2 2.02 -2 1 C-1.34 1.33 -0.68 1.66 0 2 C0 1.34 0 0.68 0 0 Z " fill="#F9FDFC" transform="translate(72,120)"/>
<path d="M0 0 C0.33 0 0.66 0 1 0 C1 4.29 1 8.58 1 13 C0.67 13 0.34 13 0 13 C0 11.02 0 9.04 0 7 C-1.65 7 -3.3 7 -5 7 C-4.67 6.01 -4.34 5.02 -4 4 C-2.68 4 -1.36 4 0 4 C0 2.68 0 1.36 0 0 Z " fill="#333F43" transform="translate(49,96)"/>
<path d="M0 0 C1.65 0.33 3.3 0.66 5 1 C4.34 3.31 3.68 5.62 3 8 C2.34 7.01 1.68 6.02 1 5 C0.01 5.495 0.01 5.495 -1 6 C-0.67 4.02 -0.34 2.04 0 0 Z " fill="#F9FCFD" transform="translate(40,95)"/>
<path d="M0 0 C0.89203125 0.11085938 1.7840625 0.22171875 2.703125 0.3359375 C3.37859375 0.43132812 4.0540625 0.52671875 4.75 0.625 C4.42 1.615 4.09 2.605 3.75 3.625 C3.75 2.965 3.75 2.305 3.75 1.625 C-1.6407997 1.85504734 -1.6407997 1.85504734 -6.25 4.1875 C-6.58 4.661875 -6.91 5.13625 -7.25 5.625 C-7.91 4.305 -8.57 2.985 -9.25 1.625 C-5.9353333 -0.40407167 -3.8184021 -0.50242133 0 0 Z " fill="#2D3B46" transform="translate(103.25,101.375)"/>
<path d="M0 0 C0.33 0.66 0.66 1.32 1 2 C-3.29 2 -7.58 2 -12 2 C-7.69698287 -0.86867809 -5.02485414 -1.49387555 0 0 Z " fill="#041523" transform="translate(80,100)"/>
<path d="M0 0 C0.99 0.66 1.98 1.32 3 2 C3 2.66 3 3.32 3 4 C3.99 4.33 4.98 4.66 6 5 C3.03 5 0.06 5 -3 5 C-1 1 -1 1 0 0 Z " fill="#C6DADB" transform="translate(87,120)"/>
<path d="M0 0 C0.33 0 0.66 0 1 0 C1.38909985 1.45463481 1.76088029 2.91391207 2.125 4.375 C2.43824219 5.59316406 2.43824219 5.59316406 2.7578125 6.8359375 C2.83773437 7.55007812 2.91765625 8.26421875 3 9 C2.34 9.66 1.68 10.32 1 11 C0.67 10.34 0.34 9.68 0 9 C-3.02934491 8.34227572 -3.02934491 8.34227572 -6 8 C-6 7.67 -6 7.34 -6 7 C-4.02 7 -2.04 7 0 7 C0 4.69 0 2.38 0 0 Z " fill="#CED4D6" transform="translate(151,111)"/>
<path d="M0 0 C0.33 0 0.66 0 1 0 C1.33 4.29 1.66 8.58 2 13 C0.02 13.66 -1.96 14.32 -4 15 C-3.34 13.35 -2.68 11.7 -2 10 C-1.67 10 -1.34 10 -1 10 C-0.67 6.7 -0.34 3.4 0 0 Z " fill="#515A62" transform="translate(135,108)"/>
<path d="M0 0 C2.31 0 4.62 0 7 0 C7 0.99 7 1.98 7 3 C4.36 3 1.72 3 -1 3 C-0.67 2.01 -0.34 1.02 0 0 Z " fill="#45454B" transform="translate(71,109)"/>
<path d="M0 0 C0.2475 0.61875 0.495 1.2375 0.75 1.875 C2.20628639 4.35068687 3.37812506 4.95125002 6 6 C2.98968256 6.93423645 2.13349732 7.04449911 -1 6 C-0.67 4.02 -0.34 2.04 0 0 Z " fill="#26373F" transform="translate(63,119)"/>
<path d="M0 0 C1.35015859 4.05047576 0.62084998 6.7920168 0 11 C-0.33 11 -0.66 11 -1 11 C-1 8.69 -1 6.38 -1 4 C-2.32 4 -3.64 4 -5 4 C-5 3.01 -5 2.02 -5 1 C-2.525 1.495 -2.525 1.495 0 2 C0 1.34 0 0.68 0 0 Z " fill="#041524" transform="translate(194,98)"/>
<path d="M0 0 C2.97 0.495 2.97 0.495 6 1 C6 1.99 6 2.98 6 4 C3.69 4 1.38 4 -1 4 C-0.67 2.68 -0.34 1.36 0 0 Z " fill="#EFF8FC" transform="translate(38,120)"/>
<path d="M0 0 C0.66 0 1.32 0 2 0 C2 1.98 2 3.96 2 6 C0.68 6 -0.64 6 -2 6 C-2 4.68 -2 3.36 -2 2 C-1.34 2 -0.68 2 0 2 C0 1.34 0 0.68 0 0 Z " fill="#E2EFF3" transform="translate(47,103)"/>
<path d="M0 0 C1.65 0 3.3 0 5 0 C4.34 1.65 3.68 3.3 3 5 C0.69 4.67 -1.62 4.34 -4 4 C-2.68 3.67 -1.36 3.34 0 3 C0 2.01 0 1.02 0 0 Z " fill="#2A3D47" transform="translate(165,99)"/>
<path d="M0 0 C1.31625194 2.63250388 0.74813658 3.80179056 0.0625 6.625 C-0.13214844 7.44226563 -0.32679687 8.25953125 -0.52734375 9.1015625 C-0.68332031 9.72804688 -0.83929688 10.35453125 -1 11 C-3.10811426 7.26215125 -3.11836665 5.19387492 -2 1 C-1.34 0.67 -0.68 0.34 0 0 Z " fill="#E5EBF0" transform="translate(39,95)"/>
<path d="M0 0 C0.99 0 1.98 0 3 0 C3 3.63 3 7.26 3 11 C2.67 11 2.34 11 2 11 C1.34 7.37 0.68 3.74 0 0 Z " fill="#0F191D" transform="translate(158,105)"/>
<path d="M0 0 C1.32 0 2.64 0 4 0 C3.67 0.99 3.34 1.98 3 3 C2.01 2.01 1.02 1.02 0 0 Z M2 3 C2.99 3.33 3.98 3.66 5 4 C5 4.66 5 5.32 5 6 C5.66 6.33 6.32 6.66 7 7 C5.35 7 3.7 7 2 7 C2 5.68 2 4.36 2 3 Z " fill="#CFD4D9" transform="translate(69,102)"/>
<path d="M0 0 C0.33 0.66 0.66 1.32 1 2 C1.99 2 2.98 2 4 2 C4 3.32 4 4.64 4 6 C2.68 6 1.36 6 0 6 C0 4.02 0 2.04 0 0 Z " fill="#E1EBF4" transform="translate(32,103)"/>
<path d="M0 0 C1.98 0 3.96 0 6 0 C6.33 0.99 6.66 1.98 7 3 C5.02 3 3.04 3 1 3 C0.67 2.01 0.34 1.02 0 0 Z " fill="#3E4252" transform="translate(119,109)"/>
<path d="M0 0 C0.99 0.33 1.98 0.66 3 1 C1.63016497 4.16115776 1.0109362 4.9927092 -2 7 C-1.34 4.69 -0.68 2.38 0 0 Z " fill="#EBEFF2" transform="translate(116,108)"/>
</svg>
