<?xml version="1.0" encoding="UTF-8"?>
<svg version="1.1" xmlns="http://www.w3.org/2000/svg" width="265" height="190">
<path d="M0 0 C87.45 0 174.9 0 265 0 C265 62.7 265 125.4 265 190 C177.55 190 90.1 190 0 190 C0 127.3 0 64.6 0 0 Z " fill="#01B7FC" transform="translate(0,0)"/>
<path d="M0 0 C0 37.62 0 75.24 0 114 C-49.83 114 -99.66 114 -151 114 C-150.34 111.03 -149.68 108.06 -149 105 C-146.69 105 -144.38 105 -142 105 C-142 102.36 -142 99.72 -142 97 C-137.545 96.505 -137.545 96.505 -133 96 C-132.67 93.69 -132.34 91.38 -132 89 C-130.2984375 88.7834375 -130.2984375 88.7834375 -128.5625 88.5625 C-125.19222799 88.38828522 -125.19222799 88.38828522 -124 87 C-123.67 84.69 -123.34 82.38 -123 80 C-115.08 79.505 -115.08 79.505 -107 79 C-107 76.69 -107 74.38 -107 72 C-105 70 -105 70 -103.0546875 69.8046875 C-101.03645833 69.86979167 -99.01822917 69.93489583 -97 70 C-97 67.03 -97 64.06 -97 61 C-94.36 61 -91.72 61 -89 61 C-89 58.36 -89 55.72 -89 53 C-84.545 52.505 -84.545 52.505 -80 52 C-79.67 49.69 -79.34 47.38 -79 45 C-72.95170514 44.10395632 -67.1105424 43.88730557 -61 44 C-61 41.36 -61 38.72 -61 36 C-53.08 35.505 -53.08 35.505 -45 35 C-44.67 29.39 -44.34 23.78 -44 18 C-41.03 18 -38.06 18 -35 18 C-35.04125 17.071875 -35.0825 16.14375 -35.125 15.1875 C-35 12 -35 12 -33 9 C-28.35363139 7.78309394 -23.76704264 7.91780961 -19 8 C-19 5.69 -19 3.38 -19 1 C-13.32745403 -1.83627298 -6.3420992 0 0 0 Z " fill="#FB2B3B" transform="translate(265,62)"/>
<path d="M0 0 C1.10522979 0.00092179 2.21045958 0.00184359 3.34918118 0.00279331 C5.24442783 0.00073132 5.24442783 0.00073132 7.1779623 -0.00137234 C8.59110951 0.00216728 10.00425648 0.00580209 11.41740322 0.00952244 C12.89536442 0.0098043 14.37332577 0.00964659 15.85128689 0.00907993 C19.87590486 0.00879193 23.9004933 0.01468912 27.92510438 0.02165389 C32.12651023 0.02788694 36.32791668 0.02849119 40.52932644 0.0296793 C48.49080915 0.03279276 56.4522782 0.04100634 64.41375488 0.05102879 C73.47527247 0.06218947 82.5367907 0.06770026 91.59831345 0.07272422 C110.24366716 0.08318895 128.88900212 0.10153461 147.53434658 0.12304783 C147.53434658 20.58304783 147.53434658 41.04304783 147.53434658 62.12304783 C139.11934658 62.61804783 139.11934658 62.61804783 130.53434658 63.12304783 C129.87434658 65.43304783 129.21434658 67.74304783 128.53434658 70.12304783 C121.60434658 71.11304783 121.60434658 71.11304783 114.53434658 72.12304783 C113.87434658 74.76304783 113.21434658 77.40304783 112.53434658 80.12304783 C109.56434658 80.12304783 106.59434658 80.12304783 103.53434658 80.12304783 C103.53434658 82.76304783 103.53434658 85.40304783 103.53434658 88.12304783 C97.26434658 88.12304783 90.99434658 88.12304783 84.53434658 88.12304783 C84.86434658 80.53304783 85.19434658 72.94304783 85.53434658 65.12304783 C82.89434658 65.12304783 80.25434658 65.12304783 77.53434658 65.12304783 C77.20434658 66.77304783 76.87434658 68.42304783 76.53434658 70.12304783 C76.20434658 69.46304783 75.87434658 68.80304783 75.53434658 68.12304783 C74.87434658 68.12304783 74.21434658 68.12304783 73.53434658 68.12304783 C73.53434658 68.78304783 73.53434658 69.44304783 73.53434658 70.12304783 C72.21434658 70.12304783 70.89434658 70.12304783 69.53434658 70.12304783 C69.41059658 69.33929783 69.28684658 68.55554783 69.15934658 67.74804783 C68.37308234 63.18771523 67.45734242 58.6573769 66.53434658 54.12304783 C63.13046355 53.13988744 59.81175069 52.82893727 56.28434658 52.56054783 C55.20669033 52.47675877 54.12903408 52.3929697 53.01872158 52.30664158 C52.19887783 52.24605564 51.37903408 52.1854697 50.53434658 52.12304783 C50.86434658 50.47304783 51.19434658 48.82304783 51.53434658 47.12304783 C53.84434658 47.12304783 56.15434658 47.12304783 58.53434658 47.12304783 C58.20434658 46.13304783 57.87434658 45.14304783 57.53434658 44.12304783 C55.22434658 43.79304783 52.91434658 43.46304783 50.53434658 43.12304783 C50.53434658 40.15304783 50.53434658 37.18304783 50.53434658 34.12304783 C49.27622158 34.26742283 48.01809658 34.41179783 46.72184658 34.56054783 C46.01415127 34.64175877 45.30645596 34.7229697 44.57731533 34.80664158 C42.34038265 35.09475518 42.34038265 35.09475518 39.53434658 36.12304783 C37.86349968 35.81134362 36.19717405 35.4750332 34.53434658 35.12304783 C32.59783639 35.05771348 30.65931797 35.0372048 28.72184658 35.06054783 C27.74602627 35.06957127 26.77020596 35.0785947 25.76481533 35.08789158 C25.02876064 35.09949314 24.29270596 35.1110947 23.53434658 35.12304783 C23.53434658 32.48304783 23.53434658 29.84304783 23.53434658 27.12304783 C22.87434658 26.79304783 22.21434658 26.46304783 21.53434658 26.12304783 C21.53434658 25.46304783 21.53434658 24.80304783 21.53434658 24.12304783 C20.54434658 24.12304783 19.55434658 24.12304783 18.53434658 24.12304783 C18.53434658 24.78304783 18.53434658 25.44304783 18.53434658 26.12304783 C17.54434658 26.12304783 16.55434658 26.12304783 15.53434658 26.12304783 C15.20434658 25.13304783 14.87434658 24.14304783 14.53434658 23.12304783 C13.87434658 23.78304783 13.21434658 24.44304783 12.53434658 25.12304783 C11.54434658 24.46304783 10.55434658 23.80304783 9.53434658 23.12304783 C9.53434658 21.80304783 9.53434658 20.48304783 9.53434658 19.12304783 C10.52434658 19.12304783 11.51434658 19.12304783 12.53434658 19.12304783 C12.20434658 18.46304783 11.87434658 17.80304783 11.53434658 17.12304783 C6.58434658 17.12304783 1.63434658 17.12304783 -3.46565342 17.12304783 C-3.49250021 14.47714769 -3.51241699 11.83151687 -3.52815342 9.18554783 C-3.53653233 8.43080173 -3.54491123 7.67605564 -3.55354404 6.89843845 C-3.56217783 4.97310469 -3.51789675 3.04769202 -3.46565342 1.12304783 C-2.46565342 0.12304783 -2.46565342 0.12304783 0 0 Z " fill="#01D364" transform="translate(117.46565341949463,-0.1230478286743164)"/>
<path d="M0 0 C87.45 0 174.9 0 265 0 C265 4.62 265 9.24 265 14 C177.55 14 90.1 14 0 14 C0 9.38 0 4.76 0 0 Z " fill="#FDFDFD" transform="translate(0,176)"/>
<path d="M0 0 C0.77943466 0.00222061 1.55886932 0.00444122 2.36192322 0.00672913 C3.24276077 0.00680466 4.12359833 0.00688019 5.03112793 0.00695801 C5.98841293 0.01211929 6.94569794 0.01728058 7.93199158 0.02259827 C9.39480812 0.02472069 9.39480812 0.02472069 10.88717651 0.02688599 C14.01542675 0.03250319 17.14360656 0.04505859 20.27183533 0.05775452 C22.38706867 0.0627673 24.50230313 0.06733059 26.61753845 0.07142639 C31.81482829 0.0824782 37.01207678 0.09923305 42.20933533 0.12025452 C42.23622749 1.59932344 42.25568154 3.07852934 42.27183533 4.55775452 C42.28343689 5.38146545 42.29503845 6.20517639 42.30699158 7.05384827 C42.20933533 9.12025452 42.20933533 9.12025452 41.20933533 10.12025452 C38.51278679 10.19345073 35.84242075 10.21267989 33.14683533 10.18275452 C32.00891541 10.17598694 32.00891541 10.17598694 30.8480072 10.16908264 C28.96841661 10.15726132 27.08886634 10.13932529 25.20933533 10.12025452 C25.20933533 12.76025452 25.20933533 15.40025452 25.20933533 18.12025452 C19.26933533 18.45025452 13.32933533 18.78025452 7.20933533 19.12025452 C7.20933533 21.43025452 7.20933533 23.74025452 7.20933533 26.12025452 C6.20933533 27.12025452 6.20933533 27.12025452 4.14292908 27.21791077 C3.31921814 27.2063092 2.4955072 27.19470764 1.64683533 27.18275452 C0.82054626 27.17373108 -0.0057428 27.16470764 -0.85707092 27.15541077 C-1.81419983 27.13800842 -1.81419983 27.13800842 -2.79066467 27.12025452 C-2.79066467 29.76025452 -2.79066467 32.40025452 -2.79066467 35.12025452 C-5.43066467 35.12025452 -8.07066467 35.12025452 -10.79066467 35.12025452 C-10.79066467 38.09025452 -10.79066467 41.06025452 -10.79066467 44.12025452 C-12.84144592 44.3481191 -14.89222717 44.57598368 -16.94300842 44.80384827 C-18.80206696 44.93912066 -18.80206696 44.93912066 -19.79066467 46.12025452 C-20.12066467 48.43025452 -20.45066467 50.74025452 -20.79066467 53.12025452 C-28.71066467 53.61525452 -28.71066467 53.61525452 -36.79066467 54.12025452 C-36.79066467 56.43025452 -36.79066467 58.74025452 -36.79066467 61.12025452 C-38.79066467 63.12025452 -38.79066467 63.12025452 -42.41566467 63.24525452 C-43.52941467 63.20400452 -44.64316467 63.16275452 -45.79066467 63.12025452 C-45.77003967 64.25462952 -45.74941467 65.38900452 -45.72816467 66.55775452 C-45.79066467 70.12025452 -45.79066467 70.12025452 -46.79066467 71.12025452 C-48.30994505 71.19205416 -49.83233949 71.20417459 -51.35316467 71.18275452 C-52.59259827 71.16921936 -52.59259827 71.16921936 -53.85707092 71.15541077 C-54.81419983 71.13800842 -54.81419983 71.13800842 -55.79066467 71.12025452 C-55.79066467 73.76025452 -55.79066467 76.40025452 -55.79066467 79.12025452 C-58.10066467 79.12025452 -60.41066467 79.12025452 -62.79066467 79.12025452 C-63.00722717 81.06931702 -63.00722717 81.06931702 -63.22816467 83.05775452 C-63.66566467 86.99525452 -63.66566467 86.99525452 -64.79066467 88.12025452 C-66.71733975 88.20773659 -68.64718328 88.22722786 -70.57582092 88.21791077 C-71.62906555 88.21541321 -72.68231018 88.21291565 -73.76747131 88.21034241 C-75.11575012 88.2012384 -76.46402893 88.1921344 -77.85316467 88.18275452 C-82.12253967 88.16212952 -86.39191467 88.14150452 -90.79066467 88.12025452 C-90.79066467 79.21025452 -90.79066467 70.30025452 -90.79066467 61.12025452 C-88.15066467 61.12025452 -85.51066467 61.12025452 -82.79066467 61.12025452 C-82.79066467 58.81025452 -82.79066467 56.50025452 -82.79066467 54.12025452 C-81.4526178 53.92109436 -81.4526178 53.92109436 -80.08753967 53.71791077 C-78.91707092 53.5413092 -77.74660217 53.36470764 -76.54066467 53.18275452 C-75.38050842 53.00873108 -74.22035217 52.83470764 -73.02503967 52.65541077 C-70.55959506 52.24748092 -68.19641906 51.78124149 -65.79066467 51.12025452 C-65.77003967 50.19212952 -65.74941467 49.26400452 -65.72816467 48.30775452 C-64.79066467 45.12025452 -64.79066467 45.12025452 -63.16566467 44.05384827 C-61.40847934 43.32050681 -59.60028918 42.71249527 -57.79066467 42.12025452 C-58.12066467 41.79025452 -58.45066467 41.46025452 -58.79066467 41.12025452 C-58.83130299 39.45408337 -58.83338567 37.78637357 -58.79066467 36.12025452 C-57.74265686 35.9384967 -57.74265686 35.9384967 -56.67347717 35.75306702 C-55.30835999 35.50169983 -55.30835999 35.50169983 -53.91566467 35.24525452 C-52.55828186 35.0016217 -52.55828186 35.0016217 -51.17347717 34.75306702 C-48.62560479 34.28980749 -48.62560479 34.28980749 -46.79066467 32.12025452 C-44.91566467 32.43275452 -44.91566467 32.43275452 -42.79066467 33.12025452 C-41.67691467 33.39869202 -41.67691467 33.39869202 -40.54066467 33.68275452 C-39.96316467 33.82712952 -39.38566467 33.97150452 -38.79066467 34.12025452 C-38.68753967 32.84150452 -38.58441467 31.56275452 -38.47816467 30.24525452 C-38.30238342 28.06556702 -38.30238342 28.06556702 -37.79066467 26.12025452 C-34.79066467 24.12025452 -34.79066467 24.12025452 -32.29066467 24.55775452 C-31.46566467 24.74337952 -30.64066467 24.92900452 -29.79066467 25.12025452 C-28.80066467 24.79025452 -27.81066467 24.46025452 -26.79066467 24.12025452 C-26.79066467 21.81025452 -26.79066467 19.50025452 -26.79066467 17.12025452 C-24.81066467 17.12025452 -22.83066467 17.12025452 -20.79066467 17.12025452 C-20.79066467 14.15025452 -20.79066467 11.18025452 -20.79066467 8.12025452 C-19.80066467 8.61525452 -19.80066467 8.61525452 -18.79066467 9.12025452 C-18.79066467 11.76025452 -18.79066467 14.40025452 -18.79066467 17.12025452 C-16.48066467 16.79025452 -14.17066467 16.46025452 -11.79066467 16.12025452 C-11.46066467 13.81025452 -11.13066467 11.50025452 -10.79066467 9.12025452 C-8.15066467 9.12025452 -5.51066467 9.12025452 -2.79066467 9.12025452 C-2.81128967 7.82087952 -2.83191467 6.52150452 -2.85316467 5.18275452 C-2.87465922 3.82859818 -2.86214666 2.47269369 -2.79066467 1.12025452 C-1.79066467 0.12025452 -1.79066467 0.12025452 0 0 Z " fill="#26A1DE" transform="translate(178.79066467285156,87.87974548339844)"/>
<path d="M0 0 C11.55 0 23.1 0 35 0 C35 15 35 15 34 17 C38.95 16.67 43.9 16.34 49 16 C49.495 17.485 49.495 17.485 50 19 C49.01 19 48.02 19 47 19 C47.495 20.98 47.495 20.98 48 23 C48.99 23 49.98 23 51 23 C51.99 23 52.98 23 54 23 C53.505 24.485 53.505 24.485 53 26 C53.99 26 54.98 26 56 26 C56 25.34 56 24.68 56 24 C56.99 24 57.98 24 59 24 C59 24.66 59 25.32 59 26 C59.99 26.33 60.98 26.66 62 27 C61.67 29.64 61.34 32.28 61 35 C63.31 35 65.62 35 68 35 C68.495 34.01 68.495 34.01 69 33 C69 33.66 69 34.32 69 35 C70.670625 34.7525 70.670625 34.7525 72.375 34.5 C77.56438899 33.78422221 82.76511803 34 88 34 C88 36.97 88 39.94 88 43 C90.31 43 92.62 43 95 43 C95.495 44.98 95.495 44.98 96 47 C92.535 47.495 92.535 47.495 89 48 C88.67 49.32 88.34 50.64 88 52 C89.04800781 51.94199219 90.09601563 51.88398437 91.17578125 51.82421875 C92.554643 51.77731869 93.93355287 51.73181878 95.3125 51.6875 C96.00279297 51.64560547 96.69308594 51.60371094 97.40429688 51.56054688 C99.42578125 51.51171875 99.42578125 51.51171875 103 52 C105.93855069 55.28217153 106.42291471 58.37769956 106.6875 62.6875 C106.75324219 63.64011719 106.81898438 64.59273438 106.88671875 65.57421875 C106.95555929 67.04835583 107 68.52425641 107 70 C108.32 70 109.64 70 111 70 C111 69.34 111 68.68 111 68 C111.66 68 112.32 68 113 68 C113.99 66.02 113.99 66.02 115 64 C117.97 64 120.94 64 124 64 C123.34 71.92 122.68 79.84 122 88 C116.39 88 110.78 88 105 88 C105 85.36 105 82.72 105 80 C102.03 80 99.06 80 96 80 C96 77.03 96 74.06 96 71 C93.36 71 90.72 71 88 71 C88 68.69 88 66.38 88 64 C83.85906302 63.79029441 83.85906302 63.79029441 80 65 C79.34 64.67 78.68 64.34 78 64 C77.40644386 61.35139573 77.25790731 58.70802678 77 56 C76.31035156 55.93941406 75.62070313 55.87882812 74.91015625 55.81640625 C68.93024304 55.28321783 62.96448472 54.68444907 57 54 C57.66 53.34 58.32 52.68 59 52 C59.99 52.495 59.99 52.495 61 53 C60.814375 52.05125 60.62875 51.1025 60.4375 50.125 C60 47 60 47 61 45 C58.03 44.67 55.06 44.34 52 44 C51.505 41.03 51.505 41.03 51 38 C49.86111328 37.90912109 49.86111328 37.90912109 48.69921875 37.81640625 C47.70535156 37.73261719 46.71148437 37.64882813 45.6875 37.5625 C44.70136719 37.48128906 43.71523437 37.40007813 42.69921875 37.31640625 C40 37 40 37 37 36 C37 35.34 37 34.68 37 34 C39.97 33.505 39.97 33.505 43 33 C43 31.02 43 29.04 43 27 C41.3603125 27.2475 41.3603125 27.2475 39.6875 27.5 C35.71794899 28.03824421 32.26306395 27.9580364 28.3125 27.5 C27.10013672 27.36078125 27.10013672 27.36078125 25.86328125 27.21875 C25.24839844 27.1465625 24.63351563 27.074375 24 27 C24.33 24.36 24.66 21.72 25 19 C23.02 18.67 21.04 18.34 19 18 C18.67 18.99 18.34 19.98 18 21 C14.7 21.66 11.4 22.32 8 23 C8 18.05 8 13.1 8 8 C5.36 8 2.72 8 0 8 C0 5.36 0 2.72 0 0 Z " fill="#00C5B1" transform="translate(80,0)"/>
<path d="M0 0 C0 20.13 0 40.26 0 61 C-2.97 61 -5.94 61 -9 61 C-9 58.36 -9 55.72 -9 53 C-10.14339844 52.93941406 -11.28679687 52.87882812 -12.46484375 52.81640625 C-13.95574305 52.73201572 -15.44662775 52.64736698 -16.9375 52.5625 C-18.06961914 52.50352539 -18.06961914 52.50352539 -19.22460938 52.44335938 C-24.88671875 52.11328125 -24.88671875 52.11328125 -26 51 C-26.04092937 48.66702567 -26.04241723 46.33294775 -26 44 C-29.3 44 -32.6 44 -36 44 C-36 41.03 -36 38.06 -36 35 C-38.64 35 -41.28 35 -44 35 C-44 29.39 -44 23.78 -44 18 C-41.03 18 -38.06 18 -35 18 C-35.04125 17.071875 -35.0825 16.14375 -35.125 15.1875 C-35 12 -35 12 -33 9 C-28.35363139 7.78309394 -23.76704264 7.91780961 -19 8 C-19 5.69 -19 3.38 -19 1 C-13.32745403 -1.83627298 -6.3420992 0 0 0 Z " fill="#F8C204" transform="translate(265,62)"/>
<path d="M0 0 C8.91 0 17.82 0 27 0 C27 2.97 27 5.94 27 9 C26 10 26 10 22.40234375 10.09765625 C20.91403133 10.0909822 19.42573568 10.07902183 17.9375 10.0625 C16.79958008 10.05573242 16.79958008 10.05573242 15.63867188 10.04882812 C13.75908129 10.0370068 11.87953101 10.01907078 10 10 C10 12.64 10 15.28 10 18 C4.06 18.33 -1.88 18.66 -8 19 C-8 21.31 -8 23.62 -8 26 C-9 27 -9 27 -11.06640625 27.09765625 C-11.89011719 27.08605469 -12.71382813 27.07445313 -13.5625 27.0625 C-14.38878906 27.05347656 -15.21507812 27.04445313 -16.06640625 27.03515625 C-17.02353516 27.01775391 -17.02353516 27.01775391 -18 27 C-18 29.64 -18 32.28 -18 35 C-20.64 35 -23.28 35 -26 35 C-26 37.97 -26 40.94 -26 44 C-28.05078125 44.22786458 -30.1015625 44.45572917 -32.15234375 44.68359375 C-34.01140229 44.81886614 -34.01140229 44.81886614 -35 46 C-35.33 48.31 -35.66 50.62 -36 53 C-43.92 53.495 -43.92 53.495 -52 54 C-52 56.31 -52 58.62 -52 61 C-54 63 -54 63 -57.625 63.125 C-58.73875 63.08375 -59.8525 63.0425 -61 63 C-60.979375 64.134375 -60.95875 65.26875 -60.9375 66.4375 C-61 70 -61 70 -62 71 C-63.51928038 71.07179964 -65.04167482 71.08392007 -66.5625 71.0625 C-67.80193359 71.04896484 -67.80193359 71.04896484 -69.06640625 71.03515625 C-70.02353516 71.01775391 -70.02353516 71.01775391 -71 71 C-71 73.64 -71 76.28 -71 79 C-73.31 79 -75.62 79 -78 79 C-78.2165625 80.9490625 -78.2165625 80.9490625 -78.4375 82.9375 C-78.875 86.875 -78.875 86.875 -80 88 C-82.86267567 88.07325168 -85.700719 88.09238205 -88.5625 88.0625 C-89.36880859 88.05798828 -90.17511719 88.05347656 -91.00585938 88.04882812 C-93.00393756 88.03700518 -95.00197783 88.01906914 -97 88 C-97 85.36 -97 82.72 -97 80 C-94.03 80 -91.06 80 -88 80 C-88 76.7 -88 73.4 -88 70 C-85.36 70 -82.72 70 -80 70 C-80 67.36 -80 64.72 -80 62 C-76.7 62 -73.4 62 -70 62 C-70 59.36 -70 56.72 -70 54 C-64.39 53.34 -58.78 52.68 -53 52 C-52.67 49.69 -52.34 47.38 -52 45 C-49.36 45 -46.72 45 -44 45 C-44 42.03 -44 39.06 -44 36 C-41.36 36 -38.72 36 -36 36 C-36.020625 34.72125 -36.04125 33.4425 -36.0625 32.125 C-36.125 28.25 -36.125 28.25 -35 26 C-29.39 26 -23.78 26 -18 26 C-18 23.36 -18 20.72 -18 18 C-14.78548731 16.39274365 -11.56387464 16.94251815 -8 17 C-8 14.69 -8 12.38 -8 10 C-5.36 10 -2.72 10 0 10 C0 6.7 0 3.4 0 0 Z " fill="#9D5D83" transform="translate(194,88)"/>
<path d="M0 0 C2.64 0 5.28 0 8 0 C8 4.95 8 9.9 8 15 C6.35 15 4.7 15 3 15 C3.495 15.99 3.495 15.99 4 17 C3.24074219 17.00257812 2.48148437 17.00515625 1.69921875 17.0078125 C-1.30606719 17.1247497 -4.06724686 17.32321081 -7 18 C-9.21001187 20.75198532 -9.21001187 20.75198532 -10 24 C-10.99 25.485 -10.99 25.485 -12 27 C-15.125 27.1875 -15.125 27.1875 -18 27 C-18.185625 28.423125 -18.185625 28.423125 -18.375 29.875 C-19 33 -19 33 -21 35 C-23.31765729 35.71927295 -25.65095874 36.3909893 -28 37 C-28 36.34 -28 35.68 -28 35 C-31.465 35.495 -31.465 35.495 -35 36 C-35.33 38.64 -35.66 41.28 -36 44 C-38.31 44.66 -40.62 45.32 -43 46 C-43.66 48.64 -44.32 51.28 -45 54 C-45.99 54 -46.98 54 -48 54 C-48 53.34 -48 52.68 -48 52 C-49.98 52.495 -49.98 52.495 -52 53 C-52.66 55.97 -53.32 58.94 -54 62 C-55.36125 61.95875 -56.7225 61.9175 -58.125 61.875 C-62.14731047 61.90029755 -65.36865408 62.09786642 -69 64 C-70.70855022 67.00007271 -70.70855022 67.00007271 -72 70 C-73.485 70.495 -73.485 70.495 -75 71 C-75 72.98 -75 74.96 -75 77 C-80.08097726 78.04225175 -84.83690648 78.07822869 -90 78 C-89.34 75.03 -88.68 72.06 -88 69 C-85.69 69 -83.38 69 -81 69 C-81 66.36 -81 63.72 -81 61 C-76.545 60.505 -76.545 60.505 -72 60 C-71.67 57.69 -71.34 55.38 -71 53 C-69.865625 52.855625 -68.73125 52.71125 -67.5625 52.5625 C-64.19222799 52.38828522 -64.19222799 52.38828522 -63 51 C-62.67 48.69 -62.34 46.38 -62 44 C-54.08 43.505 -54.08 43.505 -46 43 C-46 40.69 -46 38.38 -46 36 C-44 34 -44 34 -42.0546875 33.8046875 C-40.03645833 33.86979167 -38.01822917 33.93489583 -36 34 C-36 31.03 -36 28.06 -36 25 C-33.36 25 -30.72 25 -28 25 C-28 22.36 -28 19.72 -28 17 C-25.03 16.67 -22.06 16.34 -19 16 C-18.67 13.69 -18.34 11.38 -18 9 C-11.95170514 8.10395632 -6.1105424 7.88730557 0 8 C0 5.36 0 2.72 0 0 Z " fill="#C74A62" transform="translate(204,98)"/>
<path d="M0 0 C34.65 0 69.3 0 105 0 C100 5 100 5 97.54296875 5.48828125 C96.76566406 5.43027344 95.98835938 5.37226563 95.1875 5.3125 C94.39730469 5.26738281 93.60710937 5.22226563 92.79296875 5.17578125 C92.20128906 5.11777344 91.60960938 5.05976563 91 5 C90.67 6.32 90.34 7.64 90 9 C90 8.01 90 7.02 90 6 C89.01 6 88.02 6 87 6 C87 6.99 87 7.98 87 9 C89.97 9.495 89.97 9.495 93 10 C92.67 10.99 92.34 11.98 92 13 C61.64 13 31.28 13 0 13 C0 8.71 0 4.42 0 0 Z " fill="#FDFDFD" transform="translate(0,177)"/>
<path d="M0 0 C6.27 0 12.54 0 19 0 C19.020625 2.43375 19.04125 4.8675 19.0625 7.375 C19.071604 8.13989746 19.08070801 8.90479492 19.09008789 9.69287109 C19.11111111 14.77777778 19.11111111 14.77777778 18 17 C22.95 16.67 27.9 16.34 33 16 C33.495 17.485 33.495 17.485 34 19 C33.01 19 32.02 19 31 19 C31.33 20.32 31.66 21.64 32 23 C32.99 23 33.98 23 35 23 C35.99 23 36.98 23 38 23 C37.505 24.485 37.505 24.485 37 26 C37.99 26 38.98 26 40 26 C40 25.34 40 24.68 40 24 C40.99 24 41.98 24 43 24 C43 24.66 43 25.32 43 26 C43.99 26.33 44.98 26.66 46 27 C45.67 29.64 45.34 32.28 45 35 C47.31 35 49.62 35 52 35 C52.495 34.01 52.495 34.01 53 33 C53 33.66 53 34.32 53 35 C54.670625 34.7525 54.670625 34.7525 56.375 34.5 C61.56438899 33.78422221 66.76511803 34 72 34 C72 36.97 72 39.94 72 43 C74.31 43 76.62 43 79 43 C79.495 44.98 79.495 44.98 80 47 C76.535 47.495 76.535 47.495 73 48 C72.67 49.32 72.34 50.64 72 52 C73.04800781 51.94199219 74.09601563 51.88398437 75.17578125 51.82421875 C76.554643 51.77731869 77.93355287 51.73181878 79.3125 51.6875 C80.00279297 51.64560547 80.69308594 51.60371094 81.40429688 51.56054688 C83.42578125 51.51171875 83.42578125 51.51171875 87 52 C89.93855069 55.28217153 90.42291471 58.37769956 90.6875 62.6875 C90.75324219 63.64011719 90.81898438 64.59273438 90.88671875 65.57421875 C90.95555929 67.04835583 91 68.52425641 91 70 C92.32 70 93.64 70 95 70 C95 69.34 95 68.68 95 68 C95.66 68 96.32 68 97 68 C97.99 66.02 97.99 66.02 99 64 C101.97 64 104.94 64 108 64 C107.34 71.92 106.68 79.84 106 88 C103.36 88 100.72 88 98 88 C98 82.72 98 77.44 98 72 C95.36 72 92.72 72 90 72 C88.06729418 70.06729418 88.37336945 66.61358612 88 64 C86.03177114 62.03177114 82.65191291 62.33751619 80 62 C80 59.36 80 56.72 80 54 C77.03 54 74.06 54 71 54 C71 53.34 71 52.68 71 52 C68.36 52 65.72 52 63 52 C63 49.36 63 46.72 63 44 C60.69 44 58.38 44 56 44 C55.20046862 40.71303767 54.90341064 39.28976808 56 36 C54.10314453 36.01740234 54.10314453 36.01740234 52.16796875 36.03515625 C50.50781398 36.04453566 48.84765761 36.0536357 47.1875 36.0625 C45.93743164 36.07506836 45.93743164 36.07506836 44.66210938 36.08789062 C43.85966797 36.09111328 43.05722656 36.09433594 42.23046875 36.09765625 C41.49207764 36.10289307 40.75368652 36.10812988 39.99291992 36.11352539 C38 36 38 36 35 35 C35 32.69 35 30.38 35 28 C32.23547967 26.61773984 29.9538637 26.90474613 26.875 26.9375 C25.77929688 26.94652344 24.68359375 26.95554687 23.5546875 26.96484375 C22.29011719 26.98224609 22.29011719 26.98224609 21 27 C19.23537317 23.91190305 19 22.76687864 19 19 C12.73 18.34 6.46 17.68 0 17 C0 11.39 0 5.78 0 0 Z " fill="#00CB91" transform="translate(96,0)"/>
<path d="M0 0 C87.45 0 174.9 0 265 0 C265 0.33 265 0.66 265 1 C225.4 1.33 185.8 1.66 145 2 C145.99 2.33 146.98 2.66 148 3 C148 3.66 148 4.32 148 5 C149.98 5.495 149.98 5.495 152 6 C151.67 7.65 151.34 9.3 151 11 C149.02 11 147.04 11 145 11 C145.33 9.68 145.66 8.36 146 7 C144.02 6.505 144.02 6.505 142 6 C142 6.99 142 7.98 142 9 C141.34 9 140.68 9 140 9 C139.375 6.625 139.375 6.625 139 4 C139.66 3.34 140.32 2.68 141 2 C136.2102679 1.76571687 136.2102679 1.76571687 132 4 C132 4.66 132 5.32 132 6 C133.98 6 135.96 6 138 6 C138 7.65 138 9.3 138 11 C136.02 11 134.04 11 132 11 C131.67 11.66 131.34 12.32 131 13 C130 14 130 14 126.39819336 14.11352539 C124.79540144 14.11336625 123.1926044 14.10767063 121.58984375 14.09765625 C120.74780899 14.0962413 119.90577423 14.09482635 119.03822327 14.09336853 C116.33794665 14.08775263 113.63775172 14.07519748 110.9375 14.0625 C109.11132932 14.05748705 107.28515734 14.05292379 105.45898438 14.04882812 C100.97262458 14.03777804 96.48632616 14.02050279 92 14 C92 13.34 92 12.68 92 12 C90.35 11.34 88.7 10.68 87 10 C87 9.01 87 8.02 87 7 C89.49527208 6.30132382 91.85530187 5.8911434 94.4375 5.5625 C99.65005085 4.77486959 99.65005085 4.77486959 104 2 C69.68 1.67 35.36 1.34 0 1 C0 0.67 0 0.34 0 0 Z " fill="#F8F8F8" transform="translate(0,176)"/>
<path d="M0 0 C8.91 0 17.82 0 27 0 C27 2.97 27 5.94 27 9 C29.64 9 32.28 9 35 9 C35 11.31 35 13.62 35 16 C37.97 16 40.94 16 44 16 C44 22.27 44 28.54 44 35 C41.03 35 38.06 35 35 35 C35 32.36 35 29.72 35 27 C33.85660156 26.93941406 32.71320313 26.87882812 31.53515625 26.81640625 C30.04425695 26.73201572 28.55337225 26.64736698 27.0625 26.5625 C26.30775391 26.52318359 25.55300781 26.48386719 24.77539062 26.44335938 C19.11328125 26.11328125 19.11328125 26.11328125 18 25 C17.95907063 22.66702567 17.95758277 20.33294775 18 18 C14.7 18 11.4 18 8 18 C8 15.03 8 12.06 8 9 C5.36 9 2.72 9 0 9 C0 6.03 0 3.06 0 0 Z " fill="#FDAE0B" transform="translate(221,88)"/>
<path d="M0 0 C-0.33 0.763125 -0.66 1.52625 -1 2.3125 C-2.17436686 4.99069135 -2.17436686 4.99069135 -2 8 C-1.34 8 -0.68 8 0 8 C0 7.01 0 6.02 0 5 C1.32 5.33 2.64 5.66 4 6 C4 6.99 4 7.98 4 9 C6.475 9.495 6.475 9.495 9 10 C9 8.35 9 6.7 9 5 C8.01 4.67 7.02 4.34 6 4 C6 3.34 6 2.68 6 2 C5.01 2.33 4.02 2.66 3 3 C3 2.34 3 1.68 3 1 C2.34 0.67 1.68 0.34 1 0 C41.26 0 81.52 0 123 0 C123 0.66 123 1.32 123 2 C98.91 2 74.82 2 50 2 C50 2.66 50 3.32 50 4 C49.01 4 48.02 4 47 4 C47 3.34 47 2.68 47 2 C46.34 2 45.68 2 45 2 C44.67 2.66 44.34 3.32 44 4 C43.67 4.33 43.34 4.66 43 5 C42.814375 6.2065625 42.814375 6.2065625 42.625 7.4375 C42 10 42 10 39 12 C38.67 12.33 38.34 12.66 38 13 C36.43452952 13.09326716 34.86487228 13.11745582 33.29663086 13.11352539 C32.29566879 13.11344986 31.29470673 13.11337433 30.26341248 13.11329651 C29.1748848 13.10813522 28.08635712 13.10297394 26.96484375 13.09765625 C25.85645645 13.0962413 24.74806915 13.09482635 23.60609436 13.09336853 C20.04986931 13.08775033 16.49370617 13.07519475 12.9375 13.0625 C10.53320403 13.05748734 8.12890708 13.05292403 5.72460938 13.04882812 C-0.18361504 13.03777499 -6.0918031 13.02101917 -12 13 C-11 11 -11 11 -10 10 C-8.00041636 9.95919217 -5.99954746 9.95745644 -4 10 C-4 8.35 -4 6.7 -4 5 C-6.31 5.33 -8.62 5.66 -11 6 C-11 3 -11 3 -10 1 C-6.52674819 -0.1577506 -3.63932552 -0.06866652 0 0 Z " fill="#F8FBF8" transform="translate(142,177)"/>
<path d="M0 0 C1.125 6.75 1.125 6.75 0 9 C3.3 9 6.6 9 10 9 C10.33 11.31 10.66 13.62 11 16 C16.28 16.66 21.56 17.32 27 18 C27 20.64 27 23.28 27 26 C29.97 26 32.94 26 36 26 C36 29.3 36 32.6 36 36 C30.39 35.67 24.78 35.34 19 35 C19 33.68 19 32.36 19 31 C18.34 31 17.68 31 17 31 C16.505 29.515 16.505 29.515 16 28 C13.36 27.67 10.72 27.34 8 27 C8.33 24.69 8.66 22.38 9 20 C8.071875 20 7.14375 20 6.1875 20 C2.48865524 20 -0.61391059 19.91079093 -4.1875 19 C-8.57468017 17.97872199 -12.5070606 17.83662039 -17 18 C-18.54897985 14.9020403 -17.83239539 11.73783448 -17.5625 8.375 C-17.51029297 7.66859375 -17.45808594 6.9621875 -17.40429688 6.234375 C-17.27458793 4.48920013 -17.13795046 2.74454275 -17 1 C-11.27959989 0.1679418 -5.77759884 -0.12036664 0 0 Z " fill="#FB6624" transform="translate(229,97)"/>
<path d="M0 0 C8.91 0 17.82 0 27 0 C27 2.97 27 5.94 27 9 C26 10 26 10 22.40234375 10.09765625 C20.91403133 10.0909822 19.42573568 10.07902183 17.9375 10.0625 C16.79958008 10.05573242 16.79958008 10.05573242 15.63867188 10.04882812 C13.75908129 10.0370068 11.87953101 10.01907078 10 10 C10 12.64 10 15.28 10 18 C4.06 18.33 -1.88 18.66 -8 19 C-8 21.31 -8 23.62 -8 26 C-9 27 -9 27 -11.06640625 27.09765625 C-11.89011719 27.08605469 -12.71382812 27.07445313 -13.5625 27.0625 C-14.38878906 27.05347656 -15.21507812 27.04445313 -16.06640625 27.03515625 C-17.02353516 27.01775391 -17.02353516 27.01775391 -18 27 C-18 29.64 -18 32.28 -18 35 C-25.92 35.495 -25.92 35.495 -34 36 C-34.66 38.31 -35.32 40.62 -36 43 C-38.64 43 -41.28 43 -44 43 C-44 40.69 -44 38.38 -44 36 C-41.36 36 -38.72 36 -36 36 C-36.020625 34.72125 -36.04125 33.4425 -36.0625 32.125 C-36.125 28.25 -36.125 28.25 -35 26 C-29.39 26 -23.78 26 -18 26 C-18 23.36 -18 20.72 -18 18 C-14.78548731 16.39274365 -11.56387464 16.94251815 -8 17 C-8 14.69 -8 12.38 -8 10 C-5.36 10 -2.72 10 0 10 C0 6.7 0 3.4 0 0 Z " fill="#75799C" transform="translate(194,88)"/>
<path d="M0 0 C0.77472656 0.00451172 1.54945313 0.00902344 2.34765625 0.01367188 C4.23180524 0.02530242 6.11591365 0.04323094 8 0.0625 C8 3.3625 8 6.6625 8 10.0625 C-0.415 10.5575 -0.415 10.5575 -9 11.0625 C-9.66 13.3725 -10.32 15.6825 -11 18.0625 C-15.62 18.7225 -20.24 19.3825 -25 20.0625 C-25.66 22.7025 -26.32 25.3425 -27 28.0625 C-29.97 28.0625 -32.94 28.0625 -36 28.0625 C-36 30.7025 -36 33.3425 -36 36.0625 C-38.97 36.0625 -41.94 36.0625 -45 36.0625 C-45 30.4525 -45 24.8425 -45 19.0625 C-36 17.9375 -36 17.9375 -32 18 C-31.236875 18.00902344 -30.47375 18.01804687 -29.6875 18.02734375 C-29.130625 18.03894531 -28.57375 18.05054687 -28 18.0625 C-28.020625 16.94875 -28.04125 15.835 -28.0625 14.6875 C-28 11.0625 -28 11.0625 -27 9.0625 C-24.36 9.0625 -21.72 9.0625 -19 9.0625 C-19.33 7.0825 -19.66 5.1025 -20 3.0625 C-14.2257705 -0.78698633 -6.74888581 -0.07602731 0 0 Z " fill="#48D241" transform="translate(257,51.9375)"/>
<path d="M0 0 C3.0625 0.1875 3.0625 0.1875 5.0625 2.1875 C2.4225 2.1875 -0.2175 2.1875 -2.9375 2.1875 C-2.9375 5.1575 -2.9375 8.1275 -2.9375 11.1875 C-5.5775 11.1875 -8.2175 11.1875 -10.9375 11.1875 C-10.916875 12.321875 -10.89625 13.45625 -10.875 14.625 C-10.9375 18.1875 -10.9375 18.1875 -11.9375 19.1875 C-14.79627909 19.42451239 -17.63633297 19.60969182 -20.5 19.75 C-21.30630859 19.79318359 -22.11261719 19.83636719 -22.94335938 19.88085938 C-24.94118805 19.98725262 -26.9393207 20.08790888 -28.9375 20.1875 C-28.9375 22.8275 -28.9375 25.4675 -28.9375 28.1875 C-32.2375 28.1875 -35.5375 28.1875 -38.9375 28.1875 C-38.9375 30.8275 -38.9375 33.4675 -38.9375 36.1875 C-41.5775 36.1875 -44.2175 36.1875 -46.9375 36.1875 C-46.9375 39.4875 -46.9375 42.7875 -46.9375 46.1875 C-49.9075 46.1875 -52.8775 46.1875 -55.9375 46.1875 C-55.9375 48.8275 -55.9375 51.4675 -55.9375 54.1875 C-58.9075 54.1875 -61.8775 54.1875 -64.9375 54.1875 C-64.9375 48.2475 -64.9375 42.3075 -64.9375 36.1875 C-59.3275 36.1875 -53.7175 36.1875 -47.9375 36.1875 C-47.9375 33.8775 -47.9375 31.5675 -47.9375 29.1875 C-47.6075 28.5275 -47.2775 27.8675 -46.9375 27.1875 C-44.2975 27.1875 -41.6575 27.1875 -38.9375 27.1875 C-38.97875 26.23875 -39.02 25.29 -39.0625 24.3125 C-38.9375 21.1875 -38.9375 21.1875 -36.9375 19.1875 C-34.36833343 18.88150937 -31.88991616 18.67662913 -29.3125 18.5625 C-28.25289062 18.50449219 -28.25289062 18.50449219 -27.171875 18.4453125 C-25.42751476 18.35102276 -23.68254309 18.26817109 -21.9375 18.1875 C-21.958125 17.053125 -21.97875 15.91875 -22 14.75 C-21.9375 11.1875 -21.9375 11.1875 -20.9375 10.1875 C-19.41821962 10.11570036 -17.89582518 10.10357993 -16.375 10.125 C-15.54871094 10.13402344 -14.72242188 10.14304688 -13.87109375 10.15234375 C-13.23300781 10.16394531 -12.59492188 10.17554688 -11.9375 10.1875 C-11.9375 7.5475 -11.9375 4.9075 -11.9375 2.1875 C-9.88671875 1.95963542 -7.8359375 1.73177083 -5.78515625 1.50390625 C-3.06231979 1.0376277 -3.12520223 0.19948099 0 0 Z " fill="#4B8CC2" transform="translate(152.9375,121.8125)"/>
<path d="M0 0 C5.61 0.33 11.22 0.66 17 1 C17 3.97 17 6.94 17 10 C16.25314941 10.0501123 15.50629883 10.10022461 14.73681641 10.15185547 C11.36547942 10.3834019 7.99531318 10.62901854 4.625 10.875 C3.449375 10.95363281 2.27375 11.03226563 1.0625 11.11328125 C-0.61972656 11.23896484 -0.61972656 11.23896484 -2.3359375 11.3671875 C-3.37282715 11.44050293 -4.4097168 11.51381836 -5.47802734 11.58935547 C-8.16414548 11.77462799 -8.16414548 11.77462799 -10 14 C-10.16687448 16.58354218 -10.16687448 16.58354218 -10 19 C-12.64 19 -15.28 19 -18 19 C-18.33 21.97 -18.66 24.94 -19 28 C-27.415 28.495 -27.415 28.495 -36 29 C-36 34.61 -36 40.22 -36 46 C-39.3 46 -42.6 46 -46 46 C-45.505 37.09 -45.505 37.09 -45 28 C-42.03 28 -39.06 28 -36 28 C-36 26.02 -36 24.04 -36 22 C-34.56445975 21.49440092 -33.1264798 20.9957251 -31.6875 20.5 C-30.88699219 20.2215625 -30.08648437 19.943125 -29.26171875 19.65625 C-27 19 -27 19 -24 19 C-23.67 18.34 -23.34 17.68 -23 17 C-23 17.66 -23 18.32 -23 19 C-22.01 18.67 -21.02 18.34 -20 18 C-19.896875 16.88625 -19.79375 15.7725 -19.6875 14.625 C-19.460625 13.42875 -19.23375 12.2325 -19 11 C-18.01 10.34 -17.02 9.68 -16 9 C-16 9.66 -16 10.32 -16 11 C-14.00016466 10.20882096 -14.00016466 10.20882096 -12 9 C-11.67 8.01 -11.34 7.02 -11 6 C-7.37 6 -3.74 6 0 6 C0 4.02 0 2.04 0 0 Z " fill="#29D24F" transform="translate(248,42)"/>
<path d="M0 0 C2.0625 0.25 2.0625 0.25 4 1 C4.495 1.99 4.495 1.99 5 3 C3.35 3 1.7 3 0 3 C0.01160156 3.64066406 0.02320313 4.28132813 0.03515625 4.94140625 C0.04417969 5.80636719 0.05320313 6.67132813 0.0625 7.5625 C0.07410156 8.40941406 0.08570313 9.25632813 0.09765625 10.12890625 C-0.01488565 13.43763796 -0.53180407 16.72262852 -1 20 C-5.95 20.66 -10.9 21.32 -16 22 C-16.66 24.31 -17.32 26.62 -18 29 C-20.64 29 -23.28 29 -26 29 C-26.33 31.97 -26.66 34.94 -27 38 C-32.61 38 -38.22 38 -44 38 C-44 35.03 -44 32.06 -44 29 C-41.36 29 -38.72 29 -36 29 C-36 26.69 -36 24.38 -36 22 C-34.66195312 21.80083984 -34.66195312 21.80083984 -33.296875 21.59765625 C-32.12640625 21.42105469 -30.9559375 21.24445313 -29.75 21.0625 C-28.58984375 20.88847656 -27.4296875 20.71445313 -26.234375 20.53515625 C-23.76893039 20.1272264 -21.40575438 19.66098697 -19 19 C-18.979375 18.071875 -18.95875 17.14375 -18.9375 16.1875 C-18 13 -18 13 -16.375 11.93359375 C-14.61781467 11.20025229 -12.80962451 10.59224075 -11 10 C-11.495 9.505 -11.495 9.505 -12 9 C-12.04063832 7.33382885 -12.042721 5.66611905 -12 4 C-11.30132812 3.87882812 -10.60265625 3.75765625 -9.8828125 3.6328125 C-8.51769531 3.38144531 -8.51769531 3.38144531 -7.125 3.125 C-5.76761719 2.88136719 -5.76761719 2.88136719 -4.3828125 2.6328125 C-1.83494012 2.16955297 -1.83494012 2.16955297 0 0 Z " fill="#19A8E8" transform="translate(132,120)"/>
<path d="M0 0 C0.82242188 0.00451172 1.64484375 0.00902344 2.4921875 0.01367188 C4.49482396 0.02531511 6.49742227 0.04324444 8.5 0.0625 C8.5 0.3925 8.5 0.7225 8.5 1.0625 C6.19 1.7225 3.88 2.3825 1.5 3.0625 C0.84 5.7025 0.18 8.3425 -0.5 11.0625 C-1.49 11.0625 -2.48 11.0625 -3.5 11.0625 C-3.5 10.4025 -3.5 9.7425 -3.5 9.0625 C-4.82 9.3925 -6.14 9.7225 -7.5 10.0625 C-8.16 13.0325 -8.82 16.0025 -9.5 19.0625 C-10.86125 19.02125 -12.2225 18.98 -13.625 18.9375 C-17.64731047 18.96279755 -20.86865408 19.16036642 -24.5 21.0625 C-26.20855022 24.06257271 -26.20855022 24.06257271 -27.5 27.0625 C-28.49 27.3925 -29.48 27.7225 -30.5 28.0625 C-30.5 30.0425 -30.5 32.0225 -30.5 34.0625 C-35.58097726 35.10475175 -40.33690648 35.14072869 -45.5 35.0625 C-44.84 32.0925 -44.18 29.1225 -43.5 26.0625 C-41.19 26.0625 -38.88 26.0625 -36.5 26.0625 C-36.5 23.4225 -36.5 20.7825 -36.5 18.0625 C-33.53 17.7325 -30.56 17.4025 -27.5 17.0625 C-27.17 14.7525 -26.84 12.4425 -26.5 10.0625 C-25.365625 9.918125 -24.23125 9.77375 -23.0625 9.625 C-19.69222799 9.45078522 -19.69222799 9.45078522 -18.5 8.0625 C-18.13239269 5.73432036 -17.79758419 3.4006615 -17.5 1.0625 C-11.61599345 0.20554033 -5.94090708 -0.06289234 0 0 Z " fill="#CA4460" transform="translate(159.5,140.9375)"/>
<path d="M0 0 C6.27 0 12.54 0 19 0 C19.020625 2.43375 19.04125 4.8675 19.0625 7.375 C19.071604 8.13989746 19.08070801 8.90479492 19.09008789 9.69287109 C19.11111111 14.77777778 19.11111111 14.77777778 18 17 C18.63808594 16.98839844 19.27617188 16.97679688 19.93359375 16.96484375 C20.75988281 16.95582031 21.58617188 16.94679688 22.4375 16.9375 C23.26121094 16.92589844 24.08492187 16.91429688 24.93359375 16.90234375 C27 17 27 17 28 18 C28.14115161 20.67058851 28.04247107 23.32432238 28 26 C25.69 26.33 23.38 26.66 21 27 C19.23537317 23.91190305 19 22.76687864 19 19 C12.73 18.34 6.46 17.68 0 17 C0 11.39 0 5.78 0 0 Z " fill="#00C89D" transform="translate(96,0)"/>
<path d="M0 0 C5.28 0 10.56 0 16 0 C16 5.61 16 11.22 16 17 C18.1965625 16.9690625 18.1965625 16.9690625 20.4375 16.9375 C25.36823058 16.93046615 30.11236433 17.36933733 35 18 C35.12375 18.763125 35.2475 19.52625 35.375 20.3125 C35.88102792 23.20267136 35.88102792 23.20267136 38 26 C41.08365871 26.2502157 41.08365871 26.2502157 44 26 C44.06058594 26.62648438 44.12117188 27.25296875 44.18359375 27.8984375 C44.26738281 28.71570313 44.35117188 29.53296875 44.4375 30.375 C44.51871094 31.18710937 44.59992188 31.99921875 44.68359375 32.8359375 C44.89090114 35.04272805 44.89090114 35.04272805 46 37 C42.65747276 37.07427838 40.1964086 37.06546953 37 36 C37 35.34 37 34.68 37 34 C39.97 33.505 39.97 33.505 43 33 C43 31.02 43 29.04 43 27 C41.3603125 27.2475 41.3603125 27.2475 39.6875 27.5 C35.71794899 28.03824421 32.26306395 27.9580364 28.3125 27.5 C27.10013672 27.36078125 27.10013672 27.36078125 25.86328125 27.21875 C25.24839844 27.1465625 24.63351563 27.074375 24 27 C24.33 24.36 24.66 21.72 25 19 C23.02 18.67 21.04 18.34 19 18 C18.67 18.99 18.34 19.98 18 21 C14.7 21.66 11.4 22.32 8 23 C8 18.05 8 13.1 8 8 C5.36 8 2.72 8 0 8 C0 5.36 0 2.72 0 0 Z " fill="#00C2C1" transform="translate(80,0)"/>
<path d="M0 0 C0 2.64 0 5.28 0 8 C-2.64 8 -5.28 8 -8 8 C-7.95875 9.093125 -7.9175 10.18625 -7.875 11.3125 C-8 15 -8 15 -10 18 C-13.625 18.1875 -13.625 18.1875 -17 18 C-17 20.64 -17 23.28 -17 26 C-22.94 26 -28.88 26 -35 26 C-35 23.36 -35 20.72 -35 18 C-32.03 18 -29.06 18 -26 18 C-26.04125 17.071875 -26.0825 16.14375 -26.125 15.1875 C-26 12 -26 12 -24 9 C-19.35363139 7.78309394 -14.76704264 7.91780961 -10 8 C-10 5.69 -10 3.38 -10 1 C-6.78548731 -0.60725635 -3.56387464 -0.05748185 0 0 Z " fill="#C1BE20" transform="translate(256,62)"/>
<path d="M0 0 C1.98 0 3.96 0 6 0 C6.33 0.99 6.66 1.98 7 3 C6.01 3 5.02 3 4 3 C4.33 4.32 4.66 5.64 5 7 C5.99 7 6.98 7 8 7 C8.99 7 9.98 7 11 7 C10.67 7.99 10.34 8.98 10 10 C10.99 10 11.98 10 13 10 C13 9.34 13 8.68 13 8 C13.99 8 14.98 8 16 8 C16 8.66 16 9.32 16 10 C16.99 10.33 17.98 10.66 19 11 C18.67 13.64 18.34 16.28 18 19 C20.31 19 22.62 19 25 19 C25.33 18.34 25.66 17.68 26 17 C26 17.66 26 18.32 26 19 C27.670625 18.7525 27.670625 18.7525 29.375 18.5 C34.56438899 17.78422221 39.76511803 18 45 18 C45 20.97 45 23.94 45 27 C47.31 27 49.62 27 52 27 C52.495 28.98 52.495 28.98 53 31 C49.04 31.495 49.04 31.495 45 32 C45 30.68 45 29.36 45 28 C39.72 27.67 34.44 27.34 29 27 C28 23 28 23 29 20 C27.10314453 20.01740234 27.10314453 20.01740234 25.16796875 20.03515625 C23.50781398 20.04453566 21.84765761 20.0536357 20.1875 20.0625 C18.93743164 20.07506836 18.93743164 20.07506836 17.66210938 20.08789062 C16.45844727 20.09272461 16.45844727 20.09272461 15.23046875 20.09765625 C14.12288208 20.10551147 14.12288208 20.10551147 12.99291992 20.11352539 C11 20 11 20 8 19 C8 16.69 8 14.38 8 12 C5.627322 10.627322 5.627322 10.627322 1 11 C0.67 7.37 0.34 3.74 0 0 Z " fill="#00CE81" transform="translate(123,16)"/>
<path d="M0 0 C0.33 0 0.66 0 1 0 C1 2.31 1 4.62 1 7 C1.556875 6.97679687 2.11375 6.95359375 2.6875 6.9296875 C8.17609015 6.79988976 12.7293351 7.46671566 18 9 C18 11.31 18 13.62 18 16 C18.62648437 15.98839844 19.25296875 15.97679688 19.8984375 15.96484375 C20.71570313 15.95582031 21.53296875 15.94679688 22.375 15.9375 C23.18710938 15.92589844 23.99921875 15.91429688 24.8359375 15.90234375 C27 16 27 16 29 17 C31.31 17.33 33.62 17.66 36 18 C36 23.28 36 28.56 36 34 C33.03 34 30.06 34 27 34 C27 31.36 27 28.72 27 26 C24.03 26 21.06 26 18 26 C18 23.03 18 20.06 18 17 C15.36 17 12.72 17 10 17 C10 14.69 10 12.38 10 10 C5.85906302 9.79029441 5.85906302 9.79029441 2 11 C1.34 10.67 0.68 10.34 0 10 C0 6.7 0 3.4 0 0 Z " fill="#01C0C4" transform="translate(158,54)"/>
<path d="M0 0 C5.94 0 11.88 0 18 0 C18.495 7.92 18.495 7.92 19 16 C24.61 16.33 30.22 16.66 36 17 C36 19.97 36 22.94 36 26 C33.03 26 30.06 26 27 26 C27 23.36 27 20.72 27 18 C25.85660156 17.93941406 24.71320313 17.87882812 23.53515625 17.81640625 C22.04425695 17.73201572 20.55337225 17.64736698 19.0625 17.5625 C18.30775391 17.52318359 17.55300781 17.48386719 16.77539062 17.44335938 C11.11328125 17.11328125 11.11328125 17.11328125 10 16 C9.95907063 13.66702567 9.95758277 11.33294775 10 9 C6.7 9 3.4 9 0 9 C0 6.03 0 3.06 0 0 Z " fill="#FD801A" transform="translate(229,97)"/>
<path d="M0 0 C2.97 0 5.94 0 9 0 C9 5.94 9 11.88 9 18 C3.39 18 -2.22 18 -8 18 C-8 20.64 -8 23.28 -8 26 C-10.97 26 -13.94 26 -17 26 C-17 23.36 -17 20.72 -17 18 C-14.69 18 -12.38 18 -10 18 C-9.34 14.7 -8.68 11.4 -8 8 C-5.36 8 -2.72 8 0 8 C0 5.36 0 2.72 0 0 Z " fill="#D4CA0D" transform="translate(256,62)"/>
<path d="M0 0 C1.14819277 5.8685408 0.77313045 11.0885256 0 17 C0.99 17.33 1.98 17.66 3 18 C1.375 19.125 1.375 19.125 -1 20 C-3 19.33333333 -5 18.66666667 -7 18 C-10.34051764 17.8199721 -13.65784604 17.88110915 -17 18 C-18.54897985 14.9020403 -17.83239539 11.73783448 -17.5625 8.375 C-17.51029297 7.66859375 -17.45808594 6.9621875 -17.40429688 6.234375 C-17.27458793 4.48920013 -17.13795046 2.74454275 -17 1 C-11.27959989 0.1679418 -5.77759884 -0.12036664 0 0 Z " fill="#F74D30" transform="translate(229,97)"/>
<path d="M0 0 C5.61 0 11.22 0 17 0 C17 2.64 17 5.28 17 8 C14.69 8 12.38 8 10 8 C9.855625 9.299375 9.71125 10.59875 9.5625 11.9375 C9.125 15.875 9.125 15.875 8 17 C5.13732433 17.07325168 2.299281 17.09238205 -0.5625 17.0625 C-1.36880859 17.05798828 -2.17511719 17.05347656 -3.00585938 17.04882812 C-5.00393756 17.03700518 -7.00197783 17.01906914 -9 17 C-9 14.36 -9 11.72 -9 9 C-6.03 9 -3.06 9 0 9 C0 6.03 0 3.06 0 0 Z " fill="#BD4A68" transform="translate(106,159)"/>
<path d="M0 0 C0 0.33 0 0.66 0 1 C-2.31 1.66 -4.62 2.32 -7 3 C-7.66 5.64 -8.32 8.28 -9 11 C-9.99 11 -10.98 11 -12 11 C-12 10.34 -12 9.68 -12 9 C-13.32 9.33 -14.64 9.66 -16 10 C-16.66 12.97 -17.32 15.94 -18 19 C-19.36125 18.95875 -20.7225 18.9175 -22.125 18.875 C-26.14731047 18.90029755 -29.36865408 19.09786642 -33 21 C-34.70855022 24.00007271 -34.70855022 24.00007271 -36 27 C-36.99 27.33 -37.98 27.66 -39 28 C-39 29.98 -39 31.96 -39 34 C-45.435 34.495 -45.435 34.495 -52 35 C-50.02 34.505 -50.02 34.505 -48 34 C-48 33.34 -48 32.68 -48 32 C-47.01 31.34 -46.02 30.68 -45 30 C-44.71125 29.319375 -44.4225 28.63875 -44.125 27.9375 C-43 26 -43 26 -40.375 25.25 C-39.59125 25.1675 -38.8075 25.085 -38 25 C-37.67 23.02 -37.34 21.04 -37 19 C-34.03 18.34 -31.06 17.68 -28 17 C-27.67 14.69 -27.34 12.38 -27 10 C-23.7 9.34 -20.4 8.68 -17 8 C-17 7.34 -17 6.68 -17 6 C-17 4.33333333 -17 2.66666667 -17 1 C-11.29309366 0.00749455 -5.78591511 -0.10477512 0 0 Z " fill="#E0384F" transform="translate(168,141)"/>
<path d="M0 0 C5.94 0 11.88 0 18 0 C18 2.97 18 5.94 18 9 C17 10 17 10 13.40234375 10.09765625 C11.91403133 10.0909822 10.42573568 10.07902183 8.9375 10.0625 C7.79958008 10.05573242 7.79958008 10.05573242 6.63867188 10.04882812 C4.75908129 10.0370068 2.87953101 10.01907078 1 10 C1 12.64 1 15.28 1 18 C-2.3 18 -5.6 18 -9 18 C-8.125 11.125 -8.125 11.125 -7 10 C-4.67182036 9.63239269 -2.3381615 9.29758419 0 9 C-0.33 8.67 -0.66 8.34 -1 8 C-1.23529412 2.47058824 -1.23529412 2.47058824 0 0 Z " fill="#9E6C77" transform="translate(203,88)"/>
<path d="M0 0 C5.61 0 11.22 0 17 0 C17 3.3 17 6.6 17 10 C8.585 10.495 8.585 10.495 0 11 C-0.66 13.31 -1.32 15.62 -2 18 C-4.64 18 -7.28 18 -10 18 C-10.09765625 11.84765625 -10.09765625 11.84765625 -10 10 C-9 9 -9 9 -5.4375 8.9375 C-4.303125 8.958125 -3.16875 8.97875 -2 9 C-2 7.35 -2 5.7 -2 4 C-1.34 4 -0.68 4 0 4 C0 2.68 0 1.36 0 0 Z " fill="#5FD038" transform="translate(248,52)"/>
<path d="M0 0 C1.23556641 0.01740234 1.23556641 0.01740234 2.49609375 0.03515625 C3.32238281 0.04417969 4.14867187 0.05320312 5 0.0625 C5.63808594 0.07410156 6.27617187 0.08570312 6.93359375 0.09765625 C6.96048591 1.57672517 6.97993996 3.05593108 6.99609375 4.53515625 C7.00769531 5.35886719 7.01929688 6.18257813 7.03125 7.03125 C6.93359375 9.09765625 6.93359375 9.09765625 5.93359375 10.09765625 C4.41431337 10.16945589 2.89191893 10.18157632 1.37109375 10.16015625 C0.54480469 10.15113281 -0.28148437 10.14210938 -1.1328125 10.1328125 C-1.77089844 10.12121094 -2.40898437 10.10960938 -3.06640625 10.09765625 C-3.06640625 12.40765625 -3.06640625 14.71765625 -3.06640625 17.09765625 C-8.67640625 17.75765625 -14.28640625 18.41765625 -20.06640625 19.09765625 C-20.39640625 21.40765625 -20.72640625 23.71765625 -21.06640625 26.09765625 C-24.03640625 26.09765625 -27.00640625 26.09765625 -30.06640625 26.09765625 C-29.73640625 25.43765625 -29.40640625 24.77765625 -29.06640625 24.09765625 C-28.40640625 24.09765625 -27.74640625 24.09765625 -27.06640625 24.09765625 C-27.06640625 21.78765625 -27.06640625 19.47765625 -27.06640625 17.09765625 C-25.08640625 17.09765625 -23.10640625 17.09765625 -21.06640625 17.09765625 C-21.06640625 14.12765625 -21.06640625 11.15765625 -21.06640625 8.09765625 C-20.40640625 8.42765625 -19.74640625 8.75765625 -19.06640625 9.09765625 C-19.06640625 11.73765625 -19.06640625 14.37765625 -19.06640625 17.09765625 C-15.60140625 16.60265625 -15.60140625 16.60265625 -12.06640625 16.09765625 C-11.73640625 13.78765625 -11.40640625 11.47765625 -11.06640625 9.09765625 C-8.42640625 9.09765625 -5.78640625 9.09765625 -3.06640625 9.09765625 C-3.08703125 7.79828125 -3.10765625 6.49890625 -3.12890625 5.16015625 C-3.15040079 3.80599992 -3.13788824 2.45009542 -3.06640625 1.09765625 C-2.06640625 0.09765625 -2.06640625 0.09765625 0 0 Z " fill="#2D9CDD" transform="translate(179.06640625,87.90234375)"/>
<path d="M0 0 C37.29 0 74.58 0 113 0 C112.01 0.33 111.02 0.66 110 1 C110 4.3 110 7.6 110 11 C105.65104888 11.9319181 102.34782197 11.88932722 98 11 C97.34 11 96.68 11 96 11 C95.505 10.505 95.505 10.505 95 10 C95 10.33 95 10.66 95 11 C89.25 11.125 89.25 11.125 87 10 C87 9.01 87 8.02 87 7 C89.49527208 6.30132382 91.85530187 5.8911434 94.4375 5.5625 C99.65005085 4.77486959 99.65005085 4.77486959 104 2 C69.68 1.67 35.36 1.34 0 1 C0 0.67 0 0.34 0 0 Z " fill="#BEDADF" transform="translate(0,176)"/>
<path d="M0 0 C3.65316671 1.24976756 4.78065836 1.67098753 7 5 C7 4.01 7 3.02 7 2 C9.33294775 1.95758277 11.66702567 1.95907063 14 2 C14.33 2.33 14.66 2.66 15 3 C15.99 2.67 16.98 2.34 18 2 C18.66 2.33 19.32 2.66 20 3 C20.33 2.01 20.66 1.02 21 0 C23.86724686 0.57344937 24.8614515 0.8614515 27 3 C28.32 3 29.64 3 31 3 C30.6875 5.375 30.6875 5.375 30 8 C29.01 8.66 28.02 9.32 27 10 C26.67 10.33 26.34 10.66 26 11 C24.5112814 11.08669432 23.018555 11.10703494 21.52734375 11.09765625 C20.62822266 11.09443359 19.72910156 11.09121094 18.80273438 11.08789062 C17.85720703 11.07951172 16.91167969 11.07113281 15.9375 11.0625 C14.98810547 11.05798828 14.03871094 11.05347656 13.06054688 11.04882812 C10.70696935 11.0370011 8.35351523 11.02052025 6 11 C6 10.01 6 9.02 6 8 C3.69 8 1.38 8 -1 8 C-0.67 5.36 -0.34 2.72 0 0 Z " fill="#F5F5F5" transform="translate(154,179)"/>
<path d="M0 0 C1.670625 0.061875 1.670625 0.061875 3.375 0.125 C3.375 2.105 3.375 4.085 3.375 6.125 C1.725 6.125 0.075 6.125 -1.625 6.125 C-1.295 6.785 -0.965 7.445 -0.625 8.125 C-1.38425781 8.12757812 -2.14351562 8.13015625 -2.92578125 8.1328125 C-5.93106719 8.2497497 -8.69224686 8.44821081 -11.625 9.125 C-13.83501187 11.87698532 -13.83501187 11.87698532 -14.625 15.125 C-15.615 16.61 -15.615 16.61 -16.625 18.125 C-19.75 18.3125 -19.75 18.3125 -22.625 18.125 C-22.74875 19.07375 -22.8725 20.0225 -23 21 C-23.625 24.125 -23.625 24.125 -25.625 26.125 C-27.94265729 26.84427295 -30.27595874 27.5159893 -32.625 28.125 C-32.625 24.495 -32.625 20.865 -32.625 17.125 C-29.325 17.125 -26.025 17.125 -22.625 17.125 C-22.625 14.155 -22.625 11.185 -22.625 8.125 C-14.21 7.63 -14.21 7.63 -5.625 7.125 C-5.625 5.475 -5.625 3.825 -5.625 2.125 C-3.625 0.125 -3.625 0.125 0 0 Z " fill="#DE3D4F" transform="translate(208.625,106.875)"/>
<path d="M0 0 C2.97 0 5.94 0 9 0 C9 5.94 9 11.88 9 18 C1.08 18 -6.84 18 -15 18 C-14.67 17.34 -14.34 16.68 -14 16 C-11.67843403 15.59270772 -9.3431213 15.25561323 -7 15 C-6.7834375 14.0409375 -6.7834375 14.0409375 -6.5625 13.0625 C-6 11 -6 11 -5 10 C-3.00041636 9.95919217 -0.99954746 9.95745644 1 10 C1 7.36 1 4.72 1 2 C0.34 1.67 -0.32 1.34 -1 1 C-0.67 0.67 -0.34 0.34 0 0 Z " fill="#24A0E0" transform="translate(79,158)"/>
<path d="M0 0 C2.64 0 5.28 0 8 0 C8 3.3 8 6.6 8 10 C5.36 10 2.72 10 0 10 C0 12.31 0 14.62 0 17 C-4.95 17.495 -4.95 17.495 -10 18 C-10 20.64 -10 23.28 -10 26 C-12.64 26 -15.28 26 -18 26 C-18 23.03 -18 20.06 -18 17 C-15.36 17 -12.72 17 -10 17 C-10 14.69 -10 12.38 -10 10 C-5.545 9.505 -5.545 9.505 -1 9 C-0.67 6.03 -0.34 3.06 0 0 Z " fill="#4D8CBE" transform="translate(186,88)"/>
<path d="M0 0 C50.16 0 100.32 0 152 0 C152 0.33 152 0.66 152 1 C112.4 1.33 72.8 1.66 32 2 C32.99 2.33 33.98 2.66 35 3 C35 3.66 35 4.32 35 5 C36.32 5.33 37.64 5.66 39 6 C38.67 7.65 38.34 9.3 38 11 C36.02 11 34.04 11 32 11 C32.33 9.68 32.66 8.36 33 7 C31.68 6.67 30.36 6.34 29 6 C29 6.99 29 7.98 29 9 C28.34 9 27.68 9 27 9 C26.375 6.625 26.375 6.625 26 4 C26.66 3.34 27.32 2.68 28 2 C14.14 1.505 14.14 1.505 0 1 C0 0.67 0 0.34 0 0 Z " fill="#EEADBD" transform="translate(113,176)"/>
<path d="M0 0 C2.0625 0.25 2.0625 0.25 4 1 C4.33 1.66 4.66 2.32 5 3 C3.35 3 1.7 3 0 3 C0 6.3 0 9.6 0 13 C-2.31 13 -4.62 13 -7 13 C-7 14.32 -7 15.64 -7 17 C-7.66 17 -8.32 17 -9 17 C-9 17.99 -9 18.98 -9 20 C-11.05078125 20.22786458 -13.1015625 20.45572917 -15.15234375 20.68359375 C-17.01140229 20.81886614 -17.01140229 20.81886614 -18 22 C-20.33297433 22.04092937 -22.66705225 22.04241723 -25 22 C-25 21.67 -25 21.34 -25 21 C-23.02 20.34 -21.04 19.68 -19 19 C-18.979375 18.071875 -18.95875 17.14375 -18.9375 16.1875 C-18 13 -18 13 -16.375 11.93359375 C-14.61781467 11.20025229 -12.80962451 10.59224075 -11 10 C-11.33 9.67 -11.66 9.34 -12 9 C-12.04063832 7.33382885 -12.042721 5.66611905 -12 4 C-10.95199219 3.81824219 -10.95199219 3.81824219 -9.8828125 3.6328125 C-8.51769531 3.38144531 -8.51769531 3.38144531 -7.125 3.125 C-5.76761719 2.88136719 -5.76761719 2.88136719 -4.3828125 2.6328125 C-1.83494012 2.16955297 -1.83494012 2.16955297 0 0 Z " fill="#20A4E5" transform="translate(132,120)"/>
<path d="M0 0 C0 0.33 0 0.66 0 1 C-2.64 1 -5.28 1 -8 1 C-7.979375 2.11375 -7.95875 3.2275 -7.9375 4.375 C-8 8 -8 8 -9 10 C-11.64 10 -14.28 10 -17 10 C-17 12.64 -17 15.28 -17 18 C-22.94 18 -28.88 18 -35 18 C-35 17.67 -35 17.34 -35 17 C-32.36 17 -29.72 17 -27 17 C-27 14.36 -27 11.72 -27 9 C-23.7 9 -20.4 9 -17 9 C-17 6.36 -17 3.72 -17 1 C-11.27959989 0.1679418 -5.77759884 -0.12036664 0 0 Z " fill="#856A96" transform="translate(141,141)"/>
<path d="M0 0 C2.31 0 4.62 0 7 0 C8 2 8 2 8 8 C16.25 8.33 24.5 8.66 33 9 C33 11.97 33 14.94 33 18 C27.39 17.67 21.78 17.34 16 17 C16 15.68 16 14.36 16 13 C15.34 13 14.68 13 14 13 C13.67 12.01 13.34 11.02 13 10 C10.36 9.67 7.72 9.34 5 9 C5.33 6.69 5.66 4.38 6 2 C4.02 2 2.04 2 0 2 C0 1.34 0 0.68 0 0 Z " fill="#FD4D2C" transform="translate(232,115)"/>
<path d="M0 0 C3.3 0 6.6 0 10 0 C10.33 2.97 10.66 5.94 11 9 C12.14339844 8.98839844 13.28679687 8.97679687 14.46484375 8.96484375 C15.95572754 8.95546712 17.44661309 8.94636679 18.9375 8.9375 C20.06961914 8.92493164 20.06961914 8.92493164 21.22460938 8.91210938 C23.14994313 8.90347559 25.07535581 8.94775667 27 9 C28 10 28 10 28.09765625 11.84765625 C28.06510417 13.8984375 28.03255208 15.94921875 28 18 C25.69 18.33 23.38 18.66 21 19 C19.23537317 15.91190305 19 14.76687864 19 11 C12.73 10.34 6.46 9.68 0 9 C0 6.03 0 3.06 0 0 Z " fill="#00C3B9" transform="translate(96,8)"/>
<path d="M0 0 C1.98 0 3.96 0 6 0 C6.33 0.99 6.66 1.98 7 3 C6.01 3 5.02 3 4 3 C4.33 4.32 4.66 5.64 5 7 C5.99 7 6.98 7 8 7 C8.99 7 9.98 7 11 7 C10.67 7.99 10.34 8.98 10 10 C10.99 10 11.98 10 13 10 C13 9.34 13 8.68 13 8 C13.99 8 14.98 8 16 8 C16 8.66 16 9.32 16 10 C16.99 10.33 17.98 10.66 19 11 C18.67 13.64 18.34 16.28 18 19 C20.31 19 22.62 19 25 19 C25.33 18.34 25.66 17.68 26 17 C26 17.99 26 18.98 26 20 C23.56242587 20.02698422 21.12515085 20.04683099 18.6875 20.0625 C17.99720703 20.07087891 17.30691406 20.07925781 16.59570312 20.08789062 C13.4516975 20.10307906 11.00579981 20.00193327 8 19 C8 16.69 8 14.38 8 12 C5.627322 10.627322 5.627322 10.627322 1 11 C0.67 7.37 0.34 3.74 0 0 Z " fill="#00CA96" transform="translate(123,16)"/>
<path d="M0 0 C2.97 0 5.94 0 9 0 C9 5.94 9 11.88 9 18 C5.7 18 2.4 18 -1 18 C-0.505 9.09 -0.505 9.09 0 0 Z " fill="#2AC575" transform="translate(203,70)"/>
<path d="M0 0 C3.0625 0.1875 3.0625 0.1875 5.0625 2.1875 C2.4225 2.1875 -0.2175 2.1875 -2.9375 2.1875 C-2.9375 5.1575 -2.9375 8.1275 -2.9375 11.1875 C-5.5775 11.1875 -8.2175 11.1875 -10.9375 11.1875 C-10.916875 12.321875 -10.89625 13.45625 -10.875 14.625 C-10.9375 18.1875 -10.9375 18.1875 -11.9375 19.1875 C-13.45678038 19.25929964 -14.97917482 19.27142007 -16.5 19.25 C-17.32628906 19.24097656 -18.15257812 19.23195312 -19.00390625 19.22265625 C-19.96103516 19.20525391 -19.96103516 19.20525391 -20.9375 19.1875 C-20.6075 16.5475 -20.2775 13.9075 -19.9375 11.1875 C-17.2975 11.1875 -14.6575 11.1875 -11.9375 11.1875 C-11.9375 8.2175 -11.9375 5.2475 -11.9375 2.1875 C-9.88671875 1.95963542 -7.8359375 1.73177083 -5.78515625 1.50390625 C-3.06231979 1.0376277 -3.12520223 0.19948099 0 0 Z " fill="#5686B9" transform="translate(152.9375,121.8125)"/>
<path d="M0 0 C2.64 0 5.28 0 8 0 C8 0.99 8 1.98 8 3 C8.66 3.33 9.32 3.66 10 4 C9.34 4 8.68 4 8 4 C8 5.65 8 7.3 8 9 C5.69 9.33 3.38 9.66 1 10 C0.67 12.31 0.34 14.62 0 17 C-3.3 17 -6.6 17 -10 17 C-10.125 13.625 -10.125 13.625 -10 10 C-8 8 -8 8 -6.0546875 7.8046875 C-4.03645833 7.86979167 -2.01822917 7.93489583 0 8 C0 5.36 0 2.72 0 0 Z " fill="#D2425C" transform="translate(168,124)"/>
<path d="M0 0 C5.94 0 11.88 0 18 0 C18 2.97 18 5.94 18 9 C12.06 9 6.12 9 0 9 C0 6.03 0 3.06 0 0 Z " fill="#E3A71C" transform="translate(221,88)"/>
<path d="M0 0 C0.763125 0.00902344 1.52625 0.01804687 2.3125 0.02734375 C2.869375 0.03894531 3.42625 0.05054687 4 0.0625 C4 0.3925 4 0.7225 4 1.0625 C1.36 1.0625 -1.28 1.0625 -4 1.0625 C-4 6.6725 -4 12.2825 -4 18.0625 C-6.97 18.0625 -9.94 18.0625 -13 18.0625 C-13 12.4525 -13 6.8425 -13 1.0625 C-4 -0.0625 -4 -0.0625 0 0 Z " fill="#46C857" transform="translate(225,69.9375)"/>
<path d="M0 0 C0 0.33 0 0.66 0 1 C-2.64 1 -5.28 1 -8 1 C-7.95875 2.11375 -7.9175 3.2275 -7.875 4.375 C-8 8 -8 8 -10 10 C-13.625 10.125 -13.625 10.125 -17 10 C-16.979375 11.134375 -16.95875 12.26875 -16.9375 13.4375 C-17 17 -17 17 -18 18 C-20.67058851 18.14115161 -23.32432238 18.04247107 -26 18 C-26 15.36 -26 12.72 -26 10 C-23.36 10 -20.72 10 -18 10 C-17.67 7.03 -17.34 4.06 -17 1 C-11.27959989 0.1679418 -5.77759884 -0.12036664 0 0 Z " fill="#AE5376" transform="translate(150,141)"/>
<path d="M0 0 C5.94 0 11.88 0 18 0 C18 2.97 18 5.94 18 9 C12.06 9 6.12 9 0 9 C0 6.03 0 3.06 0 0 Z " fill="#F99B11" transform="translate(229,97)"/>
<path d="M0 0 C0 2.64 0 5.28 0 8 C-5.73960775 8.83485204 -11.19941973 9.09063407 -17 9 C-17.33 11.97 -17.66 14.94 -18 18 C-20.64 18 -23.28 18 -26 18 C-26.25 12.375 -26.25 12.375 -24 9 C-19.35363139 7.78309394 -14.76704264 7.91780961 -10 8 C-10 5.69 -10 3.38 -10 1 C-6.78548731 -0.60725635 -3.56387464 -0.05748185 0 0 Z " fill="#93CA28" transform="translate(256,62)"/>
<path d="M0 0 C1.125 6.75 1.125 6.75 0 9 C-5.61 9 -11.22 9 -17 9 C-17 6.36 -17 3.72 -17 1 C-11.27959989 0.1679418 -5.77759884 -0.12036664 0 0 Z " fill="#E8742C" transform="translate(229,97)"/>
<path d="M0 0 C0.11269443 6.1105424 -0.10395632 11.95170514 -1 18 C-3.64 18 -6.28 18 -9 18 C-9.13494246 15.3941111 -9.23402299 12.79517889 -9.3125 10.1875 C-9.35439453 9.44951172 -9.39628906 8.71152344 -9.43945312 7.95117188 C-9.48828125 5.79296875 -9.48828125 5.79296875 -9 2 C-5.94446231 -0.79258264 -3.88594074 -1.58316104 0 0 Z " fill="#17C392" transform="translate(203,70)"/>
<path d="M0 0 C2.97 0 5.94 0 9 0 C9 2.97 9 5.94 9 9 C6.36 9.33 3.72 9.66 1 10 C0.34 12.31 -0.32 14.62 -1 17 C-3.64 17 -6.28 17 -9 17 C-9 14.69 -9 12.38 -9 10 C-6.36 10 -3.72 10 -1 10 C-1.020625 8.72125 -1.04125 7.4425 -1.0625 6.125 C-1.125 2.25 -1.125 2.25 0 0 Z " fill="#7673A0" transform="translate(159,114)"/>
<path d="M0 0 C2.97 0 5.94 0 9 0 C9 2.64 9 5.28 9 8 C6.36 8.33 3.72 8.66 1 9 C0.67 11.64 0.34 14.28 0 17 C-2.64 17 -5.28 17 -8 17 C-8 14.03 -8 11.06 -8 8 C-5.36 8 -2.72 8 0 8 C0 5.36 0 2.72 0 0 Z " fill="#13ACEC" transform="translate(176,80)"/>
<path d="M0 0 C1.98 0 3.96 0 6 0 C6.93423645 3.01031744 7.04449911 3.86650268 6 7 C7.71509766 7.07347656 7.71509766 7.07347656 9.46484375 7.1484375 C10.95575473 7.22345189 12.44663892 7.29900028 13.9375 7.375 C15.06961914 7.42140625 15.06961914 7.42140625 16.22460938 7.46875 C18.15507395 7.5726315 20.07942081 7.77895614 22 8 C23.43088528 10.86177057 22.59991697 12.93375773 22 16 C24.97 16 27.94 16 31 16 C30.34 17.32 29.68 18.64 29 20 C22.66118686 19.37802877 16.32905858 18.71457113 10 18 C10.66 17.34 11.32 16.68 12 16 C12.66 16.33 13.32 16.66 14 17 C13.814375 16.05125 13.62875 15.1025 13.4375 14.125 C13 11 13 11 14 9 C11.03 8.67 8.06 8.34 5 8 C4.67 6.02 4.34 4.04 4 2 C2.68 2 1.36 2 0 2 C0 1.34 0 0.68 0 0 Z " fill="#00C0CA" transform="translate(127,36)"/>
<path d="M0 0 C1.23556641 0.01740234 1.23556641 0.01740234 2.49609375 0.03515625 C3.32238281 0.04417969 4.14867187 0.05320312 5 0.0625 C5.63808594 0.07410156 6.27617187 0.08570312 6.93359375 0.09765625 C6.93359375 2.73765625 6.93359375 5.37765625 6.93359375 8.09765625 C3.96359375 8.09765625 0.99359375 8.09765625 -2.06640625 8.09765625 C-2.39640625 11.06765625 -2.72640625 14.03765625 -3.06640625 17.09765625 C-5.70640625 16.76765625 -8.34640625 16.43765625 -11.06640625 16.09765625 C-11.06640625 14.11765625 -11.06640625 12.13765625 -11.06640625 10.09765625 C-8.3576129 8.74325957 -6.05707357 9.03264174 -3.06640625 9.09765625 C-3.08703125 7.79828125 -3.10765625 6.49890625 -3.12890625 5.16015625 C-3.15040079 3.80599992 -3.13788824 2.45009542 -3.06640625 1.09765625 C-2.06640625 0.09765625 -2.06640625 0.09765625 0 0 Z " fill="#3D95D1" transform="translate(161.06640625,105.90234375)"/>
<path d="M0 0 C5.61 0.33 11.22 0.66 17 1 C17 3.97 17 6.94 17 10 C14.03 10 11.06 10 8 10 C8 9.01 8 8.02 8 7 C5.36 7 2.72 7 0 7 C0 4.69 0 2.38 0 0 Z " fill="#43D143" transform="translate(248,42)"/>
<path d="M0 0 C0 0.33 0 0.66 0 1 C-4.455 1.495 -4.455 1.495 -9 2 C-9 3.98 -9 5.96 -9 8 C-9.928125 8.226875 -10.85625 8.45375 -11.8125 8.6875 C-15.54469713 10.22428705 -16.1724155 11.52758945 -18 15 C-18.66 15 -19.32 15 -20 15 C-20 15.66 -20 16.32 -20 17 C-21.98 17.33 -23.96 17.66 -26 18 C-25.34 15.03 -24.68 12.06 -24 9 C-21.69 9 -19.38 9 -17 9 C-17 6.36 -17 3.72 -17 1 C-11.29014022 0.25983299 -5.75813575 -0.10469338 0 0 Z " fill="#D0415E" transform="translate(140,158)"/>
<path d="M0 0 C5.61 0 11.22 0 17 0 C17 2.64 17 5.28 17 8 C11.22240116 8.12036664 5.72040011 7.8320582 0 7 C0 4.69 0 2.38 0 0 Z " fill="#FDA20D" transform="translate(248,106)"/>
<path d="M0 0 C1.39456452 0.00667256 2.78911118 0.01863093 4.18359375 0.03515625 C4.89451172 0.03966797 5.60542969 0.04417969 6.33789062 0.04882812 C8.09899388 0.06064761 9.86005411 0.07858362 11.62109375 0.09765625 C7.30927756 4.96089476 7.30927756 4.96089476 4.1640625 5.5859375 C2.99810547 5.49892578 2.99810547 5.49892578 1.80859375 5.41015625 C1.01839844 5.36503906 0.22820312 5.31992188 -0.5859375 5.2734375 C-1.17761719 5.21542969 -1.76929687 5.15742188 -2.37890625 5.09765625 C-2.70890625 6.41765625 -3.03890625 7.73765625 -3.37890625 9.09765625 C-3.37890625 8.10765625 -3.37890625 7.11765625 -3.37890625 6.09765625 C-4.36890625 6.09765625 -5.35890625 6.09765625 -6.37890625 6.09765625 C-6.04890625 7.74765625 -5.71890625 9.39765625 -5.37890625 11.09765625 C-7.68890625 10.76765625 -9.99890625 10.43765625 -12.37890625 10.09765625 C-12.37890625 8.44765625 -12.37890625 6.79765625 -12.37890625 5.09765625 C-11.38890625 5.09765625 -10.39890625 5.09765625 -9.37890625 5.09765625 C-9.37890625 3.77765625 -9.37890625 2.45765625 -9.37890625 1.09765625 C-8.17234375 1.12859375 -8.17234375 1.12859375 -6.94140625 1.16015625 C-3.63487189 1.07950907 -3.59768467 0.10397933 0 0 Z " fill="#F3F3F2" transform="translate(93.37890625,176.90234375)"/>
<path d="M0 0 C2.64 0 5.28 0 8 0 C8 3.3 8 6.6 8 10 C8.99 10 9.98 10 11 10 C10.67 10.99 10.34 11.98 10 13 C6.7 13.66 3.4 14.32 0 15 C0 10.05 0 5.1 0 0 Z " fill="#00BED1" transform="translate(88,8)"/>
<path d="M0 0 C3.33105524 0.82143369 6.63951042 0.67077368 10.046875 0.62890625 C10.74425781 0.62439453 11.44164062 0.61988281 12.16015625 0.61523438 C13.87243303 0.60350645 15.58466533 0.58557278 17.296875 0.56640625 C17.296875 2.21640625 17.296875 3.86640625 17.296875 5.56640625 C16.575 5.38078125 15.853125 5.19515625 15.109375 5.00390625 C12.39703672 4.40910366 12.39703672 4.40910366 10.140625 5.03515625 C6.41551726 5.7310555 2.75707379 5.67273564 -1.015625 5.62890625 C-1.75619141 5.62439453 -2.49675781 5.61988281 -3.25976562 5.61523438 C-5.07425399 5.603528 -6.88870034 5.58559523 -8.703125 5.56640625 C-9.033125 4.24640625 -9.363125 2.92640625 -9.703125 1.56640625 C-8.94 1.42203125 -8.176875 1.27765625 -7.390625 1.12890625 C-0.90100933 -0.2293854 -0.90100933 -0.2293854 0 0 Z " fill="#AFAFAE" transform="translate(120.703125,181.43359375)"/>
<path d="M0 0 C1.98 0 3.96 0 6 0 C6 2.31 6 4.62 6 7 C1.05 7.66 -3.9 8.32 -9 9 C-9.66 11.31 -10.32 13.62 -11 16 C-13.64 16 -16.28 16 -19 16 C-19.04254356 14.00045254 -19.04080783 11.99958364 -19 10 C-17.06729418 8.06729418 -13.61358612 8.37336945 -11 8 C-10.67 7.67 -10.34 7.34 -10 7 C-7.32941149 6.85884839 -4.67567762 6.95752893 -2 7 C-2 6.01 -2 5.02 -2 4 C-1.34 4 -0.68 4 0 4 C0 2.68 0 1.36 0 0 Z " fill="#309AD9" transform="translate(125,133)"/>
<path d="M0 0 C1.23556641 0.01740234 1.23556641 0.01740234 2.49609375 0.03515625 C3.32238281 0.04417969 4.14867187 0.05320312 5 0.0625 C5.63808594 0.07410156 6.27617187 0.08570312 6.93359375 0.09765625 C6.93359375 0.42765625 6.93359375 0.75765625 6.93359375 1.09765625 C4.29359375 1.09765625 1.65359375 1.09765625 -1.06640625 1.09765625 C-1.04578125 2.23203125 -1.02515625 3.36640625 -1.00390625 4.53515625 C-1.06640625 8.09765625 -1.06640625 8.09765625 -2.06640625 9.09765625 C-3.58568663 9.16945589 -5.10808107 9.18157632 -6.62890625 9.16015625 C-7.45519531 9.15113281 -8.28148437 9.14210938 -9.1328125 9.1328125 C-9.77089844 9.12121094 -10.40898437 9.10960938 -11.06640625 9.09765625 C-11.06640625 11.73765625 -11.06640625 14.37765625 -11.06640625 17.09765625 C-13.70640625 17.09765625 -16.34640625 17.09765625 -19.06640625 17.09765625 C-19.06640625 14.12765625 -19.06640625 11.15765625 -19.06640625 8.09765625 C-11.14640625 7.60265625 -11.14640625 7.60265625 -3.06640625 7.09765625 C-3.06640625 5.11765625 -3.06640625 3.13765625 -3.06640625 1.09765625 C-2.06640625 0.09765625 -2.06640625 0.09765625 0 0 Z " fill="#90658F" transform="translate(187.06640625,105.90234375)"/>
<path d="M0 0 C2.0625 0.25 2.0625 0.25 4 1 C4.33 1.66 4.66 2.32 5 3 C3.35 3.33 1.7 3.66 0 4 C-0.33 6.31 -0.66 8.62 -1 11 C-4.63 11.33 -8.26 11.66 -12 12 C-12 9.33333333 -12 6.66666667 -12 4 C-10.95199219 3.81824219 -10.95199219 3.81824219 -9.8828125 3.6328125 C-8.51769531 3.38144531 -8.51769531 3.38144531 -7.125 3.125 C-5.76761719 2.88136719 -5.76761719 2.88136719 -4.3828125 2.6328125 C-1.83494012 2.16955297 -1.83494012 2.16955297 0 0 Z " fill="#1AA8E9" transform="translate(132,120)"/>
<path d="M0 0 C0 0.33 0 0.66 0 1 C-1.98 1.33 -3.96 1.66 -6 2 C-6.66 4.64 -7.32 7.28 -8 10 C-10.97 10 -13.94 10 -17 10 C-17 7.03 -17 4.06 -17 1 C-11.27959989 0.1679418 -5.77759884 -0.12036664 0 0 Z " fill="#69CA42" transform="translate(238,70)"/>
<path d="M0 0 C2.86724686 0.57344937 3.8614515 0.8614515 6 3 C7.32 3 8.64 3 10 3 C9.67 3.99 9.34 4.98 9 6 C9 5.34 9 4.68 9 4 C8.34 4 7.68 4 7 4 C6.67 4.99 6.34 5.98 6 7 C4.20843648 7.16777183 2.4167455 7.33418294 0.625 7.5 C-0.37273437 7.5928125 -1.37046875 7.685625 -2.3984375 7.78125 C-4.95890366 7.99654445 -7.42909382 8 -10 8 C-9.67 7.34 -9.34 6.68 -9 6 C-9.33 5.67 -9.66 5.34 -10 5 C-10 4.01 -10 3.02 -10 2 C-9.01 2.33 -8.02 2.66 -7 3 C-5.66431979 2.67619874 -4.33076989 2.34342449 -3 2 C-2.34 2.33 -1.68 2.66 -1 3 C-0.67 2.01 -0.34 1.02 0 0 Z " fill="#9C9C9C" transform="translate(175,179)"/>
<path d="M0 0 C2.97 0 5.94 0 9 0 C9.09765625 6.93359375 9.09765625 6.93359375 9 9 C8 10 8 10 6.15234375 10.09765625 C4.1015625 10.06510417 2.05078125 10.03255208 0 10 C0 6.7 0 3.4 0 0 Z " fill="#AC914C" transform="translate(212,88)"/>
<path d="M0 0 C2.97 0 5.94 0 9 0 C9 2.97 9 5.94 9 9 C3.39 9 -2.22 9 -8 9 C-8 8.67 -8 8.34 -8 8 C-5.36 8 -2.72 8 0 8 C0 5.36 0 2.72 0 0 Z " fill="#C1CC17" transform="translate(256,62)"/>
<path d="M0 0 C0.33 0.99 0.66 1.98 1 3 C2.14339844 2.98839844 3.28679687 2.97679687 4.46484375 2.96484375 C5.95572754 2.95546712 7.44661309 2.94636679 8.9375 2.9375 C10.06961914 2.92493164 10.06961914 2.92493164 11.22460938 2.91210938 C13.14994313 2.90347559 15.07535581 2.94775667 17 3 C18 4 18 4 18.09765625 5.84765625 C18.06510417 7.8984375 18.03255208 9.94921875 18 12 C15.69 12.33 13.38 12.66 11 13 C9.23537317 9.91190305 9 8.76687864 9 5 C6.03 4.67 3.06 4.34 0 4 C0 2.68 0 1.36 0 0 Z " fill="#00C6A9" transform="translate(106,14)"/>
<path d="M0 0 C0.66 0.33 1.32 0.66 2 1 C2 3.64 2 6.28 2 9 C3.65 8.67 5.3 8.34 7 8 C7.33 8.66 7.66 9.32 8 10 C5.69 10.33 3.38 10.66 1 11 C0.67 13.31 0.34 15.62 0 18 C-2.97 18 -5.94 18 -9 18 C-8.67 17.34 -8.34 16.68 -8 16 C-7.34 16 -6.68 16 -6 16 C-6 13.69 -6 11.38 -6 9 C-4.02 9 -2.04 9 0 9 C0 6.03 0 3.06 0 0 Z " fill="#20A4E3" transform="translate(158,96)"/>
<path d="M0 0 C3.63 0 7.26 0 11 0 C11 2.64 11 5.28 11 8 C7.37 8 3.74 8 0 8 C-1 3 -1 3 0 0 Z " fill="#00C7A5" transform="translate(141,36)"/>
<path d="M0 0 C2.97 0 5.94 0 9 0 C9.25 5.625 9.25 5.625 7 9 C5.0546875 9.29296875 5.0546875 9.29296875 2.875 9.1875 C0.956875 9.0946875 0.956875 9.0946875 -1 9 C-1.125 2.25 -1.125 2.25 0 0 Z " fill="#B8CA1A" transform="translate(239,71)"/>
<path d="M0 0 C2.97 0 5.94 0 9 0 C9 2.97 9 5.94 9 9 C6.03 9 3.06 9 0 9 C0 6.03 0 3.06 0 0 Z " fill="#6E78A9" transform="translate(97,159)"/>
<path d="M0 0 C2.97 0 5.94 0 9 0 C9 2.97 9 5.94 9 9 C6.03 9 3.06 9 0 9 C0 6.03 0 3.06 0 0 Z " fill="#8F658D" transform="translate(106,159)"/>
<path d="M0 0 C0 0.33 0 0.66 0 1 C-2.64 1 -5.28 1 -8 1 C-7.979375 2.134375 -7.95875 3.26875 -7.9375 4.4375 C-8 8 -8 8 -9 9 C-10.51928038 9.07179964 -12.04167482 9.08392007 -13.5625 9.0625 C-14.38878906 9.05347656 -15.21507812 9.04445312 -16.06640625 9.03515625 C-16.70449219 9.02355469 -17.34257812 9.01195312 -18 9 C-17.67 6.36 -17.34 3.72 -17 1 C-11.27959989 0.1679418 -5.77759884 -0.12036664 0 0 Z " fill="#6F77A7" transform="translate(150,132)"/>
<path d="M0 0 C2.97 0 5.94 0 9 0 C9 2.97 9 5.94 9 9 C6.03 9 3.06 9 0 9 C0 6.03 0 3.06 0 0 Z " fill="#F2B60D" transform="translate(239,88)"/>
<path d="M0 0 C2.97 0 5.94 0 9 0 C9 2.97 9 5.94 9 9 C6.03 9 3.06 9 0 9 C0 6.03 0 3.06 0 0 Z " fill="#86CF2A" transform="translate(256,53)"/>
<path d="M0 0 C3.3 0 6.6 0 10 0 C10 2.64 10 5.28 10 8 C6.7 8 3.4 8 0 8 C0 5.36 0 2.72 0 0 Z " fill="#50B07B" transform="translate(202,80)"/>
<path d="M0 0 C3.3 0 6.6 0 10 0 C10 2.64 10 5.28 10 8 C6.7 8 3.4 8 0 8 C0 5.36 0 2.72 0 0 Z " fill="#00C8A0" transform="translate(96,0)"/>
<path d="M0 0 C1.4540625 0.0309375 1.4540625 0.0309375 2.9375 0.0625 C2.9375 2.7025 2.9375 5.3425 2.9375 8.0625 C-2.3425 8.0625 -7.6225 8.0625 -13.0625 8.0625 C-12.7325 7.4025 -12.4025 6.7425 -12.0625 6.0625 C-9.74093403 5.65520772 -7.4056213 5.31811323 -5.0625 5.0625 C-4.918125 4.423125 -4.77375 3.78375 -4.625 3.125 C-3.73376283 -0.14286963 -3.55757083 0.07260349 0 0 Z " fill="#20A1E1" transform="translate(77.0625,167.9375)"/>
<path d="M0 0 C2.97 0 5.94 0 9 0 C9 2.64 9 5.28 9 8 C5.7 8 2.4 8 -1 8 C-1.125 2.25 -1.125 2.25 0 0 Z " fill="#838D75" transform="translate(203,88)"/>
<path d="M0 0 C0 2.97 0 5.94 0 9 C-2.97 9 -5.94 9 -9 9 C-9 6.36 -9 3.72 -9 1 C-5.8035914 -0.06546953 -3.34252724 -0.07427838 0 0 Z " fill="#E6CA08" transform="translate(265,71)"/>
<path d="M0 0 C2.97 0 5.94 0 9 0 C9 2.97 9 5.94 9 9 C6.03 9 3.06 9 0 9 C0 6.03 0 3.06 0 0 Z " fill="#F3851C" transform="translate(229,97)"/>
<path d="M0 0 C2.97 0 5.94 0 9 0 C8.67 2.97 8.34 5.94 8 9 C5.36 9.33 2.72 9.66 0 10 C0 6.7 0 3.4 0 0 Z " fill="#688B98" transform="translate(194,88)"/>
<path d="M0 0 C2.97 0 5.94 0 9 0 C8.67 2.97 8.34 5.94 8 9 C5.36 9 2.72 9 0 9 C0 6.03 0 3.06 0 0 Z " fill="#CD992F" transform="translate(221,88)"/>
<path d="M0 0 C2.97 0 5.94 0 9 0 C8.67 2.64 8.34 5.28 8 8 C3.545 8.495 3.545 8.495 -1 9 C-1.125 2.25 -1.125 2.25 0 0 Z " fill="#637DB0" transform="translate(159,114)"/>
<path d="M0 0 C2.64 0 5.28 0 8 0 C8 2.64 8 5.28 8 8 C2.63904667 9.12862175 -2.55306686 9.09688221 -8 9 C-8 8.67 -8 8.34 -8 8 C-5.36 8 -2.72 8 0 8 C0 5.36 0 2.72 0 0 Z " fill="#AD5376" transform="translate(176,115)"/>
<path d="M0 0 C2.97 0 5.94 0 9 0 C9 2.64 9 5.28 9 8 C6.03 8 3.06 8 0 8 C0 5.36 0 2.72 0 0 Z " fill="#91638A" transform="translate(97,168)"/>
<path d="M0 0 C2.97 0 5.94 0 9 0 C9 2.64 9 5.28 9 8 C6.03 8 3.06 8 0 8 C0 5.36 0 2.72 0 0 Z " fill="#6978AB" transform="translate(88,168)"/>
<path d="M0 0 C2.97 0 5.94 0 9 0 C9 2.64 9 5.28 9 8 C6.03 8 3.06 8 0 8 C0 5.36 0 2.72 0 0 Z " fill="#3697D3" transform="translate(132,124)"/>
<path d="M0 0 C2.97 0 5.94 0 9 0 C9 2.64 9 5.28 9 8 C6.03 8 3.06 8 0 8 C0 5.36 0 2.72 0 0 Z " fill="#DDC40F" transform="translate(239,80)"/>
<path d="M0 0 C2.97 0 5.94 0 9 0 C9 2.64 9 5.28 9 8 C6.03 8 3.06 8 0 8 C0 5.36 0 2.72 0 0 Z " fill="#7BB450" transform="translate(212,80)"/>
<path d="M0 0 C2.97 0 5.94 0 9 0 C9 2.64 9 5.28 9 8 C6.03 8 3.06 8 0 8 C0 5.36 0 2.72 0 0 Z " fill="#19B3C0" transform="translate(185,80)"/>
<path d="M0 0 C2.97 0 5.94 0 9 0 C9 2.64 9 5.28 9 8 C6.03 8 3.06 8 0 8 C0 5.36 0 2.72 0 0 Z " fill="#0AB5DE" transform="translate(176,80)"/>
<path d="M0 0 C2.64 0 5.28 0 8 0 C8 2.97 8 5.94 8 9 C5.36 9 2.72 9 0 9 C0 6.03 0 3.06 0 0 Z " fill="#02BECE" transform="translate(176,71)"/>
<path d="M0 0 C2.97 0 5.94 0 9 0 C9.04241723 2.33294775 9.04092937 4.66702567 9 7 C8 8 8 8 6.15234375 8.09765625 C4.1015625 8.06510417 2.05078125 8.03255208 0 8 C0 5.36 0 2.72 0 0 Z " fill="#D96541" transform="translate(212,98)"/>
<path d="M0 0 C2.05078125 0.03255208 4.1015625 0.06510417 6.15234375 0.09765625 C6.15234375 2.73765625 6.15234375 5.37765625 6.15234375 8.09765625 C3.18234375 8.09765625 0.21234375 8.09765625 -2.84765625 8.09765625 C-2.89007348 5.7647085 -2.88858562 3.43063058 -2.84765625 1.09765625 C-1.84765625 0.09765625 -1.84765625 0.09765625 0 0 Z " fill="#55CF3F" transform="translate(231.84765625,61.90234375)"/>
<path d="M0 0 C3.3 0 6.6 0 10 0 C9.67 2.64 9.34 5.28 9 8 C6.36 8 3.72 8 1 8 C0.40267181 5.23735711 0 2.83967231 0 0 Z " fill="#3795D2" transform="translate(96,150)"/>
<path d="M0 0 C2.64 0 5.28 0 8 0 C9.125 3.75 9.125 3.75 8 6 C7.34 6 6.68 6 6 6 C6.33 6.99 6.66 7.98 7 9 C4.69 9 2.38 9 0 9 C-1.53445094 5.93109813 -0.54984289 3.29905734 0 0 Z " fill="#F0433C" transform="translate(212,106)"/>
<path d="M0 0 C2.33944736 0.28730055 4.6739143 0.61936779 7 1 C7 3.64 7 6.28 7 9 C4.36 9 1.72 9 -1 9 C-1.09765625 2.84765625 -1.09765625 2.84765625 -1 1 C-0.67 0.67 -0.34 0.34 0 0 Z " fill="#0BC0AF" transform="translate(187,71)"/>
<path d="M0 0 C1.98 0.66 3.96 1.32 6 2 C6 2.66 6 3.32 6 4 C7.32 4.33 8.64 4.66 10 5 C9.67 6.65 9.34 8.3 9 10 C7.02 10 5.04 10 3 10 C3.33 8.68 3.66 7.36 4 6 C2.68 5.67 1.36 5.34 0 5 C0 5.99 0 6.98 0 8 C-0.66 8 -1.32 8 -2 8 C-2.6875 5.6875 -2.6875 5.6875 -3 3 C-1.5625 1.1875 -1.5625 1.1875 0 0 Z " fill="#CDCECD" transform="translate(142,177)"/>
<path d="M0 0 C2.05078125 0.03255208 4.1015625 0.06510417 6.15234375 0.09765625 C5.82234375 2.73765625 5.49234375 5.37765625 5.15234375 8.09765625 C2.51234375 8.42765625 -0.12765625 8.75765625 -2.84765625 9.09765625 C-2.9453125 2.9453125 -2.9453125 2.9453125 -2.84765625 1.09765625 C-1.84765625 0.09765625 -1.84765625 0.09765625 0 0 Z " fill="#21A6DB" transform="translate(178.84765625,87.90234375)"/>
<path d="M0 0 C3.3 0 6.6 0 10 0 C9.34 2.64 8.68 5.28 8 8 C5.36 8 2.72 8 0 8 C0 5.36 0 2.72 0 0 Z " fill="#7ECF30" transform="translate(238,62)"/>
<path d="M0 0 C2.64 0 5.28 0 8 0 C8 0.99 8 1.98 8 3 C8.66 3.33 9.32 3.66 10 4 C9.34 4 8.68 4 8 4 C8 5.32 8 6.64 8 8 C5.36 8 2.72 8 0 8 C0 5.36 0 2.72 0 0 Z " fill="#C44965" transform="translate(168,124)"/>
<path d="M0 0 C2.64 0 5.28 0 8 0 C8 2.64 8 5.28 8 8 C5.36 8.33 2.72 8.66 0 9 C0 6.03 0 3.06 0 0 Z " fill="#B74F71" transform="translate(115,159)"/>
<path d="M0 0 C2.64 0 5.28 0 8 0 C8 2.64 8 5.28 8 8 C5.03 8 2.06 8 -1 8 C-0.67 5.36 -0.34 2.72 0 0 Z " fill="#8A6791" transform="translate(142,133)"/>
<path d="M0 0 C5.61 0.33 11.22 0.66 17 1 C17 1.66 17 2.32 17 3 C14.03 3 11.06 3 8 3 C8 3.99 8 4.98 8 6 C5.36 6 2.72 6 0 6 C0 4.02 0 2.04 0 0 Z " fill="#28D34D" transform="translate(248,42)"/>
<path d="M0 0 C2.97 0 5.94 0 9 0 C8.67 2.64 8.34 5.28 8 8 C5.36 8 2.72 8 0 8 C0 5.36 0 2.72 0 0 Z " fill="#00CD85" transform="translate(106,0)"/>
<path d="M0 0 C2.64 0 5.28 0 8 0 C8 2.64 8 5.28 8 8 C5.36 8 2.72 8 0 8 C0 5.36 0 2.72 0 0 Z " fill="#3F90CA" transform="translate(80,168)"/>
<path d="M0 0 C2.64 0 5.28 0 8 0 C8.33 2.64 8.66 5.28 9 8 C6.36 8 3.72 8 1 8 C0 1.125 0 1.125 0 0 Z " fill="#FC5A26" transform="translate(239,115)"/>
<path d="M0 0 C2.64 0 5.28 0 8 0 C8 2.64 8 5.28 8 8 C5.36 8 2.72 8 0 8 C0 5.36 0 2.72 0 0 Z " fill="#5A84B7" transform="translate(168,106)"/>
<path d="M0 0 C2.64 0 5.28 0 8 0 C8 2.64 8 5.28 8 8 C5.36 8 2.72 8 0 8 C0 5.36 0 2.72 0 0 Z " fill="#BC625F" transform="translate(204,98)"/>
<path d="M0 0 C2.64 0 5.28 0 8 0 C8 2.64 8 5.28 8 8 C5.36 8 2.72 8 0 8 C0 5.36 0 2.72 0 0 Z " fill="#4299B9" transform="translate(186,88)"/>
<path d="M0 0 C2.64 0 5.28 0 8 0 C8 2.64 8 5.28 8 8 C5.36 8 2.72 8 0 8 C0 5.36 0 2.72 0 0 Z " fill="#9EB834" transform="translate(221,80)"/>
<path d="M0 0 C2.64 0 5.28 0 8 0 C8 2.64 8 5.28 8 8 C5.36 8 2.72 8 0 8 C0 5.36 0 2.72 0 0 Z " fill="#30B0A0" transform="translate(194,80)"/>
<path d="M0 0 C2.64 0 5.28 0 8 0 C8 2.64 8 5.28 8 8 C5.36 8 2.72 8 0 8 C0 5.36 0 2.72 0 0 Z " fill="#A3CD22" transform="translate(248,62)"/>
<path d="M0 0 C2.64 0 5.28 0 8 0 C8 2.64 8 5.28 8 8 C5.36 8 2.72 8 0 8 C0 5.36 0 2.72 0 0 Z " fill="#00BED3" transform="translate(80,0)"/>
<path d="M0 0 C2.64 0 5.28 0 8 0 C7.34 2.97 6.68 5.94 6 9 C4.02 9 2.04 9 0 9 C0 6.03 0 3.06 0 0 Z " fill="#D2405B" transform="translate(186,115)"/>
<path d="M0 0 C1.23556641 0.01740234 1.23556641 0.01740234 2.49609375 0.03515625 C3.32238281 0.04417969 4.14867187 0.05320313 5 0.0625 C5.63808594 0.07410156 6.27617187 0.08570313 6.93359375 0.09765625 C6.60359375 2.07765625 6.27359375 4.05765625 5.93359375 6.09765625 C2.78022575 6.79840469 0.20634401 7.09765625 -3.06640625 7.09765625 C-3.10894981 5.09810879 -3.10721408 3.09723989 -3.06640625 1.09765625 C-2.06640625 0.09765625 -2.06640625 0.09765625 0 0 Z " fill="#07CD7E" transform="translate(197.06640625,63.90234375)"/>
<path d="M0 0 C1.53445094 3.06890187 0.54984289 5.70094266 0 9 C-2.64 8.67 -5.28 8.34 -8 8 C-8 6.02 -8 4.04 -8 2 C-5.36 1.34 -2.72 0.68 0 0 Z " fill="#4290CA" transform="translate(158,114)"/>
<path d="M0 0 C2.64 0 5.28 0 8 0 C8 2.31 8 4.62 8 7 C5.36 7 2.72 7 0 7 C0 4.69 0 2.38 0 0 Z " fill="#AC5775" transform="translate(186,107)"/>
<path d="M0 0 C2.64 0 5.28 0 8 0 C8 2.31 8 4.62 8 7 C5.36 7 2.72 7 0 7 C0 4.69 0 2.38 0 0 Z " fill="#FC900F" transform="translate(248,106)"/>
<path d="M0 0 C3.65316671 1.24976756 4.78065836 1.67098753 7 5 C7 4.01 7 3.02 7 2 C7.99 2 8.98 2 10 2 C9.74438677 4.3431213 9.40729228 6.67843403 9 9 C8.01 9.495 8.01 9.495 7 10 C6.67 9.34 6.34 8.68 6 8 C3.69 8 1.38 8 -1 8 C-0.67 5.36 -0.34 2.72 0 0 Z " fill="#B3B3B3" transform="translate(154,179)"/>
<path d="M0 0 C2.05078125 0.03255208 4.1015625 0.06510417 6.15234375 0.09765625 C6.15234375 2.07765625 6.15234375 4.05765625 6.15234375 6.09765625 C0 6.9765625 0 6.9765625 -1.84765625 7.09765625 C-2.84765625 6.09765625 -2.84765625 6.09765625 -2.97265625 3.59765625 C-2.80017347 0.14800071 -2.80017347 0.14800071 0 0 Z " fill="#0ECF6B" transform="translate(205.84765625,63.90234375)"/>
<path d="M0 0 C2.64 0 5.28 0 8 0 C7.67 2.31 7.34 4.62 7 7 C4.36 7.33 1.72 7.66 -1 8 C-0.67 5.36 -0.34 2.72 0 0 Z " fill="#BB4B69" transform="translate(142,142)"/>
<path d="M0 0 C-0.33 2.31 -0.66 4.62 -1 7 C-3.64 7 -6.28 7 -9 7 C-9 5.02 -9 3.04 -9 1 C-5.57367167 -0.61798838 -3.61944899 -1.34053666 0 0 Z " fill="#37D049" transform="translate(230,63)"/>
<path d="M0 0 C2.64 0 5.28 0 8 0 C7.6875 1.9375 7.6875 1.9375 7 4 C6.01 4.33 5.02 4.66 4 5 C4 5.66 4 6.32 4 7 C2.02 7.33 0.04 7.66 -2 8 C-1.34 5.36 -0.68 2.72 0 0 Z " fill="#D83C55" transform="translate(116,168)"/>
<path d="M0 0 C2.31 0 4.62 0 7 0 C7 2.31 7 4.62 7 7 C4.36 7.33 1.72 7.66 -1 8 C-0.67 5.36 -0.34 2.72 0 0 Z " fill="#9B5F86" transform="translate(133,142)"/>
<path d="M0 0 C0.33 0 0.66 0 1 0 C1 2.97 1 5.94 1 9 C-1.31 9 -3.62 9 -6 9 C-6 10.32 -6 11.64 -6 13 C-8.97 12.67 -11.94 12.34 -15 12 C-12.53312699 8.29969048 -11.24800022 8.04196232 -7 7 C-4.66787973 6.92477031 -2.3314689 6.90674124 0 7 C0 4.69 0 2.38 0 0 Z " fill="#289FDF" transform="translate(131,124)"/>
<path d="M0 0 C2.31 0 4.62 0 7 0 C7 2.31 7 4.62 7 7 C4.69 7 2.38 7 0 7 C0 4.69 0 2.38 0 0 Z " fill="#5B81B5" transform="translate(107,151)"/>
<path d="M0 0 C2.31 0 4.62 0 7 0 C7 2.31 7 4.62 7 7 C4.69 7 2.38 7 0 7 C0 4.69 0 2.38 0 0 Z " fill="#7176A3" transform="translate(124,142)"/>
<path d="M0 0 C1.258125 -0.020625 2.51625 -0.04125 3.8125 -0.0625 C4.52019531 -0.07410156 5.22789063 -0.08570312 5.95703125 -0.09765625 C8 0 8 0 11 1 C10.67 1.99 10.34 2.98 10 4 C6.7 4.66 3.4 5.32 0 6 C0 4.02 0 2.04 0 0 Z " fill="#00BBE4" transform="translate(88,17)"/>
<path d="M0 0 C2.31 0 4.62 0 7 0 C7 2.31 7 4.62 7 7 C4.69 7 2.38 7 0 7 C0 4.69 0 2.38 0 0 Z " fill="#AD5477" transform="translate(151,134)"/>
<path d="M0 0 C2.0625 0.25 2.0625 0.25 4 1 C4.33 1.66 4.66 2.32 5 3 C1.04 3.66 -2.92 4.32 -7 5 C-7.66 6.98 -8.32 8.96 -9 11 C-9.99 11 -10.98 11 -12 11 C-12 8.66666667 -12 6.33333333 -12 4 C-10.95199219 3.81824219 -10.95199219 3.81824219 -9.8828125 3.6328125 C-8.51769531 3.38144531 -8.51769531 3.38144531 -7.125 3.125 C-5.76761719 2.88136719 -5.76761719 2.88136719 -4.3828125 2.6328125 C-1.83494012 2.16955297 -1.83494012 2.16955297 0 0 Z " fill="#11ADEF" transform="translate(132,120)"/>
<path d="M0 0 C2.31 0 4.62 0 7 0 C7 1.98 7 3.96 7 6 C4.69 6.33 2.38 6.66 0 7 C0 4.69 0 2.38 0 0 Z " fill="#A1597F" transform="translate(124,151)"/>
<path d="M0 0 C1.98 0 3.96 0 6 0 C6 2.31 6 4.62 6 7 C4.02 7 2.04 7 0 7 C-1.04449911 3.86650268 -0.93423645 3.01031744 0 0 Z " fill="#3D95CE" transform="translate(125,133)"/>
<path d="M0 0 C2.31 0 4.62 0 7 0 C7 1.98 7 3.96 7 6 C4.36 6.33 1.72 6.66 -1 7 C-0.67 4.69 -0.34 2.38 0 0 Z " fill="#806E9A" transform="translate(177,107)"/>
<path d="M0 0 C-0.33 0.99 -0.66 1.98 -1 3 C-1 4.32 -1 5.64 -1 7 C-3.31 7 -5.62 7 -8 7 C-8 5.02 -8 3.04 -8 1 C-2.25 -1.125 -2.25 -1.125 0 0 Z " fill="#1FD15A" transform="translate(220,63)"/>
<path d="M0 0 C0.33 0 0.66 0 1 0 C1.02689216 1.47906892 1.04634621 2.95827483 1.0625 4.4375 C1.07410156 5.26121094 1.08570313 6.08492188 1.09765625 6.93359375 C1 9 1 9 0 10 C-2.67058851 10.14115161 -5.32432238 10.04247107 -8 10 C-8 9.34 -8 8.68 -8 8 C-6.35 8 -4.7 8 -3 8 C-3 6.02 -3 4.04 -3 2 C-2.01 2 -1.02 2 0 2 C0 1.34 0 0.68 0 0 Z " fill="#BB8747" transform="translate(220,88)"/>
<path d="M0 0 C2 2 2 2 2 5 C-4.625 6.125 -4.625 6.125 -8 5 C-7.67 3.68 -7.34 2.36 -7 1 C-3.625 0.375 -3.625 0.375 0 0 Z " fill="#ADACAC" transform="translate(119,181)"/>
<path d="M0 0 C0.66 0.33 1.32 0.66 2 1 C2 3.64 2 6.28 2 9 C3.65 8.67 5.3 8.34 7 8 C7.33 8.66 7.66 9.32 8 10 C3.71 10.66 -0.58 11.32 -5 12 C-5.33 11.01 -5.66 10.02 -6 9 C-4.02 9 -2.04 9 0 9 C0 6.03 0 3.06 0 0 Z " fill="#18A8ED" transform="translate(158,96)"/>
<path d="M0 0 C2.97 0 5.94 0 9 0 C9 0.33 9 0.66 9 1 C6.36 1 3.72 1 1 1 C1 3.97 1 6.94 1 10 C-1.64 10 -4.28 10 -7 10 C-7 7.69 -7 5.38 -7 3 C-6.34 3 -5.68 3 -5 3 C-5 4.65 -5 6.3 -5 8 C-3.35 8 -1.7 8 0 8 C0 5.36 0 2.72 0 0 Z " fill="#52C64F" transform="translate(220,70)"/>
<path d="M0 0 C2.64 0 5.28 0 8 0 C7.67 1.32 7.34 2.64 7 4 C5.02 4 3.04 4 1 4 C1 4.66 1 5.32 1 6 C2.98 6 4.96 6 7 6 C7 6.33 7 6.66 7 7 C4.36 7.33 1.72 7.66 -1 8 C-0.67 5.36 -0.34 2.72 0 0 Z " fill="#617FB0" transform="translate(133,133)"/>
<path d="M0 0 C2.64 0 5.28 0 8 0 C8 1.65 8 3.3 8 5 C5.36 5 2.72 5 0 5 C0 3.35 0 1.7 0 0 Z " fill="#70CE33" transform="translate(248,57)"/>
<path d="M0 0 C0.66 0 1.32 0 2 0 C2.33 0.99 2.66 1.98 3 3 C2.360625 3.474375 1.72125 3.94875 1.0625 4.4375 C-0.88293306 5.83738726 -0.88293306 5.83738726 -2 7 C-4.33297433 7.04092937 -6.66705225 7.04241723 -9 7 C-9 6.01 -9 5.02 -9 4 C-8.43410156 3.87882813 -7.86820313 3.75765625 -7.28515625 3.6328125 C-6.18494141 3.38144531 -6.18494141 3.38144531 -5.0625 3.125 C-4.33160156 2.96257812 -3.60070312 2.80015625 -2.84765625 2.6328125 C-0.79299706 2.17038477 -0.79299706 2.17038477 0 0 Z " fill="#EBECEC" transform="translate(182,183)"/>
<path d="M0 0 C2.8992226 0.46761655 3.86675182 0.86675182 6 3 C7.32 3 8.64 3 10 3 C9.67 3.99 9.34 4.98 9 6 C9 5.34 9 4.68 9 4 C8.34 4 7.68 4 7 4 C6.67 4.99 6.34 5.98 6 7 C4.0625 6.6875 4.0625 6.6875 2 6 C1.67 5.01 1.34 4.02 1 3 C0.34 2.34 -0.32 1.68 -1 1 C-0.67 0.67 -0.34 0.34 0 0 Z " fill="#B7B7B7" transform="translate(175,179)"/>
<path d="M0 0 C2.31 0 4.62 0 7 0 C7 0.33 7 0.66 7 1 C5.02 1.33 3.04 1.66 1 2 C0.34 4.64 -0.32 7.28 -1 10 C-3.64 10 -6.28 10 -9 10 C-9 9.34 -9 8.68 -9 8 C-7.02 8 -5.04 8 -3 8 C-3 6.35 -3 4.7 -3 3 C-2.34 3 -1.68 3 -1 3 C-0.67 2.01 -0.34 1.02 0 0 Z " fill="#7AC739" transform="translate(231,70)"/>
<path d="M0 0 C-0.33 1.32 -0.66 2.64 -1 4 C-1.33 4 -1.66 4 -2 4 C-2 4.33 -2 4.66 -2 5 C-7.75 5.125 -7.75 5.125 -10 4 C-10 3.01 -10 2.02 -10 1 C-9.38125 0.855625 -8.7625 0.71125 -8.125 0.5625 C-2.8125 -0.84375 -2.8125 -0.84375 0 0 Z " fill="#989A9A" transform="translate(97,182)"/>
<path d="M0 0 C2.97 0 5.94 0 9 0 C8.67 2.64 8.34 5.28 8 8 C7.01 8 6.02 8 5 8 C5 6.02 5 4.04 5 2 C4.01 2 3.02 2 2 2 C1.67 3.98 1.34 5.96 1 8 C0.67 8 0.34 8 0 8 C0 5.36 0 2.72 0 0 Z " fill="#5C9399" transform="translate(194,88)"/>
<path d="M0 0 C2.97 0 5.94 0 9 0 C9 0.33 9 0.66 9 1 C6.36 1 3.72 1 1 1 C1.33 2.65 1.66 4.3 2 6 C4.31 6.33 6.62 6.66 9 7 C9 7.33 9 7.66 9 8 C3.29309366 8.99250545 -2.21408489 9.10477512 -8 9 C-8 8.67 -8 8.34 -8 8 C-5.36 8 -2.72 8 0 8 C0 5.36 0 2.72 0 0 Z " fill="#7176A3" transform="translate(114,150)"/>
<path d="M0 0 C1 3.875 1 3.875 1 5 C-1.97 5 -4.94 5 -8 5 C-8 3.68 -8 2.36 -8 1 C-5.36 0.67 -2.72 0.34 0 0 Z " fill="#20A3E1" transform="translate(96,153)"/>
<path d="M0 0 C2.1640625 -0.29296875 2.1640625 -0.29296875 4.625 -0.1875 C5.44226563 -0.16042969 6.25953125 -0.13335937 7.1015625 -0.10546875 C8.04128906 -0.05326172 8.04128906 -0.05326172 9 0 C9 0.33 9 0.66 9 1 C6.36 1 3.72 1 1 1 C1 3.97 1 6.94 1 10 C-1.64 10 -4.28 10 -7 10 C-7 9.67 -7 9.34 -7 9 C-5.02 9 -3.04 9 -1 9 C-1.20625 8.071875 -1.4125 7.14375 -1.625 6.1875 C-2 3 -2 3 0 0 Z " fill="#BD4B68" transform="translate(185,114)"/>
<path d="M0 0 C2.31 0 4.62 0 7 0 C7 1.65 7 3.3 7 5 C4.69 5 2.38 5 0 5 C0 3.35 0 1.7 0 0 Z " fill="#CFD0CF" transform="translate(121,182)"/>
<path d="M0 0 C2.01822917 0.06510417 4.03645833 0.13020833 6.0546875 0.1953125 C5.7246875 0.8553125 5.3946875 1.5153125 5.0546875 2.1953125 C3.0746875 2.1953125 1.0946875 2.1953125 -0.9453125 2.1953125 C-1.2753125 4.5053125 -1.6053125 6.8153125 -1.9453125 9.1953125 C-2.6053125 9.1953125 -3.2653125 9.1953125 -3.9453125 9.1953125 C-4.0703125 5.8203125 -4.0703125 5.8203125 -3.9453125 2.1953125 C-1.9453125 0.1953125 -1.9453125 0.1953125 0 0 Z " fill="#C34969" transform="translate(161.9453125,131.8046875)"/>
<path d="M0 0 C0.33 0 0.66 0 1 0 C1 2.97 1 5.94 1 9 C-1.97 9 -4.94 9 -8 9 C-8 8.34 -8 7.68 -8 7 C-5.69 7 -3.38 7 -1 7 C-1.020625 6.030625 -1.04125 5.06125 -1.0625 4.0625 C-1 1 -1 1 0 0 Z " fill="#9E5E82" transform="translate(114,159)"/>
<path d="M0 0 C0.33 0 0.66 0 1 0 C1.02689216 1.47906892 1.04634621 2.95827483 1.0625 4.4375 C1.07410156 5.26121094 1.08570313 6.08492188 1.09765625 6.93359375 C1 9 1 9 0 10 C-1.51928038 10.07179964 -3.04167482 10.08392007 -4.5625 10.0625 C-5.38878906 10.05347656 -6.21507812 10.04445313 -7.06640625 10.03515625 C-7.70449219 10.02355469 -8.34257812 10.01195313 -9 10 C-7 8 -7 8 -3.875 7.875 C-2.92625 7.91625 -1.9775 7.9575 -1 8 C-1.020625 7.05125 -1.04125 6.1025 -1.0625 5.125 C-1 2 -1 2 0 0 Z " fill="#329CCD" transform="translate(185,88)"/>
<path d="M0 0 C2.64 0 5.28 0 8 0 C8 2.31 8 4.62 8 7 C7.67 7 7.34 7 7 7 C7 5.35 7 3.7 7 2 C5.35 2.33 3.7 2.66 2 3 C1.67 4.98 1.34 6.96 1 9 C0.67 9 0.34 9 0 9 C0 6.03 0 3.06 0 0 Z " fill="#617EB1" transform="translate(97,159)"/>
<path d="M0 0 C2 2 2 2 2 6 C3.32 6 4.64 6 6 6 C6 5.34 6 4.68 6 4 C6.66 4 7.32 4 8 4 C8.66 5.32 9.32 6.64 10 8 C8.52093108 8.02689216 7.04172517 8.04634621 5.5625 8.0625 C4.32693359 8.07990234 4.32693359 8.07990234 3.06640625 8.09765625 C1 8 1 8 0 7 C-0.04092937 4.66702567 -0.04241723 2.33294775 0 0 Z " fill="#04C79A" transform="translate(185,64)"/>
<path d="M0 0 C1.64826111 2.96687001 2.44271087 5.65626525 3 9 C-0.34252724 9.07427838 -2.8035914 9.06546953 -6 8 C-6 7.34 -6 6.68 -6 6 C-4.02 5.67 -2.04 5.34 0 5 C0 3.35 0 1.7 0 0 Z " fill="#00C0CD" transform="translate(123,28)"/>
<path d="M0 0 C0.33 0 0.66 0 1 0 C1.04241723 2.33294775 1.04092937 4.66702567 1 7 C0 8 0 8 -1.84765625 8.09765625 C-3.8984375 8.06510417 -5.94921875 8.03255208 -8 8 C-7.34 6.68 -6.68 5.36 -6 4 C-5.67 4.66 -5.34 5.32 -5 6 C-3.35 6 -1.7 6 0 6 C0 4.02 0 2.04 0 0 Z " fill="#3499D6" transform="translate(149,116)"/>
<path d="M0 0 C0 0.33 0 0.66 0 1 C-1.423125 1.3403125 -1.423125 1.3403125 -2.875 1.6875 C-6.19044598 2.67628816 -6.19044598 2.67628816 -7.25 5.5625 C-7.4975 6.366875 -7.745 7.17125 -8 8 C-8.99 8.495 -8.99 8.495 -10 9 C-9.40425532 3.63829787 -9.40425532 3.63829787 -7.8125 1.125 C-5.19985125 -0.49664405 -3.00479298 -0.20031953 0 0 Z " fill="#DA3C53" transform="translate(202,114)"/>
<path d="M0 0 C2.97 0 5.94 0 9 0 C8.67 0.99 8.34 1.98 8 3 C5.36 3.33 2.72 3.66 0 4 C0 2.68 0 1.36 0 0 Z " fill="#3698D0" transform="translate(88,158)"/>
<path d="M0 0 C3.3 0 6.6 0 10 0 C10 0.33 10 0.66 10 1 C7.69 1.33 5.38 1.66 3 2 C2.67 3.98 2.34 5.96 2 8 C1.34 7.67 0.68 7.34 0 7 C0 4.69 0 2.38 0 0 Z " fill="#2D9ADA" transform="translate(96,150)"/>
<path d="M0 0 C0 1.65 0 3.3 0 5 C-1.65 5 -3.3 5 -5 5 C-5.33 4.01 -5.66 3.02 -6 2 C-1.125 0 -1.125 0 0 0 Z " fill="#ACACAD" transform="translate(104,182)"/>
<path d="M0 0 C1.67542976 0.28604898 3.34385343 0.61781233 5 1 C4.67 1.99 4.34 2.98 4 4 C1.9375 4.6875 1.9375 4.6875 0 5 C-0.5625 3.0625 -0.5625 3.0625 -1 1 C-0.67 0.67 -0.34 0.34 0 0 Z " fill="#A1A2A2" transform="translate(112,182)"/>
<path d="M0 0 C1.23556641 0.01740234 1.23556641 0.01740234 2.49609375 0.03515625 C3.32238281 0.04417969 4.14867187 0.05320312 5 0.0625 C5.63808594 0.07410156 6.27617187 0.08570312 6.93359375 0.09765625 C6.93359375 0.42765625 6.93359375 0.75765625 6.93359375 1.09765625 C4.62359375 1.42765625 2.31359375 1.75765625 -0.06640625 2.09765625 C-0.72640625 4.07765625 -1.38640625 6.05765625 -2.06640625 8.09765625 C-2.39640625 8.09765625 -2.72640625 8.09765625 -3.06640625 8.09765625 C-3.10882348 5.7647085 -3.10733562 3.43063058 -3.06640625 1.09765625 C-2.06640625 0.09765625 -2.06640625 0.09765625 0 0 Z " fill="#D34653" transform="translate(205.06640625,105.90234375)"/>
<path d="M0 0 C0.33 0 0.66 0 1 0 C1 1.98 1 3.96 1 6 C-0.65 6 -2.3 6 -4 6 C-4 4.68 -4 3.36 -4 2 C-3.34 2 -2.68 2 -2 2 C-2 2.66 -2 3.32 -2 4 C-1.34 4 -0.68 4 0 4 C0 2.68 0 1.36 0 0 Z " fill="#A7A7A7" transform="translate(85,181)"/>
<path d="M0 0 C1.98 0.66 3.96 1.32 6 2 C3.4345406 4.5654594 1.52313332 4.54046087 -2 5 C-1.125 1.125 -1.125 1.125 0 0 Z " fill="#1AA8E7" transform="translate(143,112)"/>
<path d="M0 0 C0 0.99 0 1.98 0 3 C-2.64 3 -5.28 3 -8 3 C-7.67 2.34 -7.34 1.68 -7 1 C-4.61370553 0.38812962 -2.46459429 0 0 0 Z " fill="#09A9ED" transform="translate(72,173)"/>
<path d="M0 0 C1.62463842 -0.05395478 3.24978541 -0.09277195 4.875 -0.125 C5.77992188 -0.14820313 6.68484375 -0.17140625 7.6171875 -0.1953125 C10 0 10 0 12 2 C8.87819599 2.96661363 6.47916205 2.98988909 3.25 2.5625 C2.05117187 2.40974609 2.05117187 2.40974609 0.828125 2.25390625 C0.22484375 2.17011719 -0.3784375 2.08632813 -1 2 C-0.67 1.34 -0.34 0.68 0 0 Z " fill="#00BCDD" transform="translate(138,52)"/>
</svg>
