<?xml version="1.0" encoding="UTF-8"?>
<svg version="1.1" xmlns="http://www.w3.org/2000/svg" width="225" height="225">
<path d="M0 0 C74.25 0 148.5 0 225 0 C225 74.25 225 148.5 225 225 C150.75 225 76.5 225 0 225 C0 150.75 0 76.5 0 0 Z " fill="#FEFEFE" transform="translate(0,0)"/>
<path d="M0 0 C3.58734948 1.71524479 7.00592054 3.68149195 10.4375 5.6875 C11.91041504 6.53731445 11.91041504 6.53731445 13.41308594 7.40429688 C15.5120532 8.62014995 17.60783539 9.84151524 19.70068359 11.06787109 C22.53096888 12.72532838 25.36864661 14.36919671 28.20960999 16.008255 C31.06358698 17.65992264 33.90627468 19.33076242 36.75 21 C37.82693115 21.62221436 38.9038623 22.24442871 40.01342773 22.88549805 C41.01446533 23.48015869 42.01550293 24.07481934 43.046875 24.6875 C43.93213867 25.20699219 44.81740234 25.72648437 45.72949219 26.26171875 C48.35117971 28.26886016 49.57701883 30.03307855 51 33 C51.53635899 37.82723092 51.52017901 39.97890786 49.3125 44.3125 C46.15087755 47.98681798 43.89990769 49.68165086 39.0859375 50.48828125 C33.03789128 50.36859592 27.93854548 46.3478762 22.9375 43.3125 C21.79097251 42.62972632 20.64366332 41.94826369 19.49560547 41.26806641 C17.14723654 39.87439098 14.80391291 38.47270628 12.46337891 37.06591797 C9.17958668 35.09830576 5.86567921 33.18641374 2.54296875 31.28515625 C0.57028635 30.14848288 -1.40237117 29.01176633 -3.375 27.875 C-4.74603882 27.09636597 -4.74603882 27.09636597 -6.14477539 26.30200195 C-15.76906941 20.68638068 -15.76906941 20.68638068 -17.75 14.75390625 C-18.21704223 10.65998917 -18.23752543 8.50355391 -16.4375 4.6875 C-10.96265021 -1.34887285 -7.68181888 -2.81596361 0 0 Z " fill="#4385F3" transform="translate(52,101)"/>
<path d="M0 0 C9.36141461 3.56156075 18.02248334 9.43070921 26.59521484 14.57324219 C29.18119617 16.1075036 31.78608204 17.60584736 34.39453125 19.1015625 C36.20064607 20.15082613 38.00663784 21.20030158 39.8125 22.25 C40.66650391 22.73291504 41.52050781 23.21583008 42.40039062 23.71337891 C47.2924598 26.5847681 50.40702949 28.89770318 53 34 C53.64987517 39.19900136 52.88402967 42.62423085 50 47 C46.5761928 50.02100635 43.25310924 50.5551903 38.72949219 50.48681641 C32.79412836 49.42821932 27.77525548 45.83784322 22.6875 42.75 C21.45088875 42.01762033 20.2133291 41.28683978 18.97485352 40.55761719 C16.48897621 39.08957702 14.01031684 37.61037497 11.53710938 36.12109375 C8.31859912 34.18500984 5.07735242 32.29041738 1.828125 30.40625 C0.03066337 29.35516922 -1.76625171 28.30315297 -3.5625 27.25 C-4.79190308 26.53602051 -4.79190308 26.53602051 -6.04614258 25.80761719 C-11.0022338 22.85069773 -14.11699688 20.64900936 -16 15 C-16.46995626 11.50889633 -16.67927049 9.05757191 -14.73046875 6.0234375 C-10.33087277 0.82099554 -7.02166761 -1.13470149 0 0 Z " fill="#109D57" transform="translate(138,75)"/>
<path d="M0 0 C3.15689734 1.60714774 5.19415756 2.97438234 7.375 5.75 C8.61898518 10.22834666 8.60912858 14.29443997 7.0625 18.625 C5.09029806 20.89602041 3.44555437 22.13073254 0.9453125 23.75 C-2.27794004 25.85157484 -5.42419173 28.02029264 -8.54296875 30.2734375 C-20.23524442 38.29686499 -20.23524442 38.29686499 -25.10546875 37.77392578 C-29.70170261 36.11226339 -33.26035229 33.06868189 -37 30 C-41.13909589 27.59538239 -45.19968455 25.60003943 -50 25 C-47.39142177 22.03005045 -44.35898223 20.3485505 -40.93359375 18.41796875 C-40.34006607 18.08130692 -39.74653839 17.74464508 -39.13502502 17.39778137 C-37.23842207 16.32306196 -35.33816767 15.25501151 -33.4375 14.1875 C-31.56830495 13.13270362 -29.69992015 12.07649539 -27.8321228 11.01922607 C-26.61242755 10.32916761 -25.39191163 9.6405576 -24.17056274 8.95343018 C-19.74662421 6.45565929 -15.42146047 3.8256426 -11.14379883 1.08569336 C-7.46045916 -0.77967636 -3.98568705 -0.89925635 0 0 Z " fill="#E94335" transform="translate(95,75)"/>
<path d="M0 0 C2.01708984 1.015625 2.01708984 1.015625 3.9609375 2.25 C4.68023437 2.6934375 5.39953125 3.136875 6.140625 3.59375 C7.6246166 4.52773072 9.10641266 5.46520946 10.5859375 6.40625 C15.16379247 9.21836091 18.61752879 10.6591575 24 11 C21.39142177 13.96994955 18.35898223 15.6514495 14.93359375 17.58203125 C14.34006607 17.91869308 13.74653839 18.25535492 13.13502502 18.60221863 C11.23842207 19.67693804 9.33816767 20.74498849 7.4375 21.8125 C5.56837019 22.86725956 3.70005092 23.92342944 1.8323822 24.98077393 C0.61198964 25.67112936 -0.6093914 26.3597404 -1.83177185 27.04656982 C-5.46488089 29.09575376 -9.01077234 31.24912416 -12.5390625 33.47265625 C-17.77944062 36.63798893 -21.98633529 37.13483673 -28 36 C-31.25204941 34.20805441 -32.50298243 32.87569763 -34.3125 29.6875 C-35.21852825 26.14575319 -35.50375379 23.65221494 -35 20 C-30.2293611 13.17544967 -24.0802545 9.58893703 -16.9375 5.5 C-15.32391602 4.53320312 -15.32391602 4.53320312 -13.67773438 3.546875 C-12.63810547 2.94359375 -11.59847656 2.3403125 -10.52734375 1.71875 C-9.58624756 1.17154297 -8.64515137 0.62433594 -7.67553711 0.06054688 C-4.52259384 -1.18923737 -3.18046619 -1.07319318 0 0 Z " fill="#F9BB06" transform="translate(157,114)"/>
</svg>
