<?xml version="1.0" encoding="UTF-8"?>
<svg version="1.1" xmlns="http://www.w3.org/2000/svg" width="360" height="360">
<path d="M0 0 C118.8 0 237.6 0 360 0 C360 118.8 360 237.6 360 360 C241.2 360 122.4 360 0 360 C0 241.2 0 122.4 0 0 Z " fill="#FEFEFE" transform="translate(0,0)"/>
<path d="M0 0 C0.74511841 -0.00139984 1.49023682 -0.00279968 2.25793457 -0.00424194 C15.58323689 0.0162503 27.94307681 1.59325422 40.75 5.4375 C41.43384766 5.63504883 42.11769531 5.83259766 42.82226562 6.03613281 C51.12696782 8.49191554 58.58114754 12.25569026 66.109375 16.4453125 C70.48961801 18.87852113 75.01291051 20.99984102 79.5546875 23.11328125 C81.75 24.4375 81.75 24.4375 82.75 27.4375 C84.40438613 28.13408363 86.07254318 28.79846883 87.75 29.4375 C89.5625 30.9375 89.5625 30.9375 90.75 32.4375 C90.75 33.0975 90.75 33.7575 90.75 34.4375 C91.554375 34.7778125 91.554375 34.7778125 92.375 35.125 C99.57257113 39.1026051 106.3381117 45.92800075 109.75 53.4375 C110.41 53.4375 111.07 53.4375 111.75 53.4375 C113.66015625 55.66796875 113.66015625 55.66796875 115.8125 58.625 C116.52535156 59.58792969 117.23820313 60.55085938 117.97265625 61.54296875 C119.67459077 64.31469068 120.37022575 66.24155366 120.75 69.4375 C121.41 69.4375 122.07 69.4375 122.75 69.4375 C124.47216258 72.74466176 126.12182127 76.08311083 127.75 79.4375 C128.48863281 80.94376953 128.48863281 80.94376953 129.2421875 82.48046875 C133.98372313 92.76198514 136.47267575 103.385993 138.75 114.4375 C139.03363403 115.74412598 139.03363403 115.74412598 139.32299805 117.07714844 C140.76588212 124.18552163 141.09814883 131.06949557 141.0625 138.3125 C141.05831055 139.48490234 141.05412109 140.65730469 141.04980469 141.86523438 C140.87745278 155.36735614 140.09176347 169.51819744 134.71484375 182.0859375 C133.64301283 184.55812363 133.64301283 184.55812363 132.85546875 187.75390625 C131.64925713 191.7731909 130.03643097 195.28040881 128.125 199 C127.77163574 199.69254883 127.41827148 200.38509766 127.05419922 201.09863281 C125.96380287 203.21753161 124.85950145 205.32855088 123.75 207.4375 C123.25790039 208.38181885 123.25790039 208.38181885 122.75585938 209.34521484 C118.10989 218.17586844 112.7760988 226.30692389 105.75 233.4375 C105.09 233.4375 104.43 233.4375 103.75 233.4375 C103.36328125 234.30568359 103.36328125 234.30568359 102.96875 235.19140625 C95.77775776 248.44403618 76.88106734 259.18667786 63.75 265.4375 C63.02167969 265.788125 62.29335937 266.13875 61.54296875 266.5 C59.29908273 267.5350177 57.03169951 268.48897025 54.75 269.4375 C53.89019531 269.82679688 53.03039062 270.21609375 52.14453125 270.6171875 C35.46385227 277.71253576 18.09935856 279.91068031 0.125 279.9375 C-0.58707611 279.94190094 -1.29915222 279.94630188 -2.0328064 279.95083618 C-11.7521796 279.97594649 -20.79911257 278.84753735 -30.25 276.4375 C-31.01570313 276.25396973 -31.78140625 276.07043945 -32.5703125 275.88134766 C-43.92116268 273.12642552 -54.66617682 269.35048459 -65.25 264.4375 C-65.25 263.7775 -65.25 263.1175 -65.25 262.4375 C-66.11625 262.19 -66.9825 261.9425 -67.875 261.6875 C-71.43928941 260.36739281 -74.13136802 258.58589092 -77.25 256.4375 C-78.24 256.1075 -79.23 255.7775 -80.25 255.4375 C-80.25 254.7775 -80.25 254.1175 -80.25 253.4375 C-80.84240479 253.16655518 -81.43480957 252.89561035 -82.04516602 252.61645508 C-84.21917837 251.45398075 -85.73911529 250.25717792 -87.52734375 248.57421875 C-88.12353516 248.01669922 -88.71972656 247.45917969 -89.33398438 246.88476562 C-89.94564453 246.30404297 -90.55730469 245.72332031 -91.1875 245.125 C-91.79529297 244.55587891 -92.40308594 243.98675781 -93.02929688 243.40039062 C-110.37562178 227.1019559 -110.37562178 227.1019559 -112.25 220.4375 C-112.91 220.4375 -113.57 220.4375 -114.25 220.4375 C-115.87707658 218.09092717 -117.35967341 215.76371454 -118.8125 213.3125 C-119.22435547 212.64734375 -119.63621094 211.9821875 -120.06054688 211.296875 C-122.42818616 207.34435115 -123.83442489 204.11818803 -124.25 199.4375 C-124.91 199.4375 -125.57 199.4375 -126.25 199.4375 C-128.98070119 193.17213484 -130.95928152 186.99301935 -132.52734375 180.34375 C-133.53542112 176.28964425 -134.86245041 172.374463 -136.25 168.4375 C-142.68793 149.12370999 -140.52306273 118.25893342 -132.99291992 99.31347656 C-131.90261284 96.5602989 -131.00592118 93.74392256 -130.0625 90.9375 C-125.40346756 77.93393184 -119.13387469 65.10866309 -110.25 54.4375 C-108.765 53.9425 -108.765 53.9425 -107.25 53.4375 C-106.89516418 52.10972727 -106.56531701 50.77520852 -106.25 49.4375 C-102.85962134 44.77117238 -98.82357546 40.92786022 -94.25 37.4375 C-93.363125 36.53 -92.47625 35.6225 -91.5625 34.6875 C-89.25 32.4375 -89.25 32.4375 -87.25 32.4375 C-87.25 31.7775 -87.25 31.1175 -87.25 30.4375 C-86.280625 30.169375 -85.31125 29.90125 -84.3125 29.625 C-83.301875 29.233125 -82.29125 28.84125 -81.25 28.4375 C-80.755 26.9525 -80.755 26.9525 -80.25 25.4375 C-71.3762204 19.09163999 -61.94911971 13.73016851 -51.25 11.4375 C-51.25 10.7775 -51.25 10.1175 -51.25 9.4375 C-47.92040185 8.42481116 -44.58582934 7.42945929 -41.25 6.4375 C-40.12980469 6.10105469 -39.00960937 5.76460937 -37.85546875 5.41796875 C-36.68628906 5.07378906 -35.51710938 4.72960938 -34.3125 4.375 C-33.23097656 4.05402344 -32.14945312 3.73304687 -31.03515625 3.40234375 C-20.66177543 0.75814864 -10.66016904 -0.00192038 0 0 Z " fill="#9AE0FB" transform="translate(179.25,42.5625)"/>
<path d="M0 0 C2.65019226 1.64141846 2.65019226 1.64141846 5 4 C5.63923645 6.8727417 5.63923645 6.8727417 5.65942383 10.23730469 C5.67906693 11.49830994 5.69871002 12.75931519 5.71894836 14.05853271 C5.71550517 15.42964824 5.71152011 16.8007625 5.70703125 18.171875 C5.72014959 19.57865538 5.73545425 20.98541693 5.75285339 22.39215088 C5.792702 26.08788997 5.80289359 29.78313636 5.80688477 33.47906494 C5.8162167 37.25312241 5.85363044 41.02689042 5.88867188 44.80078125 C5.95324593 52.20052328 5.98648723 59.59996987 6 67 C7.32 67 8.64 67 10 67 C10.01458252 66.31897217 10.02916504 65.63794434 10.04418945 64.9362793 C10.11862696 61.85277785 10.21530083 58.77036433 10.3125 55.6875 C10.33505859 54.61564453 10.35761719 53.54378906 10.38085938 52.43945312 C10.41630859 51.41142578 10.45175781 50.38339844 10.48828125 49.32421875 C10.51446533 48.37635498 10.54064941 47.42849121 10.56762695 46.4519043 C11.07001908 43.6029353 11.68547195 42.68899847 14 41 C16.875 40.4375 16.875 40.4375 20 41 C23.63741189 43.8621387 24.82218867 45.57371461 25.40039062 50.21166992 C25.49247906 54.10726663 25.43643727 57.98196662 25.3125 61.875 C25.28739222 63.24475108 25.26458339 64.61454635 25.24414062 65.984375 C25.1853436 69.32404622 25.10319834 72.66145431 25 76 C26.98 75.505 26.98 75.505 29 75 C29.01458252 74.40985107 29.02916504 73.81970215 29.04418945 73.21166992 C29.11868844 70.53628771 29.21533995 67.86215108 29.3125 65.1875 C29.33505859 64.25873047 29.35761719 63.32996094 29.38085938 62.37304688 C29.41630859 61.48037109 29.45175781 60.58769531 29.48828125 59.66796875 C29.51446533 58.84578857 29.54064941 58.0236084 29.56762695 57.17651367 C30.09525992 54.52047305 30.84919039 53.60905358 33 52 C35.9375 51.5625 35.9375 51.5625 39 52 C41.73928975 54.11316638 42.86522373 55.32129662 43.54589844 58.74902344 C43.57731934 60.28864746 43.57731934 60.28864746 43.609375 61.859375 C43.64160156 62.97441406 43.67382812 64.08945313 43.70703125 65.23828125 C43.72121094 66.39714844 43.73539062 67.55601562 43.75 68.75 C43.77964844 69.92433594 43.80929688 71.09867187 43.83984375 72.30859375 C43.91050727 75.20579822 43.96322266 78.10219955 44 81 C44.99 81 45.98 81 47 81 C47.07347656 79.30230469 47.07347656 79.30230469 47.1484375 77.5703125 C47.22346514 76.08851661 47.29901297 74.606747 47.375 73.125 C47.4059375 72.37863281 47.436875 71.63226563 47.46875 70.86328125 C47.7734375 65.2265625 47.7734375 65.2265625 50 63 C53.2585779 62.64580675 55.28108368 62.59444226 58.16494751 64.22129822 C60 66 60 66 60.49447632 68.19166565 C60.49162628 69.0430864 60.48877625 69.89450714 60.48583984 70.77172852 C60.49506973 72.22452965 60.49506973 72.22452965 60.50448608 73.7066803 C60.49011505 74.75351486 60.47574402 75.80034943 60.4609375 76.87890625 C60.46002106 77.96074692 60.45910461 79.04258759 60.4581604 80.1572113 C60.4521123 82.45128756 60.43633037 84.74535548 60.41162109 87.03930664 C60.37539443 90.52455298 60.37059989 94.00872671 60.37109375 97.49414062 C60.36125135 99.72657156 60.34958949 101.95899536 60.3359375 104.19140625 C60.33371185 105.2240712 60.33148621 106.25673615 60.32919312 107.32069397 C60.2120464 116.41537513 59.73338274 124.72640684 54 132.125 C53.29875 133.05570313 52.5975 133.98640625 51.875 134.9453125 C50.946875 135.96238281 50.946875 135.96238281 50 137 C49.34 137 48.68 137 48 137 C48 137.66 48 138.32 48 139 C37.36607909 147.12250554 26.1470967 149.18418066 13 148 C2.70152674 146.08823922 -4.55385665 141.87991343 -11.5625 134.1875 C-13 132 -13 132 -13 130 C-13.66 130 -14.32 130 -15 130 C-15.27880005 129.14003418 -15.27880005 129.14003418 -15.56323242 128.26269531 C-20.18517276 114.05739631 -20.18517276 114.05739631 -25.6640625 100.16796875 C-27.47696613 95.86894874 -29.19824237 91.54125928 -30.875 87.1875 C-31.35936523 85.98552979 -31.35936523 85.98552979 -31.85351562 84.75927734 C-33.73791285 79.79461543 -34.42572049 76.30232239 -33 71 C-31 69 -31 69 -27.5625 68.75 C-24 69 -24 69 -21 71 C-19.6484375 73.42578125 -19.6484375 73.42578125 -18.375 76.3125 C-17.94960937 77.25738281 -17.52421875 78.20226562 -17.0859375 79.17578125 C-16.07802369 81.79708227 -15.45326828 84.23506352 -15 87 C-13.02 86.505 -13.02 86.505 -11 86 C-10.99635437 84.9815802 -10.99270874 83.9631604 -10.98895264 82.91387939 C-10.95202434 73.32000797 -10.89427556 63.72645816 -10.81609726 54.13283157 C-10.77657431 49.20051993 -10.74440952 44.26838811 -10.72900391 39.3359375 C-10.71386898 34.57653152 -10.67948001 29.81761975 -10.63169098 25.05843353 C-10.61684445 23.24199466 -10.60895711 21.42548525 -10.60811615 19.6089859 C-10.60575452 17.06593529 -10.57874145 14.52425943 -10.54589844 11.98144531 C-10.5509288 11.22906586 -10.55595917 10.4766864 -10.56114197 9.70150757 C-10.4920421 6.24741471 -10.24805405 4.33076873 -8.1494751 1.53240967 C-5.19239383 -0.5757608 -3.56072888 -0.58134349 0 0 Z " fill="#FBFBFB" transform="translate(168,124)"/>
<path d="M0 0 C3.54018863 1.35581692 4.63759534 2.40835256 6.6105957 5.62939453 C8.19646214 9.47660452 8.38448576 12.72133229 8.29296875 16.8046875 C8.28872391 17.5286673 8.28447906 18.25264709 8.28010559 18.99856567 C8.26342972 21.29110287 8.22580081 23.58273246 8.1875 25.875 C8.17243871 27.43748722 8.15875284 28.99998835 8.14648438 30.5625 C8.11356293 34.37534505 8.06186002 38.18751911 8 42 C8.66 41.67 9.32 41.34 10 41 C14.2726403 40.38292763 18.2937122 40.08875669 22.1796875 42.1640625 C25.12695907 44.54878431 26.74984185 46.23284834 27.9375 49.875 C27.958125 50.57625 27.97875 51.2775 28 52 C28.66 51.67 29.32 51.34 30 51 C36.58371543 50.21888122 36.58371543 50.21888122 40.046875 52.12890625 C43.31224543 54.71286673 44.80322526 56.29161092 45.9375 60.375 C45.958125 61.24125 45.97875 62.1075 46 63 C46.66386719 62.96519531 47.32773438 62.93039063 48.01171875 62.89453125 C57.13137215 62.61495063 57.13137215 62.61495063 61 66 C62.99293788 69.18810166 63.26070544 71.69311706 63.29052734 75.42016602 C63.30328705 76.50552139 63.31604675 77.59087677 63.32919312 78.7091217 C63.33141876 79.8789006 63.33364441 81.0486795 63.3359375 82.25390625 C63.3459227 84.07075172 63.3459227 84.07075172 63.35610962 85.92430115 C63.36623868 88.49061566 63.37092656 91.05695653 63.37060547 93.62329102 C63.37495638 97.52340055 63.41121421 101.42235797 63.44921875 105.32226562 C63.45509148 107.82030865 63.45905782 110.31835703 63.4609375 112.81640625 C63.47530853 113.97201553 63.48967957 115.12762482 63.50448608 116.31825256 C63.44365423 127.26634381 60.70551796 136.94837131 53 145 C47.15853659 150 47.15853659 150 44 150 C44 150.66 44 151.32 44 152 C35.34422668 157.12031661 27.76231352 158.60032393 17.75 158.625 C16.24276367 158.64046875 16.24276367 158.64046875 14.70507812 158.65625 C2.51249733 158.43179749 -5.61309229 153.47449232 -14.625 145.75 C-21.01262442 138.3538033 -24.92974601 129.67495826 -27.6875 120.375 C-29.54494226 114.18352581 -31.75482414 108.16223709 -34.0625 102.125 C-34.4030542 101.23345215 -34.7436084 100.3419043 -35.09448242 99.42333984 C-36.56099759 95.61803814 -38.05227634 91.84566214 -39.72265625 88.125 C-41.44830566 83.90322774 -41.43763007 81.52217734 -41 77 C-39.75 74.25 -39.75 74.25 -38 72 C-37.443125 71.236875 -36.88625 70.47375 -36.3125 69.6875 C-33.56141182 67.67994916 -31.48085037 67.43702788 -28.1015625 67.6015625 C-24.47183905 68.28972568 -22.02739925 69.89935562 -19 72 C-18.505 72.99 -18.505 72.99 -18 74 C-17.99413376 73.19899872 -17.98826752 72.39799744 -17.98222351 71.57272339 C-17.92423028 64.01028587 -17.852116 56.44817533 -17.76428509 48.8860302 C-17.71962835 44.99858564 -17.68036217 41.11124475 -17.65356445 37.22363281 C-17.62748417 33.46923713 -17.58704914 29.71524134 -17.53681374 25.9610939 C-17.52017679 24.53148512 -17.50864277 23.10180722 -17.50238609 21.67211533 C-17.49271133 19.66394765 -17.46292573 17.65590777 -17.43237305 15.64794922 C-17.42126999 14.50655487 -17.41016693 13.36516052 -17.39872742 12.18917847 C-16.83984785 7.71904017 -15.34029692 4.32079156 -12.12109375 1.1484375 C-8.25726844 -0.94357841 -4.26545517 -0.4985597 0 0 Z M-12 9 C-12.40287381 11.78998287 -12.56455224 14.1914415 -12.54589844 16.98144531 C-12.55623611 17.7818222 -12.56657379 18.5821991 -12.57722473 19.40682983 C-12.60667897 22.04746628 -12.60815242 24.68733711 -12.609375 27.328125 C-12.62435492 29.16088322 -12.64108167 30.99362793 -12.65948486 32.82635498 C-12.7031919 37.64649064 -12.72316488 42.4664442 -12.73822021 47.28674316 C-12.75777922 52.2068968 -12.79975058 57.12685342 -12.83984375 62.046875 C-12.91518216 71.69785595 -12.96545164 81.34879288 -13 91 C-14.98 91.495 -14.98 91.495 -17 92 C-17.18175781 91.43152344 -17.36351562 90.86304688 -17.55078125 90.27734375 C-20.07765371 80.96914882 -20.07765371 80.96914882 -26 74 C-30.84707318 73.410255 -30.84707318 73.410255 -35 75.5625 C-37.47297757 81.59038284 -33.83312179 88.91134708 -31.75 94.6875 C-31.43426025 95.57743652 -31.11852051 96.46737305 -30.79321289 97.38427734 C-28.79736399 102.95359308 -26.61316537 108.4052941 -24.265625 113.8359375 C-21.49546554 120.76133616 -19.29387727 127.90553423 -17 135 C-16.34 135 -15.68 135 -15 135 C-14.835 135.680625 -14.67 136.36125 -14.5 137.0625 C-10.32603653 145.2365118 -1.73502845 149.33858651 6.5625 152.25 C20.22355045 155.20228988 33.0210483 152.58412771 44.671875 145.1484375 C45.11015625 144.76945313 45.5484375 144.39046875 46 144 C46 143.34 46 142.68 46 142 C46.59554687 141.7525 47.19109375 141.505 47.8046875 141.25 C50.35851568 139.79586296 51.47446719 138.41962925 53.125 136 C53.62257813 135.29875 54.12015625 134.5975 54.6328125 133.875 C58.29935415 126.1647867 58.31786474 117.57688122 58.3359375 109.19140625 C58.3425943 108.1028685 58.3492511 107.01433075 58.35610962 105.89280701 C58.36616859 103.61125363 58.37092875 101.32967123 58.37060547 99.0480957 C58.37501846 95.54785918 58.41151835 92.04884546 58.44921875 88.54882812 C58.45508026 86.32552513 58.4590541 84.10221618 58.4609375 81.87890625 C58.47530853 80.83207169 58.48967957 79.78523712 58.50448608 78.7066803 C58.4952562 77.25387917 58.4952562 77.25387917 58.48583984 75.77172852 C58.48868988 74.92030777 58.49153992 74.06888702 58.49447632 73.19166565 C58.17513653 70.84512884 58.17513653 70.84512884 56.16494751 69.22129822 C53.28108368 67.59444226 51.2585779 67.64580675 48 68 C45.06552643 70.93447357 45.53841577 74.18259456 45.375 78.125 C45.33632812 78.87910156 45.29765625 79.63320312 45.2578125 80.41015625 C45.16348969 82.27303184 45.08065338 84.13648255 45 86 C44.01 86 43.02 86 42 86 C41.9906543 85.26362305 41.98130859 84.52724609 41.97167969 83.76855469 C41.91795845 80.42835782 41.83431378 77.08955881 41.75 73.75 C41.73582031 72.59113281 41.72164063 71.43226563 41.70703125 70.23828125 C41.67480469 69.12324219 41.64257812 68.00820312 41.609375 66.859375 C41.5779541 65.31975098 41.5779541 65.31975098 41.54589844 63.74902344 C40.86522373 60.32129662 39.73928975 59.11316638 37 57 C33.85027154 56.55003879 31.95311391 56.2869609 29.34838867 58.2355957 C27.62872172 60.48582801 27.57787647 61.85467891 27.48828125 64.66796875 C27.45283203 65.56064453 27.41738281 66.45332031 27.38085938 67.37304688 C27.35830078 68.30181641 27.33574219 69.23058594 27.3125 70.1875 C27.27833984 71.12787109 27.24417969 72.06824219 27.20898438 73.03710938 C27.12651782 75.35795393 27.05736597 77.67842148 27 80 C25.02 80.495 25.02 80.495 23 81 C23.02618408 80.1529248 23.05236816 79.30584961 23.0793457 78.43310547 C23.16492505 75.26861938 23.22742097 72.10472594 23.2746582 68.93945312 C23.2996928 67.57369497 23.33373218 66.20806933 23.37719727 64.84277344 C24.00549509 55.97137136 24.00549509 55.97137136 20.67578125 48.10546875 C18.142604 45.77328079 18.142604 45.77328079 14.875 45.4375 C11.6773615 46.06312492 10.91719516 46.45146995 9 49 C8.4959183 51.50873159 8.4959183 51.50873159 8.48828125 54.32421875 C8.45283203 55.35224609 8.41738281 56.38027344 8.38085938 57.43945312 C8.35830078 58.51130859 8.33574219 59.58316406 8.3125 60.6875 C8.27833984 61.77095703 8.24417969 62.85441406 8.20898438 63.97070312 C8.1264544 66.6470322 8.05732063 69.32303159 8 72 C6.68 72 5.36 72 4 72 C3.99857498 71.21961365 3.99714996 70.43922729 3.99568176 69.63519287 C3.97784666 62.27802819 3.93621951 54.92156407 3.86790943 47.56470871 C3.83362862 43.78247917 3.80852791 40.00065397 3.80444336 36.21826172 C3.8001625 32.56743396 3.77171986 28.91751847 3.72656822 25.2669754 C3.71358601 23.87479213 3.70928819 22.48249971 3.71384621 21.09026337 C3.71874579 19.13919896 3.68981261 17.18813858 3.65942383 15.23730469 C3.65276199 14.1269989 3.64610016 13.01669312 3.63923645 11.8727417 C3.22566421 8.8058395 3.22566421 8.8058395 0.65019226 6.64141846 C-4.5811525 3.40134189 -8.36324977 4.15055987 -12 9 Z " fill="#343738" transform="translate(170,119)"/>
<path d="M0 0 C0.66 0 1.32 0 2 0 C1.67 0.99 1.34 1.98 1 3 C0.8925253 5.08991669 0.84384525 7.18302902 0.82641602 9.27563477 C0.81292618 10.57030167 0.79943634 11.86496857 0.78553772 13.1988678 C0.7779478 14.23585658 0.7779478 14.23585658 0.77020454 15.29379463 C0.75378041 17.45798847 0.73054462 19.62200962 0.70530701 21.78611755 C0.6345523 27.93829752 0.57429174 34.09054576 0.52319336 40.24291992 C0.49145287 44.00714556 0.45019726 47.77116863 0.40299797 51.53523064 C0.38695616 52.97095041 0.37464468 54.40671678 0.36609077 55.84250069 C0.35397563 57.84632752 0.32879744 59.85006265 0.30297852 61.85375977 C0.29267105 62.99498795 0.28236359 64.13621613 0.27174377 65.31202698 C0 68 0 68 -2 70 C-2.99 69.67 -3.98 69.34 -5 69 C-5 47.22 -5 25.44 -5 3 C-4.01 3 -3.02 3 -2 3 C-1.34 2.01 -0.68 1.02 0 0 Z " fill="#2E3235" transform="translate(158,125)"/>
<path d="M0 0 C1.65 0 3.3 0 5 0 C6.125 4.75 6.125 4.75 5 7 C4.01 7 3.02 7 2 7 C1.9504561 13.15640091 1.91421209 19.31268499 1.89013672 25.46923828 C1.880097 27.56235781 1.86646247 29.65546338 1.84912109 31.74853516 C1.82478368 34.76207939 1.81349643 37.7754377 1.8046875 40.7890625 C1.79436493 41.72054108 1.78404236 42.65201965 1.77340698 43.61172485 C1.77256316 48.52992671 2.20792765 52.35372245 4 57 C4 60.1875 4 60.1875 3 63 C-0.0625 64.875 -0.0625 64.875 -3 66 C-2.83734146 65.29651932 -2.67468292 64.59303864 -2.50709534 63.86824036 C-1.97900584 60.88125252 -1.879869 58.14012986 -1.88647461 55.1081543 C-1.88655014 53.94732834 -1.88662567 52.78650238 -1.88670349 51.59049988 C-1.89186478 50.34762711 -1.89702606 49.10475433 -1.90234375 47.82421875 C-1.9037587 46.54392288 -1.90517365 45.26362701 -1.90663147 43.9445343 C-1.91043603 40.5530296 -1.92024857 37.16156823 -1.93133545 33.77008057 C-1.94159403 30.30440863 -1.94613859 26.83872964 -1.95117188 23.37304688 C-1.96219245 16.58201252 -1.9789243 9.79101019 -2 3 C-1.34 3 -0.68 3 0 3 C0 2.01 0 1.02 0 0 Z " fill="#96CEE3" transform="translate(234,184)"/>
<path d="M0 0 C0.89009766 -0.00128906 1.78019531 -0.00257812 2.69726562 -0.00390625 C3.63376953 -0.00003906 4.57027344 0.00382812 5.53515625 0.0078125 C6.46779297 0.00394531 7.40042969 0.00007813 8.36132812 -0.00390625 C9.25271484 -0.00261719 10.14410156 -0.00132813 11.0625 0 C11.88355225 0.00112793 12.70460449 0.00225586 13.55053711 0.00341797 C15.59765625 0.1328125 15.59765625 0.1328125 17.59765625 1.1328125 C17.26765625 2.7828125 16.93765625 4.4328125 16.59765625 6.1328125 C9.66765625 6.1328125 2.73765625 6.1328125 -4.40234375 6.1328125 C-4.73234375 4.4828125 -5.06234375 2.8328125 -5.40234375 1.1328125 C-3.81821016 -0.45132109 -2.1925659 0.00301621 0 0 Z " fill="#323535" transform="translate(121.40234375,126.8671875)"/>
<path d="M0 0 C3.29164829 -0.02895225 6.58326399 -0.0467823 9.875 -0.0625 C10.81214844 -0.07087891 11.74929687 -0.07925781 12.71484375 -0.08789062 C14.05869141 -0.09272461 14.05869141 -0.09272461 15.4296875 -0.09765625 C16.67081299 -0.10551147 16.67081299 -0.10551147 17.93701172 -0.11352539 C20 0 20 0 22 1 C21.67 2.65 21.34 4.3 21 6 C14.07 6 7.14 6 0 6 C-1 2 -1 2 0 0 Z " fill="#2E3030" transform="translate(192,127)"/>
<path d="M0 0 C1.65 0.33 3.3 0.66 5 1 C5 7.6 5 14.2 5 21 C3.35 21.33 1.7 21.66 0 22 C-1.58937556 20.41062444 -1.12981143 18.76100154 -1.1328125 16.5625 C-1.13410156 15.66789062 -1.13539063 14.77328125 -1.13671875 13.8515625 C-1.13091797 12.44003906 -1.13091797 12.44003906 -1.125 11 C-1.12886719 10.05898437 -1.13273438 9.11796875 -1.13671875 8.1484375 C-1.13542969 7.25382812 -1.13414062 6.35921875 -1.1328125 5.4375 C-1.13112061 4.19806641 -1.13112061 4.19806641 -1.12939453 2.93359375 C-1 1 -1 1 0 0 Z " fill="#2E3A3E" transform="translate(162,81)"/>
<path d="M0 0 C2.1328125 -0.32421875 2.1328125 -0.32421875 5 0 C7.20249015 1.67682917 8.97089488 3.22546576 10.875 5.1875 C11.38546875 5.67025391 11.8959375 6.15300781 12.421875 6.65039062 C13.8671875 8.10546875 13.8671875 8.10546875 16 11 C15.8203125 13.86328125 15.8203125 13.86328125 15 16 C10.2016506 15.55042492 8.04023971 13.60770673 4.6875 10.25 C3.36298828 8.95835938 3.36298828 8.95835938 2.01171875 7.640625 C-0.20030553 4.73707468 -0.4788794 3.55009259 0 0 Z " fill="#303539" transform="translate(130,97)"/>
<path d="M0 0 C1.2065625 0.0309375 1.2065625 0.0309375 2.4375 0.0625 C-4.99512998 9.89980439 -17.64107453 20.65637844 -29.5625 24.0625 C-29.5625 23.0725 -29.5625 22.0825 -29.5625 21.0625 C-28.5725 21.0625 -27.5825 21.0625 -26.5625 21.0625 C-25.9025 19.4125 -25.2425 17.7625 -24.5625 16.0625 C-22.5825 16.3925 -20.6025 16.7225 -18.5625 17.0625 C-18.2325 14.4225 -17.9025 11.7825 -17.5625 9.0625 C-16.94761719 9.02511719 -16.33273437 8.98773438 -15.69921875 8.94921875 C-14.48685547 8.85060547 -14.48685547 8.85060547 -13.25 8.75 C-12.44949219 8.69199219 -11.64898437 8.63398438 -10.82421875 8.57421875 C-8.15848857 7.97109154 -7.2539648 7.16777881 -5.5625 5.0625 C-4.86501417 3.74502676 -4.19290043 2.41335807 -3.5625 1.0625 C-2.5625 0.0625 -2.5625 0.0625 0 0 Z M-13.5625 9.0625 C-13.2325 10.0525 -12.9025 11.0425 -12.5625 12.0625 C-12.2325 11.0725 -11.9025 10.0825 -11.5625 9.0625 C-12.2225 9.0625 -12.8825 9.0625 -13.5625 9.0625 Z " fill="#97D6EC" transform="translate(277.5625,279.9375)"/>
<path d="M0 0 C0.4375 2.625 0.4375 2.625 0 6 C-1.58826431 7.78039306 -3.27901597 9.16201844 -5.17578125 10.60546875 C-7.04591249 11.95196078 -7.04591249 11.95196078 -8.5625 13.6953125 C-9.036875 14.12585938 -9.51125 14.55640625 -10 15 C-12.6875 14.6875 -12.6875 14.6875 -15 14 C-14.51612749 9.45966295 -12.9493049 7.38150804 -9.75 4.1875 C-8.98171875 3.39730469 -8.2134375 2.60710937 -7.421875 1.79296875 C-4.65501442 -0.25540062 -3.35964787 -0.39910711 0 0 Z " fill="#323A3D" transform="translate(199,97)"/>
<path d="M0 0 C0.99 0.66 1.98 1.32 3 2 C3.66 1.67 4.32 1.34 5 1 C6.86231042 4.17186003 7.24516558 6.47655373 7.22705078 10.13574219 C7.22682419 11.66687653 7.22682419 11.66687653 7.22659302 13.22894287 C7.21627045 14.32386047 7.20594788 15.41877808 7.1953125 16.546875 C7.1924826 17.6732135 7.18965271 18.799552 7.18673706 19.96002197 C7.17554374 23.55678946 7.15044037 27.15330779 7.125 30.75 C7.11496912 33.18879849 7.10584346 35.62760088 7.09765625 38.06640625 C7.07560716 44.04435582 7.04213784 50.02216011 7 56 C6.67 56 6.34 56 6 56 C5.13776342 44.52618434 4.71652944 33.07773406 4.44775391 21.5769043 C4.39601812 19.41183267 4.33890762 17.24695205 4.28125 15.08203125 C4.25095703 13.81593018 4.22066406 12.5498291 4.18945312 11.24536133 C4.03751584 8.64265207 3.76639193 6.4740962 3 4 C1.68 4.33 0.36 4.66 -1 5 C-1 2 -1 2 0 0 Z " fill="#26383D" transform="translate(226,184)"/>
<path d="M0 0 C0.33 0 0.66 0 1 0 C1.33 1.65 1.66 3.3 2 5 C2.99 5 3.98 5 5 5 C3.85841594 12.86424577 0.85998837 17.7755764 -4 24 C-4.99 23.67 -5.98 23.34 -7 23 C-7.86328125 21.1953125 -7.86328125 21.1953125 -8 19 C-6.85546875 16.9921875 -6.85546875 16.9921875 -5.1875 14.875 C-1.77423492 10.11543547 -0.69666205 5.75346758 0 0 Z " fill="#3B4043" transform="translate(227,240)"/>
<path d="M0 0 C2.60952317 0.47445876 5.21898087 0.94924068 7.828125 1.42578125 C9.92072007 1.80461312 12.01446598 2.17714921 14.109375 2.54296875 C15.08390625 2.71441406 16.0584375 2.88585937 17.0625 3.0625 C17.96097656 3.21847656 18.85945313 3.37445313 19.78515625 3.53515625 C22 4 22 4 24 5 C26.09821215 4.60061233 26.09821215 4.60061233 28 4 C28.33 4.99 28.66 5.98 29 7 C23.32814545 9.83592728 13.00018085 8.64503888 6.875 7.328125 C4.4375 6.5 4.4375 6.5 1 5 C1 4.34 1 3.68 1 3 C0.34 2.67 -0.32 2.34 -1 2 C-0.67 1.34 -0.34 0.68 0 0 Z " fill="#333132" transform="translate(170,269)"/>
<path d="M0 0 C0.66 0 1.32 0 2 0 C8.62506061 10.62112892 3.11026479 32.21229509 2 44 C1.67 44 1.34 44 1 44 C0.67 29.48 0.34 14.96 0 0 Z " fill="#2E2D2C" transform="translate(227,188)"/>
<path d="M0 0 C1.55057923 4.65173769 1.87964263 9.83798678 0.02734375 14.390625 C-3.83739424 24.2067656 -3.00135014 39.84594475 -1.5 50.3125 C-0.8345386 55.2202778 -0.9182007 60.05568682 -1 65 C-9.99440074 51.50839889 -4.44854476 20.88833723 -1.75390625 5.5859375 C-1 2 -1 2 0 0 Z " fill="#ADE1F4" transform="translate(45,146)"/>
<path d="M0 0 C3.77329784 0.26952127 7.57631198 2.48567645 11 4 C10.01 4.495 10.01 4.495 9 5 C9.33 6.65 9.66 8.3 10 10 C14.455 10.99 14.455 10.99 19 12 C13.39626801 13.400933 10.03806655 11.54911129 5 9 C2.19891944 7.14912522 -0.42753862 5.15569389 -3 3 C-1.609375 1.4921875 -1.609375 1.4921875 0 0 Z " fill="#343739" transform="translate(161,264)"/>
<path d="M0 0 C3.79598549 1.49128001 5.71720399 3.65733441 8 7 C8 7.99 8 8.98 8 10 C8.66 10.33 9.32 10.66 10 11 C7.64046906 13.35953094 6.22104383 13.49141413 3 14 C2.28385417 12.27473958 1.56770833 10.54947917 0.8515625 8.82421875 C-0.06806692 6.73466068 -0.06806692 6.73466068 -2 4 C-1.34 2.68 -0.68 1.36 0 0 Z " fill="#353C3E" transform="translate(190,161)"/>
<path d="M0 0 C6.86892178 -0.7230444 6.86892178 -0.7230444 10.08984375 1.3359375 C11.80497879 2.83010422 13.43160073 4.35318077 15 6 C14.67 6.66 14.34 7.32 14 8 C11.5625 8.75 11.5625 8.75 9 9 C8.34 8.34 7.68 7.68 7 7 C3.41656024 6.83322718 3.41656024 6.83322718 0 7 C-0.33 6.01 -0.66 5.02 -1 4 C-0.01 3.34 0.98 2.68 2 2 C1.34 1.34 0.68 0.68 0 0 Z " fill="#3C4244" transform="translate(200,170)"/>
<path d="M0 0 C0.99 0.33 1.98 0.66 3 1 C3.8125 2.9375 3.8125 2.9375 4 5 C2 7 2 7 -1 8 C-1.66 7.67 -2.32 7.34 -3 7 C-3.144375 7.94875 -3.28875 8.8975 -3.4375 9.875 C-5 13 -5 13 -7.13671875 13.84375 C-9.42226427 14.33171576 -11.6798772 14.72311292 -14 15 C-14 14.34 -14 13.68 -14 13 C-12.00715862 11.6559907 -10.00580329 10.32458708 -8 9 C-4.99058408 6.20054333 -2.36521536 3.36109551 0 0 Z " fill="#8ABFD4" transform="translate(228,256)"/>
<path d="M0 0 C0 5.94 0 11.88 0 18 C-1.65 18.33 -3.3 18.66 -5 19 C-4.505 17.515 -4.505 17.515 -4 16 C-4.00857736 12.67198272 -4.13048605 9.35671722 -4.2578125 6.03125 C-4 3 -4 3 -2.5546875 1.09375 C-1 0 -1 0 0 0 Z " fill="#3B3B3B" transform="translate(198,181)"/>
<path d="M0 0 C1.0592918 3.17787541 1.11458939 5.42588943 1.09765625 8.76171875 C1.09443359 9.87998047 1.09121094 10.99824219 1.08789062 12.15039062 C1.07951172 13.31763672 1.07113281 14.48488281 1.0625 15.6875 C1.05798828 16.86634766 1.05347656 18.04519531 1.04882812 19.25976562 C1.03703273 22.17322789 1.0205727 25.08658863 1 28 C0.67 28 0.34 28 0 28 C-0.33 21.73 -0.66 15.46 -1 9 C-1.66 9.66 -2.32 10.32 -3 11 C-3.99 7.37 -4.98 3.74 -6 0 C-3 -1 -3 -1 0 0 Z " fill="#293033" transform="translate(177,125)"/>
<path d="M0 0 C1 3 1 3 0.29077148 4.69824219 C-0.09522217 5.30829102 -0.48121582 5.91833984 -0.87890625 6.546875 C-1.30623047 7.2275 -1.73355469 7.908125 -2.17382812 8.609375 C-2.63208984 9.31578125 -3.09035156 10.0221875 -3.5625 10.75 C-3.99369141 11.4409375 -4.42488281 12.131875 -4.86914062 12.84375 C-7.89179994 17.59428104 -11.25408592 21.79753545 -15 26 C-15.33 25.34 -15.66 24.68 -16 24 C-15.505 22.515 -15.505 22.515 -15 21 C-14.34 20.67 -13.68 20.34 -13 20 C-13.33 18.68 -13.66 17.36 -14 16 C-13.67 16.66 -13.34 17.32 -13 18 C-7.79300147 13.55873655 -5.07881795 8.04125446 -2 2 C-1.34 2 -0.68 2 0 2 C0 1.34 0 0.68 0 0 Z " fill="#9DD6E9" transform="translate(303,246)"/>
<path d="M0 0 C3.29164829 -0.02895225 6.58326399 -0.0467823 9.875 -0.0625 C10.81214844 -0.07087891 11.74929687 -0.07925781 12.71484375 -0.08789062 C14.05869141 -0.09272461 14.05869141 -0.09272461 15.4296875 -0.09765625 C16.67081299 -0.10551147 16.67081299 -0.10551147 17.93701172 -0.11352539 C20 0 20 0 22 1 C21.67 2.32 21.34 3.64 21 5 C20.67 4.67 20.34 4.34 20 4 C17.98035801 3.92755947 15.95832876 3.91622812 13.9375 3.9375 C12.83277344 3.94652344 11.72804687 3.95554688 10.58984375 3.96484375 C9.73519531 3.97644531 8.88054687 3.98804688 8 4 C8 3.67 8 3.34 8 3 C11.465 2.505 11.465 2.505 15 2 C8.07 1.505 8.07 1.505 1 1 C1.33 2.65 1.66 4.3 2 6 C1.34 6 0.68 6 0 6 C-1.125 2.25 -1.125 2.25 0 0 Z " fill="#3B4648" transform="translate(192,127)"/>
<path d="M0 0 C4.02992782 0.55312735 8.02022924 1.1558062 12 2 C12 2.99 12 3.98 12 5 C9.47524538 6.26237731 7.68799534 6.09856404 4.875 6.0625 C3.96492187 6.05347656 3.05484375 6.04445312 2.1171875 6.03515625 C1.41851562 6.02355469 0.71984375 6.01195312 0 6 C0 4.02 0 2.04 0 0 Z " fill="#94D6F1" transform="translate(180,154)"/>
<path d="M0 0 C0.33 1.32 0.66 2.64 1 4 C-0.98 4.66 -2.96 5.32 -5 6 C-5 6.66 -5 7.32 -5 8 C-5.66 7.67 -6.32 7.34 -7 7 C-7.66 7 -8.32 7 -9 7 C-10.66965451 6.68197057 -12.33678518 6.35015049 -14 6 C-11.74402173 3.74402173 -9.95396133 3.03425808 -7 1.875 C-6.113125 1.52179688 -5.22625 1.16859375 -4.3125 0.8046875 C-2 0 -2 0 0 0 Z " fill="#8DC9DF" transform="translate(214,271)"/>
<path d="M0 0 C0.99 0 1.98 0 3 0 C3.70365602 1.5552912 4.38729378 3.11964827 5.0625 4.6875 C5.44535156 5.55761719 5.82820312 6.42773438 6.22265625 7.32421875 C7.0935848 10.32213864 6.85006226 12.03280153 6 15 C5.67 14.34 5.34 13.68 5 13 C4.34 13 3.68 13 3 13 C2.49689942 11.2092015 1.99761372 9.41733089 1.5 7.625 C1.2215625 6.62726563 0.943125 5.62953125 0.65625 4.6015625 C0 2 0 2 0 0 Z " fill="#3F403F" transform="translate(132,202)"/>
<path d="M0 0 C1.76923828 0.01353516 1.76923828 0.01353516 3.57421875 0.02734375 C4.47785156 0.03894531 5.38148438 0.05054688 6.3125 0.0625 C5.3125 3.0625 5.3125 3.0625 3.3125 4.0625 C1.10111145 3.97438555 -1.10792185 3.8195216 -3.3125 3.625 C-4.50101563 3.52316406 -5.68953125 3.42132813 -6.9140625 3.31640625 C-7.82929688 3.23261719 -8.74453125 3.14882813 -9.6875 3.0625 C-9.6875 2.4025 -9.6875 1.7425 -9.6875 1.0625 C-6.26517028 -0.07827657 -3.60076783 -0.03565117 0 0 Z " fill="#A6E5FC" transform="translate(169.6875,42.9375)"/>
<path d="M0 0 C1.65 0 3.3 0 5 0 C3.68 0.33 2.36 0.66 1 1 C1.66 1.33 2.32 1.66 3 2 C3.33 2.99 3.66 3.98 4 5 C7.00847418 6.22520264 7.00847418 6.22520264 10 7 C10 7.99 10 8.98 10 10 C9.67 10 9.34 10 9 10 C9 10.99 9 11.98 9 13 C7.87411986 12.04270084 6.7493285 11.08412105 5.625 10.125 C4.99851563 9.59132813 4.37203125 9.05765625 3.7265625 8.5078125 C2.44163349 7.38567993 1.20628025 6.20628025 0 5 C-0.125 2.375 -0.125 2.375 0 0 Z " fill="#354145" transform="translate(130,97)"/>
<path d="M0 0 C2.26335337 3.39503005 2.18567637 4.17007563 1.75 8.0625 C1.61851562 9.37927734 1.61851562 9.37927734 1.484375 10.72265625 C1 13 1 13 -1 15 C-1.99 11.04 -2.98 7.08 -4 3 C-2.68 2.67 -1.36 2.34 0 2 C0 1.34 0 0.68 0 0 Z " fill="#3B4446" transform="translate(146,233)"/>
<path d="M0 0 C1.47436523 0.07734375 1.47436523 0.07734375 2.97851562 0.15625 C4.00267578 0.22070312 5.02683594 0.28515625 6.08203125 0.3515625 C7.63567383 0.43664062 7.63567383 0.43664062 9.22070312 0.5234375 C11.77934396 0.66492916 14.33700609 0.81634116 16.89453125 0.9765625 C16.89453125 1.3065625 16.89453125 1.6365625 16.89453125 1.9765625 C12.27453125 2.3065625 7.65453125 2.6365625 2.89453125 2.9765625 C2.89453125 3.3065625 2.89453125 3.6365625 2.89453125 3.9765625 C0.91453125 4.3065625 -1.06546875 4.6365625 -3.10546875 4.9765625 C-3.10546875 4.3165625 -3.10546875 3.6565625 -3.10546875 2.9765625 C-4.75546875 2.6465625 -6.40546875 2.3165625 -8.10546875 1.9765625 C-4.7389507 -0.26778287 -3.88949887 -0.22482652 0 0 Z " fill="#82BCD2" transform="translate(179.10546875,276.0234375)"/>
<path d="M0 0 C3.65316671 1.24976756 4.78065836 1.67098753 7 5 C6.34 5 5.68 5 5 5 C4.67 5.66 4.34 6.32 4 7 C-0.455 6.01 -0.455 6.01 -5 5 C-3.35 3.35 -1.7 1.7 0 0 Z " fill="#3C4143" transform="translate(169,119)"/>
<path d="M0 0 C0 0.99 0 1.98 0 3 C-0.99 3.495 -0.99 3.495 -2 4 C-2.33 4.99 -2.66 5.98 -3 7 C-2.01 7.33 -1.02 7.66 0 8 C-1.98 8.33 -3.96 8.66 -6 9 C-6.75 6.75 -6.75 6.75 -7 4 C-4.69139139 0.94933862 -3.89789797 0 0 0 Z " fill="#384548" transform="translate(191,103)"/>
<path d="M0 0 C2.97 0 5.94 0 9 0 C9.33 1.65 9.66 3.3 10 5 C6.79937313 6.60031344 4.27728194 5.03173691 1 4 C0.67 2.68 0.34 1.36 0 0 Z " fill="#2F2F30" transform="translate(138,188)"/>
<path d="M0 0 C0.33 0.66 0.66 1.32 1 2 C1.99 2.33 2.98 2.66 4 3 C3.67 4.32 3.34 5.64 3 7 C6.63 7 10.26 7 14 7 C14.33 8.32 14.66 9.64 15 11 C14.44828125 10.68289062 13.8965625 10.36578125 13.328125 10.0390625 C10.71522011 8.87290025 8.59420998 8.59954289 5.75 8.375 C4.85796875 8.30023438 3.9659375 8.22546875 3.046875 8.1484375 C2.03367188 8.07496094 2.03367188 8.07496094 1 8 C0.34 5.69 -0.32 3.38 -1 1 C-0.67 0.67 -0.34 0.34 0 0 Z " fill="#95CCE0" transform="translate(215,174)"/>
<path d="M0 0 C2.97 0 5.94 0 9 0 C9.33 1.32 9.66 2.64 10 4 C6.7 4 3.4 4 0 4 C0 2.68 0 1.36 0 0 Z " fill="#93DBF4" transform="translate(218,177)"/>
<path d="M0 0 C0.99 0.33 1.98 0.66 3 1 C3.8125 2.9375 3.8125 2.9375 4 5 C3.34 5.66 2.68 6.32 2 7 C0.68 7 -0.64 7 -2 7 C-2.66 6.34 -3.32 5.68 -4 5 C-2.68 3.35 -1.36 1.7 0 0 Z " fill="#91CDE5" transform="translate(228,256)"/>
<path d="M0 0 C0.66 0.33 1.32 0.66 2 1 C1.2884375 1.8353125 1.2884375 1.8353125 0.5625 2.6875 C-1.12395996 5.18346074 -1.58953107 7.0446237 -2 10 C-2.66 10 -3.32 10 -4 10 C-3.67 11.32 -3.34 12.64 -3 14 C-3.66 13.67 -4.32 13.34 -5 13 C-5.17563129 8.5214021 -5.22085338 4.97415868 -3 1 C-2.01 0.67 -1.02 0.34 0 0 Z " fill="#31322F" transform="translate(136,192)"/>
<path d="M0 0 C3 1 3 1 4.1875 3.0625 C4.455625 3.701875 4.72375 4.34125 5 5 C4.34 5 3.68 5 3 5 C2.67 5.66 2.34 6.32 2 7 C2 6.34 2 5.68 2 5 C1.34 5 0.68 5 0 5 C0.33 6.65 0.66 8.3 1 10 C0.34 9.34 -0.32 8.68 -1 8 C-1 7.01 -1 6.02 -1 5 C-1.99 4.67 -2.98 4.34 -4 4 C-3.01 3.67 -2.02 3.34 -1 3 C-0.67 2.01 -0.34 1.02 0 0 Z " fill="#505658" transform="translate(148,190)"/>
<path d="M0 0 C0.66 0.33 1.32 0.66 2 1 C-0.05803488 4.60156104 -2.24535883 7.88992126 -5 11 C-5.66 11 -6.32 11 -7 11 C-7.33 11.66 -7.66 12.32 -8 13 C-7.48118887 8.8275894 -6.28848726 6.74583179 -3.4375 3.6875 C-2.79683594 2.99011719 -2.15617187 2.29273437 -1.49609375 1.57421875 C-1.00238281 1.05472656 -0.50867188 0.53523438 0 0 Z " fill="#ABE4F7" transform="translate(80,84)"/>
<path d="M0 0 C0.66 0.33 1.32 0.66 2 1 C1.319375 2.60875 1.319375 2.60875 0.625 4.25 C-1.432661 9.67208302 -2.18985327 15.2813172 -3 21 C-4.83088493 15.09123501 -4.22483381 7.84753729 -1.4375 2.3125 C-0.7259375 1.1678125 -0.7259375 1.1678125 0 0 Z " fill="#E1F9FE" transform="translate(46,139)"/>
<path d="M0 0 C0.99 0.33 1.98 0.66 3 1 C2.34 1 1.68 1 1 1 C1.33 2.65 1.66 4.3 2 6 C6.455 6.99 6.455 6.99 11 8 C6.65492226 9.08626944 5.76243837 8.83865592 1.8125 7.1875 C0.93207031 6.83042969 0.05164063 6.47335937 -0.85546875 6.10546875 C-3 5 -3 5 -4 3 C-3.01 2.67 -2.02 2.34 -1 2 C-0.67 1.34 -0.34 0.68 0 0 Z " fill="#4C5D63" transform="translate(169,268)"/>
<path d="M0 0 C2.01822917 0.06510417 4.03645833 0.13020833 6.0546875 0.1953125 C5.0646875 1.6803125 5.0646875 1.6803125 4.0546875 3.1953125 C3.0646875 3.1953125 2.0746875 3.1953125 1.0546875 3.1953125 C1.0546875 3.8553125 1.0546875 4.5153125 1.0546875 5.1953125 C2.3746875 5.5253125 3.6946875 5.8553125 5.0546875 6.1953125 C2.8046875 6.4453125 2.8046875 6.4453125 0.0546875 6.1953125 C-2.2578125 4.1953125 -2.2578125 4.1953125 -3.9453125 2.1953125 C-1.9453125 0.1953125 -1.9453125 0.1953125 0 0 Z " fill="#464F52" transform="translate(137.9453125,186.8046875)"/>
<path d="M0 0 C6.4 -0.36923077 6.4 -0.36923077 9.4375 1.5 C9.953125 1.995 10.46875 2.49 11 3 C10.67 3.66 10.34 4.32 10 5 C9.01 4.34 8.02 3.68 7 3 C7 3.66 7 4.32 7 5 C4.69 4.67 2.38 4.34 0 4 C0.66 3.34 1.32 2.68 2 2 C1.34 1.34 0.68 0.68 0 0 Z " fill="#2B2F2F" transform="translate(219,182)"/>
<path d="M0 0 C2.64752004 2.57784846 4.94432065 4.91648098 7 8 C6.01 8.66 5.02 9.32 4 10 C2 8.375 2 8.375 0 6 C-0.25 2.75 -0.25 2.75 0 0 Z " fill="#434141" transform="translate(155,256)"/>
<path d="M0 0 C2.31 0 4.62 0 7 0 C7 1.65 7 3.3 7 5 C4.36 4.67 1.72 4.34 -1 4 C-0.34 3.67 0.32 3.34 1 3 C0.67 2.01 0.34 1.02 0 0 Z " fill="#2F2F2E" transform="translate(183,160)"/>
<path d="M0 0 C-0.33 0.99 -0.66 1.98 -1 3 C-1.763125 2.9175 -2.52625 2.835 -3.3125 2.75 C-6.14583333 2.70833333 -6.14583333 2.70833333 -7.8125 5 C-8.204375 5.66 -8.59625 6.32 -9 7 C-9.33 5.35 -9.66 3.7 -10 2 C-6.49223216 0.39644899 -3.85645121 -0.22036864 0 0 Z " fill="#93D6F1" transform="translate(224,269)"/>
<path d="M0 0 C0.33 0.99 0.66 1.98 1 3 C-1.97 5.475 -1.97 5.475 -5 8 C-5.66 7.67 -6.32 7.34 -7 7 C-5.66667905 3.00003714 -3.5042173 2.16217663 0 0 Z " fill="#ADE5F8" transform="translate(105,64)"/>
<path d="M0 0 C2.31 0 4.62 0 7 0 C6.3125 1.9375 6.3125 1.9375 5 4 C2.375 4.75 2.375 4.75 0 5 C0 3.35 0 1.7 0 0 Z " fill="#2F2F2F" transform="translate(162,119)"/>
<path d="M0 0 C2.51083114 1.25541557 2.87125446 2.50063488 4 5 C2.02 5.33 0.04 5.66 -2 6 C-1.34 5.67 -0.68 5.34 0 5 C0 4.34 0 3.68 0 3 C-1.98 3 -3.96 3 -6 3 C-3 1 -3 1 0 0 Z " fill="#454849" transform="translate(206,268)"/>
<path d="M0 0 C0.99 0.66 1.98 1.32 3 2 C3.66 1.67 4.32 1.34 5 1 C5.33 2.32 5.66 3.64 6 5 C5.01 5.66 4.02 6.32 3 7 C3 6.01 3 5.02 3 4 C1.68 4.33 0.36 4.66 -1 5 C-1 2 -1 2 0 0 Z " fill="#3D4143" transform="translate(226,184)"/>
<path d="M0 0 C3.63 0 7.26 0 11 0 C11 0.33 11 0.66 11 1 C6.545 1.495 6.545 1.495 2 2 C2 2.66 2 3.32 2 4 C2.66 4.66 3.32 5.32 4 6 C2.35 5.67 0.7 5.34 -1 5 C-0.67 3.35 -0.34 1.7 0 0 Z " fill="#36444A" transform="translate(117,127)"/>
<path d="M0 0 C-5.37180176 2.62875405 -10.04492601 3.6083965 -16 4 C-13.41588269 2.27725513 -11.45097344 1.31104478 -8.5625 0.3125 C-7.41974609 -0.09548828 -7.41974609 -0.09548828 -6.25390625 -0.51171875 C-3.78170279 -1.04729142 -2.37016716 -0.80445309 0 0 Z " fill="#AAE6F7" transform="translate(144,49)"/>
<path d="M0 0 C-0.99 1.485 -0.99 1.485 -2 3 C-2.66 3 -3.32 3 -4 3 C-4.66 4.32 -5.32 5.64 -6 7 C-7.33332095 4.3333581 -6.67102033 2.83319697 -6 0 C-2.25 -1.125 -2.25 -1.125 0 0 Z " fill="#99D4E9" transform="translate(287,273)"/>
<path d="M0 0 C0.66 0.33 1.32 0.66 2 1 C2.4140625 3.06640625 2.4140625 3.06640625 2.625 5.5625 C2.69976562 6.38878906 2.77453125 7.21507812 2.8515625 8.06640625 C2.92503906 9.02353516 2.92503906 9.02353516 3 10 C1.68 9.67 0.36 9.34 -1 9 C-0.67 6.03 -0.34 3.06 0 0 Z " fill="#313332" transform="translate(147,239)"/>
<path d="M0 0 C1.98 0 3.96 0 6 0 C6 1.32 6 2.64 6 4 C4.1875 4.6875 4.1875 4.6875 2 5 C0.25 3.5625 0.25 3.5625 -1 2 C-0.67 1.34 -0.34 0.68 0 0 Z " fill="#8FCDE6" transform="translate(209,168)"/>
<path d="M0 0 C1.65 0.33 3.3 0.66 5 1 C4.01 2.485 4.01 2.485 3 4 C-0.625 4.1875 -0.625 4.1875 -4 4 C-4.33 3.34 -4.66 2.68 -5 2 C-3.35 1.67 -1.7 1.34 0 1 C0 0.67 0 0.34 0 0 Z " fill="#94D9F1" transform="translate(203,276)"/>
<path d="M0 0 C1.98 0 3.96 0 6 0 C5.67 1.32 5.34 2.64 5 4 C3.35 4 1.7 4 0 4 C0 2.68 0 1.36 0 0 Z " fill="#323133" transform="translate(200,271)"/>
<path d="M0 0 C2.0625 0.4375 2.0625 0.4375 4 1 C3.67 2.98 3.34 4.96 3 7 C2.67 6.34 2.34 5.68 2 5 C1.34 5 0.68 5 0 5 C-0.5625 3.0625 -0.5625 3.0625 -1 1 C-0.67 0.67 -0.34 0.34 0 0 Z " fill="#30302E" transform="translate(211,177)"/>
<path d="M0 0 C1.32 0.33 2.64 0.66 4 1 C4 1.66 4 2.32 4 3 C4.99 3.66 5.98 4.32 7 5 C4.1875 5.625 4.1875 5.625 1 6 C0.01 5.34 -0.98 4.68 -2 4 C-1.01 3.34 -0.02 2.68 1 2 C0.67 1.34 0.34 0.68 0 0 Z " fill="#3C3C3E" transform="translate(180,160)"/>
<path d="M0 0 C1.9451 2.91765 2.45276317 4.62537285 3 8 C2.01 8.66 1.02 9.32 0 10 C-2 8 -2 8 -3 6 C-2.01 6 -1.02 6 0 6 C0 4.02 0 2.04 0 0 Z " fill="#525357" transform="translate(149,242)"/>
<path d="M0 0 C0.33 0.66 0.66 1.32 1 2 C0.34 2 -0.32 2 -1 2 C-1 2.66 -1 3.32 -1 4 C-1.66 4 -2.32 4 -3 4 C-3.66 5.32 -4.32 6.64 -5 8 C-5.99 8 -6.98 8 -8 8 C-8 7.34 -8 6.68 -8 6 C-4.53846154 3 -4.53846154 3 -2 3 C-2 2.34 -2 1.68 -2 1 C-1.34 0.67 -0.68 0.34 0 0 Z " fill="#B4E6FA" transform="translate(94,72)"/>
<path d="M0 0 C0.99 0.33 1.98 0.66 3 1 C3 2.32 3 3.64 3 5 C2.34 5 1.68 5 1 5 C0.67 5.66 0.34 6.32 0 7 C-0.66 6.01 -1.32 5.02 -2 4 C-1.34 2.68 -0.68 1.36 0 0 Z " fill="#444748" transform="translate(190,161)"/>
<path d="M0 0 C1.32 0.33 2.64 0.66 4 1 C4 1.66 4 2.32 4 3 C0.78548731 4.60725635 -2.43612536 4.05748185 -6 4 C-6 3.67 -6 3.34 -6 3 C-4.02 2.67 -2.04 2.34 0 2 C0 1.34 0 0.68 0 0 Z " fill="#81BBD3" transform="translate(188,156)"/>
<path d="M0 0 C0.99 0.33 1.98 0.66 3 1 C3.33 2.98 3.66 4.96 4 7 C3.34 6.67 2.68 6.34 2 6 C2 5.34 2 4.68 2 4 C1.34 4 0.68 4 0 4 C-0.33 3.01 -0.66 2.02 -1 1 C-0.67 0.67 -0.34 0.34 0 0 Z " fill="#A9E2F7" transform="translate(65,259)"/>
<path d="M0 0 C0.66 0.33 1.32 0.66 2 1 C2 1.99 2 2.98 2 4 C2.66 4 3.32 4 4 4 C3.67 4.66 3.34 5.32 3 6 C1.68 5.67 0.36 5.34 -1 5 C-0.67 3.35 -0.34 1.7 0 0 Z " fill="#403E3F" transform="translate(151,250)"/>
<path d="M0 0 C3.3 0 6.6 0 10 0 C10.33 1.32 10.66 2.64 11 4 C10.484375 3.690625 9.96875 3.38125 9.4375 3.0625 C6.33334577 1.70940713 3.34884993 1.38640576 0 1 C0 0.67 0 0.34 0 0 Z " fill="#7EABBC" transform="translate(219,181)"/>
<path d="M0 0 C2.31 0 4.62 0 7 0 C7.33 1.32 7.66 2.64 8 4 C5.36 3.34 2.72 2.68 0 2 C0 1.34 0 0.68 0 0 Z " fill="#90D4EB" transform="translate(220,177)"/>
</svg>
